# Blender 4.2.0
# www.blender.org
mtllib Untitled.007.mtl
o Untitled.007
v -14.902260 0.700000 3.686073
v -14.902260 1.100000 3.886073
v -14.902260 1.100000 3.686073
v -14.802259 1.200000 3.686073
v -14.702259 0.600000 3.886073
v -14.702259 1.200000 3.886073
v -14.702259 1.200000 3.686073
v -14.702259 1.600000 3.486073
v -14.702259 1.700000 4.086072
v -14.702259 1.700000 3.486073
v -14.702259 1.900000 3.386073
v -14.702259 2.100000 4.186073
v -14.602260 1.900000 3.486073
v -14.602260 1.900000 3.386073
v -14.602260 2.200000 3.986073
v -14.602260 2.200000 3.586073
v -14.502259 1.200000 3.686073
v -14.502259 1.300000 3.886073
v -14.502259 1.800000 3.286073
v -14.502259 1.900000 3.386073
v -14.502259 1.900000 3.286073
v -14.402260 1.200000 3.986073
v -14.402260 1.200000 3.386073
v -14.402260 1.400000 3.386073
v -14.402260 1.400000 3.286073
v -14.402260 1.700000 3.386073
v -14.402260 1.800000 3.286073
v -14.202259 -0.000000 3.586073
v -14.202259 0.100000 3.686073
v -13.902260 1.700000 4.186073
v -13.902260 1.700000 4.086072
v -14.702259 1.700000 4.186073
v -14.502259 0.100000 3.686073
v -14.502259 0.400000 3.686073
v -14.402260 0.000000 4.086073
v -14.402260 0.100000 4.086073
v -14.402260 0.100000 3.986073
v -14.402260 0.100000 3.686073
v -14.402260 0.400000 3.986073
v -14.402260 0.400000 3.686073
v -14.202259 1.200000 3.886073
v -14.202259 1.200000 3.686073
v -14.202259 1.200000 3.586073
v -14.202259 1.300000 3.886073
v -14.202259 1.400000 3.686073
v -14.202259 1.800000 3.386073
v -14.202259 1.800000 3.286073
v -14.102260 1.200000 3.886073
v -14.102260 1.900000 3.286073
v -14.002259 0.100000 3.886073
v -14.002259 1.900000 3.386073
v -14.002259 2.100000 3.986073
v -14.002259 2.100000 3.586073
v -13.902260 0.100000 3.886073
v -13.902260 0.600000 3.886073
v -13.902260 0.700000 3.886073
v -13.902260 1.200000 3.886073
v -13.902260 1.400000 3.486073
v -13.902260 1.600000 3.486073
v -13.902260 1.700000 3.486073
v -13.902260 2.100000 3.486073
v -13.802259 1.200000 3.686073
v -13.802259 1.600000 3.486073
v -13.802259 1.900000 4.186073
v -13.802259 1.900000 3.486073
v -14.802259 1.700000 4.186073
v -14.702259 1.900000 4.186073
v -13.902260 2.100000 4.186073
v -14.702259 0.100000 4.086073
v -13.902260 0.000000 4.086073
v -13.902260 0.100000 4.086073
v -13.902260 1.400000 4.086072
v -14.702259 1.200000 3.986073
v -14.602260 0.100000 3.986073
v -14.402260 1.300000 3.986073
v -14.202259 0.400000 3.986073
v -14.202259 1.200000 3.986073
v -14.202259 1.300000 3.986073
v -14.002259 0.100000 3.986073
v -14.002259 2.200000 3.986073
v -13.902260 0.600000 3.986073
v -14.902260 0.700000 3.886073
v -14.802259 1.100000 3.886073
v -14.802259 1.200000 3.886073
v -14.802259 1.600000 3.886073
v -14.802259 1.700000 3.886073
v -14.702259 0.700000 3.886073
v -14.702259 1.600000 3.886073
v -14.702259 1.700000 3.886073
v -14.602260 0.100000 3.886073
v -14.502259 1.200000 3.886073
v -14.402260 1.400000 3.886073
v -14.202259 1.400000 3.886073
v -13.902260 1.700000 3.886073
v -13.802259 1.100000 3.886073
v -13.802259 1.200000 3.886073
v -13.802259 1.600000 3.886073
v -13.802259 1.700000 3.886073
v -13.702259 1.100000 3.886073
v -14.502259 1.300000 3.686073
v -14.402260 1.300000 3.686073
v -14.402260 1.400000 3.686073
v -14.102260 0.100000 3.686073
v -14.102260 1.200000 3.686073
v -14.102260 1.300000 3.686073
v -13.802259 1.100000 3.686073
v -14.702259 1.200000 3.586073
v -14.602260 2.100000 3.586073
v -14.502259 0.400000 3.586073
v -14.402260 1.200000 3.586073
v -14.202259 1.300000 3.586073
v -14.102260 0.100000 3.586073
v -14.802259 1.600000 3.486073
v -14.802259 1.900000 3.486073
v -14.702259 1.900000 3.486073
v -14.702259 2.100000 3.486073
v -14.402260 1.700000 3.486073
v -13.902260 1.900000 3.486073
v -14.702259 1.700000 3.386073
v -14.602260 2.000000 3.386073
v -14.502259 1.800000 3.386073
v -14.202259 1.200000 3.386073
v -14.202259 1.700000 3.386073
v -14.102260 1.800000 3.386073
v -14.102260 1.900000 3.386073
v -14.202259 1.400000 3.286073
v -14.102260 1.800000 3.286073
v -14.702259 0.000000 4.086073
v -14.202259 0.000000 4.086073
v -14.702259 -0.000000 3.586073
v -14.402260 -0.000000 3.586073
v -13.902260 -0.000000 3.586073
v -14.202259 0.400000 3.686073
v -14.102260 0.400000 3.686073
v -14.102260 0.400000 3.586073
v -14.702259 0.600000 3.986073
v -14.602260 0.600000 3.986073
v -14.002259 0.600000 3.986073
v -14.602260 0.600000 3.886073
v -14.002259 0.600000 3.886073
v -13.702259 0.700000 3.886073
v -14.702259 0.700000 3.686073
v -13.902260 0.700000 3.686073
v -13.702259 0.700000 3.686073
v -14.402260 1.200000 3.486073
v -14.202259 1.200000 3.486073
v -14.702259 1.400000 4.086072
v -14.702259 1.400000 3.486073
v -14.402260 1.400000 3.486073
v -14.202259 1.400000 3.486073
v -14.202259 1.400000 3.386073
v -13.902260 1.600000 3.886073
v -13.802259 1.700000 4.186073
v -14.202259 1.700000 3.486073
v -13.902260 1.700000 3.386073
v -14.402260 1.800000 3.386073
v -14.702259 1.900000 4.086072
v -13.902260 1.900000 4.086072
v -14.202259 0.100000 4.086073
v -14.202259 0.100000 3.986073
v -14.702259 0.100000 3.886073
v -14.502259 0.100000 3.586073
v -14.402260 0.100000 3.586073
v -14.202259 0.100000 3.586073
v -14.802259 1.100000 3.686073
v -13.702259 1.100000 3.686073
v -13.902260 1.200000 3.986073
v -14.402260 1.200000 3.886073
v -14.402260 1.200000 3.686073
v -13.902260 1.200000 3.686073
v -13.902260 1.200000 3.586073
v -14.402260 1.300000 3.886073
v -14.102260 1.300000 3.886073
v -14.202259 1.300000 3.686073
v -14.402260 1.300000 3.586073
v -14.802259 1.900000 4.186073
v -13.902260 1.900000 4.186073
v -14.002259 1.900000 3.486073
v -13.902260 1.900000 3.386073
v -14.602260 2.000000 3.486073
v -14.002259 2.000000 3.486073
v -14.002259 2.000000 3.386073
v -14.602260 2.100000 3.986073
v -14.002259 2.200000 3.586073
vn 1.0000 -0.0000 -0.0000
vn -0.0000 -0.0000 1.0000
vn -1.0000 -0.0000 -0.0000
vn -0.0000 -1.0000 -0.0000
vn -0.0000 1.0000 -0.0000
vn -0.0000 -0.0000 -1.0000
vt 0.142857 0.885714
vt 0.114286 0.942857
vt 0.114286 0.885714
vt 0.457143 0.857143
vt 0.628571 0.828571
vt 0.628571 0.857143
vt 0.600000 0.485714
vt 0.657143 0.571429
vt 0.657143 0.371429
vt 0.628571 0.942857
vt 0.571429 0.914286
vt 0.628571 0.914286
vt 0.942857 0.714286
vt 0.914286 0.771429
vt 0.942857 0.771429
vt 0.342857 0.914286
vt 0.428571 0.885714
vt 0.428571 0.914286
vt 0.857143 0.857143
vt 0.742857 0.885714
vt 0.857143 0.885714
vt 0.228571 0.942857
vt 0.171429 0.914286
vt 0.171429 0.942857
vt 0.542857 0.685714
vt 0.542857 0.600000
vt 0.514286 0.714286
vt 0.971429 0.171429
vt 0.942857 0.228571
vt 0.942857 0.171429
vt 0.285714 0.914286
vt 0.314286 0.942857
vt 0.314286 0.914286
vt 0.714286 0.828571
vt 0.742857 0.885714
vt 0.742857 0.828571
vt 0.714286 0.742857
vt 0.657143 0.800000
vt 0.714286 0.800000
vt 0.457143 0.257143
vt 0.685714 0.171429
vt 0.685714 0.257143
vt 0.685714 0.485714
vt 0.657143 0.371429
vt 0.742857 0.371429
vt 0.057143 0.971429
vt 0.085714 0.942857
vt 0.085714 0.971429
vt 0.914286 0.000000
vt 0.942857 0.114286
vt 0.942857 0.000000
vt 0.000000 0.942857
vt 0.057143 0.885714
vt 0.057143 0.942857
vt 0.828571 0.942857
vt 0.800000 0.914286
vt 0.828571 0.914286
vt 0.514286 0.571429
vt 0.342857 0.685714
vt 0.514286 0.685714
vt 0.600000 0.742857
vt 0.542857 0.742857
vt 0.542857 0.800000
vt 0.942857 0.114286
vt 0.914286 0.228571
vt 0.914286 0.114286
vt 0.457143 0.371429
vt 0.685714 0.314286
vt 0.685714 0.371429
vt 0.628571 0.857143
vt 0.485714 0.885714
vt 0.485714 0.857143
vt 0.600000 0.114286
vt 0.600000 0.057143
vt 0.685714 0.914286
vt 0.600000 0.885714
vt 0.685714 0.885714
vt 0.228571 0.857143
vt 0.342857 0.800000
vt 0.314286 0.828571
vt 0.828571 0.857143
vt 0.742857 0.714286
vt 0.828571 0.714286
vt 0.885714 0.914286
vt 0.857143 0.942857
vt 0.885714 0.942857
vt 0.028571 0.971429
vt 0.942857 0.457143
vt 0.914286 0.342857
vt 0.942857 0.342857
vt 0.857143 0.914286
vt 0.828571 0.942857
vt 0.857143 0.942857
vt 0.914286 0.942857
vt 0.914286 0.914286
vt 0.885714 0.714286
vt 0.914286 0.571429
vt 0.914286 0.714286
vt 0.457143 0.800000
vt 0.342857 0.857143
vt 0.342857 0.800000
vt 0.285714 0.942857
vt 0.228571 0.914286
vt 0.285714 0.914286
vt 0.200000 0.942857
vt 0.228571 0.971429
vt 0.228571 0.942857
vt 0.114286 0.971428
vt 0.085714 0.942857
vt 0.114286 0.942857
vt 0.200000 0.600000
vt 0.171429 0.600000
vt 0.000000 0.514286
vt 0.857143 0.685714
vt 0.828571 0.714286
vt 0.828571 0.571429
vt 0.914286 0.342857
vt 0.857143 0.285714
vt 0.914286 0.285714
vt 0.942857 0.885714
vt 0.942857 0.942857
vt 0.342857 0.942857
vt 0.314286 0.857143
vt 0.314286 0.942857
vt 0.314286 0.314286
vt 0.257143 0.142857
vt 0.314286 0.085714
vt 0.171429 0.885714
vt -0.000000 0.857143
vt -0.000000 0.885714
vt 0.800000 0.142857
vt 0.771429 0.114286
vt 0.714286 0.114286
vt 0.942857 0.828571
vt 0.914286 0.885714
vt 0.942857 0.885714
vt 0.028571 0.942857
vt -0.000000 0.971429
vt -0.000000 0.942857
vt 0.171429 0.714286
vt 0.057143 0.714286
vt 0.028571 0.742857
vt 0.142857 0.942857
vt 0.114286 0.971428
vt 0.142857 0.971428
vt 0.228571 0.885714
vt 0.257143 0.914286
vt 0.314286 0.971429
vt 0.342857 0.971429
vt 0.285714 0.942857
vt 0.257143 0.971429
vt 0.257143 0.942857
vt 0.200000 0.971429
vt 0.171429 0.942857
vt 0.200000 0.942857
vt 0.428571 0.714286
vt 0.371429 0.714286
vt 0.342857 0.685714
vt 0.885714 0.914286
vt 0.885714 0.857143
vt 0.942857 0.057143
vt 0.971429 -0.000000
vt 0.971429 0.057143
vt 0.885714 0.142857
vt 0.914286 0.000000
vt 0.914286 0.142857
vt 0.857143 0.285714
vt 0.885714 0.257143
vt 0.914286 0.142857
vt 0.714286 0.228571
vt 0.800000 0.142857
vt 0.714286 0.200000
vt 0.885714 0.142857
vt 0.800000 -0.000000
vt 0.885714 -0.000000
vt 0.228571 0.942857
vt 0.314286 0.914286
vt 0.257143 0.857143
vt 0.314286 0.857143
vt 0.542857 0.057143
vt 0.457143 0.000000
vt 0.542857 0.000000
vt 0.514286 0.828571
vt 0.485714 0.800000
vt 0.457143 0.685714
vt 0.457143 0.914286
vt 0.400000 0.942857
vt 0.457143 0.942857
vt 0.800000 0.657143
vt 0.142857 0.342857
vt 0.171429 0.114286
vt 0.057143 0.114286
vt 0.942857 0.114286
vt 0.971429 0.057143
vt 0.971429 0.114286
vt 0.914286 0.685714
vt 0.942857 0.628572
vt 0.942857 0.600000
vt 0.914286 0.628571
vt 0.942857 0.542857
vt 0.942857 0.771429
vt 0.914286 0.828571
vt 0.942857 0.828571
vt 0.914286 0.714286
vt 0.914286 0.914286
vt 0.457143 0.371429
vt 0.228571 0.342857
vt 0.457143 0.342857
vt 0.685714 0.885714
vt 0.771429 0.914286
vt 0.771429 0.885714
vt 0.742857 0.542857
vt 0.828571 0.485714
vt 0.800000 0.485714
vt 0.457143 0.914286
vt 0.514286 0.942857
vt 0.514286 0.914286
vt 0.914286 0.371429
vt 0.885714 0.571429
vt 0.942857 0.114286
vt 0.971429 0.171429
vt 0.971429 0.114286
vt 0.400000 0.914286
vt 0.400000 0.942857
vt 0.857143 0.371429
vt 0.914286 0.342857
vt 0.200000 0.457143
vt 0.171429 0.457143
vt 0.342857 0.485714
vt 0.428571 0.914286
vt 0.514286 0.885714
vt 0.857143 0.342857
vt 0.857143 0.142857
vt 0.171429 0.885714
vt 0.142857 0.942857
vt 0.657143 0.857143
vt 0.628571 0.828571
vt 0.628571 0.885714
vt 0.942857 0.542857
vt 0.914286 0.457143
vt 0.914286 0.542857
vt 0.571429 0.371429
vt 0.342857 0.371429
vt 0.542857 0.400000
vt 0.971429 0.228571
vt 0.942857 0.257143
vt 0.942857 0.228571
vt 0.857143 0.342857
vt 0.685714 0.371429
vt 0.857143 0.371429
vt 0.685714 0.342857
vt 0.800000 0.285714
vt 0.685714 0.285714
vt 0.314286 0.742857
vt 0.314286 0.714286
vt 0.228571 0.657143
vt 0.885714 0.371429
vt 0.828571 0.371429
vt 0.142857 0.828571
vt 0.057143 0.828571
vt 0.000000 0.857143
vt 0.571429 0.914286
vt 0.171429 0.971429
vt 0.171429 0.942857
vt 0.685714 0.942857
vt 0.685714 0.914286
vt 0.942857 0.285714
vt 0.971429 0.257143
vt 0.971429 0.285714
vt 0.800000 0.914286
vt 0.771429 0.942857
vt 0.800000 0.942857
vt 0.657143 0.600000
vt 0.657143 0.685714
vt 0.628572 0.714286
vt 0.857143 0.828571
vt 0.885714 0.857143
vt 0.828571 0.714286
vt 0.971429 0.314286
vt 0.942857 0.314286
vt 0.342857 0.857143
vt 0.371429 0.514286
vt 0.571429 0.571429
vt 0.542857 0.514286
vt 0.314286 0.971429
vt 0.285714 0.942857
vt 0.285714 0.971429
vt 0.114286 0.942857
vt 0.600000 0.914286
vt 0.600000 0.885714
vt 0.000000 0.800000
vt 0.228571 0.800000
vt 0.028571 0.771429
vt 0.857143 0.885714
vt 0.771429 0.914286
vt 0.771429 0.885714
vt 0.771429 0.914286
vt 0.742857 0.942857
vt 0.742857 0.914286
vt 0.742857 0.914286
vt 0.685714 0.942857
vt 0.685714 0.914286
vt 0.942857 0.342857
vt 0.914286 0.228571
vt 0.942857 0.228571
vt 0.457143 0.828571
vt 0.571429 0.371429
vt 0.571429 0.485714
vt 0.600000 0.571429
vt 0.571429 0.942857
vt 0.914286 0.714286
vt 0.342857 0.885714
vt 0.742857 0.857143
vt 0.228571 0.914286
vt 0.628571 0.685714
vt 0.628571 0.600000
vt 0.542857 0.571429
vt 0.542857 0.714286
vt 0.971429 0.228571
vt 0.714286 0.885714
vt 0.714286 0.714286
vt 0.628571 0.714286
vt 0.628571 0.742857
vt 0.657143 0.742857
vt 0.628571 0.800000
vt 0.628571 0.828571
vt 0.742857 0.800000
vt 0.742857 0.742857
vt 0.685714 0.314286
vt 0.457143 0.314286
vt 0.457143 0.171429
vt 0.742857 0.571429
vt 0.685714 0.571429
vt 0.657143 0.485714
vt 0.914286 0.114286
vt 0.000000 0.885714
vt 0.800000 0.942857
vt 0.342857 0.571429
vt 0.542857 0.828571
vt 0.600000 0.800000
vt 0.542857 0.714286
vt 0.514286 0.742857
vt 0.514286 0.800000
vt 0.457143 0.314286
vt 0.542857 0.114286
vt 0.600000 0.000000
vt 0.685714 0.000000
vt 0.600000 0.914286
vt 0.171429 0.857143
vt 0.171429 0.828571
vt 0.228571 0.828571
vt 0.228571 0.800000
vt 0.314286 0.857143
vt 0.342857 0.828571
vt 0.742857 0.857143
vt 0.857143 0.914286
vt 0.028571 0.942857
vt 0.914286 0.457143
vt 0.828571 0.914286
vt 0.457143 0.857143
vt 0.228571 0.942857
vt 0.200000 0.971429
vt 0.085714 0.971428
vt 0.342857 0.514286
vt 0.342857 0.542857
vt 0.200000 0.542857
vt 0.028571 0.657143
vt 0.000000 0.657143
vt 0.028571 0.600000
vt 0.342857 0.600000
vt 0.342857 0.628571
vt 0.171429 0.628571
vt 0.885714 0.571429
vt 0.885714 0.685714
vt 0.857143 0.714286
vt 0.857143 0.342857
vt 0.428571 0.142857
vt 0.457143 0.142857
vt 0.457143 0.314286
vt 0.371429 0.314286
vt 0.371429 0.342857
vt 0.314286 0.342857
vt 0.371429 0.000000
vt 0.428571 0.000000
vt 0.371429 0.085714
vt 0.228571 0.314286
vt 0.228571 0.142857
vt 0.257143 0.000000
vt 0.314286 0.000000
vt 0.171429 0.857143
vt 0.685714 0.114286
vt 0.685714 0.142857
vt 0.800000 0.114286
vt 0.771429 0.000000
vt 0.714286 0.000000
vt 0.914286 0.828571
vt 0.028571 0.971429
vt 0.228571 0.714286
vt 0.142857 0.657143
vt 0.142857 0.685714
vt 0.171429 0.685714
vt 0.200000 0.742857
vt 0.200000 0.714286
vt 0.000000 0.714286
vt 0.028571 0.714286
vt 0.085714 0.685714
vt 0.085714 0.657143
vt 0.057143 0.685714
vt 0.114286 0.942857
vt 0.257143 0.857143
vt 0.228571 0.857143
vt 0.171429 0.885714
vt 0.171429 0.971429
vt 0.457143 0.714286
vt 0.428571 0.800000
vt 0.371429 0.800000
vt 0.342857 0.714286
vt 0.857143 0.914286
vt 0.942857 -0.000000
vt 0.885714 0.000000
vt 0.857143 0.142857
vt 0.885714 0.285714
vt 0.914286 0.257143
vt 0.685714 0.200000
vt 0.685714 0.285714
vt 0.714286 0.285714
vt 0.800000 0.228571
vt 0.714286 0.142857
vt 0.800000 0.142857
vt 0.228571 0.971429
vt 0.514286 0.685714
vt 0.485714 0.828571
vt 0.400000 0.914286
vt 0.742857 0.542857
vt 0.800000 0.542857
vt 0.828571 0.657143
vt 0.085714 0.342857
vt 0.085714 0.371429
vt 0.142857 0.371429
vt 0.228571 0.342857
vt 0.228571 0.000000
vt 0.000000 0.000000
vt 0.000000 0.342857
vt 0.085714 0.028571
vt 0.085714 0.000000
vt 0.057143 0.028571
vt 0.142857 0.000000
vt 0.142857 0.028571
vt 0.171429 0.028571
vt 0.942857 0.057143
vt 0.942857 0.714286
vt 0.914286 0.628572
vt 0.942857 0.628571
vt 0.914286 0.542857
vt 0.914286 0.771429
vt 0.228571 0.371429
vt 0.800000 0.371429
vt 0.742857 0.371429
vt 0.828571 0.542857
vt 0.457143 0.942857
vt 0.885714 0.371429
vt 0.942857 0.171429
vt 0.342857 0.914286
vt 0.857143 0.342857
vt 0.200000 0.400000
vt 0.342857 0.400000
vt 0.342857 0.371429
vt 0.000000 0.371429
vt 0.000000 0.514286
vt 0.028571 0.514286
vt 0.028571 0.457143
vt 0.342857 0.457143
vt 0.171429 0.485714
vt 0.428571 0.885714
vt 0.800000 0.342857
vt 0.714286 0.857143
vt 0.657143 0.828571
vt 0.342857 0.571429
vt 0.371429 0.400000
vt 0.971429 0.257143
vt 0.685714 0.342857
vt 0.228571 0.742857
vt 0.314286 0.800000
vt 0.342857 0.800000
vt 0.342857 0.714286
vt 0.314286 0.657143
vt 0.057143 0.857143
vt 0.142857 0.857143
vt 0.171429 0.828571
vt 0.171429 0.800000
vt 0.057143 0.800000
vt 0.000000 0.828571
vt 0.571429 0.942857
vt 0.142857 0.971429
vt 0.628572 0.571429
vt 0.742857 0.600000
vt 0.742857 0.685714
vt 0.657143 0.714286
vt 0.857143 0.857143
vt 0.885714 0.714286
vt 0.828571 0.828571
vt 0.342857 0.885714
vt 0.314286 0.942857
vt 0.114286 0.885714
vt 0.200000 0.742857
vt 0.200000 0.771429
vt 0.028571 0.742857
vt 0.000000 0.742857
vt 0.857143 0.914286
vt 0.771429 0.942857
vt 0.742857 0.942857
s 0
usemtl Untitled.007_Material
f 45/1/1 44/2/1 174/3/1
f 15/4/2 52/5/2 80/6/2
f 86/7/3 176/8/3 114/9/3
f 151/10/4 25/11/4 126/12/4
f 165/13/5 2/14/5 83/15/5
f 69/16/2 35/17/2 36/18/2
f 49/19/5 20/20/5 125/21/5
f 45/22/6 101/23/6 102/24/6
f 160/25/3 29/26/3 129/27/3
f 105/28/1 48/29/1 104/30/1
f 14/31/3 180/32/3 120/33/3
f 165/34/3 84/35/3 4/36/3
f 170/37/5 48/38/5 57/39/5
f 9/40/2 72/41/2 31/42/2
f 98/43/1 63/44/1 65/45/1
f 94/46/2 97/47/2 98/48/2
f 108/49/3 15/50/3 16/51/3
f 149/52/2 146/53/2 150/54/2
f 137/55/4 5/56/4 139/57/4
f 184/58/5 15/59/5 80/60/5
f 17/61/5 7/62/5 6/63/5
f 184/64/1 52/65/1 53/66/1
f 12/67/2 177/68/2 68/69/2
f 140/70/1 79/71/1 50/72/1
f 72/41/4 93/73/4 45/74/4
f 60/75/4 123/76/4 155/77/4
f 150/78/1 47/79/1 123/80/1
f 35/81/4 130/82/4 131/83/4
f 14/84/5 115/85/5 13/86/5
f 86/87/2 88/54/2 89/46/2
f 97/88/4 59/89/4 63/90/4
f 163/91/5 33/92/5 38/93/5
f 19/84/3 20/94/3 21/95/3
f 140/96/2 54/97/2 55/98/2
f 166/99/1 141/100/1 144/101/1
f 146/102/4 23/103/4 122/104/4
f 168/105/3 75/106/3 172/107/3
f 81/108/4 140/109/4 55/110/4
f 56/111/1 55/112/1 132/113/1
f 95/114/2 57/115/2 56/116/2
f 141/117/4 143/118/4 144/119/4
f 101/120/5 18/94/5 172/121/5
f 134/122/6 29/123/6 133/124/6
f 22/125/2 137/126/2 39/127/2
f 184/128/6 108/129/6 16/130/6
f 49/131/6 47/132/6 27/133/6
f 105/134/5 44/135/5 173/136/5
f 49/137/1 124/138/1 127/139/1
f 125/140/6 20/141/6 120/142/6
f 179/143/5 178/144/5 118/145/5
f 79/146/5 159/23/5 71/147/5
f 18/148/2 168/122/2 172/149/2
f 111/150/1 42/151/1 43/152/1
f 156/153/4 19/154/4 27/155/4
f 133/156/4 40/157/4 109/158/4
f 101/19/3 92/159/3 102/160/3
f 176/161/2 32/162/2 67/163/2
f 5/164/2 90/165/2 139/166/2
f 170/167/6 106/168/6 144/169/6
f 10/170/6 149/171/6 8/172/6
f 70/173/4 28/174/4 132/175/4
f 110/176/3 101/151/3 175/152/3
f 87/177/4 1/178/4 142/179/4
f 102/180/4 148/181/4 149/182/4
f 6/183/2 83/184/2 82/185/2
f 111/186/5 101/187/5 174/188/5
f 152/189/1 31/83/1 72/82/1
f 43/190/6 135/191/6 109/192/6
f 177/193/2 153/194/2 64/195/2
f 30/98/4 31/196/4 98/197/4
f 9/198/4 66/199/4 89/200/4
f 166/201/5 95/202/5 99/203/5
f 65/204/5 177/159/5 64/205/5
f 177/206/4 157/207/4 158/208/4
f 112/209/3 134/210/3 135/211/3
f 147/212/3 89/213/3 88/214/3
f 119/215/3 115/216/3 11/217/3
f 115/218/5 176/219/5 67/97/5
f 17/220/3 18/221/3 100/222/3
f 44/223/5 75/122/5 78/224/5
f 92/225/2 44/226/2 93/218/2
f 87/227/3 5/228/3 73/229/3
f 159/230/2 70/231/2 71/217/2
f 115/171/3 12/232/3 116/233/3
f 62/234/1 95/235/1 106/1/1
f 74/236/5 161/237/5 69/238/5
f 40/239/6 33/240/6 34/241/6
f 61/242/5 116/243/5 53/244/5
f 44/245/1 77/246/1 41/247/1
f 182/248/5 180/249/5 181/250/5
f 82/251/3 3/252/3 1/253/3
f 60/254/6 59/255/6 150/256/6
f 61/257/1 177/116/1 118/258/1
f 26/259/3 24/260/3 145/261/3
f 179/262/1 60/216/1 155/217/1
f 124/263/4 47/235/4 127/264/4
f 31/12/3 177/265/3 158/266/3
f 44/267/2 48/268/2 173/269/2
f 112/270/5 29/271/5 103/272/5
f 38/273/1 37/274/1 35/275/1
f 165/276/6 7/277/6 1/278/6
f 101/279/6 17/267/6 100/280/6
f 90/281/3 137/71/3 139/72/3
f 183/282/5 68/283/5 52/284/5
f 105/285/6 42/286/6 174/287/6
f 151/288/6 23/53/6 24/54/6
f 117/289/4 119/231/4 26/290/4
f 116/291/6 61/292/6 180/293/6
f 109/294/1 33/295/1 162/296/1
f 182/297/1 178/298/1 51/299/1
f 157/300/1 32/301/1 9/302/1
f 88/303/4 113/304/4 8/305/4
f 45/1/1 93/235/1 44/2/1
f 15/4/2 183/306/2 52/5/2
f 114/9/3 113/307/3 85/308/3
f 86/7/3 66/309/3 176/8/3
f 114/9/3 85/308/3 86/7/3
f 151/10/4 24/310/4 25/11/4
f 165/13/5 3/311/5 2/14/5
f 69/16/2 128/312/2 35/17/2
f 49/19/5 21/313/5 20/20/5
f 45/22/6 174/314/6 101/23/6
f 160/25/3 76/315/3 133/316/3
f 29/26/3 164/317/3 28/58/3
f 160/25/3 133/316/3 29/26/3
f 129/27/3 159/318/3 160/25/3
f 29/26/3 28/58/3 129/27/3
f 105/28/1 173/319/1 48/29/1
f 14/31/3 13/286/3 180/32/3
f 165/34/3 83/320/3 84/35/3
f 170/37/5 171/321/5 43/322/5
f 43/322/5 42/323/5 104/324/5
f 48/38/5 41/325/5 77/326/5
f 170/37/5 43/322/5 104/324/5
f 48/38/5 77/326/5 167/34/5
f 170/37/5 104/324/5 48/38/5
f 96/327/5 62/328/5 170/37/5
f 48/38/5 167/34/5 57/39/5
f 57/39/5 96/327/5 170/37/5
f 158/329/2 157/330/2 9/40/2
f 9/40/2 147/331/2 72/41/2
f 31/42/2 158/329/2 9/40/2
f 65/45/1 64/332/1 153/333/1
f 98/43/1 97/334/1 63/44/1
f 65/45/1 153/333/1 98/43/1
f 94/46/2 152/54/2 97/47/2
f 108/49/3 183/335/3 15/50/3
f 149/52/2 145/336/2 146/53/2
f 137/55/4 136/337/4 5/56/4
f 184/58/5 16/338/5 15/59/5
f 6/63/5 73/339/5 22/326/5
f 22/326/5 168/325/5 91/340/5
f 17/61/5 169/323/5 110/322/5
f 6/63/5 22/326/5 91/340/5
f 17/61/5 110/322/5 107/341/5
f 6/63/5 91/340/5 17/61/5
f 4/342/5 84/343/5 6/63/5
f 17/61/5 107/341/5 7/62/5
f 7/62/5 4/342/5 6/63/5
f 184/64/1 80/247/1 52/65/1
f 12/67/2 67/344/2 177/68/2
f 140/70/1 138/238/1 79/71/1
f 147/331/4 102/180/4 92/345/4
f 147/331/4 92/345/4 93/73/4
f 150/346/4 58/347/4 72/41/4
f 45/74/4 149/182/4 150/346/4
f 72/41/4 147/331/4 93/73/4
f 45/74/4 150/346/4 72/41/4
f 60/75/4 154/348/4 123/76/4
f 150/78/1 146/349/1 122/350/1
f 151/351/1 126/352/1 47/79/1
f 150/78/1 122/350/1 151/351/1
f 123/80/1 154/353/1 150/78/1
f 47/79/1 46/354/1 123/80/1
f 150/78/1 151/351/1 47/79/1
f 35/81/4 128/355/4 130/82/4
f 14/84/5 11/356/5 115/85/5
f 86/87/2 85/357/2 88/54/2
f 97/88/4 152/358/4 59/89/4
f 163/91/5 162/359/5 33/92/5
f 19/84/3 121/86/3 20/94/3
f 140/96/2 50/219/2 54/97/2
f 166/99/1 99/360/1 141/100/1
f 146/102/4 145/361/4 23/103/4
f 168/105/3 22/362/3 75/106/3
f 81/108/4 138/363/4 140/109/4
f 132/113/1 171/364/1 170/365/1
f 132/113/1 170/365/1 143/366/1
f 71/367/1 70/368/1 132/113/1
f 54/369/1 71/367/1 132/113/1
f 132/113/1 143/366/1 56/111/1
f 56/111/1 57/370/1 167/371/1
f 167/371/1 81/372/1 55/112/1
f 55/112/1 54/369/1 132/113/1
f 56/111/1 167/371/1 55/112/1
f 56/116/2 141/373/2 99/374/2
f 95/114/2 96/375/2 57/115/2
f 56/116/2 99/374/2 95/114/2
f 141/117/4 56/376/4 143/118/4
f 101/120/5 100/135/5 18/94/5
f 134/122/6 103/100/6 29/123/6
f 138/377/2 81/378/2 167/379/2
f 77/380/2 78/381/2 75/382/2
f 138/377/2 167/379/2 77/380/2
f 160/383/2 79/384/2 138/377/2
f 76/385/2 160/383/2 138/377/2
f 138/377/2 77/380/2 75/382/2
f 22/125/2 73/386/2 136/387/2
f 138/377/2 75/382/2 22/125/2
f 39/127/2 76/385/2 138/377/2
f 74/388/2 37/389/2 39/127/2
f 22/125/2 136/387/2 137/126/2
f 137/126/2 74/388/2 39/127/2
f 39/127/2 138/377/2 22/125/2
f 184/128/6 53/390/6 108/129/6
f 19/391/6 21/392/6 49/131/6
f 49/131/6 127/393/6 47/132/6
f 47/132/6 126/394/6 25/395/6
f 27/133/6 19/391/6 49/131/6
f 47/132/6 25/395/6 27/133/6
f 105/134/5 174/396/5 44/135/5
f 49/137/1 125/397/1 124/138/1
f 179/398/6 155/256/6 123/399/6
f 123/399/6 46/400/6 124/401/6
f 179/398/6 123/399/6 124/401/6
f 120/142/6 182/402/6 51/403/6
f 51/403/6 179/398/6 124/401/6
f 51/403/6 124/401/6 125/140/6
f 119/368/6 11/404/6 14/405/6
f 156/406/6 26/407/6 119/368/6
f 121/408/6 156/406/6 119/368/6
f 121/408/6 119/368/6 14/405/6
f 20/141/6 121/408/6 14/405/6
f 120/142/6 51/403/6 125/140/6
f 20/141/6 14/405/6 120/142/6
f 179/143/5 51/409/5 178/144/5
f 71/147/5 54/410/5 50/411/5
f 79/146/5 160/412/5 159/23/5
f 71/147/5 50/411/5 79/146/5
f 18/148/2 91/124/2 168/122/2
f 111/150/1 174/287/1 42/151/1
f 156/153/4 121/413/4 19/154/4
f 109/158/4 135/185/4 134/414/4
f 133/156/4 76/415/4 39/416/4
f 109/158/4 134/414/4 133/156/4
f 40/157/4 34/417/4 109/158/4
f 133/156/4 39/416/4 40/157/4
f 101/19/3 172/418/3 92/159/3
f 176/161/2 66/419/2 32/162/2
f 5/164/2 161/420/2 90/165/2
f 144/169/6 143/421/6 170/167/6
f 170/167/6 62/422/6 106/168/6
f 106/168/6 166/423/6 144/169/6
f 113/424/6 114/425/6 115/426/6
f 10/170/6 117/427/6 149/171/6
f 113/424/6 115/426/6 10/170/6
f 149/171/6 148/428/6 8/172/6
f 8/172/6 113/424/6 10/170/6
f 70/173/4 129/429/4 28/174/4
f 110/176/3 169/430/3 101/151/3
f 87/177/4 82/147/4 1/178/4
f 149/182/4 45/74/4 102/180/4
f 102/180/4 147/331/4 148/181/4
f 82/185/2 87/431/2 6/183/2
f 6/183/2 84/432/2 83/184/2
f 83/184/2 2/99/2 82/185/2
f 111/186/5 175/433/5 101/187/5
f 72/82/1 58/434/1 59/435/1
f 152/189/1 94/436/1 31/83/1
f 72/82/1 59/435/1 152/189/1
f 110/437/6 175/438/6 111/439/6
f 43/190/6 171/440/6 132/441/6
f 110/437/6 111/439/6 43/190/6
f 130/442/6 107/443/6 110/437/6
f 163/444/6 131/445/6 130/442/6
f 162/446/6 163/444/6 130/442/6
f 130/442/6 110/437/6 43/190/6
f 132/441/6 28/447/6 164/448/6
f 132/441/6 164/448/6 112/449/6
f 109/192/6 162/446/6 130/442/6
f 132/441/6 112/449/6 135/191/6
f 109/192/6 130/442/6 43/190/6
f 43/190/6 132/441/6 135/191/6
f 177/193/2 30/450/2 153/194/2
f 98/197/4 153/451/4 30/98/4
f 31/196/4 94/452/4 98/197/4
f 9/198/4 32/453/4 66/199/4
f 66/199/4 86/454/4 89/200/4
f 166/201/5 106/455/5 95/202/5
f 65/204/5 118/96/5 177/159/5
f 177/206/4 67/456/4 157/207/4
f 112/209/3 103/266/3 134/210/3
f 8/457/3 148/458/3 147/212/3
f 147/212/3 9/459/3 89/213/3
f 88/214/3 8/457/3 147/212/3
f 119/215/3 10/460/3 115/216/3
f 115/218/5 114/461/5 176/219/5
f 17/220/3 91/462/3 18/221/3
f 44/223/5 172/463/5 75/122/5
f 92/225/2 172/464/2 44/226/2
f 142/465/3 7/466/3 107/467/3
f 130/468/3 128/469/3 69/470/3
f 130/468/3 69/470/3 161/471/3
f 142/465/3 107/467/3 130/468/3
f 73/229/3 6/472/3 87/227/3
f 87/227/3 142/465/3 130/468/3
f 130/468/3 161/471/3 5/228/3
f 5/228/3 136/473/3 73/229/3
f 87/227/3 130/468/3 5/228/3
f 159/230/2 129/474/2 70/231/2
f 115/171/3 67/475/3 12/232/3
f 62/234/1 96/264/1 95/235/1
f 69/238/5 36/320/5 37/476/5
f 74/236/5 90/477/5 161/237/5
f 69/238/5 37/476/5 74/236/5
f 40/239/6 38/88/6 33/240/6
f 53/244/5 52/284/5 68/283/5
f 116/243/5 12/478/5 183/282/5
f 116/243/5 183/282/5 108/479/5
f 53/244/5 68/283/5 61/242/5
f 116/243/5 108/479/5 53/244/5
f 44/245/1 78/480/1 77/246/1
f 182/248/5 120/481/5 180/249/5
f 82/251/3 2/475/3 3/252/3
f 150/256/6 154/482/6 60/254/6
f 60/254/6 118/483/6 65/484/6
f 65/484/6 63/485/6 59/255/6
f 59/255/6 58/486/6 150/256/6
f 60/254/6 65/484/6 59/255/6
f 61/257/1 68/373/1 177/116/1
f 149/487/3 117/488/3 26/259/3
f 26/259/3 156/489/3 27/490/3
f 27/490/3 25/491/3 24/260/3
f 24/260/3 23/492/3 145/261/3
f 145/261/3 149/487/3 26/259/3
f 26/259/3 27/490/3 24/260/3
f 179/262/1 118/493/1 60/216/1
f 124/263/4 46/494/4 47/235/4
f 31/12/3 30/10/3 177/265/3
f 44/267/2 41/246/2 48/268/2
f 112/270/5 164/210/5 29/271/5
f 35/275/1 131/495/1 163/8/1
f 38/273/1 40/496/1 39/497/1
f 35/275/1 163/8/1 38/273/1
f 37/274/1 36/498/1 35/275/1
f 38/273/1 39/497/1 37/274/1
f 165/276/6 4/499/6 7/277/6
f 7/277/6 142/500/6 1/278/6
f 1/278/6 3/501/6 165/276/6
f 101/279/6 169/269/6 17/267/6
f 90/281/3 74/502/3 137/71/3
f 183/282/5 12/478/5 68/283/5
f 105/285/6 104/503/6 42/286/6
f 151/288/6 122/504/6 23/53/6
f 117/289/4 10/217/4 119/231/4
f 61/292/6 118/482/6 178/505/6
f 61/292/6 178/505/6 181/506/6
f 13/507/6 115/508/6 116/291/6
f 61/292/6 181/506/6 180/293/6
f 180/293/6 13/507/6 116/291/6
f 109/294/1 34/509/1 33/295/1
f 182/297/1 181/510/1 178/298/1
f 157/300/1 67/511/1 32/301/1
f 88/303/4 85/117/4 113/304/4
