# Blender 4.2.0
# www.blender.org
mtllib Untitled.003.mtl
o Untitled.003
v -10.830128 0.600000 3.886073
v -10.830128 0.600000 3.686073
v -10.730127 1.100000 3.686073
v -10.730127 1.700000 4.186073
v -10.630128 0.000000 4.086073
v -10.630128 0.500000 3.886073
v -10.630128 1.200000 4.086073
v -10.630128 1.700000 4.086072
v -10.630128 1.700000 3.486073
v -10.630128 1.800000 3.486073
v -10.630128 1.900000 4.086072
v -10.630128 1.900000 3.486073
v -10.530128 0.100000 3.986073
v -10.530128 0.500000 3.986073
v -10.430128 1.200000 3.686073
v -10.230127 -0.000000 3.586073
v -10.230127 0.100000 4.086073
v -10.130128 0.100000 3.686073
v -10.130128 0.400000 3.586073
v -10.430128 0.000000 4.086073
v -10.430128 -0.000000 3.586073
v -10.430128 0.100000 4.086073
v -10.430128 0.100000 3.586073
v -10.130128 0.100000 3.986073
v -10.130128 0.500000 3.986073
v -10.030128 0.000000 4.086073
v -10.030128 0.100000 4.086073
v -10.030128 0.100000 3.886073
v -10.030128 1.800000 4.086072
v -10.030128 1.800000 3.486073
v -9.930128 1.000000 3.886073
v -9.930128 1.000000 3.686073
v -9.830128 0.600000 3.686073
v -9.830128 1.000000 3.886073
v -9.830128 1.000000 3.686073
v -10.230127 0.000000 4.086073
v -10.030128 1.200000 4.086073
v -10.030128 1.700000 4.086072
v -10.030128 1.900000 4.086072
v -10.630128 0.500000 3.986073
v -10.630128 1.100000 3.986073
v -10.430128 0.100000 3.986073
v -10.030128 0.500000 3.986073
v -10.430128 1.100000 3.886073
v -10.430128 1.200000 3.886073
v -10.230127 1.100000 3.886073
v -10.230127 1.200000 3.886073
v -10.130128 0.100000 3.886073
v -10.130128 0.500000 3.886073
v -10.030128 0.500000 3.886073
v -10.030128 1.100000 3.886073
v -9.930128 1.100000 3.886073
v -9.830128 0.600000 3.886073
v -10.630128 0.600000 3.686073
v -10.530128 0.100000 3.686073
v -10.430128 0.100000 3.686073
v -10.230127 0.400000 3.686073
v -10.230127 1.100000 3.686073
v -10.230127 1.200000 3.686073
v -10.030128 0.600000 3.686073
v -10.030128 1.100000 3.686073
v -9.930128 1.100000 3.686073
v -10.630128 -0.000000 3.586073
v -10.230127 0.100000 3.586073
v -10.030128 1.100000 3.586073
v -10.630128 1.200000 3.486073
v -10.030128 1.900000 3.486073
v -9.930128 1.700000 3.386073
v -9.930128 1.800000 3.386073
v -10.030128 -0.000000 3.586073
v -10.430128 0.400000 3.986073
v -10.230127 0.400000 3.986073
v -10.530128 0.400000 3.686073
v -10.430128 0.400000 3.686073
v -10.130128 0.400000 3.686073
v -10.530128 0.400000 3.586073
v -10.530128 0.500000 3.886073
v -10.630128 0.600000 3.886073
v -10.030128 0.600000 3.886073
v -10.030128 1.200000 3.486073
v -9.930128 1.700000 4.186073
v -10.030128 1.700000 3.486073
v -10.730127 1.700000 3.386073
v -10.630128 0.100000 4.086073
v -10.230127 0.100000 3.986073
v -10.630128 0.100000 3.886073
v -10.530128 0.100000 3.886073
v -10.230127 0.100000 3.686073
v -10.530128 0.100000 3.586073
v -10.130128 0.100000 3.586073
v -10.830128 1.000000 3.886073
v -10.730127 1.000000 3.886073
v -10.830128 1.000000 3.686073
v -10.730127 1.000000 3.686073
v -10.030128 1.100000 3.986073
v -10.730127 1.100000 3.886073
v -10.630128 1.100000 3.886073
v -10.630128 1.100000 3.686073
v -10.430128 1.100000 3.686073
v -10.630128 1.100000 3.586073
v -10.730127 1.800000 4.186073
v -9.930128 1.800000 4.186073
v -10.630128 1.800000 4.086072
v -10.730127 1.800000 3.386073
vn -1.0000 -0.0000 -0.0000
vn -0.0000 -0.0000 1.0000
vn -0.0000 -1.0000 -0.0000
vn -0.0000 1.0000 -0.0000
vn -0.0000 -0.0000 -1.0000
vn 1.0000 -0.0000 -0.0000
vt 0.838710 0.870968
vt 0.870968 0.935484
vt 0.870968 0.870968
vt 0.548387 0.709677
vt 0.741935 0.870968
vt 0.548387 0.870968
vt 0.612903 0.935484
vt 0.580645 0.903226
vt 0.612903 0.903226
vt 0.193548 0.548387
vt 0.000000 0.741935
vt 0.193548 0.741935
vt 0.935484 0.000000
vt 0.870968 0.129032
vt 0.903226 0.129032
vt 0.225806 0.483871
vt 0.193548 0.258065
vt 0.193548 0.516129
vt 0.483871 0.806452
vt 0.451613 0.838710
vt 0.451613 0.677419
vt 0.580645 0.903226
vt 0.548387 0.935484
vt 0.580645 0.935484
vt 0.548387 0.903226
vt 0.516129 0.935484
vt 0.548387 0.935484
vt 0.064516 0.419355
vt 0.000000 0.354839
vt 0.193548 0.354839
vt 0.774194 0.741936
vt 0.774194 0.838710
vt 0.741935 0.709678
vt 0.903226 0.709678
vt 0.870968 0.903226
vt 0.870968 0.709678
vt 0.645161 0.935484
vt 0.645161 0.903226
vt 0.516129 0.903226
vt 0.451613 0.838710
vt 0.516129 0.838710
vt 0.419355 0.290323
vt 0.451613 0.516129
vt 0.451613 0.258065
vt 0.870968 0.161290
vt 0.903226 0.419355
vt 0.903226 0.161290
vt 0.806452 0.000000
vt 0.645161 0.193548
vt 0.645161 0.000000
vt 0.419355 0.709677
vt 0.354839 0.774194
vt 0.419355 0.774194
vt 0.741935 0.225806
vt 0.677419 0.225806
vt 0.193548 0.903226
vt 0.000000 0.903226
vt 0.838710 0.129032
vt 0.870968 0.000000
vt 0.806452 0.000000
vt 0.322581 0.935484
vt 0.387097 0.903226
vt 0.387097 0.935484
vt 0.451613 0.516129
vt 0.709677 0.483871
vt 0.709677 0.516129
vt 0.387097 0.548387
vt 0.193548 0.516129
vt 0.225806 0.612903
vt 0.193548 0.870968
vt 0.322581 0.806452
vt 0.193548 0.806452
vt 0.451613 0.000000
vt 0.419355 0.032258
vt 0.225806 0.032258
vt 0.129032 0.483871
vt 0.000000 0.548387
vt 0.387097 0.935484
vt 0.451613 0.903226
vt 0.451613 0.935484
vt 0.709677 0.903226
vt 0.516129 0.870968
vt 0.516129 0.903226
vt 0.935484 0.870968
vt 0.903226 0.935484
vt 0.903226 0.870968
vt 0.838710 0.935484
vt 0.806452 0.870968
vt 0.806452 0.903226
vt 0.967742 0.000000
vt 0.935484 0.064516
vt 0.516129 0.096774
vt 0.451613 0.322581
vt 0.483871 0.129032
vt 0.935484 0.483871
vt 0.870968 0.419355
vt 0.935484 0.419355
vt 0.516129 0.677419
vt 0.548387 0.870968
vt 0.548387 0.677419
vt 0.870968 0.322581
vt 0.806452 0.161290
vt 0.870968 0.161290
vt 0.741935 0.645161
vt 0.741935 0.548387
vt 0.709677 0.677419
vt 0.548387 0.516129
vt 0.709677 0.709677
vt 0.709677 0.516129
vt 0.967742 0.064516
vt 0.935484 0.129032
vt 0.967742 0.129032
vt 0.935484 0.709677
vt 0.903226 0.612903
vt 0.903226 0.709677
vt 0.709677 0.677419
vt 0.838710 0.709677
vt 0.838710 0.677419
vt 0.451613 0.903226
vt 0.193548 0.870968
vt 0.193548 0.903226
vt 0.225806 0.774194
vt 0.419355 0.806452
vt 0.290323 0.774194
vt 0.741936 0.903226
vt 0.709677 0.870968
vt 0.709677 0.935484
vt 0.903226 0.806452
vt 0.935484 0.870968
vt 0.935484 0.806452
vt 0.774194 0.322581
vt 0.806452 0.193548
vt 0.806452 0.322581
vt 0.870968 0.483871
vt 0.806452 0.322581
vt 0.935484 0.161290
vt 0.838710 0.709677
vt 0.903226 0.677419
vt 0.903226 0.709677
vt 0.032258 0.129032
vt 0.000000 0.354839
vt 0.193548 0.354839
vt 0.129032 0.903226
vt 0.000000 0.935484
vt 0.000000 0.903226
vt 0.516129 0.935484
vt 0.451613 0.903226
vt 0.451613 0.935484
vt 0.903226 0.709678
vt 0.903226 0.806452
vt 0.967742 0.161290
vt 0.935484 0.225806
vt 0.967742 0.225806
vt 0.193548 0.258065
vt 0.193548 0.000000
vt 0.225806 0.225806
vt 0.451613 0.322581
vt 0.645161 0.419355
vt 0.612903 0.419355
vt 0.322581 0.903226
vt 0.225806 0.935484
vt 0.225806 0.903226
vt 0.903226 0.483871
vt 0.903226 0.516129
vt 0.870968 0.645161
vt 0.838710 0.516129
vt 0.903226 0.516129
vt 0.903226 0.612903
vt 0.935484 0.612903
vt 0.451613 0.806452
vt 0.322581 0.870968
vt 0.322581 0.806452
vt 0.741935 0.709677
vt 0.580645 0.935484
vt 0.935484 0.161290
vt 0.870968 0.000000
vt 0.225806 0.290323
vt 0.419355 0.483871
vt 0.516129 0.677419
vt 0.516129 0.806452
vt 0.483871 0.838710
vt 0.548387 0.903226
vt 0.516129 0.903226
vt 0.129032 0.419355
vt 0.064516 0.483871
vt 0.870968 0.741936
vt 0.870968 0.838710
vt 0.774194 0.870968
vt 0.741935 0.870968
vt 0.774194 0.709678
vt 0.903226 0.903226
vt 0.451613 0.903226
vt 0.451613 0.774194
vt 0.451613 0.709677
vt 0.354839 0.709677
vt 0.774194 0.193548
vt 0.774194 0.225806
vt 0.741935 0.322581
vt 0.677419 0.322581
vt 0.645161 0.225806
vt 0.838710 0.161290
vt 0.870968 0.129032
vt 0.451613 0.483871
vt 0.354839 0.645161
vt 0.548387 0.645161
vt 0.548387 0.612903
vt 0.387097 0.612903
vt 0.354839 0.612903
vt 0.548387 0.548387
vt 0.548387 0.516129
vt 0.193548 0.677419
vt 0.225806 0.677419
vt 0.322581 0.870968
vt 0.451613 0.258065
vt 0.387097 0.903226
vt 0.709677 0.870968
vt 0.935484 0.935484
vt 0.774194 0.903226
vt 0.774194 0.935484
vt 0.580645 0.096774
vt 0.580645 0.000000
vt 0.612903 0.000000
vt 0.612903 0.129032
vt 0.645161 0.129032
vt 0.645161 0.322581
vt 0.483871 0.000000
vt 0.516129 0.000000
vt 0.451613 0.129032
vt 0.870968 0.483871
vt 0.516129 0.870968
vt 0.838710 0.645161
vt 0.838710 0.548387
vt 0.741935 0.516129
vt 0.741935 0.677419
vt 0.935484 0.612903
vt 0.709677 0.709677
vt 0.451613 0.870968
vt 0.419355 0.677419
vt 0.225806 0.677419
vt 0.225806 0.709677
vt 0.193548 0.709677
vt 0.193548 0.774194
vt 0.225806 0.806452
vt 0.290323 0.709677
vt 0.774194 0.935484
vt 0.774194 0.903226
vt 0.741936 0.870968
vt 0.903226 0.870968
vt 0.806452 0.483871
vt 0.935484 0.419355
vt 0.193548 0.000000
vt 0.129032 0.000000
vt 0.129032 0.032258
vt 0.161290 0.032258
vt 0.064516 0.032258
vt 0.064516 0.000000
vt 0.000000 0.000000
vt 0.032258 0.032258
vt 0.161290 0.129032
vt 0.129032 0.935484
vt 0.516129 0.903226
vt 0.935484 0.709678
vt 0.419355 0.225806
vt 0.806452 0.354839
vt 0.645161 0.354839
vt 0.483871 0.483871
vt 0.483871 0.419355
vt 0.806452 0.419355
vt 0.806452 0.451613
vt 0.612903 0.451613
vt 0.322581 0.935484
vt 0.903226 0.677419
vt 0.870968 0.677419
vt 0.838710 0.645161
vt 0.903226 0.483871
vt 0.451613 0.870968
s 0
usemtl Untitled.003_Material
f 99/1/1 45/2/1 15/3/1
f 7/4/2 38/5/2 8/6/2
f 14/7/3 6/8/3 77/9/3
f 67/10/4 11/11/4 39/12/4
f 54/13/5 93/14/5 94/15/5
f 103/16/4 104/17/4 101/18/4
f 31/19/2 51/20/2 79/21/2
f 90/22/4 88/23/4 18/24/4
f 23/25/4 55/26/4 56/27/4
f 15/28/3 66/29/3 80/30/3
f 56/31/6 42/32/6 21/33/6
f 67/34/6 29/35/6 30/36/6
f 43/37/3 49/9/3 50/38/3
f 53/39/3 60/40/3 33/41/3
f 30/42/4 102/43/4 69/44/4
f 83/45/1 101/46/1 104/47/1
f 82/48/6 37/49/6 80/50/6
f 61/51/4 46/52/4 51/53/4
f 57/54/3 74/55/3 76/49/3
f 82/56/5 66/11/5 9/57/5
f 32/58/5 33/59/5 60/60/5
f 17/61/2 26/62/2 27/63/2
f 101/64/2 81/65/2 102/66/2
f 54/67/1 63/68/1 86/69/1
f 1/70/1 93/71/1 2/72/1
f 68/73/3 82/74/3 9/75/3
f 47/76/3 37/10/3 7/77/3
f 45/78/2 46/79/2 47/80/2
f 67/81/5 10/82/5 12/83/5
f 59/84/6 46/85/6 58/86/6
f 27/87/4 48/88/4 24/89/4
f 62/90/6 31/91/6 32/13/6
f 71/92/2 41/93/2 14/94/2
f 78/95/3 2/96/3 54/97/3
f 10/98/1 11/99/1 12/100/1
f 20/101/3 63/102/3 21/103/3
f 85/104/1 88/105/1 36/106/1
f 66/107/1 8/108/1 9/109/1
f 35/110/4 31/111/4 34/112/4
f 74/113/5 55/114/5 73/115/5
f 87/116/1 14/117/1 77/118/1
f 69/119/5 83/120/5 104/121/5
f 97/122/4 95/123/4 44/124/4
f 13/125/4 86/126/4 84/127/4
f 94/128/1 96/129/1 3/130/1
f 6/131/2 87/132/2 77/133/2
f 26/134/3 16/135/3 70/101/3
f 69/136/6 81/46/6 68/47/6
f 84/137/2 20/138/2 22/139/2
f 76/140/5 100/141/5 65/142/5
f 49/143/6 24/144/6 48/145/6
f 59/146/5 99/147/5 15/148/5
f 75/130/5 88/149/5 57/150/5
f 94/151/4 91/152/4 92/153/4
f 4/154/3 83/155/3 8/156/3
f 70/157/6 79/158/6 50/159/6
f 76/160/6 55/161/6 89/162/6
f 11/66/2 29/163/2 39/164/2
f 90/143/1 75/161/1 19/162/1
f 92/165/2 1/166/2 78/167/2
f 49/168/2 28/95/2 50/169/2
f 35/170/6 53/171/6 33/172/6
f 99/1/1 44/87/1 45/2/1
f 7/4/2 37/173/2 38/5/2
f 14/7/3 40/174/3 6/8/3
f 67/10/4 12/77/4 11/11/4
f 3/47/5 98/175/5 54/13/5
f 54/13/5 2/176/5 93/14/5
f 94/15/5 3/47/5 54/13/5
f 10/177/4 30/42/4 104/17/4
f 101/18/4 29/178/4 103/16/4
f 103/16/4 10/177/4 104/17/4
f 79/21/2 53/179/2 34/180/2
f 31/19/2 52/181/2 51/20/2
f 79/21/2 34/180/2 31/19/2
f 90/22/4 64/182/4 88/23/4
f 23/25/4 89/183/4 55/26/4
f 80/30/3 47/76/3 59/184/3
f 15/28/3 45/185/3 7/77/3
f 80/30/3 59/184/3 15/28/3
f 15/28/3 7/77/3 66/29/3
f 56/31/6 74/186/6 71/187/6
f 42/32/6 22/188/6 20/189/6
f 56/31/6 71/187/6 42/32/6
f 21/33/6 23/190/6 56/31/6
f 42/32/6 20/189/6 21/33/6
f 67/34/6 39/191/6 29/35/6
f 43/37/3 25/7/3 49/9/3
f 53/39/3 79/192/3 60/40/3
f 29/178/4 101/18/4 102/43/4
f 69/44/4 104/17/4 30/42/4
f 30/42/4 29/178/4 102/43/4
f 83/45/1 4/96/1 101/46/1
f 82/48/6 38/132/6 37/49/6
f 52/193/4 62/194/4 61/51/4
f 61/51/4 58/195/4 46/52/4
f 51/53/4 52/193/4 61/51/4
f 76/49/3 19/196/3 75/197/3
f 57/54/3 72/198/3 71/199/3
f 76/49/3 75/197/3 57/54/3
f 74/55/3 73/200/3 76/49/3
f 57/54/3 71/199/3 74/55/3
f 82/56/5 80/12/5 66/11/5
f 60/60/5 61/102/5 62/201/5
f 32/58/5 35/202/5 33/59/5
f 60/60/5 62/201/5 32/58/5
f 17/61/2 36/160/2 26/62/2
f 101/64/2 4/203/2 81/65/2
f 40/204/1 41/205/1 97/206/1
f 40/204/1 97/206/1 78/207/1
f 6/208/1 40/204/1 78/207/1
f 54/67/1 98/209/1 100/210/1
f 6/208/1 78/207/1 54/67/1
f 5/211/1 84/212/1 86/69/1
f 86/69/1 6/208/1 54/67/1
f 54/67/1 100/210/1 63/68/1
f 63/68/1 5/211/1 86/69/1
f 1/70/1 91/213/1 93/71/1
f 68/73/3 81/214/3 82/74/3
f 7/77/3 45/185/3 47/76/3
f 47/76/3 80/30/3 37/10/3
f 45/78/2 44/215/2 46/79/2
f 67/81/5 30/216/5 10/82/5
f 59/84/6 47/217/6 46/85/6
f 85/218/4 17/219/4 27/87/4
f 27/87/4 28/1/4 48/88/4
f 24/89/4 85/218/4 27/87/4
f 62/90/6 52/110/6 31/91/6
f 72/220/2 85/221/2 24/222/2
f 25/223/2 43/224/2 95/225/2
f 72/220/2 24/222/2 25/223/2
f 13/226/2 42/227/2 71/92/2
f 71/92/2 72/220/2 25/223/2
f 25/223/2 95/225/2 41/93/2
f 41/93/2 40/228/2 14/94/2
f 14/94/2 13/226/2 71/92/2
f 71/92/2 25/223/2 41/93/2
f 78/95/3 1/229/3 2/96/3
f 10/98/1 103/230/1 11/99/1
f 20/101/3 5/135/3 63/102/3
f 85/104/1 72/231/1 57/232/1
f 88/105/1 64/233/1 16/109/1
f 85/104/1 57/232/1 88/105/1
f 36/106/1 17/234/1 85/104/1
f 88/105/1 16/109/1 36/106/1
f 66/107/1 7/4/1 8/108/1
f 35/110/4 32/91/4 31/111/4
f 74/113/5 56/235/5 55/114/5
f 87/116/1 13/236/1 14/117/1
f 69/119/5 68/237/5 83/120/5
f 58/195/4 61/51/4 65/238/4
f 65/238/4 100/239/4 98/240/4
f 98/240/4 3/241/4 96/242/4
f 97/122/4 41/243/4 95/123/4
f 98/240/4 96/242/4 97/122/4
f 99/244/4 58/195/4 65/238/4
f 99/244/4 65/238/4 98/240/4
f 95/123/4 51/53/4 46/52/4
f 44/124/4 99/244/4 98/240/4
f 95/123/4 46/52/4 44/124/4
f 44/124/4 98/240/4 97/122/4
f 84/127/4 22/245/4 42/246/4
f 13/125/4 87/247/4 86/126/4
f 84/127/4 42/246/4 13/125/4
f 94/128/1 92/248/1 96/129/1
f 6/131/2 86/196/2 87/132/2
f 26/134/3 36/249/3 16/135/3
f 69/136/6 102/250/6 81/46/6
f 84/137/2 5/118/2 20/138/2
f 70/251/5 16/252/5 64/253/5
f 70/251/5 64/253/5 90/254/5
f 23/255/5 21/256/5 63/257/5
f 89/258/5 23/255/5 63/257/5
f 65/142/5 70/251/5 90/254/5
f 65/142/5 90/254/5 19/259/5
f 89/258/5 63/257/5 100/141/5
f 65/142/5 19/259/5 76/140/5
f 76/140/5 89/258/5 100/141/5
f 49/143/6 25/260/6 24/144/6
f 59/146/5 58/261/5 99/147/5
f 75/130/5 18/262/5 88/149/5
f 94/151/4 93/136/4 91/152/4
f 38/263/3 82/74/3 81/214/3
f 83/155/3 68/73/3 9/75/3
f 8/156/3 38/263/3 81/214/3
f 83/155/3 9/75/3 8/156/3
f 8/156/3 81/214/3 4/154/3
f 70/157/6 65/133/6 61/264/6
f 70/157/6 61/264/6 60/265/6
f 27/266/6 26/203/6 70/157/6
f 28/267/6 27/266/6 70/157/6
f 70/157/6 60/265/6 79/158/6
f 79/158/6 51/268/6 95/269/6
f 95/269/6 43/270/6 50/159/6
f 50/159/6 28/267/6 70/157/6
f 79/158/6 95/269/6 50/159/6
f 76/160/6 73/271/6 55/161/6
f 11/66/2 103/65/2 29/163/2
f 90/143/1 18/260/1 75/161/1
f 78/167/2 97/272/2 96/273/2
f 92/165/2 91/274/2 1/166/2
f 78/167/2 96/273/2 92/165/2
f 49/168/2 48/275/2 28/95/2
f 35/170/6 34/276/6 53/171/6
