# Blender 4.2.0
# www.blender.org
mtllib Untitled.008.mtl
o Untitled.008
v -16.101610 0.700000 3.686073
v -16.001610 1.100000 3.886073
v -16.001610 1.200000 3.886073
v -15.901610 1.200000 3.886073
v -15.901610 1.300000 3.986073
v -15.901610 1.400000 4.086072
v -15.901610 1.400000 3.486073
v -15.901610 1.700000 3.486073
v -15.801610 0.100000 3.886073
v -15.801610 1.400000 3.986073
v -15.801610 1.700000 4.086072
v -15.801610 1.700000 3.986073
v -15.801610 1.800000 4.086072
v -15.801610 1.800000 3.986073
v -15.801610 1.800000 3.586073
v -15.801610 1.900000 3.986073
v -15.801610 1.900000 3.586073
v -15.701611 1.300000 3.686073
v -15.501610 0.000000 4.086073
v -15.501610 0.100000 4.086073
v -15.501610 0.100000 3.986073
v -15.501610 0.400000 3.986073
v -15.401610 0.400000 3.686073
v -15.701611 -0.000000 3.586073
v -15.501610 1.200000 3.886073
v -15.401610 0.600000 3.986073
v -15.401610 1.400000 3.586073
v -15.401610 1.400000 3.486073
v -15.401610 1.700000 4.086072
v -15.401610 1.700000 3.586073
v -15.401610 1.800000 4.086072
v -15.301610 0.000000 4.086073
v -15.301610 1.200000 3.886073
v -15.301610 1.400000 3.986073
v -15.301610 1.700000 3.586073
v -15.201611 1.100000 3.686073
v -15.201611 1.200000 3.886073
v -15.201611 1.200000 3.686073
v -15.101610 1.100000 3.686073
v -15.901610 1.700000 4.086072
v -15.801610 1.300000 4.086073
v -15.701611 0.000000 4.086073
v -15.401610 1.300000 4.086073
v -15.401610 1.400000 4.086072
v -15.301610 0.100000 4.086073
v -15.301610 1.700000 4.086072
v -15.901610 1.400000 3.986073
v -15.901610 1.700000 3.986073
v -15.801610 0.100000 3.986073
v -15.701611 0.100000 3.986073
v -15.701611 0.400000 3.986073
v -15.401610 1.300000 3.986073
v -15.401610 1.400000 3.986073
v -15.401610 1.700000 3.986073
v -15.401610 1.900000 3.986073
v -15.301610 0.600000 3.986073
v -15.301610 1.200000 3.986073
v -16.101610 0.700000 3.886073
v -15.801610 0.600000 3.886073
v -15.701611 1.300000 3.886073
v -15.301610 0.100000 3.886073
v -15.301610 0.700000 3.886073
v -15.101610 1.100000 3.886073
v -16.001610 1.200000 3.686073
v -15.901610 0.700000 3.686073
v -15.901610 1.200000 3.686073
v -15.701611 0.400000 3.686073
v -15.701611 1.200000 3.686073
v -15.501610 0.100000 3.686073
v -15.501610 0.400000 3.686073
v -15.501610 1.200000 3.686073
v -15.901610 -0.000000 3.586073
v -15.901610 1.300000 3.586073
v -15.901610 1.700000 3.586073
v -15.801610 1.300000 3.586073
v -15.801610 1.400000 3.586073
v -15.801610 1.700000 3.586073
v -15.701611 0.100000 3.586073
v -15.501610 -0.000000 3.586073
v -15.401610 0.400000 3.586073
v -15.401610 1.800000 3.586073
v -15.301610 1.200000 3.586073
v -15.301610 1.400000 3.586073
v -15.801610 1.700000 3.486073
v -15.401610 1.300000 3.486073
v -15.301610 1.400000 3.486073
v -15.901610 0.000000 4.086073
v -15.301610 -0.000000 3.586073
v -15.801610 0.400000 3.686073
v -15.801610 0.400000 3.586073
v -15.901610 0.600000 3.986073
v -15.801610 0.600000 3.986073
v -15.901610 0.600000 3.886073
v -15.401610 0.600000 3.886073
v -15.301610 0.600000 3.886073
v -15.901610 0.700000 3.886073
v -15.101610 0.700000 3.886073
v -15.301610 0.700000 3.686073
v -15.101610 0.700000 3.686073
v -15.801610 1.300000 3.986073
v -15.301610 1.300000 3.986073
v -15.501610 1.300000 3.886073
v -15.501610 1.300000 3.686073
v -15.401610 1.300000 3.586073
v -15.301610 1.300000 3.586073
v -15.801610 1.300000 3.486073
v -15.801610 1.400000 4.086072
v -15.301610 1.400000 4.086072
v -15.901610 1.400000 3.586073
v -15.801610 1.400000 3.486073
v -15.901610 0.100000 4.086073
v -15.701611 0.100000 4.086073
v -15.401610 0.100000 3.986073
v -15.901610 0.100000 3.886073
v -15.401610 0.100000 3.886073
v -15.801610 0.100000 3.686073
v -15.701611 0.100000 3.686073
v -15.401610 0.100000 3.686073
v -15.801610 0.100000 3.586073
v -15.501610 0.100000 3.586073
v -15.401610 0.100000 3.586073
v -16.101610 1.100000 3.886073
v -15.201611 1.100000 3.886073
v -16.101610 1.100000 3.686073
v -16.001610 1.100000 3.686073
v -15.901610 1.200000 3.986073
v -15.701611 1.200000 3.886073
v -15.301610 1.200000 3.686073
v -15.901610 1.200000 3.586073
v -15.301610 1.700000 3.986073
v -15.401610 1.700000 3.486073
v -15.301610 1.700000 3.486073
v -15.901610 1.800000 3.986073
v -15.401610 1.800000 3.986073
v -15.301610 1.800000 3.986073
v -15.901610 1.800000 3.586073
v -15.301610 1.800000 3.586073
v -15.801610 1.800000 3.486073
v -15.401610 1.800000 3.486073
v -15.401610 1.900000 3.586073
vn -1.0000 -0.0000 -0.0000
vn -0.0000 -1.0000 -0.0000
vn -0.0000 1.0000 -0.0000
vn 1.0000 -0.0000 -0.0000
vn -0.0000 -0.0000 -1.0000
vn -0.0000 -0.0000 1.0000
vt 0.535714 0.928571
vt 0.571429 0.964286
vt 0.571429 0.928571
vt 0.642857 0.178571
vt 0.571429 0.071429
vt 0.642857 0.035714
vt 0.964286 0.428571
vt 0.928571 0.464286
vt 0.964286 0.464286
vt 0.928571 0.535714
vt 0.892857 0.678571
vt 0.928571 0.678571
vt 0.964286 0.107143
vt 0.928571 0.178571
vt 0.928571 0.107143
vt 0.964286 0.464286
vt 0.928571 0.500000
vt 0.964286 0.500000
vt 0.857143 0.357143
vt 0.892857 0.535714
vt 0.892857 0.500000
vt 0.464286 0.607143
vt 0.607143 0.607143
vt 0.607143 0.714286
vt 0.928571 0.892857
vt 0.821428 0.928572
vt 0.821428 0.892857
vt 0.142857 0.928571
vt 0.285714 0.892857
vt 0.285714 0.928571
vt 0.964286 0.750000
vt 0.892857 0.678571
vt 0.964286 0.678571
vt 0.964286 0.428571
vt 0.928571 0.392857
vt 0.964286 0.392857
vt 0.928571 0.000000
vt 0.857143 0.142857
vt 0.892857 0.142857
vt 0.964286 0.500000
vt 0.928571 0.535714
vt 0.928571 0.500000
vt 0.571429 0.892857
vt 0.642857 0.857143
vt 0.607143 0.857143
vt 0.250000 0.464286
vt 0.000000 0.428571
vt 0.035714 0.535714
vt 0.857143 0.535714
vt 0.785714 0.357143
vt 0.857143 0.357143
vt 0.678571 0.750000
vt 0.642857 0.821429
vt 0.678571 0.821429
vt 0.535714 0.785714
vt 0.464286 0.785714
vt 0.428571 0.750000
vt 0.607143 0.785714
vt 0.571429 0.821428
vt 0.642857 0.821428
vt 0.571429 0.535714
vt 0.571429 0.392857
vt 0.464286 0.392857
vt 0.964286 0.607143
vt 0.928571 0.571428
vt 0.964286 0.571428
vt 0.321429 0.964286
vt 0.285714 0.928571
vt 0.285714 0.964286
vt 0.857143 0.714286
vt 0.785714 0.535714
vt 0.857143 0.535714
vt 0.678571 0.928572
vt 0.642857 0.964286
vt 0.642857 0.928572
vt 0.500000 0.928571
vt 0.535714 0.964286
vt 0.892857 0.892857
vt 0.928571 0.857143
vt 0.928571 0.892857
vt 0.821429 0.892857
vt 0.678571 0.928571
vt 0.821429 0.928571
vt 0.071429 0.964286
vt 0.142857 0.928571
vt 0.142857 0.964286
vt 0.321429 0.857143
vt 0.428571 0.892857
vt 0.428571 0.857143
vt 0.964286 0.321429
vt 0.928571 0.392857
vt 0.928571 0.321429
vt 0.964286 0.607143
vt 0.928571 0.642857
vt 0.964286 0.642857
vt 0.142857 0.785714
vt 0.285714 0.857143
vt 0.285714 0.785714
vt 0.714286 0.750000
vt 0.678571 0.892857
vt 0.714286 0.892857
vt 0.142857 0.785714
vt -0.000000 0.928571
vt 0.142857 0.928571
vt 0.285714 0.107143
vt 0.214286 0.392857
vt 0.250000 0.178571
vt 0.428571 0.928571
vt 0.214286 0.392857
vt 0.392857 0.428571
vt 0.392857 0.392857
vt 0.214286 0.964286
vt 0.250000 0.928571
vt 0.250000 0.964286
vt 0.035714 0.142857
vt -0.000000 0.428571
vt 0.214286 0.428571
vt 0.750000 0.928571
vt 0.785714 0.964286
vt 0.785714 0.928571
vt 0.500000 0.928571
vt 0.464286 0.964286
vt 0.500000 0.964286
vt 0.214286 0.964286
vt 0.142857 0.964286
vt 0.964286 0.571429
vt 0.928571 0.535714
vt 0.964286 0.535714
vt 0.464286 0.214286
vt 0.535714 0.250000
vt 0.607143 0.250000
vt 0.750000 0.214286
vt 0.750000 0.321429
vt 0.714286 0.357143
vt 0.821428 0.928571
vt 0.857143 0.892857
vt 0.892857 0.714286
vt 0.892857 0.892857
vt 0.750000 0.535714
vt 0.642857 0.535714
vt 0.642857 0.392857
vt 0.464286 0.178571
vt 0.464286 0.035714
vt 0.500000 0.071429
vt 0.571429 0.892857
vt 0.428571 0.928571
vt 0.571429 0.928571
vt 0.642857 0.964286
vt 0.571429 0.892857
vt 0.642857 0.892857
vt 0.750000 0.750000
vt 0.428571 0.964286
vt 0.392857 0.928571
vt 0.428571 0.928571
vt 0.964286 0.107143
vt 0.928571 0.000000
vt 0.928571 0.107143
vt 0.392857 0.964286
vt 0.357143 0.928571
vt 0.392857 0.928571
vt 0.857143 0.714286
vt 0.892857 0.535714
vt 0.000000 0.964286
vt 0.071429 0.928571
vt 0.857143 0.714286
vt 0.821428 0.892857
vt 0.821428 0.857143
vt 0.964286 0.642857
vt 0.928571 0.678571
vt 0.964286 0.678571
vt 0.750000 0.964286
vt 0.714286 0.928571
vt 0.714286 0.964286
vt 0.357143 0.964286
vt 0.321429 0.928571
vt 0.357143 0.928571
vt 0.464286 0.928571
vt 0.428571 0.964286
vt 0.464286 0.964286
vt 0.035714 0.714286
vt 0.000000 0.607143
vt 0.250000 0.642857
vt 0.750000 0.750000
vt 0.785714 0.892857
vt 0.785714 0.750000
vt 0.857143 0.178571
vt 0.928571 0.321429
vt 0.892857 0.321429
vt 0.642857 0.928571
vt 0.642857 0.892857
vt 0.142857 0.892857
vt 0.142857 0.857143
vt 0.964286 0.821429
vt 0.928571 0.785714
vt 0.928571 0.821429
vt 0.392857 0.392857
vt 0.428571 0.428571
vt 0.428571 0.392857
vt 0.428571 0.785714
vt 0.285714 0.857143
vt 0.285714 0.785714
vt 0.928571 0.178571
vt 0.964286 0.250000
vt 0.964286 0.178571
vt 0.678571 0.714286
vt 0.678571 0.607143
vt 0.642857 0.571429
vt 0.535714 0.321429
vt 0.464286 0.321429
vt 0.678571 0.357143
vt 0.928571 0.250000
vt 0.964286 0.321429
vt 0.964286 0.250000
vt 0.678571 0.964286
vt 0.714286 0.928571
vt 0.714286 0.964286
vt 0.964286 0.750000
vt 0.964286 0.785714
vt 0.928571 0.857143
vt 0.892857 0.750000
vt 0.892857 0.857143
vt 0.821429 0.035714
vt 0.678571 0.035714
vt 0.678571 0.142857
vt 0.285714 0.964286
vt 0.250000 0.928571
vt 0.250000 0.964286
vt 0.678571 0.821429
vt 0.642857 0.892857
vt 0.678571 0.892857
vt 0.642857 0.214286
vt 0.714286 0.178571
vt 0.714286 0.214286
vt 0.535714 0.964286
vt 0.571429 0.142857
vt 0.928571 0.428571
vt 0.892857 0.535714
vt 0.964286 0.178571
vt 0.928571 0.464286
vt 0.928571 0.357143
vt 0.607143 0.750000
vt 0.464286 0.750000
vt 0.464286 0.714286
vt 0.428571 0.714286
vt 0.428571 0.607143
vt 0.464286 0.571429
vt 0.607143 0.571429
vt 0.642857 0.607143
vt 0.642857 0.714286
vt 0.928571 0.928572
vt 0.142857 0.892857
vt 0.928571 0.428571
vt 0.892857 0.178571
vt 0.857143 0.000000
vt 0.607143 0.821429
vt 0.571429 0.821429
vt 0.642857 0.892857
vt 0.214286 0.535714
vt 0.214286 0.571429
vt 0.428571 0.571429
vt 0.428571 0.535714
vt 0.250000 0.535714
vt 0.428571 0.464286
vt 0.428571 0.428571
vt 0.035714 0.607143
vt 0.785714 0.535714
vt 0.642857 0.750000
vt 0.571429 0.750000
vt 0.571429 0.785714
vt 0.535714 0.892857
vt 0.464286 0.892857
vt 0.428571 0.785714
vt 0.642857 0.750000
vt 0.607143 0.750000
vt 0.571429 0.785714
vt 0.428571 0.392857
vt 0.464286 0.535714
vt 0.464286 0.571429
vt 0.571429 0.571429
vt 0.607143 0.535714
vt 0.607143 0.392857
vt 0.571429 0.357143
vt 0.464286 0.357143
vt 0.928571 0.607143
vt 0.321429 0.928571
vt 0.785714 0.714286
vt 0.678571 0.964286
vt 0.500000 0.964286
vt 0.892857 0.857143
vt 0.071429 0.928571
vt 0.321429 0.892857
vt 0.964286 0.392857
vt 0.142857 0.857143
vt 0.678571 0.750000
vt -0.000000 0.785714
vt 0.357143 0.107143
vt 0.357143 0.000000
vt 0.392857 0.000000
vt 0.392857 0.178571
vt 0.428571 0.178571
vt 0.428571 0.392857
vt 0.250000 0.000000
vt 0.285714 0.000000
vt 0.214286 0.178571
vt 0.428571 0.892857
vt 0.214286 0.428571
vt 0.214286 0.928571
vt 0.214286 0.000000
vt 0.142857 0.000000
vt 0.142857 0.035714
vt 0.178571 0.035714
vt 0.071429 0.035714
vt 0.071429 0.000000
vt -0.000000 0.000000
vt 0.035714 0.035714
vt 0.178571 0.142857
vt 0.750000 0.964286
vt 0.464286 0.928571
vt 0.214286 0.928571
vt 0.928571 0.571429
vt 0.678571 0.321429
vt 0.714286 0.321429
vt 0.714286 0.250000
vt 0.678571 0.250000
vt 0.678571 0.214286
vt 0.607143 0.321429
vt 0.464286 0.250000
vt 0.428571 0.250000
vt 0.428571 0.321429
vt 0.714286 0.178571
vt 0.750000 0.178571
vt 0.857143 0.214286
vt 0.857143 0.321429
vt 0.750000 0.357143
vt 0.821428 0.964286
vt 0.642857 0.357143
vt 0.750000 0.357143
vt 0.750000 0.392857
vt 0.785714 0.392857
vt 0.750000 0.571429
vt 0.607143 0.178571
vt 0.607143 0.214286
vt 0.464286 0.214286
vt 0.428571 0.178571
vt 0.428571 0.035714
vt 0.500000 0.142857
vt 0.464286 0.000000
vt 0.607143 0.000000
vt 0.607143 0.035714
vt 0.428571 0.892857
vt 0.571429 0.964286
vt 0.750000 0.892857
vt 0.392857 0.964286
vt 0.964286 0.000000
vt 0.357143 0.964286
vt 0.857143 0.535714
vt 0.000000 0.928571
vt 0.785714 0.857143
vt 0.785714 0.714286
vt 0.857143 0.892857
vt 0.321429 0.964286
vt 0.428571 0.928571
vt 0.428571 0.714286
vt 0.214286 0.750000
vt 0.250000 0.714286
vt 0.428571 0.607143
vt 0.428571 0.642857
vt 0.214286 0.714286
vt 0.035714 0.785714
vt 0.000000 0.785714
vt 0.750000 0.892857
vt 0.892857 0.357143
vt 0.857143 0.357143
vt 0.928571 0.178571
vt 0.321429 0.892857
vt 0.392857 0.428571
vt 0.428571 0.857143
vt 0.642857 0.750000
vt 0.678571 0.750000
vt 0.785714 0.607143
vt 0.678571 0.571429
vt 0.464286 0.357143
vt 0.928571 0.750000
vt 0.928571 0.750000
vt 0.678571 0.178571
vt 0.821429 0.178571
vt 0.821429 0.142857
vt 0.857143 0.142857
vt 0.857143 0.035714
vt 0.821429 0.000000
vt 0.678571 0.000000
vt 0.642857 0.035714
vt 0.642857 0.142857
vt 0.285714 0.928571
vt 0.642857 0.821429
s 0
usemtl Untitled.008_Material
f 12/1/1 13/2/1 14/3/1
f 101/4/2 103/5/2 105/6/2
f 12/7/3 40/8/3 11/9/3
f 137/10/3 134/11/3 135/12/3
f 38/13/4 123/14/4 36/15/4
f 130/16/3 29/17/3 46/18/3
f 98/19/5 38/20/5 36/21/5
f 107/22/6 44/23/6 29/24/6
f 90/25/4 116/26/4 119/27/4
f 16/28/6 134/29/6 55/30/6
f 97/31/2 98/32/2 99/33/2
f 108/34/2 53/35/2 34/36/2
f 65/37/5 124/38/5 125/39/5
f 28/40/4 104/41/4 85/42/4
f 111/43/3 50/44/3 49/45/3
f 65/46/1 72/47/1 114/48/1
f 32/49/2 79/50/2 88/51/2
f 125/52/3 122/53/3 2/54/3
f 70/55/2 67/56/2 90/57/2
f 113/58/3 20/59/3 45/60/3
f 48/61/1 74/62/1 109/63/1
f 83/64/2 28/65/2 86/66/2
f 83/67/5 104/68/5 27/69/5
f 42/70/2 72/71/2 24/72/2
f 134/73/4 29/74/4 54/75/4
f 106/76/1 76/77/1 110/1/1
f 47/78/6 100/79/6 10/80/6
f 139/81/3 15/82/3 81/83/3
f 60/84/6 25/85/6 102/86/6
f 121/87/1 23/88/1 80/89/1
f 103/90/4 25/91/4 71/92/4
f 84/93/3 74/94/3 77/95/3
f 1/96/1 122/97/1 124/98/1
f 15/99/3 133/100/3 14/101/3
f 140/102/3 16/103/3 55/104/3
f 51/105/6 126/106/6 92/107/6
f 140/108/5 15/29/5 17/30/5
f 9/109/1 92/110/1 59/111/1
f 53/112/6 101/113/6 34/114/6
f 90/115/5 129/116/5 82/117/5
f 84/118/1 15/119/1 138/120/1
f 78/121/3 116/122/3 117/123/3
f 103/124/5 68/28/5 18/125/5
f 76/126/2 7/127/2 110/128/2
f 129/129/3 68/130/3 71/131/3
f 117/132/4 50/133/4 42/134/4
f 139/135/4 30/119/4 131/120/4
f 94/136/6 61/137/6 95/138/6
f 130/139/4 34/140/4 83/141/4
f 100/142/2 75/143/2 18/144/2
f 134/145/3 13/146/3 31/147/3
f 96/148/2 1/149/2 65/150/2
f 140/151/4 134/101/4 81/99/4
f 107/152/2 47/153/2 10/154/2
f 67/155/5 116/156/5 89/157/5
f 56/158/2 94/159/2 95/160/2
f 93/161/6 9/162/6 59/137/6
f 111/163/6 42/164/6 112/84/6
f 96/165/6 3/166/6 2/167/6
f 132/168/3 30/169/3 35/170/3
f 15/171/5 74/172/5 136/173/5
f 92/174/2 93/175/2 59/176/2
f 121/177/3 69/178/3 118/179/3
f 61/180/4 88/181/4 98/182/4
f 15/183/1 16/184/1 17/185/1
f 62/186/6 63/187/6 123/188/6
f 53/100/4 43/189/4 52/190/4
f 94/87/4 113/191/4 115/192/4
f 137/193/5 30/194/5 81/195/5
f 100/196/1 107/197/1 10/198/1
f 39/199/4 97/200/4 99/201/4
f 125/202/1 3/203/1 64/204/1
f 21/205/1 69/206/1 79/207/1
f 127/208/3 4/209/3 57/210/3
f 68/211/1 60/212/1 18/213/1
f 133/214/6 12/215/6 14/216/6
f 134/194/6 130/217/6 135/218/6
f 23/219/5 69/220/5 70/221/5
f 28/222/5 110/223/5 84/224/5
f 76/225/5 73/226/5 109/227/5
f 39/228/3 123/229/3 63/230/3
f 20/231/6 32/232/6 45/233/6
f 12/1/1 11/234/1 13/2/1
f 101/4/2 102/235/2 103/5/2
f 12/7/3 48/236/3 40/8/3
f 137/10/3 81/237/3 134/11/3
f 38/13/4 37/238/4 123/14/4
f 130/16/3 54/239/3 29/17/3
f 39/17/5 99/240/5 98/19/5
f 98/19/5 128/72/5 38/20/5
f 36/21/5 39/17/5 98/19/5
f 31/241/6 13/242/6 11/243/6
f 11/243/6 40/244/6 6/245/6
f 107/22/6 41/246/6 43/247/6
f 11/243/6 6/245/6 107/22/6
f 29/24/6 31/241/6 11/243/6
f 108/248/6 46/249/6 29/24/6
f 107/22/6 43/247/6 44/23/6
f 44/23/6 108/248/6 29/24/6
f 29/24/6 11/243/6 107/22/6
f 90/25/4 89/250/4 116/26/4
f 16/28/6 14/251/6 134/29/6
f 97/31/2 62/220/2 98/32/2
f 108/34/2 44/252/2 53/35/2
f 64/253/5 66/202/5 65/37/5
f 65/37/5 1/254/5 124/38/5
f 125/39/5 64/253/5 65/37/5
f 28/40/4 27/128/4 104/41/4
f 9/255/3 114/256/3 111/43/3
f 111/43/3 112/257/3 50/44/3
f 49/45/3 9/255/3 111/43/3
f 93/258/1 91/259/1 126/260/1
f 126/260/1 4/261/1 96/262/1
f 65/46/1 66/263/1 129/264/1
f 93/258/1 126/260/1 96/262/1
f 65/46/1 129/264/1 72/47/1
f 93/258/1 96/262/1 65/46/1
f 87/181/1 111/265/1 114/48/1
f 114/48/1 93/258/1 65/46/1
f 72/47/1 87/181/1 114/48/1
f 32/49/2 19/266/2 79/50/2
f 125/52/3 124/267/3 122/53/3
f 90/57/2 80/268/2 23/269/2
f 70/55/2 22/270/2 51/271/2
f 90/57/2 23/269/2 70/55/2
f 67/56/2 89/272/2 90/57/2
f 70/55/2 51/271/2 67/56/2
f 45/60/3 61/273/3 115/274/3
f 113/58/3 21/275/3 20/59/3
f 45/60/3 115/274/3 113/58/3
f 73/276/1 5/261/1 47/277/1
f 47/277/1 6/278/1 40/279/1
f 48/61/1 133/280/1 136/281/1
f 47/277/1 40/279/1 48/61/1
f 109/63/1 73/276/1 47/277/1
f 8/282/1 7/283/1 109/63/1
f 48/61/1 136/281/1 74/62/1
f 74/62/1 8/282/1 109/63/1
f 109/63/1 47/277/1 48/61/1
f 83/64/2 27/284/2 28/65/2
f 83/67/5 105/285/5 104/68/5
f 42/70/2 87/286/2 72/71/2
f 134/73/4 31/287/4 29/74/4
f 106/76/1 75/288/1 76/77/1
f 47/78/6 5/289/6 100/79/6
f 139/81/3 138/100/3 15/82/3
f 60/84/6 127/290/6 25/85/6
f 121/87/1 118/291/1 23/88/1
f 103/90/4 102/292/4 25/91/4
f 84/93/3 8/284/3 74/94/3
f 1/96/1 58/293/1 122/97/1
f 15/99/3 136/294/3 133/100/3
f 140/102/3 17/295/3 16/103/3
f 22/296/6 21/297/6 113/298/6
f 26/299/6 56/300/6 57/301/6
f 22/296/6 113/298/6 26/299/6
f 49/302/6 50/303/6 51/105/6
f 51/105/6 22/296/6 26/299/6
f 26/299/6 57/301/6 126/106/6
f 126/106/6 91/304/6 92/107/6
f 92/107/6 49/302/6 51/105/6
f 51/105/6 26/299/6 126/106/6
f 140/108/5 81/305/5 15/29/5
f 9/109/1 49/306/1 92/110/1
f 53/112/6 52/307/6 101/113/6
f 88/308/5 79/309/5 120/310/5
f 88/308/5 120/310/5 121/311/5
f 78/312/5 24/313/5 72/314/5
f 119/315/5 78/312/5 72/314/5
f 82/117/5 88/308/5 121/311/5
f 82/117/5 121/311/5 80/316/5
f 119/315/5 72/314/5 129/116/5
f 82/117/5 80/316/5 90/115/5
f 90/115/5 119/315/5 129/116/5
f 84/118/1 77/317/1 15/119/1
f 78/121/3 119/318/3 116/122/3
f 103/124/5 71/319/5 68/28/5
f 76/126/2 109/320/2 7/127/2
f 33/321/3 37/322/3 38/323/3
f 128/324/3 82/325/3 129/129/3
f 33/321/3 38/323/3 128/324/3
f 25/326/3 57/210/3 33/321/3
f 71/131/3 25/326/3 33/321/3
f 66/327/3 64/328/3 3/329/3
f 3/329/3 4/209/3 68/130/3
f 71/131/3 33/321/3 128/324/3
f 66/327/3 3/329/3 68/130/3
f 71/131/3 128/324/3 129/129/3
f 129/129/3 66/327/3 68/130/3
f 42/134/4 24/330/4 78/331/4
f 117/132/4 67/332/4 51/333/4
f 42/134/4 78/331/4 117/132/4
f 50/133/4 112/334/4 42/134/4
f 117/132/4 51/333/4 50/133/4
f 139/135/4 81/335/4 30/119/4
f 94/136/6 115/161/6 61/137/6
f 86/336/4 132/337/4 35/338/4
f 35/338/4 137/339/4 135/71/4
f 130/139/4 46/340/4 108/207/4
f 35/338/4 135/71/4 130/139/4
f 83/141/4 86/336/4 35/338/4
f 101/280/4 105/281/4 83/141/4
f 130/139/4 108/207/4 34/140/4
f 34/140/4 101/280/4 83/141/4
f 83/141/4 35/338/4 130/139/4
f 52/341/2 43/342/2 41/343/2
f 100/142/2 5/344/2 73/345/2
f 52/341/2 41/343/2 100/142/2
f 102/235/2 101/4/2 52/341/2
f 60/346/2 102/235/2 52/341/2
f 100/142/2 73/345/2 75/143/2
f 75/143/2 106/347/2 85/348/2
f 104/349/2 105/6/2 103/5/2
f 75/143/2 85/348/2 104/349/2
f 60/346/2 52/341/2 100/142/2
f 104/349/2 103/5/2 18/144/2
f 18/144/2 60/346/2 100/142/2
f 75/143/2 104/349/2 18/144/2
f 134/145/3 14/350/3 13/146/3
f 96/148/2 58/351/2 1/149/2
f 140/151/4 55/352/4 134/101/4
f 107/152/2 6/353/2 47/153/2
f 67/155/5 117/354/5 116/156/5
f 56/158/2 26/355/2 94/159/2
f 93/161/6 114/356/6 9/162/6
f 111/163/6 87/357/6 42/164/6
f 122/358/6 58/359/6 96/165/6
f 96/165/6 4/360/6 3/166/6
f 2/167/6 122/358/6 96/165/6
f 132/168/3 131/94/3 30/169/3
f 15/171/5 77/118/5 74/172/5
f 92/174/2 91/361/2 93/175/2
f 121/177/3 120/362/3 69/178/3
f 33/363/4 57/57/4 56/364/4
f 62/365/4 33/363/4 56/364/4
f 82/366/4 128/367/4 98/182/4
f 98/182/4 62/365/4 56/364/4
f 98/182/4 56/364/4 95/368/4
f 88/181/4 82/366/4 98/182/4
f 45/369/4 32/370/4 88/181/4
f 98/182/4 95/368/4 61/180/4
f 61/180/4 45/369/4 88/181/4
f 15/183/1 14/371/1 16/184/1
f 37/372/6 33/373/6 62/186/6
f 62/186/6 97/374/6 63/187/6
f 123/188/6 37/372/6 62/186/6
f 53/100/4 44/82/4 43/189/4
f 94/87/4 26/375/4 113/191/4
f 137/193/5 35/218/5 30/194/5
f 100/196/1 41/376/1 107/197/1
f 39/199/4 63/377/4 97/200/4
f 125/202/1 2/211/1 3/203/1
f 79/207/1 19/378/1 20/379/1
f 21/205/1 22/286/1 70/380/1
f 79/207/1 20/379/1 21/205/1
f 69/206/1 120/381/1 79/207/1
f 21/205/1 70/380/1 69/206/1
f 57/210/3 25/326/3 127/208/3
f 127/208/3 68/130/3 4/209/3
f 4/209/3 126/382/3 57/210/3
f 68/211/1 127/187/1 60/212/1
f 133/214/6 48/82/6 12/215/6
f 134/194/6 54/383/6 130/217/6
f 23/219/5 118/384/5 69/220/5
f 138/385/5 139/386/5 131/387/5
f 131/387/5 132/388/5 86/389/5
f 28/222/5 85/390/5 106/391/5
f 131/387/5 86/389/5 28/222/5
f 84/224/5 138/385/5 131/387/5
f 7/392/5 8/393/5 84/224/5
f 28/222/5 106/391/5 110/223/5
f 110/223/5 7/392/5 84/224/5
f 84/224/5 131/387/5 28/222/5
f 76/225/5 75/394/5 73/226/5
f 39/228/3 36/395/3 123/229/3
f 20/231/6 19/4/6 32/232/6
