# Blender 4.2.0
# www.blender.org
mtllib Untitled.010.mtl
o Untitled.010
v -12.027739 0.600000 3.886073
v -12.027739 0.600000 3.686073
v -11.927739 0.100000 3.886073
v -11.927739 1.200000 3.586073
v -11.927739 1.600000 3.986073
v -11.827739 0.100000 3.886073
v -11.827739 1.100000 3.886073
v -11.827739 1.100000 3.686073
v -11.827739 1.200000 3.986073
v -11.527739 -0.000000 3.586073
v -11.527739 0.100000 3.686073
v -11.527739 0.400000 3.986073
v -11.427739 0.100000 3.686073
v -11.427739 0.100000 3.586073
v -11.427739 0.400000 3.586073
v -11.827739 0.400000 3.686073
v -11.727739 -0.000000 3.586073
v -11.727739 0.100000 3.686073
v -11.727739 0.400000 3.986073
v -11.427739 1.200000 3.986073
v -11.427739 1.600000 3.586073
v -11.427739 1.700000 3.986073
v -11.227739 1.100000 3.686073
v -11.927739 0.000000 4.086073
v -11.327739 0.100000 4.086073
v -11.927739 1.200000 3.986073
v -11.827739 1.600000 3.986073
v -11.827739 1.700000 3.986073
v -11.727739 0.100000 3.986073
v -11.527739 0.100000 3.986073
v -11.327739 1.600000 3.986073
v -11.427739 1.100000 3.886073
v -11.327739 0.100000 3.886073
v -11.227739 1.100000 3.886073
v -11.927739 1.100000 3.686073
v -11.827739 0.100000 3.686073
v -11.727739 0.400000 3.686073
v -11.427739 0.400000 3.686073
v -11.327739 1.100000 3.686073
v -11.227739 0.600000 3.686073
v -11.927739 -0.000000 3.586073
v -11.927739 1.600000 3.586073
v -11.827739 0.400000 3.586073
v -11.827739 1.600000 3.586073
v -11.527739 0.100000 3.586073
v -11.427739 1.700000 3.586073
v -11.327739 -0.000000 3.586073
v -11.327739 1.100000 3.586073
v -11.727739 0.000000 4.086073
v -11.527739 0.000000 4.086073
v -11.327739 0.000000 4.086073
v -11.527739 0.400000 3.686073
v -11.927739 0.600000 3.886073
v -11.327739 0.600000 3.886073
v -11.227739 0.600000 3.886073
v -11.927739 0.600000 3.686073
v -11.327739 0.600000 3.686073
v -11.327739 1.200000 3.986073
v -11.827739 1.200000 3.686073
v -11.427739 1.200000 3.686073
v -11.327739 1.200000 3.586073
v -11.927739 0.100000 4.086073
v -11.727739 0.100000 4.086073
v -11.527739 0.100000 4.086073
v -11.827739 0.100000 3.986073
v -11.427739 0.100000 3.986073
v -11.427739 0.100000 3.886073
v -11.827739 0.100000 3.586073
v -11.727739 0.100000 3.586073
v -12.027739 1.100000 3.886073
v -12.027739 1.100000 3.686073
v -11.427739 1.100000 3.686073
v -11.927739 1.100000 3.586073
v -11.427739 1.600000 3.986073
v -11.327739 1.600000 3.586073
v -11.827739 1.700000 3.586073
vn -0.0000 1.0000 -0.0000
vn 1.0000 -0.0000 -0.0000
vn -0.0000 -1.0000 -0.0000
vn -0.0000 -0.0000 1.0000
vn -1.0000 -0.0000 -0.0000
vn -0.0000 -0.0000 -1.0000
vt 0.962963 0.740741
vt 0.814815 0.888889
vt 0.962963 0.888889
vt 0.962963 0.518519
vt 0.925926 0.666667
vt 0.925926 0.518519
vt 0.925926 0.888889
vt 0.888889 0.925926
vt 0.925926 0.925926
vt 0.407407 0.851852
vt 0.370370 0.777778
vt 0.370370 0.814815
vt 0.333333 0.777778
vt 0.296296 0.925926
vt 0.333333 0.925926
vt 0.814815 0.888889
vt 0.777778 0.814815
vt 0.814815 0.814815
vt 0.814815 0.925926
vt 0.888889 0.888889
vt 0.888889 0.925926
vt 0.000000 0.962963
vt 0.074074 0.925926
vt 0.074074 0.962963
vt 0.925926 0.555556
vt 0.888889 0.703704
vt 0.925926 0.703704
vt 0.481481 0.222222
vt 0.444444 0.185185
vt 0.666667 0.185185
vt 0.814815 0.703704
vt 0.777778 0.592593
vt 0.777778 0.666667
vt 0.666667 0.555556
vt 0.666667 0.444444
vt 0.629630 0.407407
vt 0.962963 0.185185
vt 0.888889 0.000000
vt 0.962963 0.000000
vt 0.148148 0.925926
vt 0.000000 0.888889
vt 0.000000 0.925926
vt 0.074074 0.814815
vt 0.222222 0.814815
vt 0.037037 0.777778
vt 0.814815 0.370370
vt 0.851852 0.555556
vt 0.888889 0.740741
vt 0.407407 0.777778
vt 0.777778 0.777778
vt 0.925926 0.370370
vt 0.962963 0.370370
vt 0.000000 0.592593
vt 0.037037 0.703704
vt 0.666667 0.851852
vt 0.592593 0.851852
vt 0.555556 0.814815
vt 0.444444 0.444444
vt 0.629630 0.444444
vt 0.222222 0.407407
vt 0.481481 0.148148
vt 0.629630 0.148148
vt 0.444444 0.000000
vt 0.407407 0.962963
vt 0.370370 0.851852
vt 0.370370 0.962963
vt 0.370370 0.962963
vt 0.333333 0.851852
vt 0.333333 0.962963
vt 0.962963 0.370370
vt 0.888889 0.185185
vt 0.407407 0.962963
vt 0.407407 0.814815
vt 0.703704 0.148148
vt 0.666667 0.185185
vt 0.703704 0.037037
vt 0.296296 0.962963
vt 0.259259 0.888889
vt 0.296296 0.888889
vt 0.222222 0.407407
vt 0.444444 0.407407
vt 0.259259 0.148148
vt 0.814815 0.333333
vt 0.629630 0.407407
vt 0.629630 0.333333
vt 0.148148 0.888889
vt 0.259259 0.925926
vt 0.259259 0.888889
vt 0.925926 0.555556
vt 0.888889 0.370370
vt 0.888889 0.555556
vt 0.925926 0.703704
vt 0.888889 0.740741
vt 0.925926 0.740741
vt 0.814815 0.370370
vt 0.851852 0.185185
vt 0.814815 0.888889
vt 0.703704 0.925926
vt 0.703704 0.888889
vt 0.703704 0.888889
vt 0.777778 0.851852
vt 0.740741 0.851852
vt 0.814815 0.592593
vt 0.777778 0.407407
vt 0.777778 0.592593
vt 0.444444 0.333333
vt 0.629630 0.333333
vt 0.814815 0.333333
vt 0.814815 0.185185
vt 0.037037 0.555556
vt 0.037037 0.407407
vt 0.074074 0.111111
vt 0.814815 0.740741
vt 0.962963 0.666667
vt 0.888889 0.888889
vt 0.333333 0.814815
vt 0.333333 0.851852
vt 0.407407 0.777778
vt 0.296296 0.777778
vt 0.777778 0.888889
vt 0.814815 0.888889
vt 0.000000 0.925926
vt 0.888889 0.555556
vt 0.481481 0.333333
vt 0.444444 0.333333
vt 0.666667 0.333333
vt 0.629630 0.333333
vt 0.629630 0.222222
vt 0.407407 0.666667
vt 0.407407 0.703704
vt 0.814815 0.592593
vt 0.629630 0.592593
vt 0.666667 0.592593
vt 0.777778 0.555556
vt 0.777778 0.444444
vt 0.666667 0.407407
vt 0.148148 0.888889
vt 0.000000 0.888889
vt 0.074074 0.888889
vt 0.222222 0.888889
vt 0.296296 0.888889
vt 0.296296 0.814815
vt 0.259259 0.814815
vt 0.259259 0.777778
vt 0.037037 0.814815
vt 0.000000 0.814815
vt 0.814815 0.740741
vt 0.851852 0.370370
vt 0.888889 0.555556
vt 0.777778 0.703704
vt 0.814815 0.703704
vt 0.407407 0.814815
vt 0.407407 0.592593
vt 0.407407 0.629630
vt 0.222222 0.629630
vt 0.222222 0.703704
vt 0.000000 0.777778
vt 0.703704 0.814815
vt 0.703704 0.851852
vt 0.666667 0.962963
vt 0.592593 0.962963
vt 0.555556 0.851852
vt 0.222222 0.592593
vt 0.259259 0.592593
vt 0.259259 0.518519
vt 0.444444 0.518519
vt 0.481481 0.185185
vt 0.629630 0.185185
vt 0.666667 0.148148
vt 0.666667 0.000000
vt 0.444444 0.148148
vt 0.407407 0.851852
vt 0.370370 0.851852
vt 0.888889 0.370370
vt 0.555556 0.962963
vt 0.703704 0.185185
vt 0.666667 0.000000
vt 0.703704 0.000000
vt 0.814815 0.037037
vt 0.814815 0.148148
vt 0.259259 0.962963
vt 0.296296 0.037037
vt 0.296296 0.000000
vt 0.222222 0.000000
vt 0.444444 0.000000
vt 0.370370 0.000000
vt 0.370370 0.037037
vt 0.407407 0.037037
vt 0.259259 0.037037
vt 0.407407 0.148148
vt 0.814815 0.407407
vt 0.148148 0.925926
vt 0.925926 0.370370
vt 0.888889 0.703704
vt 0.814815 0.185185
vt 0.851852 0.000000
vt 0.814815 0.925926
vt 0.740741 0.814815
vt 0.703704 0.814815
vt 0.777778 0.888889
vt 0.814815 0.407407
vt 0.148148 -0.000000
vt 0.185185 -0.000000
vt 0.185185 0.407407
vt 0.222222 0.407407
vt 0.222222 0.555556
vt 0.185185 0.555556
vt 0.185185 0.592593
vt 0.037037 0.592593
vt 0.148148 0.111111
vt 0.037037 -0.000000
vt 0.074074 -0.000000
vt -0.000000 0.555556
vt -0.000000 0.407407
s 0
usemtl Untitled.010_Material
f 46/1/1 28/2/1 22/3/1
f 46/4/2 74/5/2 21/6/2
f 14/7/1 11/8/1 13/9/1
f 25/10/1 67/11/1 66/12/1
f 75/13/1 74/14/1 31/15/1
f 53/16/3 2/17/3 56/18/3
f 64/19/4 51/20/4 25/21/4
f 62/22/4 49/23/4 63/24/4
f 44/25/1 5/26/1 27/27/1
f 59/28/3 4/29/3 61/30/3
f 9/31/5 8/32/5 7/33/5
f 30/34/5 11/35/5 10/36/5
f 51/37/3 10/38/3 47/39/3
f 60/40/6 8/41/6 59/42/6
f 8/43/1 72/44/1 73/45/1
f 67/46/4 54/47/4 34/48/4
f 20/18/2 67/49/2 32/50/2
f 44/51/5 28/4/5 76/52/5
f 47/53/2 33/54/2 25/45/2
f 52/55/3 37/56/3 43/57/3
f 56/58/5 35/59/5 41/60/5
f 44/61/6 21/62/6 4/63/6
f 38/64/6 11/65/6 52/66/6
f 37/67/6 36/68/6 16/69/6
f 49/70/3 41/71/3 17/37/3
f 75/57/2 58/72/2 61/73/2
f 29/74/2 49/75/2 18/76/2
f 55/77/3 57/78/3 40/79/3
f 73/80/6 48/81/6 43/82/6
f 23/83/2 55/84/2 40/85/2
f 14/86/5 38/87/5 15/88/5
f 23/89/6 57/90/6 39/91/6
f 69/92/1 36/93/1 18/94/1
f 70/95/4 53/96/4 6/38/4
f 43/97/2 36/98/2 68/99/2
f 62/100/1 29/101/1 65/102/1
f 35/103/6 2/104/6 71/105/6
f 2/106/5 70/36/5 71/107/5
f 4/30/5 5/108/5 42/109/5
f 27/110/4 9/111/4 19/112/4
f 46/1/1 76/113/1 28/2/1
f 46/4/2 22/114/2 74/5/2
f 14/7/1 45/115/1 11/8/1
f 30/116/1 64/117/1 25/10/1
f 25/10/1 33/118/1 67/11/1
f 66/12/1 30/116/1 25/10/1
f 75/13/1 21/119/1 74/14/1
f 53/16/3 1/120/3 2/17/3
f 64/19/4 50/121/4 51/20/4
f 62/22/4 24/122/4 49/23/4
f 44/25/1 42/123/1 5/26/1
f 59/28/3 9/124/3 26/125/3
f 61/30/3 58/126/3 20/127/3
f 61/30/3 20/127/3 60/128/3
f 59/28/3 26/125/3 4/29/3
f 61/30/3 60/128/3 59/28/3
f 6/129/5 65/130/5 9/31/5
f 9/31/5 59/131/5 8/32/5
f 7/33/5 6/129/5 9/31/5
f 10/36/5 50/132/5 64/133/5
f 30/34/5 12/134/5 52/135/5
f 10/36/5 64/133/5 30/34/5
f 11/35/5 45/136/5 10/36/5
f 30/34/5 52/135/5 11/35/5
f 51/37/3 50/71/3 10/38/3
f 60/40/6 72/137/6 8/41/6
f 70/138/1 7/139/1 8/43/1
f 72/44/1 32/140/1 34/141/1
f 34/141/1 23/142/1 39/143/1
f 39/143/1 48/144/1 73/45/1
f 35/145/1 71/146/1 70/138/1
f 72/44/1 34/141/1 39/143/1
f 35/145/1 70/138/1 8/43/1
f 72/44/1 39/143/1 73/45/1
f 73/45/1 35/145/1 8/43/1
f 34/48/4 32/147/4 67/46/4
f 67/46/4 33/148/4 54/47/4
f 54/47/4 55/149/4 34/48/4
f 72/150/2 60/151/2 20/18/2
f 20/18/2 66/152/2 67/49/2
f 32/50/2 72/150/2 20/18/2
f 44/51/5 27/6/5 28/4/5
f 47/53/2 48/153/2 39/154/2
f 57/155/2 54/156/2 33/54/2
f 47/53/2 39/154/2 57/155/2
f 25/45/2 51/157/2 47/53/2
f 47/53/2 57/155/2 33/54/2
f 43/57/3 15/158/3 38/159/3
f 52/55/3 12/160/3 19/161/3
f 43/57/3 38/159/3 52/55/3
f 37/56/3 16/162/3 43/57/3
f 52/55/3 19/161/3 37/56/3
f 41/60/5 24/163/5 62/164/5
f 3/165/5 53/166/5 56/58/5
f 41/60/5 62/164/5 3/165/5
f 35/59/5 73/36/5 41/60/5
f 41/60/5 3/165/5 56/58/5
f 44/61/6 76/167/6 46/168/6
f 21/62/6 75/169/6 61/170/6
f 44/61/6 46/168/6 21/62/6
f 4/63/6 42/171/6 44/61/6
f 21/62/6 61/170/6 4/63/6
f 38/64/6 13/172/6 11/65/6
f 37/67/6 18/173/6 36/68/6
f 49/70/3 24/174/3 41/71/3
f 75/57/2 31/175/2 58/72/2
f 29/74/2 63/176/2 49/75/2
f 49/75/2 17/177/2 69/178/2
f 18/76/2 37/179/2 19/180/2
f 49/75/2 69/178/2 18/76/2
f 18/76/2 19/180/2 29/74/2
f 55/77/3 54/181/3 57/78/3
f 69/182/6 17/183/6 41/184/6
f 47/185/6 10/186/6 45/187/6
f 47/185/6 45/187/6 14/188/6
f 68/189/6 69/182/6 41/184/6
f 43/82/6 68/189/6 41/184/6
f 48/81/6 47/185/6 14/188/6
f 48/81/6 14/188/6 15/190/6
f 43/82/6 41/184/6 73/80/6
f 48/81/6 15/190/6 43/82/6
f 23/83/2 34/191/2 55/84/2
f 14/86/5 13/192/5 38/87/5
f 23/89/6 40/193/6 57/90/6
f 69/92/1 68/194/1 36/93/1
f 6/38/4 7/174/4 70/95/4
f 70/95/4 1/195/4 53/96/4
f 53/96/4 3/196/4 6/38/4
f 43/97/2 16/197/2 36/98/2
f 6/198/1 3/199/1 62/100/1
f 62/100/1 63/200/1 29/101/1
f 65/102/1 6/198/1 62/100/1
f 35/103/6 56/201/6 2/104/6
f 2/106/5 1/81/5 70/36/5
f 4/30/5 26/126/5 5/108/5
f 30/202/4 66/203/4 20/204/4
f 20/204/4 58/205/4 31/206/4
f 74/207/4 22/208/4 28/209/4
f 20/204/4 31/206/4 74/207/4
f 12/210/4 30/202/4 20/204/4
f 65/211/4 29/212/4 19/112/4
f 19/112/4 12/210/4 20/204/4
f 20/204/4 74/207/4 28/209/4
f 27/110/4 5/213/4 26/214/4
f 20/204/4 28/209/4 27/110/4
f 9/111/4 65/211/4 19/112/4
f 19/112/4 20/204/4 27/110/4
f 27/110/4 26/214/4 9/111/4
