# Blender 4.2.0
# www.blender.org
mtllib Untitled.012.mtl
o Untitled.012
v -5.983433 0.800000 3.800000
v -5.983433 1.100000 3.800000
v -5.983433 1.300000 3.500000
v -5.883433 0.700000 3.800000
v -5.883433 0.800000 3.800000
v -5.883433 1.200000 3.800000
v -5.883433 1.300000 3.900000
v -5.883433 1.300000 3.500000
v -5.883433 1.800000 3.500000
v -5.783433 0.300000 3.600000
v -5.783433 0.700000 4.000000
v -5.783433 1.100000 3.900000
v -5.783433 1.100000 3.800000
v -5.783433 1.100000 3.500000
v -5.783433 1.200000 3.800000
v -5.783433 1.900000 4.100000
v -5.683433 0.000000 4.100000
v -5.683433 0.100000 4.100000
v -5.583433 1.200000 3.900000
v -5.383433 0.100000 4.100000
v -5.183433 1.200000 3.600000
v -5.183433 1.200000 3.500000
v -5.083433 0.800000 3.800000
v -5.783433 1.300000 3.900000
v -5.583433 0.300000 3.900000
v -5.283433 -0.000000 3.800000
v -5.283433 0.100000 3.900000
v -5.283433 0.300000 3.800000
v -5.283433 2.000000 4.100000
v -5.183433 0.700000 3.800000
v -5.183433 1.200000 3.800000
v -5.183433 1.900000 4.100000
v -5.083433 0.700000 3.900000
v -5.083433 0.800000 3.900000
v -5.083433 1.300000 4.100000
v -5.083433 1.300000 3.500000
v -4.983433 1.100000 3.900000
v -4.983433 1.200000 3.500000
v -4.983433 1.300000 3.500000
v -5.883433 1.300000 4.100000
v -5.783433 0.300000 4.100000
v -5.783433 0.700000 4.100000
v -5.783433 1.800000 4.100000
v -5.583433 0.000000 4.100000
v -5.583433 0.100000 4.100000
v -5.283433 0.000000 4.100000
v -5.283433 1.900000 4.100000
v -5.183433 0.300000 4.100000
v -5.183433 0.700000 4.100000
v -5.183433 1.800000 4.100000
v -5.783433 1.200000 4.000000
v -5.083433 0.300000 4.000000
v -4.983433 1.200000 4.000000
v -4.983433 1.300000 4.000000
v -5.983433 1.100000 3.900000
v -5.983433 1.200000 3.900000
v -5.883433 0.800000 3.900000
v -5.783433 0.700000 3.900000
v -5.783433 0.800000 3.900000
v -5.783433 1.200000 3.900000
v -5.683433 0.100000 3.900000
v -5.583433 0.100000 3.900000
v -5.383433 0.100000 3.900000
v -5.383433 0.300000 3.900000
v -5.383433 1.200000 3.900000
v -5.383433 1.300000 3.900000
v -5.183433 0.800000 3.900000
v -5.183433 1.200000 3.900000
v -5.083433 1.100000 3.900000
v -5.183433 1.100000 3.500000
v -5.783433 0.700000 3.800000
v -5.683433 -0.000000 3.800000
v -5.383433 -0.000000 3.800000
v -5.183433 1.100000 3.800000
v -5.083433 1.200000 3.800000
v -5.383433 1.200000 3.700000
v -5.883433 0.300000 3.600000
v -5.783433 0.700000 3.600000
v -5.783433 1.200000 3.600000
v -5.183433 0.700000 3.600000
v -5.083433 0.700000 3.600000
v -5.983433 1.200000 3.500000
v -5.783433 0.300000 3.500000
v -5.783433 0.700000 3.500000
v -5.783433 1.800000 3.500000
v -5.783433 1.900000 3.500000
v -5.683433 1.900000 3.500000
v -5.283433 1.900000 3.500000
v -5.283433 2.000000 3.500000
v -5.183433 1.800000 3.500000
v -5.183433 1.900000 3.500000
v -5.183433 1.100000 3.400000
v -5.383433 0.000000 4.100000
v -5.583433 -0.000000 3.800000
v -5.883433 0.300000 4.000000
v -5.783433 0.300000 4.000000
v -5.183433 0.300000 4.000000
v -5.683433 0.300000 3.900000
v -5.283433 0.300000 3.900000
v -5.683433 0.300000 3.800000
v -5.583433 0.300000 3.800000
v -5.383433 0.300000 3.800000
v -5.183433 0.300000 3.600000
v -5.083433 0.300000 3.600000
v -5.183433 0.300000 3.500000
v -5.983433 0.800000 3.900000
v -4.983433 0.800000 3.900000
v -4.983433 0.800000 3.800000
v -5.183433 1.100000 3.900000
v -5.883433 1.100000 3.800000
v -5.783433 1.100000 3.400000
v -5.183433 1.200000 4.000000
v -5.883433 1.200000 3.900000
v -5.083433 1.200000 3.900000
v -5.783433 1.200000 3.500000
v -5.183433 1.300000 4.000000
v -5.583433 1.300000 3.900000
v -5.583433 1.300000 3.700000
v -5.383433 1.300000 3.700000
v -5.783433 1.300000 3.500000
v -5.183433 1.300000 3.500000
v -5.283433 0.100000 4.100000
v -5.883433 0.700000 4.000000
v -5.183433 0.700000 4.000000
v -5.083433 0.700000 4.000000
v -5.883433 0.700000 3.900000
v -5.183433 0.700000 3.900000
v -5.083433 0.700000 3.800000
v -5.883433 0.700000 3.600000
v -5.183433 0.700000 3.500000
v -5.783433 0.800000 3.800000
v -5.183433 0.800000 3.800000
v -5.883433 1.100000 3.900000
v -5.083433 1.100000 3.800000
v -4.983433 1.100000 3.800000
v -5.583433 1.200000 3.700000
v -5.083433 1.300000 4.000000
v -5.983433 1.300000 3.900000
v -5.883433 1.800000 4.100000
v -5.083433 1.800000 4.100000
v -5.083433 1.800000 3.500000
v -5.783433 1.800000 3.400000
v -5.183433 1.800000 3.400000
v -5.683433 1.900000 4.100000
v -5.683433 2.000000 4.100000
v -5.683433 2.000000 3.500000
vn -0.0000 1.0000 -0.0000
vn 1.0000 -0.0000 -0.0000
vn -0.0000 -0.0000 1.0000
vn -1.0000 -0.0000 -0.0000
vn -0.0000 -0.0000 -1.0000
vn -0.0000 -1.0000 -0.0000
vt 0.677419 0.903226
vt 0.645161 0.935484
vt 0.677419 0.935484
vt 0.161290 0.903226
vt 0.129032 0.967742
vt 0.129032 0.903226
vt 0.161290 0.935484
vt 0.225806 0.903226
vt 0.225806 0.935484
vt 0.645161 0.193548
vt 0.451613 0.354839
vt 0.451613 0.193548
vt 0.870968 0.000000
vt 0.903226 0.193548
vt 0.903226 0.000000
vt 0.322581 0.935484
vt 0.290323 0.903226
vt 0.354839 0.935484
vt 0.870968 0.322581
vt 0.838710 0.516129
vt 0.870968 0.516129
vt 0.354839 0.838710
vt 0.161290 0.870968
vt 0.354839 0.870968
vt 0.516129 0.677419
vt 0.322581 0.806452
vt 0.516129 0.806452
vt 0.806452 0.516129
vt 0.774194 0.548387
vt 0.838710 0.419355
vt 0.322581 0.774194
vt 0.290323 0.806452
vt 0.290323 0.774194
vt 0.838710 0.096774
vt 0.806452 0.129032
vt 0.838710 0.129032
vt 0.580645 0.741936
vt 0.774194 0.612903
vt 0.774194 0.741936
vt 0.516129 0.548387
vt 0.451613 0.580645
vt 0.903226 0.516129
vt 0.903226 0.419355
vt 0.935484 0.387097
vt 0.096774 0.935484
vt 0.064516 0.903226
vt 0.096774 0.903226
vt 0.516129 0.000000
vt 0.709677 0.161290
vt 0.709677 0.000000
vt 0.741935 0.838710
vt 0.548387 0.870968
vt 0.741935 0.870968
vt 0.258065 0.903226
vt 0.387097 0.870968
vt 0.258065 0.870968
vt 0.903226 0.193548
vt 0.870968 0.387097
vt 0.870968 0.193548
vt 0.387097 0.645161
vt 0.322581 0.645161
vt 0.322581 0.677419
vt 0.129032 0.483871
vt 0.000000 0.419355
vt 0.129032 0.516129
vt 0.903226 0.258065
vt 0.935484 0.258065
vt 0.967742 0.096774
vt 0.935484 0.000000
vt 0.935484 0.096774
vt 0.290323 0.935484
vt 0.225806 0.903226
vt 0.225806 0.935484
vt 0.838710 0.548387
vt 0.806452 0.741935
vt 0.838710 0.741935
vt 0.161290 0.354839
vt 0.193548 0.354839
vt 0.032258 0.387097
vt 0.322581 0.838710
vt 0.354839 0.838710
vt 0.548387 0.806452
vt 0.000000 0.870968
vt 0.032258 0.838710
vt 0.129032 0.806452
vt 0.935484 0.000000
vt 0.903226 0.129032
vt 0.483871 0.161290
vt 0.419355 0.064516
vt 0.483871 0.000000
vt 0.483871 0.935484
vt 0.451613 0.903226
vt 0.451613 0.935484
vt 0.806452 0.032258
vt 0.774194 0.096774
vt 0.774194 0.000000
vt 0.774194 0.354839
vt 0.741936 0.419355
vt 0.741936 0.322581
vt 0.709677 0.419355
vt 0.580645 0.612903
vt 0.709677 0.612903
vt 0.387097 0.935484
vt 0.419355 0.903226
vt 0.419355 0.935484
vt 0.064516 0.322581
vt 0.032258 0.258065
vt 0.225806 0.225807
vt 0.903226 0.935484
vt 0.935484 0.838710
vt 0.935484 0.935484
vt 0.903226 0.387097
vt 0.870968 0.548387
vt 0.903226 0.548387
vt 0.483871 0.387097
vt 0.612903 0.387097
vt 0.451613 0.354839
vt 0.741936 0.516129
vt 0.774194 0.580645
vt 0.838710 0.548387
vt 0.870968 0.548387
vt 0.612903 0.935484
vt 0.580645 0.903226
vt 0.580645 0.935484
vt 0.580645 0.483871
vt 0.548387 0.516129
vt 0.548387 0.483871
vt 0.774194 0.935484
vt 0.741936 0.838710
vt 0.774194 0.838710
vt 0.741936 0.870968
vt 0.645161 0.903226
vt 0.645161 0.870968
vt 0.000000 0.903226
vt 0.129032 0.870968
vt 0.000000 0.870968
vt 0.419355 0.903226
vt 0.774194 0.258065
vt 0.645161 0.193548
vt 0.677419 0.258065
vt 0.838710 0.870968
vt 0.806452 0.935484
vt 0.838710 0.935484
vt 0.870968 0.129032
vt 0.838710 0.322581
vt 0.870968 0.322581
vt 0.838710 0.870968
vt 0.870968 0.741935
vt 0.419355 0.516129
vt 0.290323 0.548387
vt 0.419355 0.483871
vt 0.870968 0.838710
vt 0.870968 0.935484
vt 0.451613 0.483871
vt 0.774194 0.193548
vt 0.806452 0.096774
vt 0.774194 0.096774
vt 0.129032 0.903226
vt 0.129032 0.935484
vt 0.903226 0.548387
vt 0.935484 0.516129
vt 0.935484 0.548387
vt 0.903226 0.838710
vt 0.935484 0.741936
vt 0.741935 0.612903
vt 0.774194 0.612903
vt 0.903226 0.709678
vt 0.709677 0.193548
vt 0.516129 0.161290
vt 0.709677 0.161290
vt -0.000000 0.548387
vt -0.000000 0.677419
vt 0.161290 0.741935
vt 0.709677 0.580645
vt 0.741935 0.580645
vt 0.193548 0.193548
vt 0.032258 0.161290
vt 0.258065 -0.000000
vt 0.838710 0.129032
vt 0.806452 0.322581
vt 0.806452 0.129032
vt 0.548387 0.870968
vt 0.516129 0.935484
vt 0.548387 0.935484
vt 0.258065 0.483871
vt 0.161290 0.516129
vt 0.161290 0.483871
vt 0.451613 0.419355
vt 0.258065 0.193548
vt 0.258065 0.419355
vt 0.935484 0.741936
vt 0.903226 0.645161
vt 0.935484 0.645161
vt 0.774194 0.806452
vt 0.580645 0.838710
vt 0.548387 0.838710
vt 0.838710 0.870968
vt 0.806452 0.741935
vt 0.838710 0.741935
vt 0.032258 0.903226
vt 0.000000 0.967742
vt 0.032258 0.967742
vt 0.677419 0.354839
vt 0.741936 0.322581
vt 0.645161 0.322581
vt 0.741936 0.032258
vt 0.774194 -0.000000
vt 0.709677 -0.000000
vt 0.548387 0.870968
vt 0.645161 0.903226
vt 0.645161 0.870968
vt 0.516129 0.806452
vt 0.548387 0.741935
vt 0.548387 0.806452
vt 0.774194 0.548387
vt 0.806452 0.741935
vt 0.806452 0.548387
vt 0.870968 0.548387
vt 0.870968 0.580645
vt 0.516129 0.870968
vt 0.387097 0.903226
vt 0.387097 0.870968
vt 0.161290 0.741935
vt 0.193548 0.774194
vt 0.258065 0.741935
vt 0.548387 0.580645
vt 0.580645 0.741935
vt 0.580645 0.548387
vt 0.645161 0.935484
vt 0.612903 0.903226
vt 0.612903 0.935484
vt 0.387097 0.903226
vt 0.387097 0.935484
vt 0.161290 0.709677
vt 0.322581 0.548387
vt 0.870968 0.548387
vt 0.870968 0.741935
vt 0.290323 0.516129
vt 0.290323 0.483871
vt 0.290323 0.129032
vt 0.290323 0.000000
vt 0.354839 0.129032
vt 0.322581 0.838710
vt 0.290323 0.806452
vt 0.322581 0.806452
vt 0.870968 0.129032
vt 0.870968 0.096774
vt 0.774194 0.774194
vt 0.580645 0.774194
vt 0.258065 0.838710
vt 0.290323 0.838710
vt 0.064516 0.903226
vt 0.032258 0.967742
vt 0.064516 0.967742
vt 0.548387 0.838710
vt 0.354839 0.870968
vt 0.548387 0.870968
vt 0.548387 0.806452
vt 0.580645 0.741935
vt 0.580645 0.806452
vt 0.935484 0.096774
vt 0.967742 0.161290
vt 0.967742 0.096774
vt 0.806452 0.741936
vt 0.774194 0.903226
vt 0.774194 0.741936
vt 0.935484 0.645161
vt 0.903226 0.548387
vt 0.903226 0.645161
vt 0.516129 0.903226
vt 0.516129 0.935484
vt 0.645161 0.903226
vt 0.161290 0.967742
vt 0.161290 0.903226
vt 0.645161 0.354839
vt 0.870968 0.193548
vt 0.354839 0.903226
vt 0.838710 0.322581
vt 0.161290 0.838710
vt 0.838710 0.451613
vt 0.838710 0.516129
vt 0.806452 0.548387
vt 0.774194 0.419355
vt 0.290323 0.741935
vt 0.322581 0.741935
vt 0.322581 0.806452
vt 0.258065 0.806452
vt 0.258065 0.774194
vt 0.806452 0.096774
vt 0.580645 0.612903
vt 0.451613 0.645161
vt 0.322581 0.548387
vt 0.387097 0.580645
vt 0.064516 0.935484
vt 0.516129 0.161290
vt 0.548387 0.838710
vt 0.387097 0.903226
vt 0.903226 0.387097
vt 0.129032 0.419355
vt 0.000000 0.548387
vt 0.129032 0.548387
vt 0.967742 0.000000
vt 0.193548 0.322581
vt 0.161290 0.322581
vt 0.225806 0.258065
vt 0.258065 0.258065
vt 0.258065 0.387097
vt 0.225806 0.387097
vt 0.225806 0.419355
vt 0.032258 0.419355
vt 0.064516 0.354839
vt 0.096774 0.354839
vt 0.322581 0.806452
vt 0.161290 0.838710
vt 0.161290 0.870968
vt 0.000000 0.838710
vt 0.032258 0.806452
vt 0.000000 0.806452
vt 0.000000 0.741936
vt 0.161290 0.741936
vt 0.161290 0.806452
vt 0.129032 0.838710
vt 0.935484 0.129032
vt 0.419355 0.129032
vt 0.483871 0.903226
vt 0.870968 0.000000
vt 0.870968 0.032258
vt 0.806452 0.096774
vt 0.838710 0.354839
vt 0.774194 0.419355
vt 0.580645 0.419355
vt 0.387097 0.903226
vt 0.096774 0.322581
vt 0.032258 0.225807
vt 0.000000 0.387097
vt 0.000000 0.258065
vt 0.870968 0.387097
vt 0.483871 0.419355
vt 0.612903 0.419355
vt 0.645161 0.387097
vt 0.645161 0.354839
vt 0.451613 0.387097
vt 0.709677 0.548387
vt 0.741936 0.548387
vt 0.709677 0.516129
vt 0.709677 0.451613
vt 0.838710 0.516129
vt 0.612903 0.903226
vt 0.580645 0.516129
vt 0.741936 0.935484
vt 0.741936 0.903226
vt 0.129032 0.903226
vt 0.677419 0.290323
vt 0.645161 0.290323
vt 0.645161 0.322581
vt 0.806452 0.322581
vt 0.806452 0.290323
vt 0.774194 0.290323
vt 0.806452 0.258065
vt 0.806452 0.193548
vt 0.645161 0.258065
vt 0.806452 0.870968
vt 0.838710 0.129032
vt 0.870968 0.870968
vt 0.451613 0.516129
vt 0.419355 0.548387
vt 0.290323 0.419355
vt 0.419355 0.419355
vt 0.903226 0.741936
vt 0.870968 0.709678
vt 0.516129 0.193548
vt 0.161290 0.548387
vt -0.000000 0.741935
vt 0.709677 0.612903
vt 0.193548 0.225806
vt 0.064516 0.225806
vt 0.064516 0.193548
vt 0.032258 0.193548
vt 0.225806 0.161290
vt 0.225806 0.193548
vt 0.258065 0.161290
vt 0.000000 0.161290
vt 0.000000 -0.000000
vt 0.838710 0.322581
vt 0.516129 0.870968
vt 0.258065 0.516129
vt 0.451613 0.193548
vt 0.548387 0.806452
vt 0.774194 0.838710
vt 0.806452 0.870968
vt 0.000000 0.903226
vt 0.645161 0.419355
vt 0.677419 0.419355
vt 0.741936 0.354839
vt 0.709677 0.193548
vt 0.741936 0.193548
vt 0.774194 0.032258
vt 0.548387 0.903226
vt 0.516129 0.741935
vt 0.774194 0.741935
vt 0.903226 0.548387
vt 0.516129 0.903226
vt 0.193548 0.838710
vt 0.258065 0.774194
vt 0.516129 0.548387
vt 0.516129 0.580645
vt 0.548387 0.741935
vt 0.645161 0.903226
vt 0.548387 0.903226
vt 0.161290 0.548387
vt 0.838710 0.548387
vt 0.516129 0.193548
vt 0.258065 0.193548
vt 0.258065 0.129032
vt 0.516129 0.161290
vt 0.354839 0.064516
vt 0.774194 0.806452
vt 0.580645 0.806452
vt 0.258065 0.806452
vt 0.032258 0.903226
vt 0.354839 0.838710
vt 0.548387 0.741935
vt 0.935484 0.161290
vt 0.806452 0.903226
vt 0.935484 0.548387
s 0
usemtl Untitled.012_Material
f 33/1/1 124/2/1 125/3/1
f 119/4/2 65/5/2 76/6/2
f 117/7/3 65/8/3 66/9/3
f 124/10/3 51/11/3 11/12/3
f 85/13/4 16/14/4 86/15/4
f 137/16/3 112/17/3 54/18/3
f 87/19/1 16/20/1 144/21/1
f 143/22/1 85/23/1 90/24/1
f 105/25/5 84/26/5 130/27/5
f 6/28/6 56/29/6 115/30/6
f 60/31/3 7/32/3 113/33/3
f 23/34/1 67/35/1 34/36/1
f 42/37/3 48/38/3 49/39/3
f 112/25/1 21/40/1 76/41/1
f 60/42/2 79/43/2 120/44/2
f 69/45/6 74/46/6 134/47/6
f 78/48/5 21/49/5 80/50/5
f 124/51/1 42/52/1 49/53/1
f 41/54/4 11/55/4 96/56/4
f 91/57/2 50/58/2 90/59/2
f 19/60/1 60/61/1 51/62/1
f 4/63/4 77/64/4 126/65/4
f 82/66/4 138/44/4 3/67/4
f 135/68/5 23/69/5 134/70/5
f 119/71/5 136/72/5 118/73/5
f 91/74/1 47/75/1 32/76/1
f 64/77/6 99/78/6 96/79/6
f 14/80/4 115/81/4 142/82/4
f 124/83/2 67/84/2 74/85/2
f 52/86/3 124/87/3 97/15/3
f 116/88/6 119/89/6 121/90/6
f 15/91/5 110/92/5 6/93/5
f 27/94/2 46/95/2 26/96/2
f 62/97/2 44/98/2 94/99/2
f 89/100/1 145/101/1 29/102/1
f 20/103/3 46/104/3 122/105/3
f 100/106/6 10/107/6 105/108/6
f 69/109/3 107/110/3 37/111/3
f 39/112/1 137/113/1 54/114/1
f 87/115/5 88/116/5 85/117/5
f 75/118/6 22/100/6 53/119/6
f 57/120/3 58/21/3 59/121/3
f 23/122/5 30/123/5 132/124/5
f 75/125/2 69/126/2 134/127/2
f 46/128/6 73/129/6 26/130/6
f 135/131/2 107/132/2 108/133/2
f 10/134/4 84/135/4 83/136/4
f 131/93/5 4/137/5 5/105/5
f 13/138/4 78/139/4 131/140/4
f 27/141/1 20/142/1 122/143/1
f 85/144/1 139/145/1 43/146/1
f 129/147/5 10/148/5 77/76/5
f 33/149/2 52/150/2 128/151/2
f 110/109/5 1/152/5 2/153/5
f 23/154/4 69/126/4 134/127/4
f 100/155/5 94/156/5 72/157/5
f 135/158/1 69/45/1 37/159/1
f 67/160/3 33/161/3 34/162/3
f 55/163/3 57/164/3 133/110/3
f 131/119/1 57/165/1 59/166/1
f 8/167/1 138/152/1 7/163/1
f 70/168/6 111/169/6 92/170/6
f 8/171/4 7/172/4 139/173/4
f 57/165/6 1/174/6 5/175/6
f 47/176/3 43/177/3 35/178/3
f 89/179/2 47/180/2 88/181/2
f 62/182/1 18/183/1 45/184/1
f 110/185/2 57/186/2 5/187/2
f 143/188/5 111/189/5 142/190/5
f 44/191/6 72/192/6 94/193/6
f 143/194/2 22/195/2 70/196/2
f 11/197/3 95/198/3 96/199/3
f 80/54/2 105/135/2 130/56/2
f 78/200/1 4/201/1 71/202/1
f 61/203/4 100/204/4 72/205/4
f 36/206/5 38/207/5 22/208/5
f 1/209/4 55/210/4 2/211/4
f 98/212/3 62/213/3 25/214/3
f 87/215/4 145/216/4 146/217/4
f 22/218/4 21/219/4 116/167/4
f 124/220/2 48/221/2 97/222/2
f 73/223/4 63/224/4 102/225/4
f 8/226/5 85/227/5 115/228/5
f 75/229/5 74/230/5 31/231/5
f 18/18/3 44/232/3 45/233/3
f 58/123/1 123/184/1 11/124/1
f 35/223/2 137/234/2 141/235/2
f 141/236/1 50/199/1 140/237/1
f 110/185/4 113/238/4 6/239/4
f 24/240/6 120/241/6 117/242/6
f 12/243/6 110/244/6 13/245/6
f 107/246/6 23/34/6 108/247/6
f 22/248/3 115/249/3 70/39/3
f 110/244/1 55/250/1 133/251/1
f 81/252/1 30/253/1 128/254/1
f 130/255/1 78/256/1 80/257/1
f 64/258/3 27/259/3 99/260/3
f 81/67/5 103/87/5 80/66/5
f 136/261/4 117/262/4 118/263/4
f 39/264/2 53/265/2 38/266/2
f 28/267/5 73/268/5 102/269/5
f 68/91/3 69/270/3 114/271/3
f 33/1/1 127/272/1 124/2/1
f 119/4/2 66/273/2 65/5/2
f 117/7/3 19/274/3 65/8/3
f 124/10/3 112/275/3 51/11/3
f 85/13/4 43/276/4 16/14/4
f 137/16/3 116/71/3 112/17/3
f 112/17/3 53/277/3 54/18/3
f 87/19/1 86/278/1 16/20/1
f 143/22/1 142/279/1 85/23/1
f 105/25/5 83/62/5 84/26/5
f 79/280/6 15/281/6 6/28/6
f 6/28/6 113/282/6 56/29/6
f 56/29/6 82/283/6 115/30/6
f 115/30/6 79/280/6 6/28/6
f 133/284/3 12/285/3 60/31/3
f 60/31/3 24/286/3 7/32/3
f 7/32/3 138/287/3 56/288/3
f 113/33/3 133/284/3 60/31/3
f 7/32/3 56/288/3 113/33/3
f 23/34/1 132/289/1 67/35/1
f 42/37/3 41/290/3 48/38/3
f 65/291/1 19/60/1 51/62/1
f 79/292/1 60/61/1 136/293/1
f 79/292/1 136/293/1 76/41/1
f 65/291/1 51/62/1 112/25/1
f 21/40/1 79/292/1 76/41/1
f 76/41/1 65/291/1 112/25/1
f 120/44/2 24/161/2 60/42/2
f 79/43/2 115/112/2 120/44/2
f 69/45/6 109/294/6 74/46/6
f 78/48/5 79/295/5 21/49/5
f 124/51/1 11/296/1 42/52/1
f 41/54/4 42/297/4 11/55/4
f 91/57/2 32/298/2 50/58/2
f 19/60/1 136/293/1 60/61/1
f 57/186/4 5/187/4 4/63/4
f 4/63/4 129/299/4 77/64/4
f 77/64/4 95/300/4 123/301/4
f 126/65/4 57/186/4 4/63/4
f 77/64/4 123/301/4 126/65/4
f 82/66/4 56/112/4 138/44/4
f 135/68/5 108/302/5 23/69/5
f 119/71/5 76/17/5 136/72/5
f 91/74/1 88/282/1 47/75/1
f 28/303/6 102/304/6 103/305/6
f 103/305/6 104/306/6 52/307/6
f 97/308/6 48/309/6 41/310/6
f 103/305/6 52/307/6 97/308/6
f 99/78/6 28/303/6 103/305/6
f 99/78/6 103/305/6 97/308/6
f 97/308/6 41/310/6 96/79/6
f 96/79/6 100/106/6 98/311/6
f 96/79/6 98/311/6 25/312/6
f 99/78/6 97/308/6 96/79/6
f 96/79/6 25/312/6 64/77/6
f 142/82/4 111/313/4 14/80/4
f 115/81/4 85/255/4 142/82/4
f 68/314/2 112/315/2 124/83/2
f 124/83/2 127/316/2 67/84/2
f 132/317/2 30/318/2 80/319/2
f 132/317/2 80/319/2 21/320/2
f 21/320/2 31/321/2 74/85/2
f 109/322/2 68/314/2 124/83/2
f 132/317/2 21/320/2 74/85/2
f 74/85/2 109/322/2 124/83/2
f 67/84/2 132/317/2 74/85/2
f 52/86/3 125/323/3 124/87/3
f 116/88/6 66/324/6 119/89/6
f 15/91/5 13/325/5 110/92/5
f 26/96/2 28/326/2 99/327/2
f 27/94/2 122/328/2 46/95/2
f 26/96/2 99/327/2 27/94/2
f 94/99/2 101/145/2 25/329/2
f 62/97/2 45/330/2 44/98/2
f 94/99/2 25/329/2 62/97/2
f 89/100/1 146/331/1 145/101/1
f 20/103/3 93/332/3 46/104/3
f 102/304/6 64/77/6 25/312/6
f 102/304/6 25/312/6 101/333/6
f 105/108/6 103/305/6 102/304/6
f 10/107/6 83/334/6 105/108/6
f 95/335/6 77/336/6 10/107/6
f 100/106/6 96/79/6 95/335/6
f 105/108/6 102/304/6 101/333/6
f 100/106/6 95/335/6 10/107/6
f 105/108/6 101/333/6 100/106/6
f 69/109/3 34/163/3 107/110/3
f 39/112/1 36/337/1 137/113/1
f 87/115/5 146/338/5 89/339/5
f 88/116/5 91/340/5 90/341/5
f 87/115/5 89/339/5 88/116/5
f 85/117/5 86/342/5 87/115/5
f 88/116/5 90/341/5 85/117/5
f 53/119/6 112/174/6 68/343/6
f 53/119/6 68/343/6 114/344/6
f 22/100/6 38/283/6 53/119/6
f 75/118/6 31/345/6 21/346/6
f 53/119/6 114/344/6 75/118/6
f 75/118/6 21/346/6 22/100/6
f 57/120/3 126/347/3 58/21/3
f 23/122/5 128/348/5 30/123/5
f 75/125/2 114/349/2 69/126/2
f 46/128/6 93/350/6 73/129/6
f 135/131/2 37/351/2 107/132/2
f 10/134/4 78/352/4 84/135/4
f 131/93/5 71/92/5 4/137/5
f 59/353/4 58/354/4 11/355/4
f 11/355/4 51/356/4 60/357/4
f 11/355/4 60/357/4 12/358/4
f 59/353/4 11/355/4 12/358/4
f 13/138/4 15/359/4 79/360/4
f 59/353/4 12/358/4 13/138/4
f 78/139/4 71/361/4 131/140/4
f 131/140/4 59/353/4 13/138/4
f 13/138/4 79/360/4 78/139/4
f 27/141/1 63/362/1 20/142/1
f 85/144/1 9/363/1 139/145/1
f 129/147/5 78/364/5 10/148/5
f 23/154/2 34/365/2 33/149/2
f 33/149/2 125/366/2 52/150/2
f 52/150/2 104/367/2 81/368/2
f 128/151/2 23/154/2 33/149/2
f 52/150/2 81/368/2 128/151/2
f 110/109/5 5/163/5 1/152/5
f 23/154/4 34/365/4 69/126/4
f 100/155/5 101/360/5 94/156/5
f 135/158/1 134/47/1 69/45/1
f 67/160/3 127/42/3 33/161/3
f 55/163/3 106/369/3 57/164/3
f 131/119/1 5/175/1 57/165/1
f 8/167/1 3/370/1 138/152/1
f 70/168/6 14/371/6 111/169/6
f 139/173/4 9/372/4 8/171/4
f 7/172/4 40/373/4 139/173/4
f 57/165/6 106/374/6 1/174/6
f 47/176/3 29/375/3 145/376/3
f 144/377/3 16/378/3 43/177/3
f 47/176/3 145/376/3 144/377/3
f 50/379/3 32/380/3 47/176/3
f 35/178/3 140/381/3 50/379/3
f 139/382/3 40/383/3 35/178/3
f 47/176/3 144/377/3 43/177/3
f 43/177/3 139/382/3 35/178/3
f 35/178/3 50/379/3 47/176/3
f 89/179/2 29/384/2 47/180/2
f 62/182/1 61/385/1 18/183/1
f 110/185/2 133/386/2 57/186/2
f 143/188/5 92/387/5 111/189/5
f 44/191/6 17/369/6 72/192/6
f 70/196/2 92/388/2 143/194/2
f 143/194/2 90/389/2 22/195/2
f 11/197/3 123/390/3 95/198/3
f 80/54/2 103/352/2 105/135/2
f 78/200/1 129/391/1 4/201/1
f 72/205/4 17/392/4 18/393/4
f 61/203/4 98/394/4 100/204/4
f 72/205/4 18/393/4 61/203/4
f 22/208/5 90/395/5 141/396/5
f 36/206/5 39/397/5 38/207/5
f 22/208/5 141/396/5 36/206/5
f 1/209/4 106/398/4 55/210/4
f 98/212/3 61/399/3 62/213/3
f 87/215/4 144/400/4 145/216/4
f 116/167/4 121/401/4 22/218/4
f 21/219/4 112/370/4 116/167/4
f 124/220/2 49/402/2 48/221/2
f 73/223/4 93/279/4 20/403/4
f 63/224/4 64/404/4 102/225/4
f 73/223/4 20/403/4 63/224/4
f 115/228/5 82/405/5 3/406/5
f 8/226/5 9/407/5 85/227/5
f 115/228/5 3/406/5 8/226/5
f 75/229/5 134/408/5 74/230/5
f 18/18/3 17/277/3 44/232/3
f 58/123/1 126/409/1 123/184/1
f 141/235/2 140/285/2 35/223/2
f 137/234/2 36/410/2 141/235/2
f 141/236/1 90/411/1 50/199/1
f 110/185/4 133/386/4 113/238/4
f 35/412/6 40/413/6 7/414/6
f 35/412/6 7/414/6 24/240/6
f 116/88/6 137/415/6 35/412/6
f 117/242/6 66/324/6 116/88/6
f 121/90/6 119/89/6 118/416/6
f 117/242/6 116/88/6 35/412/6
f 120/241/6 121/90/6 118/416/6
f 117/242/6 35/412/6 24/240/6
f 120/241/6 118/416/6 117/242/6
f 12/243/6 133/251/6 110/244/6
f 107/246/6 34/36/6 23/34/6
f 22/248/3 121/417/3 120/418/3
f 115/249/3 14/37/3 70/39/3
f 22/248/3 120/418/3 115/249/3
f 110/244/1 2/419/1 55/250/1
f 81/252/1 80/420/1 30/253/1
f 130/255/1 84/421/1 78/256/1
f 64/258/3 63/422/3 27/259/3
f 81/67/5 104/323/5 103/87/5
f 136/261/4 19/423/4 117/262/4
f 39/264/2 54/424/2 53/265/2
f 28/267/5 26/425/5 73/268/5
f 68/91/3 109/325/3 69/270/3
