# Blender 4.2.0
# www.blender.org
mtllib Untitled.002.mtl
o Untitled.002
v -18.501955 1.100000 4.042692
v -18.401955 0.000000 4.442692
v -18.401955 0.100000 4.242692
v -18.401955 0.500000 4.342692
v -18.401955 0.600000 4.242692
v -18.401955 1.200000 3.842692
v -18.301956 0.100000 4.242692
v -18.301956 0.500000 4.242692
v -18.201956 1.100000 4.042692
v -18.201956 1.200000 4.242692
v -18.001955 0.100000 3.942692
v -18.001955 0.400000 4.342692
v -17.901955 0.100000 4.042692
v -17.901955 0.100000 3.942692
v -17.901955 0.400000 4.042692
v -17.901955 0.400000 3.942692
v -18.301956 0.100000 3.942692
v -18.301956 0.400000 4.042692
v -18.201956 0.000000 4.442692
v -18.001955 1.200000 4.242692
v -17.901955 0.100000 4.342692
v -17.901955 0.500000 4.342692
v -17.801956 0.000000 4.442692
v -17.801956 0.100000 4.242692
v -17.801956 1.200000 4.442692
v -17.701956 1.000000 4.242692
v -17.601955 0.600000 4.242692
v -18.401955 1.200000 4.442692
v -18.401955 1.800000 4.442692
v -18.001955 0.000000 4.442692
v -18.001955 0.100000 4.442692
v -17.801956 0.100000 4.442692
v -18.201956 0.100000 4.342692
v -18.201956 0.400000 4.342692
v -17.801956 0.500000 4.342692
v -17.801956 1.100000 4.342692
v -18.601955 0.600000 4.242692
v -18.201956 1.100000 4.242692
v -17.801956 1.100000 4.242692
v -17.701956 1.100000 4.242692
v -18.601955 0.600000 4.042692
v -18.601955 1.000000 4.042692
v -18.401955 1.100000 4.042692
v -18.201956 0.400000 4.042692
v -18.201956 1.200000 4.042692
v -18.001955 0.400000 4.042692
v -17.801956 1.100000 4.042692
v -18.401955 1.100000 3.942692
v -17.801956 1.100000 3.942692
v -18.401955 -0.000000 3.942692
v -18.201956 -0.000000 3.942692
v -18.001955 -0.000000 3.942692
v -17.801956 -0.000000 3.942692
v -18.301956 0.400000 3.942692
v -18.301956 0.500000 4.342692
v -18.401955 0.500000 4.242692
v -17.901955 0.500000 4.242692
v -17.801956 0.500000 4.242692
v -17.801956 0.600000 4.242692
v -18.401955 0.600000 4.042692
v -17.801956 0.600000 4.042692
v -17.601955 0.600000 4.042692
v -18.001955 1.200000 4.042692
v -17.801956 1.200000 3.842692
v -18.401955 0.100000 4.442692
v -18.201956 0.100000 4.442692
v -18.301956 0.100000 4.342692
v -18.001955 0.100000 4.342692
v -17.901955 0.100000 4.242692
v -18.301956 0.100000 4.042692
v -18.201956 0.100000 4.042692
v -18.001955 0.100000 4.042692
v -18.201956 0.100000 3.942692
v -18.601955 1.000000 4.242692
v -18.501955 1.000000 4.242692
v -17.601955 1.000000 4.242692
v -18.501955 1.000000 4.042692
v -17.701956 1.000000 4.042692
v -17.601955 1.000000 4.042692
v -18.401955 1.100000 4.342692
v -18.501955 1.100000 4.242692
v -18.401955 1.100000 4.242692
v -18.001955 1.100000 4.242692
v -18.001955 1.100000 4.042692
v -17.701956 1.100000 4.042692
v -17.801956 1.800000 4.442692
v -18.401955 1.800000 3.842692
v -17.801956 1.800000 3.842692
vn -0.0000 -0.0000 -1.0000
vn -0.0000 1.0000 -0.0000
vn -1.0000 -0.0000 -0.0000
vn 1.0000 -0.0000 -0.0000
vn -0.0000 -1.0000 -0.0000
vn -0.0000 -0.0000 1.0000
vt -0.000000 0.392857
vt 0.214286 0.392857
vt 0.035714 0.142857
vt 0.642857 0.000000
vt 0.428571 0.214286
vt 0.642857 0.214286
vt 0.142857 0.892857
vt 0.178571 0.964286
vt 0.178571 0.892857
vt 0.678571 0.821429
vt 0.535714 0.892857
vt 0.535714 0.821429
vt 0.964286 0.250000
vt 0.928571 0.321429
vt 0.964286 0.321429
vt 0.785714 0.857143
vt 0.750000 0.892857
vt 0.821428 0.892857
vt 0.964286 0.107143
vt 0.928571 0.000000
vt 0.928571 0.107143
vt 0.964286 0.178571
vt 0.928571 0.250000
vt 0.928571 0.178571
vt 0.750000 0.357143
vt 0.750000 0.250000
vt 0.714286 0.392857
vt 0.214286 0.428571
vt 0.000000 0.392857
vt 0.035714 0.500000
vt 0.750000 0.892857
vt 0.750000 0.821429
vt 0.035714 0.892857
vt 0.000000 0.928571
vt 0.035714 0.785714
vt 0.821429 0.607143
vt 0.607143 0.821429
vt 0.607143 0.607143
vt 0.214286 0.357143
vt 0.357143 0.392857
vt 0.357143 0.357143
vt 0.714286 0.357143
vt 0.607143 0.392857
vt 0.607143 0.357143
vt 0.214286 0.678571
vt 0.392857 0.714286
vt 0.178571 0.678571
vt 0.892857 0.857143
vt 0.821429 0.785714
vt 0.892857 0.785714
vt 0.571429 0.892857
vt 0.535714 0.928571
vt 0.571429 0.928571
vt 0.928571 0.857143
vt 0.892857 0.750000
vt 0.892857 0.857143
vt 0.464286 0.321429
vt 0.464286 0.357143
vt 0.535714 0.321429
vt 0.214286 0.892857
vt 0.178571 0.964286
vt 0.178571 0.892857
vt 0.892857 0.571429
vt 0.892857 0.607143
vt 0.857143 0.892857
vt 0.821429 0.857143
vt 0.821429 0.928571
vt 0.892857 0.392857
vt 0.857143 0.535714
vt 0.821429 0.571429
vt 0.892857 0.750000
vt 0.928571 0.607143
vt 0.928571 0.750000
vt 0.285714 0.107143
vt 0.214286 0.357143
vt 0.250000 0.142857
vt 0.892857 0.928571
vt 0.928571 0.928571
vt 0.607143 0.607143
vt 0.392857 0.821429
vt 0.392857 0.607143
vt 0.500000 0.357143
vt 0.214286 0.928571
vt 0.285714 0.892857
vt 0.285714 0.928571
vt 0.678571 0.321429
vt 0.607143 0.321429
vt 0.678571 0.357143
vt 0.607143 0.392857
vt 0.535714 0.464286
vt 0.464286 0.464286
vt 0.928571 0.178571
vt 0.857143 0.000000
vt 0.928571 0.000000
vt 0.357143 0.750000
vt 0.321429 0.928571
vt 0.321429 0.892857
vt 0.392857 0.928571
vt 0.357143 0.892857
vt 0.392857 0.892857
vt 0.535714 0.892857
vt 0.500000 0.928571
vt 0.535714 0.928571
vt 0.857143 0.392857
vt 0.928571 0.357143
vt 0.928571 0.392857
vt 0.928571 0.535714
vt 0.964286 0.571429
vt 0.964286 0.392857
vt 0.392857 0.750000
vt 0.821429 0.392857
vt 0.607143 0.392857
vt 0.964286 0.178571
vt 0.500000 0.928571
vt 0.464286 0.892857
vt 0.500000 0.892857
vt 0.857143 0.750000
vt 0.464286 0.928571
vt 0.392857 0.892857
vt 0.392857 0.928571
vt 0.928571 0.357143
vt 0.857143 0.178571
vt 0.464286 0.535714
vt 0.607143 0.607143
vt 0.392857 0.607143
vt 0.857143 0.214286
vt 0.642857 0.000000
vt 0.642857 0.214286
vt 0.250000 0.785714
vt 0.178571 0.785714
vt 0.142857 0.750000
vt 0.392857 0.892857
vt 0.392857 0.821429
vt 0.214286 0.000000
vt 0.142857 0.000000
vt 0.142857 0.035714
vt 0.178571 0.035714
vt 0.071429 0.035714
vt 0.071429 0.000000
vt -0.000000 0.000000
vt 0.035714 0.035714
vt 0.178571 0.142857
vt 0.428571 0.000000
vt 0.142857 0.964286
vt 0.678571 0.892857
vt 0.821428 0.821429
vt 0.785714 0.821429
vt 0.750000 0.857143
vt 0.964286 0.000000
vt 0.857143 0.357143
vt 0.857143 0.250000
vt 0.750000 0.214286
vt 0.714286 0.214286
vt 0.750000 0.392857
vt 0.178571 0.535714
vt 0.392857 0.535714
vt 0.392857 0.500000
vt 0.214286 0.500000
vt 0.178571 0.500000
vt 0.392857 0.428571
vt 0.392857 0.392857
vt 0.000000 0.571429
vt 0.035714 0.571429
vt 0.142857 0.785714
vt 0.142857 0.892857
vt 0.035714 0.928571
vt 0.000000 0.750000
vt 0.035714 0.750000
vt 0.821429 0.821429
vt 0.214286 0.392857
vt 0.714286 0.392857
vt 0.035714 0.678571
vt 0.392857 0.571429
vt 0.214286 0.607143
vt 0.178571 0.714286
vt 0.392857 0.678571
vt 0.821429 0.857143
vt 0.607143 0.250000
vt 0.714286 0.321429
vt 0.714286 0.250000
vt 0.678571 0.250000
vt 0.678571 0.214286
vt 0.464286 0.214286
vt 0.464286 0.250000
vt 0.428571 0.250000
vt 0.428571 0.321429
vt 0.535714 0.250000
vt 0.214286 0.964286
vt 0.892857 0.928571
vt 0.892857 0.892857
vt 0.857143 0.857143
vt 0.821429 0.392857
vt 0.892857 0.535714
vt 0.857143 0.571429
vt 0.357143 0.107143
vt 0.357143 0.000000
vt 0.392857 0.000000
vt 0.392857 0.142857
vt 0.428571 0.142857
vt 0.428571 0.357143
vt 0.250000 0.000000
vt 0.285714 0.000000
vt 0.214286 0.142857
vt 0.607143 0.821429
vt 0.500000 0.392857
vt 0.214286 0.892857
vt 0.392857 0.392857
vt 0.285714 0.892857
vt 0.285714 0.750000
vt 0.357143 0.928571
vt 0.857143 0.357143
vt 0.892857 0.392857
vt 0.892857 0.535714
vt 0.928571 0.571429
vt 0.821429 0.607143
vt 0.928571 0.178571
vt 0.464286 0.928571
vt 0.821429 0.785714
vt 0.857143 0.785714
vt 0.464286 0.892857
vt 0.857143 0.357143
vt 0.535714 0.535714
vt 0.857143 0.000000
vt 0.285714 0.785714
vt 0.250000 0.892857
vt 0.178571 0.892857
s 0
usemtl Untitled.002_Material
f 48/1/1 49/2/1 54/3/1
f 88/4/2 29/5/2 86/6/2
f 77/7/3 81/8/3 1/9/3
f 79/10/4 27/11/4 62/12/4
f 77/13/2 74/14/2 75/15/2
f 21/16/2 31/17/2 32/18/2
f 44/19/1 70/20/1 18/21/1
f 85/22/4 26/23/4 78/24/4
f 68/25/3 72/26/3 30/27/3
f 60/28/3 50/29/3 3/30/3
f 27/31/5 61/10/5 62/32/5
f 33/33/4 19/34/4 71/35/4
f 25/36/6 29/37/6 28/38/6
f 7/39/3 55/40/3 8/41/3
f 54/42/4 70/43/4 17/44/4
f 59/45/4 36/46/4 58/47/4
f 5/48/5 41/49/5 60/50/5
f 73/51/2 70/52/2 71/53/2
f 15/54/1 72/55/1 46/56/1
f 82/57/2 80/58/2 38/59/2
f 63/60/4 83/61/4 84/62/4
f 31/36/6 23/63/6 32/64/6
f 67/65/2 3/66/2 65/67/2
f 27/68/6 26/69/6 39/70/6
f 57/71/6 24/72/6 58/73/6
f 34/74/6 80/75/6 55/76/6
f 79/54/2 26/77/2 76/78/2
f 88/79/4 25/80/4 64/81/4
f 57/82/4 21/40/4 69/41/4
f 65/83/6 19/84/6 66/85/6
f 39/86/2 83/87/2 36/88/2
f 64/89/5 63/90/5 45/91/5
f 23/92/5 52/93/5 53/94/5
f 5/95/6 81/96/6 75/97/6
f 55/98/5 56/99/5 8/100/5
f 14/82/3 15/43/3 16/44/3
f 14/101/2 72/102/2 13/103/2
f 10/104/6 83/105/6 20/106/6
f 77/107/1 43/108/1 60/109/1
f 56/99/6 7/110/6 8/100/6
f 28/38/3 87/111/3 6/112/3
f 9/21/3 10/113/3 45/19/3
f 35/114/5 57/115/5 58/116/5
f 78/117/1 62/64/1 61/36/1
f 63/118/1 9/119/1 45/120/1
f 19/121/5 50/122/5 51/92/5
f 10/123/5 25/124/5 28/125/5
f 88/126/1 6/127/1 87/128/1
f 46/129/5 44/130/5 54/131/5
f 37/132/3 42/12/3 41/133/3
f 53/134/1 52/135/1 11/136/1
f 53/134/1 11/136/1 14/137/1
f 73/138/1 51/139/1 50/140/1
f 17/141/1 73/138/1 50/140/1
f 49/2/1 53/134/1 14/137/1
f 49/2/1 14/137/1 16/142/1
f 17/141/1 50/140/1 48/1/1
f 49/2/1 16/142/1 54/3/1
f 54/3/1 17/141/1 48/1/1
f 88/4/2 87/143/2 29/5/2
f 77/7/3 75/144/3 81/8/3
f 79/10/4 76/145/4 27/11/4
f 77/13/2 42/23/2 74/14/2
f 32/18/2 24/146/2 69/147/2
f 21/16/2 68/148/2 31/17/2
f 32/18/2 69/147/2 21/16/2
f 44/19/1 71/149/1 70/20/1
f 85/22/4 40/13/4 26/23/4
f 68/25/3 12/150/3 46/151/3
f 72/26/3 11/152/3 52/153/3
f 68/25/3 46/151/3 72/26/3
f 30/27/3 31/154/3 68/25/3
f 72/26/3 52/153/3 30/27/3
f 4/155/3 80/156/3 82/157/3
f 4/155/3 82/157/3 5/158/3
f 56/159/3 4/155/3 5/158/3
f 60/28/3 43/160/3 48/161/3
f 56/159/3 5/158/3 60/28/3
f 2/162/3 65/163/3 3/30/3
f 3/30/3 56/159/3 60/28/3
f 60/28/3 48/161/3 50/29/3
f 50/29/3 2/162/3 3/30/3
f 27/31/5 59/145/5 61/10/5
f 44/164/4 34/165/4 33/33/4
f 33/33/4 66/166/4 19/34/4
f 19/34/4 51/167/4 73/168/4
f 71/35/4 44/164/4 33/33/4
f 19/34/4 73/168/4 71/35/4
f 25/36/6 86/169/6 29/37/6
f 7/39/3 67/170/3 55/40/3
f 54/42/4 18/171/4 70/43/4
f 24/172/4 32/168/4 23/167/4
f 53/162/4 49/173/4 47/81/4
f 53/162/4 47/81/4 61/174/4
f 24/172/4 23/167/4 53/162/4
f 36/46/4 35/175/4 58/47/4
f 58/47/4 24/172/4 53/162/4
f 53/162/4 61/174/4 59/45/4
f 59/45/4 39/176/4 36/46/4
f 58/47/4 53/162/4 59/45/4
f 5/48/5 37/177/5 41/49/5
f 73/51/2 17/11/2 70/52/2
f 15/54/1 13/73/1 72/55/1
f 84/178/2 39/86/2 40/179/2
f 40/179/2 85/180/2 47/181/2
f 47/181/2 49/182/2 48/183/2
f 43/184/2 1/185/2 81/186/2
f 84/178/2 40/179/2 47/181/2
f 84/178/2 47/181/2 48/183/2
f 43/184/2 81/186/2 82/57/2
f 9/187/2 84/178/2 48/183/2
f 36/88/2 83/87/2 38/59/2
f 38/59/2 9/187/2 48/183/2
f 38/59/2 48/183/2 43/184/2
f 80/58/2 36/88/2 38/59/2
f 38/59/2 43/184/2 82/57/2
f 63/60/4 20/188/4 83/61/4
f 31/36/6 30/70/6 23/63/6
f 65/67/2 66/189/2 33/190/2
f 67/65/2 7/191/2 3/66/2
f 65/67/2 33/190/2 67/65/2
f 39/70/6 59/192/6 27/68/6
f 27/68/6 76/193/6 26/69/6
f 26/69/6 40/194/6 39/70/6
f 57/71/6 69/64/6 24/72/6
f 12/195/6 68/196/6 21/197/6
f 22/198/6 35/199/6 36/200/6
f 12/195/6 21/197/6 22/198/6
f 67/201/6 33/202/6 34/74/6
f 34/74/6 12/195/6 22/198/6
f 22/198/6 36/200/6 80/75/6
f 80/75/6 4/203/6 55/76/6
f 55/76/6 67/201/6 34/74/6
f 34/74/6 22/198/6 80/75/6
f 79/54/2 78/56/2 26/77/2
f 88/79/4 86/204/4 25/80/4
f 57/82/4 22/205/4 21/40/4
f 65/83/6 2/206/6 19/84/6
f 39/86/2 84/178/2 83/87/2
f 45/91/5 6/207/5 64/89/5
f 64/89/5 25/124/5 63/90/5
f 23/92/5 30/122/5 52/93/5
f 74/208/6 37/209/6 5/95/6
f 5/95/6 82/210/6 81/96/6
f 75/97/6 74/208/6 5/95/6
f 55/98/5 4/210/5 56/99/5
f 14/82/3 13/205/3 15/43/3
f 14/101/2 11/116/2 72/102/2
f 10/104/6 38/211/6 83/105/6
f 60/109/1 41/212/1 42/213/1
f 77/107/1 1/214/1 43/108/1
f 60/109/1 42/213/1 77/107/1
f 56/99/6 3/95/6 7/110/6
f 28/38/3 29/215/3 87/111/3
f 9/21/3 38/216/3 10/113/3
f 35/114/5 22/217/5 57/115/5
f 61/36/1 47/218/1 85/219/1
f 78/117/1 79/71/1 62/64/1
f 61/36/1 85/219/1 78/117/1
f 63/118/1 84/220/1 9/119/1
f 19/121/5 2/221/5 50/122/5
f 20/222/5 63/90/5 25/124/5
f 28/125/5 6/207/5 45/91/5
f 10/123/5 20/222/5 25/124/5
f 28/125/5 45/91/5 10/123/5
f 88/126/1 64/223/1 6/127/1
f 54/131/5 16/209/5 15/224/5
f 46/129/5 12/225/5 34/226/5
f 54/131/5 15/224/5 46/129/5
f 44/130/5 18/164/5 54/131/5
f 46/129/5 34/226/5 44/130/5
f 37/132/3 74/11/3 42/12/3
