# Blender 4.2.0
# www.blender.org
mtllib Untitled.004.mtl
o Untitled.004
v -9.661701 0.600000 3.686073
v -9.561701 1.100000 3.886073
v -9.561701 1.100000 3.686073
v -9.561701 1.500000 3.886073
v -9.561701 1.500000 3.586073
v -9.561701 1.500000 3.486073
v -9.561701 1.800000 3.886073
v -9.461701 0.000000 4.086073
v -9.461701 -0.000000 3.586073
v -9.461701 0.100000 3.886073
v -9.461701 0.600000 3.886073
v -9.461701 0.600000 3.686073
v -9.461701 1.100000 3.686073
v -9.461701 1.200000 3.486073
v -9.461701 1.500000 3.586073
v -9.461701 1.800000 3.586073
v -9.361701 0.500000 3.986073
v -9.361701 0.500000 3.886073
v -9.361701 1.800000 3.786073
v -9.361701 1.800000 3.686073
v -9.361701 1.900000 3.786073
v -9.361701 1.900000 3.586073
v -9.361701 1.900000 3.486073
v -9.261702 1.400000 3.486073
v -9.261702 1.700000 4.086072
v -9.261702 1.800000 4.186073
v -9.261702 1.800000 3.486073
v -9.061701 0.100000 3.986073
v -8.961701 0.100000 3.686073
v -8.961701 0.400000 3.686073
v -9.361701 0.100000 3.686073
v -9.361701 0.400000 3.686073
v -9.261702 0.100000 4.086073
v -9.261702 0.100000 3.586073
v -9.161701 1.400000 3.386073
v -9.161701 1.700000 4.186073
v -9.061701 1.100000 3.686073
v -9.061701 1.200000 3.886073
v -9.061701 1.200000 3.686073
v -8.961701 0.100000 3.986073
v -8.961701 0.500000 3.886073
v -8.961701 1.800000 3.786073
v -8.961701 1.800000 3.686073
v -8.961701 1.800000 3.586073
v -8.961701 1.800000 3.486073
v -8.961701 1.900000 3.986073
v -8.961701 1.900000 3.686073
v -8.961701 1.900000 3.586073
v -8.961701 1.900000 3.486073
v -8.861701 0.100000 4.086073
v -8.861701 0.100000 3.886073
v -8.861701 0.500000 3.986073
v -8.861701 0.600000 3.886073
v -8.861701 0.600000 3.686073
v -8.861701 1.100000 3.886073
v -8.861701 1.200000 4.086073
v -8.861701 1.500000 3.386073
v -8.761702 1.000000 3.886073
v -8.761702 1.100000 3.886073
v -8.761702 1.500000 3.786073
v -8.661701 0.600000 3.886073
v -8.661701 1.000000 3.886073
v -9.161701 1.800000 4.186073
v -9.461701 1.200000 4.086073
v -9.461701 1.800000 4.086072
v -9.261702 1.800000 4.086072
v -9.161701 1.700000 4.086072
v -8.861701 0.000000 4.086073
v -9.561701 1.500000 3.986073
v -9.561701 1.800000 3.986073
v -9.461701 0.500000 3.986073
v -9.461701 1.100000 3.986073
v -9.461701 1.800000 3.986073
v -9.361701 1.800000 3.986073
v -9.361701 1.900000 3.986073
v -9.061701 0.400000 3.986073
v -8.861701 1.100000 3.986073
v -9.661701 1.000000 3.886073
v -9.561701 1.000000 3.886073
v -9.461701 1.100000 3.886073
v -9.361701 0.100000 3.886073
v -8.961701 0.100000 3.886073
v -8.861701 0.500000 3.886073
v -8.961701 1.900000 3.786073
v -9.361701 1.800000 3.586073
v -8.861701 1.600000 3.986073
v -8.861701 1.800000 3.986073
v -8.761702 1.600000 3.986073
v -8.761702 1.800000 3.986073
v -9.461701 1.800000 3.886073
v -9.361701 1.800000 3.886073
v -9.361701 1.900000 3.886073
v -8.961701 1.800000 3.886073
v -8.961701 1.900000 3.886073
v -9.661701 1.000000 3.686073
v -9.561701 1.000000 3.686073
v -9.361701 1.900000 3.686073
v -9.261702 0.100000 3.686073
v -9.261702 0.400000 3.686073
v -9.261702 1.100000 3.686073
v -9.261702 1.200000 3.686073
v -9.061701 0.400000 3.686073
v -8.861701 1.800000 3.686073
v -8.761702 1.000000 3.686073
v -8.761702 1.500000 3.686073
v -8.761702 1.800000 3.686073
v -8.661701 0.600000 3.686073
v -9.461701 1.100000 3.586073
v -9.361701 0.400000 3.586073
v -9.261702 -0.000000 3.586073
v -9.061701 -0.000000 3.586073
v -9.061701 0.100000 3.586073
v -8.961701 0.400000 3.586073
v -8.861701 1.100000 3.586073
v -9.461701 1.500000 3.486073
v -9.161701 1.400000 3.486073
v -9.161701 1.800000 3.486073
v -8.861701 1.500000 3.486073
v -9.261702 1.800000 3.386073
v -9.161701 1.800000 3.386073
v -8.961701 1.500000 3.386073
v -8.961701 1.800000 3.386073
v -9.261702 0.000000 4.086073
v -9.061701 0.000000 4.086073
v -8.861701 -0.000000 3.586073
v -9.261702 0.400000 3.986073
v -8.961701 0.500000 3.986073
v -9.461701 0.500000 3.886073
v -9.661701 0.600000 3.886073
v -9.261702 1.200000 3.886073
v -8.861701 1.200000 3.486073
v -9.261702 1.400000 3.386073
v -9.461701 1.500000 3.986073
v -9.461701 1.500000 3.886073
v -8.861701 1.500000 3.786073
v -8.861701 1.500000 3.686073
v -8.961701 1.500000 3.486073
v -8.861701 1.600000 4.086072
v -8.761702 1.600000 4.086072
v -9.261702 1.700000 4.186073
v -9.461701 0.100000 4.086073
v -9.061701 0.100000 4.086073
v -9.361701 0.100000 3.986073
v -9.261702 0.100000 3.986073
v -9.061701 0.100000 3.686073
v -9.361701 0.100000 3.586073
v -8.961701 0.100000 3.586073
v -8.661701 1.000000 3.686073
v -9.261702 1.100000 3.886073
v -9.061701 1.100000 3.886073
v -8.861701 1.100000 3.686073
v -8.761702 1.100000 3.686073
v -9.161701 1.800000 4.086072
v -8.761702 1.800000 4.086072
v -8.961701 1.800000 3.986073
v -8.861701 1.800000 3.786073
v -8.761702 1.800000 3.786073
v -9.561701 1.800000 3.586073
v -9.561701 1.800000 3.486073
v -9.361701 1.800000 3.486073
v -8.861701 1.800000 3.386073
vn -0.0000 -0.0000 1.0000
vn -0.0000 -0.0000 -1.0000
vn -0.0000 -1.0000 -0.0000
vn -1.0000 -0.0000 -0.0000
vn 1.0000 -0.0000 -0.0000
vn -0.0000 1.0000 -0.0000
vt 0.366667 0.966667
vt 0.433333 0.933333
vt 0.433333 0.966667
vt 0.566667 0.066667
vt 0.600000 0.066667
vt 0.500000 0.000000
vt 0.700000 0.833333
vt 0.833333 0.800000
vt 0.833333 0.833333
vt 0.966667 0.533333
vt 0.933333 0.466667
vt 0.933333 0.533333
vt 0.766667 0.966667
vt 0.733333 0.933333
vt 0.766667 0.933333
vt 0.766667 0.866667
vt 0.866667 0.900000
vt 0.866667 0.866667
vt 0.933333 0.800000
vt 0.966667 0.766667
vt 0.966667 0.800000
vt 0.666667 0.900000
vt 0.700000 0.933333
vt 0.700000 0.900000
vt 0.900000 0.700000
vt 0.933333 0.800000
vt 0.900000 0.800000
vt 0.900000 0.366667
vt 0.933333 0.266667
vt 0.933333 0.366667
vt 0.566667 0.833333
vt 0.700000 0.800000
vt 0.700000 0.833333
vt 0.833333 0.800000
vt 0.866667 0.866667
vt 0.866667 0.800000
vt 0.966667 0.733333
vt 0.933333 0.700000
vt 0.966667 0.700000
vt 0.533333 0.600000
vt 0.400000 0.566667
vt 0.400000 0.600000
vt 0.100000 0.933333
vt 0.000000 0.966667
vt 0.000000 0.933333
vt 0.266667 0.066667
vt 0.200000 0.033333
vt 0.233333 0.066667
vt 0.133333 0.900000
vt 0.000000 0.933333
vt 0.133333 0.933333
vt 0.966667 0.400000
vt 0.933333 0.466667
vt 0.966667 0.466667
vt 0.700000 0.866667
vt 0.566667 0.900000
vt 0.700000 0.900000
vt 0.933333 0.433333
vt 0.933333 0.366667
vt 0.200000 0.933333
vt 0.300000 0.966667
vt 0.300000 0.933333
vt 0.866667 0.600000
vt 0.800000 0.433333
vt 0.866667 0.433333
vt 0.933333 0.900000
vt 0.900000 0.800000
vt 0.900000 0.900000
vt 0.900000 0.233333
vt 0.966667 0.200000
vt 0.966667 0.233333
vt 0.600000 0.966667
vt 0.566667 0.933333
vt 0.600000 0.933333
vt 0.700000 0.266667
vt 0.833333 0.200000
vt 0.700000 0.200000
vt 0.566667 0.200000
vt 0.533333 0.200000
vt 0.533333 0.233333
vt 0.400000 0.700000
vt 0.366667 0.700000
vt 0.200000 0.600000
vt 0.900000 0.866667
vt 0.866667 0.733333
vt 0.866667 0.866667
vt 0.900000 0.200000
vt 0.933333 0.100000
vt 0.933333 0.200000
vt 0.766667 0.433333
vt 0.800000 0.400000
vt 0.800000 0.300000
vt 0.933333 0.633333
vt 0.966667 0.666667
vt 0.966667 0.633333
vt 0.933333 0.700000
vt 0.933333 0.666667
vt 0.066667 0.733333
vt 0.200000 0.800000
vt 0.000000 0.800000
vt 0.933333 0.733333
vt 0.966667 0.733333
vt 0.466667 0.233333
vt 0.600000 0.266667
vt 0.600000 0.233333
vt 0.966667 0.266667
vt 0.900000 0.266667
vt 0.933333 0.200000
vt 0.966667 0.100000
vt 0.933333 0.100000
vt 0.833333 0.866667
vt 0.700000 0.866667
vt 0.866667 0.733333
vt 0.900000 0.600000
vt 0.900000 0.733333
vt 0.966667 0.333333
vt 0.933333 0.400000
vt 0.966667 0.400000
vt 0.733333 0.966667
vt 0.700000 0.933333
vt 0.733333 0.933333
vt 0.933333 0.700000
vt 0.900000 0.600000
vt 0.500000 0.933333
vt 0.433333 0.966667
vt 0.433333 0.933333
vt 0.133333 0.800000
vt 0.000000 0.866667
vt 0.000000 0.800000
vt 0.866667 0.766667
vt 0.800000 0.600000
vt 0.866667 0.600000
vt 0.666667 0.566667
vt 0.666667 0.600000
vt 0.633333 0.966667
vt 0.633333 0.933333
vt 0.500000 0.900000
vt 0.533333 0.933333
vt 0.533333 0.766667
vt 0.766667 0.933333
vt 0.866667 0.900000
vt 0.766667 0.900000
vt 0.833333 0.933333
vt 0.800000 0.966667
vt 0.833333 0.966667
vt 0.300000 0.966667
vt 0.366667 0.933333
vt 0.366667 0.966667
vt 0.200000 0.933333
vt 0.133333 0.866667
vt 0.200000 0.866667
vt 0.566667 0.966667
vt 0.566667 0.933333
vt 0.800000 0.033333
vt 0.700000 0.200000
vt 0.800000 0.133333
vt 0.666667 0.900000
vt 0.533333 0.933333
vt 0.666667 0.933333
vt 0.433333 0.566667
vt 0.566667 0.533333
vt 0.500000 0.533333
vt 0.933333 0.600000
vt 0.966667 0.600000
vt 0.433333 0.900000
vt 0.400000 0.933333
vt 0.400000 0.766667
vt 0.700000 0.866667
vt 0.233333 0.800000
vt 0.233333 0.900000
vt 0.200000 0.933333
vt 0.766667 0.600000
vt 0.766667 0.733333
vt 0.666667 0.766667
vt 0.966667 0.566667
vt 0.933333 0.566667
vt 0.700000 0.266667
vt 0.700000 0.233333
vt 0.000000 0.866667
vt 0.000000 0.900000
vt 0.933333 0.000000
vt 0.566667 0.866667
vt 0.700000 0.866667
vt 0.966667 0.266667
vt 0.933333 0.333333
vt 0.933333 0.266667
vt 0.433333 0.433333
vt 0.500000 0.466667
vt 0.566667 0.466667
vt 0.966667 0.800000
vt 0.933333 0.833333
vt 0.633333 0.933333
vt 0.666667 0.966667
vt 0.666667 0.933333
vt 0.933333 0.900000
vt 0.900000 0.933333
vt 0.900000 0.900000
vt 0.933333 0.100000
vt 0.900000 0.000000
vt 0.900000 0.100000
vt 0.966667 0.533333
vt 0.933333 0.566667
vt 0.966667 0.566667
vt 0.000000 0.366667
vt 0.200000 0.366667
vt 0.033333 0.133333
vt 0.533333 0.900000
vt 0.566667 0.766667
vt 0.566667 0.900000
vt 0.066667 0.666667
vt 0.000000 0.600000
vt 0.200000 0.600000
vt 0.300000 0.233333
vt 0.333333 0.233333
vt 0.266667 0.200000
vt 0.900000 0.866667
vt 0.866667 0.933333
vt 0.866667 0.866667
vt 0.200000 0.933333
vt 0.100000 0.966667
vt 0.100000 0.933333
vt 0.866667 0.233333
vt 0.833333 0.266667
vt 0.900000 0.266667
vt 0.600000 0.300000
vt 0.400000 0.266667
vt 0.433333 0.366667
vt 0.533333 0.966667
vt 0.500000 0.933333
vt 0.533333 0.933333
vt 0.766667 0.466667
vt 0.700000 0.466667
vt 0.800000 0.433333
vt 0.100000 0.500000
vt 0.133333 0.600000
vt 0.900000 0.566667
vt 0.933333 0.433333
vt 0.266667 0.366667
vt 0.200000 0.600000
vt 0.233333 0.400000
vt 0.166667 0.833333
vt 0.800000 0.566667
vt 0.666667 0.600000
vt 0.666667 0.566667
vt 0.400000 0.766667
vt 0.366667 0.933333
vt 0.366667 0.900000
vt 0.833333 0.933333
vt 0.866667 0.966667
vt 0.866667 0.933333
vt 0.800000 0.933333
vt 0.766667 0.966667
vt 0.366667 0.933333
vt 0.666667 0.100000
vt 0.700000 0.100000
vt 0.700000 0.000000
vt 0.500000 0.100000
vt 0.700000 0.800000
vt 0.966667 0.466667
vt 0.733333 0.966667
vt 0.766667 0.900000
vt 0.933333 0.766667
vt 0.666667 0.933333
vt 0.900000 0.266667
vt 0.566667 0.800000
vt 0.833333 0.866667
vt 0.533333 0.566667
vt 0.400000 0.200000
vt 0.466667 0.233333
vt 0.466667 0.200000
vt 0.433333 0.200000
vt 0.433333 0.133333
vt 0.466667 0.133333
vt 0.466667 0.100000
vt 0.433333 0.100000
vt 0.400000 0.166667
vt 0.433333 0.000000
vt 0.400000 0.000000
vt 0.400000 0.133333
vt 0.400000 0.033333
vt 0.400000 0.066667
vt 0.400000 0.100000
vt 0.233333 0.166667
vt 0.266667 0.133333
vt 0.266667 0.100000
vt 0.266667 0.033333
vt 0.200000 0.066667
vt 0.933333 0.400000
vt 0.566667 0.866667
vt 0.900000 0.433333
vt 0.200000 0.966667
vt 0.933333 0.800000
vt 0.900000 0.200000
vt 0.566667 0.966667
vt 0.666667 0.233333
vt 0.666667 0.200000
vt 0.600000 0.200000
vt 0.466667 0.100000
vt 0.466667 0.200000
vt 0.566667 0.600000
vt 0.566667 0.633333
vt 0.400000 0.633333
vt 0.233333 0.766667
vt 0.200000 0.766667
vt 0.233333 0.700000
vt 0.566667 0.700000
vt 0.566667 0.733333
vt 0.366667 0.733333
vt 0.900000 0.733333
vt 0.900000 0.100000
vt 0.800000 0.266667
vt 0.766667 0.266667
vt 0.800000 0.433333
vt 0.900000 0.400000
vt 0.900000 0.300000
vt 0.966667 0.700000
vt 0.133333 0.733333
vt 0.466667 0.266667
vt 0.966667 0.200000
vt 0.933333 0.333333
vt 0.700000 0.966667
vt 0.933333 0.600000
vt 0.500000 0.966667
vt 0.133333 0.866667
vt 0.800000 0.766667
vt 0.466667 0.766667
vt 0.466667 0.900000
vt 0.500000 0.933333
vt 0.300000 0.933333
vt 0.133333 0.933333
vt 0.533333 0.966667
vt 0.800000 0.000000
vt 0.700000 0.000000
vt 0.900000 0.200000
vt 0.900000 0.166667
vt 0.800000 0.166667
vt 0.900000 0.133333
vt 0.900000 0.033333
vt 0.533333 0.900000
vt 0.433333 0.533333
vt 0.633333 0.566667
vt 0.433333 0.933333
vt 0.700000 0.933333
vt 0.200000 0.766667
vt 0.233333 0.766667
vt 0.333333 0.800000
vt 0.333333 0.900000
vt 0.233333 0.933333
vt 0.566667 0.800000
vt 0.566667 0.600000
vt 0.800000 0.733333
vt 0.800000 0.800000
vt 0.633333 0.766667
vt 0.633333 0.800000
vt 0.666667 0.800000
vt 0.133333 0.866667
vt 0.966667 0.000000
vt 0.966667 0.333333
vt 0.633333 0.466667
vt 0.633333 0.433333
vt 0.433333 0.466667
vt 0.400000 0.466667
vt 0.400000 0.533333
vt 0.666667 0.533333
vt 0.666667 0.466667
vt 0.633333 0.533333
vt 0.966667 0.833333
vt 0.633333 0.966667
vt 0.933333 0.933333
vt 0.933333 0.000000
vt 0.933333 0.533333
vt 0.200000 0.000000
vt 0.133333 0.000000
vt 0.133333 0.033333
vt 0.166667 0.033333
vt 0.066667 0.033333
vt 0.066667 0.000000
vt 0.000000 0.000000
vt 0.033333 0.033333
vt 0.166667 0.133333
vt 0.533333 0.766667
vt 0.133333 0.666667
vt 0.200000 0.166667
vt 0.200000 0.200000
vt 0.233333 0.200000
vt 0.233333 0.233333
vt 0.266667 0.166667
vt 0.300000 0.266667
vt 0.333333 0.266667
vt 0.900000 0.933333
vt 0.200000 0.966667
vt 0.900000 0.200000
vt 0.866667 0.200000
vt 0.833333 0.233333
vt 0.566667 0.400000
vt 0.766667 0.400000
vt 0.766667 0.366667
vt 0.600000 0.366667
vt 0.566667 0.366667
vt 0.766667 0.300000
vt 0.766667 0.266667
vt 0.400000 0.433333
vt 0.433333 0.433333
vt 0.500000 0.966667
vt 0.766667 0.566667
vt 0.700000 0.566667
vt 0.666667 0.433333
vt 0.800000 0.466667
vt 0.000000 0.400000
vt 0.100000 0.400000
vt 0.100000 0.366667
vt 0.200000 0.366667
vt 0.200000 0.466667
vt 0.100000 0.466667
vt 0.200000 0.500000
vt 0.200000 0.566667
vt 0.133333 0.566667
vt 0.866667 0.433333
vt 0.333333 0.366667
vt 0.333333 0.266667
vt 0.366667 0.266667
vt 0.366667 0.400000
vt 0.400000 0.400000
vt 0.400000 0.600000
vt 0.233333 0.266667
vt 0.266667 0.266667
vt 0.200000 0.400000
vt 0.200000 0.833333
vt 0.166667 0.800000
vt 0.800000 0.600000
vt 0.333333 0.900000
vt 0.333333 0.766667
vt 0.400000 0.933333
vt 0.766667 0.933333
s 0
usemtl Untitled.004_Material
f 142/1/1 68/2/1 50/3/1
f 24/4/2 116/5/2 14/6/2
f 21/7/1 42/8/1 84/9/1
f 89/10/2 86/11/2 87/12/2
f 60/13/3 136/14/3 105/15/3
f 147/16/4 30/17/4 113/18/4
f 26/19/1 36/20/1 63/21/1
f 91/22/4 75/23/4 92/24/4
f 135/25/1 157/26/1 156/27/1
f 158/28/1 15/29/1 16/30/1
f 75/31/1 155/32/1 46/33/1
f 96/34/4 2/35/4 3/36/4
f 139/37/3 86/38/3 88/39/3
f 27/40/4 132/41/4 24/42/4
f 109/43/5 31/44/5 146/45/5
f 85/46/6 159/47/6 16/48/6
f 47/49/6 21/50/6 84/51/6
f 96/52/6 78/53/6 79/54/6
f 94/55/6 75/56/6 46/57/6
f 100/28/4 130/58/4 101/59/4
f 6/60/4 158/61/4 159/62/4
f 123/63/3 9/64/3 110/65/3
f 99/66/2 31/67/2 32/68/2
f 130/69/1 150/70/1 38/71/1
f 116/72/3 132/73/3 35/74/3
f 129/75/4 95/76/4 1/77/4
f 27/78/2 160/79/2 23/80/2
f 53/81/5 83/82/5 125/83/5
f 120/84/2 132/85/2 119/86/2
f 70/87/1 133/88/1 73/89/1
f 124/90/4 28/91/4 145/92/4
f 160/93/4 22/94/4 23/95/4
f 49/94/5 44/96/5 45/97/5
f 130/98/3 56/99/3 64/100/3
f 15/20/3 6/101/3 115/102/3
f 81/103/4 17/104/4 18/105/4
f 39/106/2 100/69/2 101/107/2
f 103/108/2 105/109/2 136/110/2
f 94/111/2 91/7/2 92/112/2
f 41/113/1 51/114/1 83/115/1
f 148/116/6 58/117/6 62/118/6
f 36/119/3 25/120/3 67/121/3
f 90/122/2 4/123/2 7/25/2
f 89/124/5 139/125/5 88/126/5
f 148/127/5 61/128/5 107/129/5
f 68/130/3 111/131/3 125/132/3
f 116/40/5 120/133/5 117/134/5
f 118/135/3 121/74/3 57/136/3
f 96/137/2 13/138/2 12/139/2
f 137/140/4 122/141/4 121/142/4
f 147/143/6 145/144/6 29/145/6
f 141/146/1 123/147/1 33/148/1
f 11/149/3 1/150/3 12/151/3
f 17/152/3 128/138/3 18/153/3
f 15/154/4 64/155/4 134/156/4
f 49/157/6 22/158/6 48/159/6
f 72/160/6 150/161/6 149/162/6
f 133/95/3 4/163/3 134/164/3
f 58/165/1 55/166/1 53/167/1
f 61/140/3 54/168/3 107/16/3
f 98/169/5 144/170/5 123/171/5
f 56/172/1 138/173/1 67/174/1
f 47/175/5 42/163/5 43/176/5
f 4/105/4 70/177/4 7/178/4
f 47/49/2 20/179/2 97/180/2
f 30/109/2 145/181/2 102/88/2
f 22/182/1 44/33/1 48/183/1
f 152/184/5 58/185/5 104/186/5
f 108/187/6 100/188/6 37/189/6
f 153/190/5 36/191/5 67/19/5
f 20/192/4 21/193/4 97/194/4
f 94/195/5 155/196/5 93/197/5
f 161/198/2 121/199/2 122/200/2
f 120/201/6 27/202/6 117/203/6
f 108/204/2 114/205/2 109/206/2
f 128/207/1 81/208/1 18/209/1
f 101/210/3 14/211/3 131/212/3
f 66/213/6 153/214/6 74/215/6
f 39/216/5 150/217/5 37/218/5
f 106/219/5 60/220/5 105/221/5
f 40/222/6 142/223/6 50/224/6
f 12/225/4 9/226/4 10/227/4
f 52/228/3 41/229/3 83/230/3
f 102/231/3 99/232/3 113/233/3
f 135/234/5 138/235/5 56/211/5
f 151/132/2 104/236/2 107/237/2
f 126/238/1 72/239/1 17/240/1
f 141/150/6 143/241/6 10/127/6
f 41/242/5 40/243/5 82/244/5
f 11/245/1 2/246/1 79/247/1
f 25/248/4 26/249/4 66/250/4
f 34/251/6 31/252/6 98/144/6
f 142/1/1 124/253/1 68/2/1
f 116/5/2 137/254/2 118/255/2
f 118/255/2 131/256/2 14/6/2
f 14/6/2 115/257/2 27/78/2
f 14/6/2 27/78/2 24/4/2
f 116/5/2 118/255/2 14/6/2
f 21/7/1 19/258/1 42/8/1
f 89/10/2 88/259/2 86/11/2
f 60/13/3 135/260/3 136/14/3
f 147/16/4 29/261/4 30/17/4
f 26/19/1 140/262/1 36/20/1
f 91/22/4 74/263/4 75/23/4
f 135/25/1 60/38/1 157/26/1
f 158/28/1 5/264/1 15/29/1
f 75/31/1 74/265/1 155/32/1
f 96/34/4 79/266/4 2/35/4
f 139/37/3 138/101/3 86/38/3
f 27/40/4 119/267/4 132/41/4
f 109/43/5 32/220/5 31/44/5
f 155/268/6 153/214/6 154/269/6
f 154/269/6 89/270/6 87/271/6
f 156/272/6 157/273/6 106/274/6
f 155/268/6 154/269/6 87/271/6
f 156/272/6 106/274/6 103/275/6
f 155/268/6 87/271/6 156/272/6
f 93/276/6 155/268/6 156/272/6
f 103/275/6 161/277/6 122/278/6
f 93/276/6 156/272/6 103/275/6
f 42/279/6 93/276/6 103/275/6
f 103/275/6 122/278/6 45/280/6
f 103/275/6 45/280/6 44/281/6
f 43/282/6 42/279/6 103/275/6
f 90/283/6 19/284/6 20/285/6
f 43/282/6 103/275/6 44/281/6
f 16/48/6 90/283/6 20/285/6
f 20/285/6 43/282/6 44/281/6
f 85/46/6 160/286/6 159/47/6
f 20/285/6 44/281/6 85/46/6
f 159/47/6 158/287/6 16/48/6
f 16/48/6 20/285/6 85/46/6
f 47/49/6 97/180/6 21/50/6
f 96/52/6 95/288/6 78/53/6
f 94/55/6 92/289/6 75/56/6
f 100/28/4 149/290/4 130/58/4
f 6/60/4 5/291/4 158/61/4
f 123/63/3 8/131/3 9/64/3
f 99/66/2 98/292/2 31/67/2
f 130/69/1 149/293/1 150/70/1
f 116/72/3 24/294/3 132/73/3
f 129/75/4 78/223/4 95/76/4
f 23/80/2 49/295/2 45/296/2
f 45/296/2 137/254/2 116/5/2
f 45/296/2 116/5/2 117/297/2
f 6/298/2 159/299/2 160/79/2
f 27/78/2 115/257/2 6/298/2
f 23/80/2 45/296/2 117/297/2
f 27/78/2 6/298/2 160/79/2
f 23/80/2 117/297/2 27/78/2
f 125/83/5 114/300/5 151/301/5
f 125/83/5 151/301/5 54/302/5
f 50/303/5 68/304/5 125/83/5
f 51/305/5 50/303/5 125/83/5
f 125/83/5 54/302/5 53/81/5
f 53/81/5 55/306/5 77/307/5
f 77/307/5 52/308/5 83/82/5
f 83/82/5 51/305/5 125/83/5
f 53/81/5 77/307/5 83/82/5
f 120/84/2 35/309/2 132/85/2
f 70/87/1 69/310/1 133/88/1
f 112/311/4 111/312/4 124/90/4
f 124/90/4 142/313/4 28/91/4
f 28/91/4 76/314/4 102/315/4
f 145/92/4 112/311/4 124/90/4
f 28/91/4 102/315/4 145/92/4
f 160/93/4 85/97/4 22/94/4
f 49/94/5 48/316/5 44/96/5
f 130/98/3 38/317/3 56/99/3
f 15/20/3 5/262/3 6/101/3
f 81/103/4 143/318/4 17/104/4
f 39/106/2 37/71/2 100/69/2
f 103/108/2 106/319/2 105/109/2
f 94/111/2 93/9/2 91/7/2
f 41/113/1 82/132/1 51/114/1
f 148/116/6 104/320/6 58/117/6
f 36/119/3 140/321/3 25/120/3
f 90/122/2 134/322/2 4/123/2
f 89/124/5 154/323/5 139/125/5
f 148/127/5 62/324/5 61/128/5
f 68/130/3 124/325/3 111/131/3
f 116/40/5 35/267/5 120/133/5
f 118/135/3 137/72/3 121/74/3
f 12/139/2 1/326/2 95/327/2
f 96/137/2 3/328/2 13/138/2
f 12/139/2 95/327/2 96/137/2
f 137/140/4 45/250/4 122/141/4
f 147/143/6 112/251/6 145/144/6
f 141/146/1 8/329/1 123/147/1
f 11/149/3 129/330/3 1/150/3
f 17/152/3 71/331/3 128/138/3
f 15/154/4 115/332/4 14/333/4
f 64/155/4 65/334/4 73/335/4
f 64/155/4 73/335/4 133/336/4
f 15/154/4 14/333/4 64/155/4
f 90/337/4 16/338/4 15/154/4
f 64/155/4 133/336/4 134/156/4
f 134/156/4 90/337/4 15/154/4
f 49/157/6 23/339/6 22/158/6
f 100/188/6 80/340/6 72/160/6
f 72/160/6 77/341/6 150/161/6
f 149/162/6 100/188/6 72/160/6
f 133/95/3 69/93/3 4/163/3
f 53/167/1 61/326/1 62/327/1
f 58/165/1 59/342/1 55/166/1
f 53/167/1 62/327/1 58/165/1
f 61/140/3 53/343/3 54/168/3
f 123/171/5 110/344/5 34/345/5
f 98/169/5 99/346/5 126/347/5
f 123/171/5 34/345/5 98/169/5
f 144/170/5 33/348/5 123/171/5
f 98/169/5 126/347/5 144/170/5
f 65/349/1 64/350/1 56/172/1
f 138/173/1 139/351/1 154/352/1
f 25/353/1 66/354/1 65/349/1
f 154/352/1 153/355/1 67/174/1
f 25/353/1 65/349/1 56/172/1
f 138/173/1 154/352/1 67/174/1
f 67/174/1 25/353/1 56/172/1
f 47/175/5 84/164/5 42/163/5
f 4/105/4 69/104/4 70/177/4
f 47/49/2 43/356/2 20/179/2
f 30/109/2 29/357/2 145/181/2
f 22/182/1 85/31/1 44/33/1
f 152/184/5 59/358/5 58/185/5
f 151/359/6 114/360/6 108/187/6
f 13/361/6 3/362/6 2/363/6
f 59/364/6 152/365/6 151/359/6
f 150/161/6 77/341/6 55/366/6
f 55/366/6 59/364/6 151/359/6
f 13/361/6 2/363/6 80/340/6
f 13/361/6 80/340/6 100/188/6
f 150/161/6 55/366/6 151/359/6
f 37/189/6 150/161/6 151/359/6
f 108/187/6 13/361/6 100/188/6
f 37/189/6 151/359/6 108/187/6
f 153/190/5 63/367/5 36/191/5
f 20/192/4 19/368/4 21/193/4
f 94/195/5 46/369/5 155/196/5
f 161/198/2 57/370/2 121/199/2
f 120/201/6 119/371/6 27/202/6
f 125/372/2 111/373/2 112/374/2
f 125/372/2 112/374/2 147/375/2
f 34/376/2 110/377/2 9/378/2
f 146/379/2 34/376/2 9/378/2
f 114/205/2 125/372/2 147/375/2
f 114/205/2 147/375/2 113/380/2
f 146/379/2 9/378/2 108/204/2
f 114/205/2 113/380/2 109/206/2
f 109/206/2 146/379/2 108/204/2
f 128/207/1 10/381/1 81/208/1
f 101/210/3 130/98/3 64/100/3
f 131/212/3 56/99/3 38/317/3
f 131/212/3 38/317/3 39/382/3
f 101/210/3 64/100/3 14/211/3
f 131/212/3 39/382/3 101/210/3
f 42/279/6 19/284/6 90/283/6
f 90/283/6 7/383/6 70/384/6
f 73/385/6 65/386/6 66/213/6
f 90/283/6 70/384/6 73/385/6
f 91/387/6 93/276/6 42/279/6
f 153/214/6 155/268/6 74/215/6
f 91/387/6 42/279/6 90/283/6
f 74/215/6 91/387/6 90/283/6
f 66/213/6 26/388/6 63/389/6
f 74/215/6 90/283/6 73/385/6
f 66/213/6 63/389/6 153/214/6
f 74/215/6 73/385/6 66/213/6
f 39/216/5 38/390/5 150/217/5
f 106/219/5 157/391/5 60/220/5
f 50/224/6 51/392/6 82/393/6
f 40/222/6 28/394/6 142/223/6
f 50/224/6 82/393/6 40/222/6
f 71/395/4 72/396/4 80/397/4
f 71/395/4 80/397/4 11/398/4
f 128/399/4 71/395/4 11/398/4
f 12/225/4 13/400/4 108/401/4
f 128/399/4 11/398/4 12/225/4
f 8/402/4 141/403/4 10/227/4
f 10/227/4 128/399/4 12/225/4
f 12/225/4 108/401/4 9/226/4
f 9/226/4 8/402/4 10/227/4
f 52/228/3 127/404/3 41/229/3
f 102/231/3 76/405/3 126/406/3
f 99/232/3 32/365/3 109/407/3
f 102/231/3 126/406/3 99/232/3
f 113/233/3 30/408/3 102/231/3
f 99/232/3 109/407/3 113/233/3
f 56/211/5 131/409/5 118/410/5
f 118/410/5 57/411/5 161/412/5
f 161/412/5 103/413/5 136/414/5
f 135/234/5 156/415/5 87/416/5
f 118/410/5 161/412/5 136/414/5
f 135/234/5 87/416/5 86/417/5
f 56/211/5 118/410/5 136/414/5
f 135/234/5 86/417/5 138/235/5
f 56/211/5 136/414/5 135/234/5
f 107/237/2 54/418/2 151/132/2
f 151/132/2 152/114/2 104/236/2
f 104/236/2 148/176/2 107/237/2
f 76/419/1 28/420/1 40/421/1
f 127/422/1 52/423/1 77/424/1
f 76/419/1 40/421/1 127/422/1
f 143/425/1 144/426/1 126/238/1
f 126/238/1 76/419/1 127/422/1
f 127/422/1 77/424/1 72/239/1
f 72/239/1 71/427/1 17/240/1
f 17/240/1 143/425/1 126/238/1
f 126/238/1 127/422/1 72/239/1
f 141/150/6 33/151/6 144/428/6
f 143/241/6 81/429/6 10/127/6
f 141/150/6 144/428/6 143/241/6
f 41/242/5 127/430/5 40/243/5
f 78/431/1 129/432/1 11/245/1
f 11/245/1 80/433/1 2/246/1
f 79/247/1 78/431/1 11/245/1
f 25/248/4 140/145/4 26/249/4
f 34/251/6 146/434/6 31/252/6
