# Blender 4.2.0
# www.blender.org
mtllib Untitled.006.mtl
o Untitled.006
v -30.561428 0.700000 3.686073
v -30.561428 1.100000 3.686073
v -30.461428 1.600000 3.886073
v -30.461428 1.700000 3.886073
v -30.361427 0.000000 4.086073
v -30.361427 0.700000 3.686073
v -30.361427 1.200000 3.986073
v -30.361427 1.200000 3.686073
v -30.361427 1.200000 3.586073
v -30.361427 1.400000 3.486073
v -30.361427 1.600000 3.486073
v -30.361427 1.900000 3.386073
v -30.361427 2.100000 4.186073
v -30.261427 1.900000 3.486073
v -30.261427 2.000000 3.486073
v -30.161428 1.800000 3.386073
v -30.061428 1.200000 3.986073
v -30.061428 1.200000 3.386073
v -30.061428 1.300000 3.886073
v -30.061428 1.300000 3.686073
v -30.061428 1.400000 3.886073
v -30.061428 1.400000 3.386073
v -30.061428 1.700000 3.486073
v -30.061428 1.800000 3.386073
v -30.061428 1.800000 3.286073
v -29.861427 -0.000000 3.586073
v -29.861427 0.100000 3.586073
v -29.861427 0.400000 3.686073
v -29.861427 0.900000 3.986073
v -29.761427 0.100000 3.686073
v -29.561428 1.700000 4.186073
v -29.561428 1.900000 4.086072
v -30.061428 0.400000 3.986073
v -30.061428 1.100000 4.086073
v -30.061428 1.100000 3.986073
v -29.861427 1.200000 3.886073
v -29.861427 1.200000 3.686073
v -29.861427 1.200000 3.586073
v -29.861427 1.200000 3.386073
v -29.861427 1.300000 3.986073
v -29.861427 1.300000 3.886073
v -29.861427 1.800000 3.386073
v -29.761427 1.200000 3.686073
v -29.661428 0.100000 3.886073
v -29.661428 0.600000 3.986073
v -29.661428 0.600000 3.886073
v -29.661428 0.900000 4.086073
v -29.661428 0.900000 3.986073
v -29.661428 1.100000 4.086073
v -29.661428 1.900000 3.386073
v -29.661428 2.000000 3.386073
v -29.661428 2.100000 3.986073
v -29.661428 2.200000 3.986073
v -29.561428 -0.000000 3.586073
v -29.561428 0.100000 4.086073
v -29.561428 0.100000 3.886073
v -29.561428 0.600000 3.886073
v -29.561428 0.700000 3.886073
v -29.561428 1.400000 4.086072
v -29.561428 1.400000 3.486073
v -29.561428 1.900000 4.186073
v -29.561428 2.100000 4.186073
v -29.361427 0.700000 3.886073
v -30.361427 1.700000 4.186073
v -30.361427 1.900000 4.186073
v -30.361427 0.100000 4.086073
v -30.361427 1.700000 4.086072
v -30.061428 0.000000 4.086073
v -30.061428 0.100000 4.086073
v -29.861427 1.100000 4.086073
v -29.561428 0.000000 4.086073
v -30.161428 2.100000 3.986073
v -30.161428 2.200000 3.986073
v -30.061428 1.300000 3.986073
v -29.861427 1.100000 3.986073
v -30.561428 1.100000 3.886073
v -30.461428 1.200000 3.886073
v -30.361427 1.200000 3.886073
v -30.361427 1.700000 3.886073
v -30.261427 0.600000 3.886073
v -30.161428 1.300000 3.886073
v -30.061428 1.200000 3.886073
v -29.561428 1.700000 3.886073
v -29.461428 1.100000 3.886073
v -30.061428 1.200000 3.486073
v -29.861427 1.200000 3.486073
v -30.461428 1.100000 3.686073
v -30.161428 0.400000 3.686073
v -30.061428 1.200000 3.686073
v -30.061428 1.400000 3.686073
v -29.861427 0.100000 3.686073
v -29.861427 1.300000 3.686073
v -29.561428 1.200000 3.686073
v -29.361427 0.700000 3.686073
v -30.361427 -0.000000 3.586073
v -30.161428 0.100000 3.586073
v -30.161428 2.100000 3.586073
v -30.161428 2.200000 3.586073
v -30.061428 -0.000000 3.586073
v -30.061428 1.200000 3.586073
v -30.061428 1.300000 3.586073
v -29.761427 0.100000 3.586073
v -29.761427 0.400000 3.586073
v -29.561428 1.200000 3.586073
v -30.061428 1.400000 3.486073
v -29.861427 1.400000 3.486073
v -29.661428 1.900000 3.486073
v -29.561428 1.600000 3.486073
v -29.561428 1.700000 3.486073
v -29.561428 2.100000 3.486073
v -29.461428 1.900000 3.486073
v -30.361427 1.700000 3.386073
v -30.261427 2.000000 3.386073
v -30.161428 1.900000 3.386073
v -29.861427 1.700000 3.386073
v -29.761427 1.900000 3.386073
v -30.161428 1.900000 3.286073
v -29.861427 1.800000 3.286073
v -29.761427 1.800000 3.286073
v -29.761427 1.900000 3.286073
v -29.861427 0.000000 4.086073
v -29.861427 0.400000 3.986073
v -30.061428 0.400000 3.686073
v -29.761427 0.400000 3.686073
v -30.161428 0.400000 3.586073
v -30.361427 0.600000 3.986073
v -30.261427 0.600000 3.986073
v -29.561428 0.600000 3.986073
v -30.361427 0.600000 3.886073
v -30.561428 0.700000 3.886073
v -30.361427 0.700000 3.886073
v -29.561428 0.700000 3.686073
v -30.261427 0.900000 4.086073
v -30.061428 0.900000 4.086073
v -29.861427 0.900000 4.086073
v -30.261427 0.900000 3.986073
v -30.061428 0.900000 3.986073
v -30.361427 1.400000 4.086072
v -29.861427 1.400000 3.886073
v -29.861427 1.400000 3.686073
v -29.861427 1.400000 3.386073
v -30.061428 1.400000 3.286073
v -29.861427 1.400000 3.286073
v -30.361427 1.600000 3.886073
v -29.561428 1.600000 3.886073
v -29.461428 1.600000 3.886073
v -30.461428 1.600000 3.486073
v -29.461428 1.600000 3.486073
v -30.461428 1.700000 4.186073
v -29.461428 1.700000 4.186073
v -29.561428 1.700000 4.086072
v -29.461428 1.700000 3.886073
v -30.361427 1.700000 3.486073
v -29.861427 1.700000 3.486073
v -30.061428 1.700000 3.386073
v -29.561428 1.700000 3.386073
v -29.761427 1.800000 3.386073
v -30.161428 1.800000 3.286073
v -30.361427 1.900000 4.086072
v -29.861427 0.100000 4.086073
v -30.261427 0.100000 3.986073
v -30.061428 0.100000 3.986073
v -29.861427 0.100000 3.986073
v -29.661428 0.100000 3.986073
v -30.361427 0.100000 3.886073
v -30.261427 0.100000 3.886073
v -30.161428 0.100000 3.686073
v -30.061428 0.100000 3.686073
v -30.061428 0.100000 3.586073
v -30.261427 1.100000 4.086073
v -30.261427 1.100000 3.986073
v -29.661428 1.100000 3.986073
v -30.461428 1.100000 3.886073
v -29.361427 1.100000 3.886073
v -29.461428 1.100000 3.686073
v -29.361427 1.100000 3.686073
v -29.861427 1.200000 3.986073
v -29.561428 1.200000 3.986073
v -30.161428 1.200000 3.886073
v -29.761427 1.200000 3.886073
v -29.561428 1.200000 3.886073
v -29.461428 1.200000 3.886073
v -30.461428 1.200000 3.686073
v -30.161428 1.200000 3.686073
v -29.461428 1.200000 3.686073
v -29.761427 1.300000 3.886073
v -30.161428 1.300000 3.686073
v -29.761427 1.300000 3.686073
v -29.861427 1.300000 3.586073
v -30.461428 1.900000 4.186073
v -29.461428 1.900000 4.186073
v -30.461428 1.900000 3.486073
v -30.361427 1.900000 3.486073
v -29.561428 1.900000 3.486073
v -30.261427 1.900000 3.386073
v -29.561428 1.900000 3.386073
v -29.661428 2.000000 3.486073
v -29.661428 2.100000 3.586073
v -30.361427 2.100000 3.486073
v -29.661428 2.200000 3.586073
vn -0.0000 -1.0000 -0.0000
vn -0.0000 1.0000 -0.0000
vn -0.0000 -0.0000 -1.0000
vn 1.0000 -0.0000 -0.0000
vn -0.0000 -0.0000 1.0000
vn -1.0000 -0.0000 -0.0000
vt 0.971429 0.485714
vt 0.942857 0.457143
vt 0.971429 0.457143
vt 0.914286 0.685714
vt 0.885714 0.571429
vt 0.914286 0.571429
vt 0.514286 0.971429
vt 0.485714 0.942857
vt 0.514286 0.942857
vt 0.200000 0.885714
vt 0.142857 0.914286
vt 0.228571 0.914286
vt 0.057143 0.114286
vt -0.000000 0.000000
vt 0.142857 0.342857
vt 0.885714 0.342857
vt 0.857143 0.542857
vt 0.885714 0.542857
vt 0.057143 0.942857
vt 0.000000 0.971429
vt 0.000000 0.942857
vt 0.742857 0.885714
vt 0.714286 0.942857
vt 0.742857 0.942857
vt 0.942857 0.771429
vt 0.914286 0.828571
vt 0.942857 0.828571
vt 0.285714 0.742857
vt 0.371429 0.657143
vt 0.285714 0.714286
vt 0.885714 0.885714
vt 0.742857 0.914286
vt 0.742857 0.885714
vt 0.000000 0.771429
vt 0.028571 0.914286
vt 0.028571 0.885714
vt 0.971429 0.371429
vt 0.942857 0.400000
vt 0.942857 0.371429
vt 0.457143 0.800000
vt 0.542857 0.771429
vt 0.542857 0.800000
vt 0.942857 0.485714
vt 0.914286 0.542857
vt 0.914286 0.485714
vt 0.857143 0.857143
vt 0.771429 0.714286
vt 0.857143 0.714286
vt 0.942857 0.171429
vt 0.914286 0.085714
vt 0.914286 0.171429
vt 0.314286 0.285714
vt 0.371429 0.285714
vt 0.228571 0.314286
vt 0.914286 0.342857
vt 0.885714 0.457143
vt 0.885714 0.342857
vt 0.542857 0.742857
vt 0.542857 0.685714
vt 0.485714 0.685714
vt 0.685714 0.485714
vt 0.657143 0.371429
vt 0.742857 0.371429
vt 0.428571 0.228571
vt 0.428571 0.142857
vt 0.457143 0.314286
vt 0.171429 0.457143
vt 0.342857 0.485714
vt 0.200000 0.457143
vt 0.514286 0.942857
vt 0.542857 0.971429
vt 0.542857 0.942857
vt 0.742857 0.885714
vt 0.771429 0.742857
vt 0.771429 0.885714
vt 0.571429 0.885714
vt 0.571429 0.771429
vt 0.171429 0.685714
vt 0.171429 0.771429
vt 0.142857 0.800000
vt 0.685714 0.742857
vt 0.742857 0.857143
vt 0.714286 0.857143
vt 0.228571 0.914286
vt 0.314286 0.885714
vt 0.257143 0.885714
vt 0.742857 0.914286
vt 0.800000 0.942857
vt 0.800000 0.914286
vt 0.742857 0.542857
vt 0.885714 0.571429
vt 0.885714 0.542857
vt 0.114286 0.942857
vt 0.057143 0.971429
vt 0.914286 0.828571
vt 0.857143 0.771429
vt 0.914286 0.771429
vt 0.428571 0.914286
vt 0.342857 0.942857
vt 0.342857 0.914286
vt 0.171429 0.942857
vt 0.114286 0.971429
vt 0.971429 0.485714
vt 0.942857 0.514286
vt 0.971429 0.514286
vt 0.857143 0.771429
vt 0.885714 0.771429
vt 0.971429 0.342857
vt 0.942857 0.314286
vt 0.971429 0.314286
vt 0.171429 0.828571
vt 0.142857 0.857143
vt 0.371429 0.857143
vt 0.800000 0.257143
vt 0.857143 0.200000
vt 0.857143 0.257143
vt 0.514286 0.857143
vt 0.371429 0.885714
vt 0.428571 0.857143
vt 0.885714 0.742857
vt 0.942857 0.685714
vt 0.942857 0.742857
vt 0.942857 0.257143
vt 0.914286 0.285714
vt 0.942857 0.200000
vt 0.771429 0.571429
vt 0.857143 0.571429
vt 0.342857 0.371429
vt 0.342857 0.571429
vt 0.400000 0.400000
vt 0.942857 0.657143
vt 0.914286 0.685714
vt 0.914286 0.657143
vt 0.742857 0.342857
vt 0.857143 0.285714
vt 0.742857 0.314286
vt 0.857143 0.485714
vt 0.742857 0.485714
vt 0.914286 0.000000
vt 0.857143 0.200000
vt 0.857143 0.000000
vt 0.942857 0.085714
vt 0.914286 0.057143
vt 0.914286 -0.000000
vt 0.085714 0.942857
vt -0.000000 0.914286
vt 0.085714 0.914286
vt 0.571429 0.942857
vt 0.514286 0.885714
vt 0.942857 0.200000
vt 0.971429 0.257143
vt 0.971429 0.200000
vt 0.971429 0.542857
vt 0.942857 0.571429
vt 0.942857 0.542857
vt 0.885714 0.857143
vt 0.771429 0.885714
vt 0.885714 0.885714
vt 0.542857 0.114286
vt 0.457143 0.171429
vt 0.542857 0.057143
vt 0.942857 0.600000
vt 0.914286 0.657143
vt 0.942857 0.657143
vt 0.771429 0.457143
vt 0.771429 0.485714
vt 0.828571 0.457143
vt 0.085714 0.942857
vt 0.171429 0.914286
vt 0.171429 0.942857
vt 0.457143 0.942857
vt 0.400000 0.971429
vt 0.457143 0.971429
vt 0.971429 0.171429
vt 0.914286 0.200000
vt 0.857143 0.342857
vt 0.685714 0.371429
vt 0.857143 0.371429
vt 0.914286 0.200000
vt 0.857143 0.314286
vt 0.885714 0.314286
vt 0.428571 0.771429
vt 0.457143 0.828571
vt 0.371429 0.828571
vt 0.457143 0.371429
vt 0.228571 0.342857
vt 0.457143 0.342857
vt 0.971429 0.342857
vt 0.942857 0.371429
vt 0.971429 0.371429
vt 0.685714 0.257143
vt 0.457143 0.257143
vt 0.685714 0.171429
vt 0.685714 0.942857
vt 0.714286 0.914286
vt 0.714286 0.942857
vt 0.571429 0.942857
vt 0.542857 0.942857
vt 0.714286 0.914286
vt 0.571429 0.914286
vt 0.800000 0.000000
vt 0.942857 0.542857
vt 0.914286 0.600000
vt 0.914286 0.542857
vt 0.942857 0.057143
vt 0.971429 0.000000
vt 0.971429 0.057143
vt 0.571429 0.885714
vt 0.685714 0.828571
vt 0.685714 0.885714
vt 0.600000 0.971429
vt 0.571429 0.971429
vt 0.514286 0.628571
vt 0.400000 0.628571
vt 0.542857 0.657143
vt 0.228571 0.971429
vt 0.228571 0.942857
vt 0.485714 0.971429
vt 0.457143 0.942857
vt 0.485714 0.942857
vt 0.942857 0.828571
vt 0.914286 0.857143
vt 0.942857 0.857143
vt 0.285714 0.942857
vt 0.285714 0.971429
vt 0.428571 0.914286
vt 0.485714 0.914286
vt 0.971429 0.428571
vt 0.942857 0.457143
vt 0.971429 0.457143
vt 0.114286 0.914286
vt 0.142857 0.771429
vt 0.142857 0.914286
vt 0.142857 0.657143
vt -0.000000 0.771429
vt 0.142857 0.771429
vt 0.971429 0.257143
vt 0.942857 0.314286
vt 0.657143 0.371429
vt 0.571429 0.485714
vt 0.600000 0.485714
vt 0.942857 0.628571
vt 0.971429 0.600000
vt 0.971429 0.628571
vt 0.400000 0.971429
vt 0.400000 0.942857
vt 0.600000 -0.000000
vt 0.600000 0.057143
vt 0.942857 0.400000
vt 0.971429 0.428571
vt 0.971429 0.400000
vt 0.542857 0.514286
vt 0.571429 0.371429
vt 0.542857 0.400000
vt 0.714286 0.257143
vt 0.714286 0.171429
vt 0.685714 0.142857
vt 0.857143 0.942857
vt 0.857143 0.914286
vt 0.942857 0.514286
vt 0.971429 0.542857
vt 0.971429 0.514286
vt 0.657143 0.628571
vt 0.657143 0.657143
vt 0.685714 0.714286
vt 0.885714 0.857143
vt 0.942857 0.885714
vt 0.942857 0.857143
vt 0.314286 0.914286
vt 0.371429 0.857143
vt 0.371429 0.914286
vt 0.914286 0.371429
vt 0.942857 0.428571
vt 0.257143 0.914286
vt 0.942857 0.942857
vt 0.885714 0.885714
vt 0.885714 0.942857
vt 0.885714 0.742857
vt 0.942857 0.742857
vt 0.942857 0.600000
vt 0.971429 0.571429
vt 0.971429 0.600000
vt 0.342857 0.971429
vt 0.285714 0.942857
vt 0.342857 0.942857
vt 0.657143 0.742857
vt 0.600000 0.742857
vt 0.571429 0.714286
vt 0.085714 0.885714
vt 0.057143 0.771429
vt 0.114286 0.771429
vt 0.885714 0.914286
vt 0.885714 0.942857
vt 0.628571 0.914286
vt 0.571429 0.942857
vt 0.628571 0.942857
vt 0.371429 0.914286
vt 0.514286 0.914286
vt 0.742857 0.685714
vt 0.685714 0.571429
vt 0.685714 0.742857
vt 0.800000 0.285714
vt 0.857143 0.257143
vt 0.857143 0.285714
vt 0.914286 0.428571
vt 0.942857 0.428571
vt 0.914286 0.571429
vt 0.885714 0.457143
vt 0.914286 0.457143
vt 0.457143 0.371428
vt 0.685714 0.314286
vt 0.685714 0.371428
vt 0.628571 0.971429
vt 0.600000 0.942857
vt 0.685714 0.914286
vt 0.628571 0.942857
vt 0.685714 0.942857
vt 0.171429 0.600000
vt 0.000000 0.514286
vt 0.200000 0.600000
vt 0.485714 0.914286
vt 0.514286 0.914286
vt 0.942857 0.171429
vt 0.971428 0.114286
vt 0.971428 0.171429
vt 0.257143 0.942857
vt 0.171429 0.914286
vt 0.257143 0.914286
vt 0.914286 0.857143
vt 0.857143 0.828571
vt 0.857143 0.857143
vt 0.971428 0.057143
vt 0.942857 0.114286
vt 0.971428 0.114286
vt 0.800000 0.142857
vt 0.771429 0.114286
vt 0.714286 0.114286
vt 0.942857 0.485714
vt 0.885714 0.685714
vt 0.485714 0.971429
vt 0.228571 0.857143
vt 0.200000 0.857143
vt 0.142857 0.885714
vt 0.228571 0.000000
vt 0.142857 0.000000
vt 0.142857 0.028571
vt 0.171429 0.028571
vt 0.228571 0.342857
vt 0.085714 0.371429
vt 0.142857 0.371429
vt -0.000000 0.342857
vt 0.085714 0.342857
vt 0.171429 0.114286
vt 0.085714 0.028571
vt 0.085714 0.000000
vt 0.057143 0.028571
vt 0.857143 0.342857
vt 0.057143 0.971429
vt 0.714286 0.885714
vt 0.914286 0.771429
vt 0.257143 0.714286
vt 0.257143 0.800000
vt 0.285714 0.800000
vt 0.371429 0.742857
vt 0.285714 0.657143
vt 0.885714 0.914286
vt 0.057143 0.885714
vt 0.000000 0.914286
vt 0.971429 0.400000
vt 0.457143 0.771429
vt 0.771429 0.857143
vt 0.942857 0.085714
vt 0.257143 0.142857
vt 0.257143 0.000000
vt 0.314286 0.000000
vt 0.314286 0.085714
vt 0.371429 0.085714
vt 0.314286 0.228571
vt 0.228571 0.142857
vt 0.371429 0.342857
vt 0.314286 0.342857
vt 0.314286 0.314286
vt 0.257143 0.228571
vt 0.371429 0.314286
vt 0.371429 0.228571
vt 0.257143 0.285714
vt 0.914286 0.457143
vt 0.571429 0.742857
vt 0.571429 0.685714
vt 0.542857 0.657143
vt 0.457143 0.657143
vt 0.457143 0.771429
vt 0.542857 0.771429
vt 0.485714 0.742857
vt 0.457143 0.742857
vt 0.457143 0.685714
vt 0.742857 0.571429
vt 0.685714 0.571429
vt 0.657143 0.485714
vt 0.371429 0.000000
vt 0.428571 0.000000
vt 0.457143 0.142857
vt 0.428571 0.285714
vt 0.342857 0.400000
vt 0.000000 0.371429
vt 0.028571 0.514286
vt 0.028571 0.457143
vt 0.200000 0.400000
vt 0.342857 0.457143
vt 0.171429 0.485714
vt 0.514286 0.971429
vt 0.742857 0.742857
vt 0.542857 0.885714
vt 0.171429 0.657143
vt 0.257143 0.685714
vt 0.257143 0.771429
vt 0.171429 0.800000
vt 0.714286 0.885714
vt 0.742857 0.742857
vt 0.257143 0.857143
vt 0.228571 0.857143
vt 0.314286 0.914286
vt 0.742857 0.942857
vt 0.857143 0.828571
vt 0.428571 0.942857
vt 0.171429 0.971429
vt 0.857143 0.571429
vt 0.942857 0.342857
vt 0.371429 0.800000
vt 0.342857 0.800000
vt 0.342857 0.828571
vt 0.171429 0.800000
vt 0.142857 0.800000
vt 0.800000 0.200000
vt 0.428571 0.828571
vt 0.542857 0.828571
vt 0.542857 0.857143
vt 0.514286 0.885714
vt 0.428571 0.885714
vt 0.885714 0.685714
vt 0.942857 0.285714
vt 0.571429 0.571429
vt 0.400000 0.514286
vt 0.942857 0.685714
vt 0.685714 0.314286
vt 0.685714 0.342857
vt 0.828571 0.342857
vt 0.828571 0.314286
vt 0.857143 0.314286
vt 0.742857 0.285714
vt 0.857143 0.542857
vt 0.942857 -0.000000
vt 0.914286 0.085714
vt -0.000000 0.942857
vt 0.514286 0.942857
vt 0.942857 0.257143
vt 0.971429 0.571429
vt 0.771429 0.857143
vt 0.600000 0.114286
vt 0.457143 -0.000000
vt 0.542857 -0.000000
vt 0.914286 0.600000
vt 0.857143 0.400000
vt 0.771429 0.371429
vt 0.771429 0.400000
vt 0.742857 0.400000
vt 0.742857 0.457143
vt 0.828571 0.400000
vt 0.857143 0.485714
vt 0.857143 0.457143
vt 0.085714 0.914286
vt 0.971429 0.200000
vt 0.685714 0.342857
vt 0.914286 0.342857
vt 0.857143 0.200000
vt 0.371429 0.657143
vt 0.428571 0.657143
vt 0.228571 0.371429
vt 0.942857 0.342857
vt 0.714286 0.885714
vt 0.800000 0.200000
vt 0.942857 0.000000
vt 0.571429 0.828571
vt 0.400000 0.600000
vt 0.428571 0.600000
vt 0.428571 0.571429
vt 0.342857 0.571429
vt 0.342857 0.628571
vt 0.371429 0.628571
vt 0.371429 0.657143
vt 0.542857 0.628571
vt 0.571429 0.628571
vt 0.571429 0.571429
vt 0.485714 0.571429
vt 0.485714 0.600000
vt 0.514286 0.600000
vt 0.457143 0.971429
vt 0.914286 0.828571
vt 0.114286 0.771429
vt -0.000000 0.657143
vt 0.971429 0.314286
vt 0.600000 0.571429
vt 0.657143 0.571429
vt 0.571429 0.371429
vt 0.342857 0.971429
vt 0.685714 -0.000000
vt 0.942857 0.428571
vt 0.685714 0.285714
vt 0.714286 0.285714
vt 0.800000 0.257143
vt 0.800000 0.171429
vt 0.714286 0.142857
vt 0.800000 0.942857
vt 0.942857 0.542857
vt 0.685714 0.628571
vt 0.571429 0.657143
vt 0.657143 0.714286
vt 0.885714 0.885714
vt 0.314286 0.857143
vt 0.914286 0.428571
vt 0.942857 0.885714
vt 0.885714 0.771429
vt 0.285714 0.971429
vt 0.685714 0.742857
vt 0.657143 0.828571
vt 0.600000 0.828571
vt 0.571429 0.742857
vt 0.114286 0.914286
vt 0.085714 0.914286
vt 0.857143 0.914286
vt 0.571429 0.914286
vt 0.371429 0.885714
vt 0.771429 0.742857
vt 0.771429 0.685714
vt 0.742857 0.571429
vt 0.885714 0.571429
vt 0.457143 0.314286
vt 0.628571 0.942857
vt 0.628571 0.914286
vt 0.171429 0.628571
vt 0.028571 0.600000
vt 0.028571 0.657143
vt 0.000000 0.657143
vt 0.342857 0.514286
vt 0.342857 0.542857
vt 0.200000 0.542857
vt 0.342857 0.600000
vt 0.942857 0.114286
vt 0.914286 0.828571
vt 0.942857 0.057143
vt 0.685714 0.114286
vt 0.685714 0.142857
vt 0.800000 0.114286
vt 0.771429 0.000000
vt 0.714286 0.000000
s 0
usemtl Untitled.006_Material
f 128/1/1 46/2/1 57/3/1
f 144/4/1 147/5/1 11/6/1
f 24/7/1 158/8/1 25/9/1
f 164/10/2 160/11/2 55/12/2
f 125/13/3 95/14/3 38/15/3
f 111/16/2 61/17/2 191/18/2
f 159/19/4 64/20/4 67/21/4
f 176/22/2 84/23/2 174/24/2
f 188/25/2 41/26/2 186/27/2
f 153/28/3 105/29/3 11/30/3
f 46/31/4 164/32/4 44/33/4
f 132/34/3 185/35/3 175/36/3
f 120/37/4 157/38/4 119/39/4
f 160/40/5 71/41/5 55/42/5
f 140/43/4 41/44/4 92/45/4
f 68/46/1 95/47/1 99/48/1
f 124/49/3 91/50/3 28/51/3
f 35/52/5 75/53/5 7/54/5
f 200/55/4 52/56/4 198/57/4
f 181/58/2 93/59/2 43/60/2
f 152/61/4 148/62/4 111/63/4
f 48/64/5 45/65/5 178/66/5
f 129/67/6 7/68/6 131/69/6
f 82/70/6 74/71/6 19/72/6
f 129/73/5 166/74/5 80/75/5
f 97/41/6 73/76/6 98/77/6
f 168/78/4 162/79/4 68/80/4
f 58/81/5 174/82/5 84/83/5
f 66/84/2 162/85/2 161/86/2
f 112/87/6 193/88/6 12/89/6
f 166/90/6 127/91/6 80/92/6
f 35/93/4 134/94/4 137/19/4
f 63/95/1 132/96/1 94/97/1
f 125/98/4 167/99/4 96/100/4
f 172/101/4 47/102/4 48/93/4
f 196/103/2 107/104/2 194/105/2
f 193/5/2 190/106/2 65/107/2
f 127/108/1 129/109/1 80/110/1
f 15/111/3 199/112/3 110/113/3
f 70/114/5 47/115/5 49/116/5
f 115/117/4 86/118/4 141/119/4
f 105/120/5 86/121/5 106/122/5
f 67/123/1 149/124/1 79/125/1
f 71/48/1 26/126/1 54/127/1
f 199/128/2 13/129/2 97/130/2
f 51/131/4 107/132/4 50/133/4
f 105/134/6 25/135/6 22/136/6
f 130/90/6 2/137/6 1/138/6
f 110/139/4 61/140/4 194/141/4
f 150/142/1 151/143/1 83/144/1
f 109/145/1 115/146/1 156/147/1
f 131/148/1 1/149/1 6/76/1
f 184/150/6 81/151/6 187/152/6
f 41/153/4 177/154/4 36/155/4
f 120/156/2 114/157/2 116/158/2
f 21/159/1 138/160/1 90/161/1
f 87/162/2 76/163/2 173/164/2
f 78/165/2 7/166/2 179/167/2
f 66/168/5 68/169/5 69/170/5
f 35/171/2 170/172/2 34/173/2
f 196/174/4 109/175/4 156/51/4
f 51/176/2 15/177/2 197/178/2
f 6/179/3 2/180/3 87/181/3
f 145/182/4 151/183/4 59/184/4
f 61/185/1 159/186/1 32/187/1
f 169/188/2 167/189/2 168/190/2
f 151/191/5 67/192/5 59/193/5
f 83/194/5 146/195/5 152/196/5
f 189/197/4 37/71/4 38/198/4
f 200/199/3 97/76/3 98/200/3
f 193/201/6 13/140/6 199/141/6
f 185/202/4 84/203/4 175/204/4
f 61/205/5 150/206/5 191/207/5
f 63/208/4 176/209/4 174/210/4
f 188/211/3 37/148/3 92/212/3
f 116/213/3 114/214/3 51/215/3
f 47/216/1 29/101/1 48/217/1
f 157/218/1 118/219/1 119/220/1
f 102/221/2 91/222/2 30/223/2
f 172/224/2 70/216/2 49/225/2
f 86/220/1 18/226/1 39/227/1
f 195/228/2 193/229/2 14/230/2
f 46/231/5 56/232/5 57/233/5
f 200/234/2 73/235/2 53/236/2
f 188/237/4 180/238/4 43/123/4
f 192/239/6 3/240/6 4/241/6
f 81/242/5 82/243/5 19/244/5
f 141/245/1 142/99/1 143/246/1
f 106/247/1 59/193/1 140/248/1
f 158/249/6 114/250/6 117/251/6
f 52/252/2 110/253/2 198/254/2
f 163/255/6 91/256/6 26/257/6
f 29/89/6 70/258/6 75/259/6
f 100/260/6 20/261/6 101/262/6
f 108/263/3 109/264/3 111/265/3
f 151/266/6 61/267/6 32/268/6
f 170/269/5 134/270/5 34/271/5
f 87/272/6 77/273/6 183/189/6
f 102/274/6 124/99/6 103/100/6
f 141/275/3 18/276/3 22/277/3
f 136/278/6 170/25/6 171/279/6
f 41/280/5 180/281/5 186/282/5
f 134/283/1 136/284/1 137/285/1
f 28/286/1 123/287/1 125/288/1
f 173/289/5 130/290/5 131/291/5
f 4/258/5 144/292/5 79/293/5
f 41/294/2 74/295/2 40/296/2
f 73/297/5 52/149/5 53/298/5
f 144/299/6 10/300/6 138/301/6
f 21/302/5 41/303/5 139/304/5
f 20/305/6 21/43/6 90/306/6
f 146/307/1 108/308/1 148/309/1
f 13/310/5 61/311/5 62/312/5
f 20/313/3 184/314/3 187/211/3
f 189/315/2 20/316/2 92/317/2
f 57/318/4 54/319/4 58/320/4
f 195/321/6 15/9/6 113/322/6
f 190/323/5 64/324/5 65/325/5
f 123/189/3 167/124/3 88/272/3
f 23/326/1 112/327/1 155/328/1
f 140/329/3 20/330/3 90/331/3
f 20/332/2 81/333/2 19/334/2
f 120/335/3 118/336/3 25/337/3
f 128/1/1 45/338/1 46/2/1
f 144/4/1 3/339/1 147/5/1
f 24/7/1 16/340/1 158/8/1
f 55/12/2 56/341/2 44/342/2
f 164/10/2 163/343/2 160/11/2
f 55/12/2 44/342/2 164/10/2
f 54/344/3 26/345/3 27/346/3
f 54/344/3 27/346/3 102/347/3
f 38/15/3 104/348/3 54/344/3
f 101/349/3 189/350/3 38/15/3
f 95/14/3 9/351/3 100/352/3
f 100/352/3 101/349/3 38/15/3
f 54/344/3 102/347/3 103/353/3
f 38/15/3 54/344/3 103/353/3
f 95/14/3 100/352/3 38/15/3
f 169/354/3 99/355/3 95/14/3
f 96/356/3 169/354/3 95/14/3
f 38/15/3 103/353/3 125/13/3
f 125/13/3 96/356/3 95/14/3
f 111/16/2 194/357/2 61/17/2
f 159/19/4 65/358/4 64/20/4
f 176/22/2 175/359/2 84/23/2
f 188/25/2 92/360/2 41/26/2
f 147/361/3 192/362/3 193/363/3
f 153/28/3 23/364/3 105/29/3
f 147/361/3 193/363/3 153/28/3
f 105/29/3 10/365/3 11/30/3
f 11/30/3 147/361/3 153/28/3
f 46/31/4 45/366/4 164/32/4
f 176/367/3 94/290/3 132/34/3
f 132/34/3 93/368/3 185/35/3
f 175/36/3 176/367/3 132/34/3
f 120/37/4 116/369/4 157/38/4
f 160/40/5 121/370/5 71/41/5
f 140/43/4 139/155/4 41/44/4
f 68/46/1 5/371/1 95/47/1
f 124/49/3 30/372/3 91/50/3
f 127/373/5 161/374/5 162/375/5
f 33/376/5 122/377/5 137/378/5
f 127/373/5 162/375/5 33/376/5
f 7/54/5 126/379/5 127/373/5
f 40/380/5 74/381/5 17/382/5
f 127/373/5 33/376/5 137/378/5
f 127/373/5 137/378/5 136/383/5
f 177/384/5 40/380/5 17/382/5
f 35/52/5 29/385/5 75/53/5
f 75/53/5 177/384/5 17/382/5
f 7/54/5 127/373/5 136/383/5
f 7/54/5 136/383/5 171/386/5
f 75/53/5 17/382/5 7/54/5
f 7/54/5 171/386/5 35/52/5
f 200/55/4 53/387/4 52/56/4
f 181/58/2 182/388/2 185/389/2
f 93/59/2 104/390/2 38/391/2
f 181/58/2 185/389/2 93/59/2
f 177/392/2 178/393/2 181/58/2
f 180/394/2 36/395/2 177/392/2
f 38/391/2 37/396/2 43/60/2
f 180/394/2 177/392/2 181/58/2
f 93/59/2 38/391/2 43/60/2
f 43/60/2 180/394/2 181/58/2
f 111/63/4 191/397/4 150/398/4
f 152/61/4 146/399/4 148/62/4
f 111/63/4 150/398/4 152/61/4
f 29/385/5 35/52/5 137/378/5
f 122/377/5 163/400/5 164/401/5
f 29/385/5 137/378/5 122/377/5
f 48/64/5 29/385/5 122/377/5
f 122/377/5 164/401/5 45/65/5
f 45/65/5 128/402/5 178/66/5
f 178/66/5 177/384/5 75/53/5
f 178/66/5 75/53/5 172/403/5
f 48/64/5 122/377/5 45/65/5
f 178/66/5 172/403/5 48/64/5
f 8/404/6 9/128/6 95/405/6
f 95/405/6 5/319/6 66/406/6
f 95/405/6 66/406/6 165/407/6
f 6/408/6 8/404/6 95/405/6
f 7/68/6 78/409/6 131/69/6
f 131/69/6 6/408/6 95/405/6
f 95/405/6 165/407/6 129/67/6
f 129/67/6 126/410/6 7/68/6
f 131/69/6 95/405/6 129/67/6
f 82/70/6 17/411/6 74/71/6
f 129/73/5 165/412/5 166/74/5
f 97/41/6 72/413/6 73/76/6
f 68/80/4 99/234/4 169/414/4
f 168/78/4 123/415/4 33/416/4
f 68/80/4 169/414/4 168/78/4
f 162/79/4 69/417/4 68/80/4
f 168/78/4 33/416/4 162/79/4
f 182/418/5 181/210/5 58/81/5
f 58/81/5 63/419/5 174/82/5
f 84/83/5 182/418/5 58/81/5
f 166/420/2 165/421/2 66/84/2
f 66/84/2 69/422/2 162/85/2
f 161/86/2 166/420/2 66/84/2
f 112/87/6 153/423/6 193/88/6
f 166/90/6 161/397/6 127/91/6
f 35/93/4 34/102/4 134/94/4
f 63/95/1 58/424/1 132/96/1
f 125/98/4 88/425/4 167/99/4
f 172/101/4 49/426/4 47/102/4
f 196/103/2 50/43/2 107/104/2
f 193/5/2 192/427/2 190/106/2
f 127/108/1 126/428/1 129/109/1
f 110/113/3 194/429/3 107/430/3
f 110/113/3 107/430/3 197/431/3
f 14/432/3 193/433/3 199/112/3
f 110/113/3 197/431/3 15/111/3
f 15/111/3 14/432/3 199/112/3
f 70/114/5 135/434/5 47/115/5
f 143/435/4 118/436/4 42/437/4
f 115/117/4 154/438/4 106/439/4
f 143/435/4 42/437/4 115/117/4
f 86/118/4 39/113/4 141/119/4
f 141/119/4 143/435/4 115/117/4
f 115/117/4 106/439/4 86/118/4
f 105/120/5 85/440/5 86/121/5
f 67/123/1 64/441/1 149/124/1
f 149/124/1 4/179/1 79/125/1
f 71/48/1 121/47/1 26/126/1
f 13/129/2 62/442/2 52/252/2
f 13/129/2 52/252/2 72/443/2
f 198/254/2 110/253/2 199/128/2
f 13/129/2 72/443/2 97/130/2
f 97/130/2 198/254/2 199/128/2
f 51/131/4 197/444/4 107/132/4
f 18/445/6 85/446/6 105/134/6
f 105/134/6 23/447/6 155/448/6
f 155/448/6 24/449/6 25/135/6
f 25/135/6 142/450/6 22/136/6
f 22/136/6 18/445/6 105/134/6
f 105/134/6 155/448/6 25/135/6
f 130/90/6 76/451/6 2/137/6
f 110/139/4 62/175/4 61/140/4
f 83/144/1 152/452/1 150/142/1
f 150/142/1 31/453/1 151/143/1
f 109/145/1 154/454/1 115/146/1
f 131/148/1 130/455/1 1/149/1
f 184/150/6 179/456/6 81/151/6
f 41/153/4 40/457/4 177/154/4
f 120/156/2 117/458/2 114/157/2
f 21/159/1 139/459/1 59/193/1
f 138/160/1 10/460/1 105/461/1
f 105/461/1 140/248/1 90/161/1
f 21/159/1 59/193/1 138/160/1
f 138/160/1 105/461/1 90/161/1
f 87/162/2 2/462/2 76/163/2
f 89/463/2 100/178/2 9/464/2
f 8/465/2 183/466/2 77/467/2
f 184/468/2 89/463/2 9/464/2
f 17/469/2 82/470/2 179/167/2
f 179/167/2 184/468/2 9/464/2
f 8/465/2 77/467/2 78/165/2
f 179/167/2 9/464/2 8/465/2
f 7/166/2 17/469/2 179/167/2
f 179/167/2 8/465/2 78/165/2
f 66/168/5 5/471/5 68/169/5
f 35/171/2 171/246/2 170/172/2
f 196/174/4 194/472/4 109/175/4
f 51/176/2 113/473/2 15/177/2
f 183/57/3 8/474/3 6/179/3
f 6/179/3 1/475/3 2/180/3
f 87/181/3 183/57/3 6/179/3
f 59/184/4 60/476/4 108/477/4
f 145/182/4 83/392/4 151/183/4
f 59/184/4 108/477/4 145/182/4
f 61/185/1 65/478/1 159/186/1
f 169/188/2 96/479/2 167/189/2
f 151/191/5 32/445/5 159/66/5
f 67/192/5 138/160/5 59/193/5
f 151/191/5 159/66/5 67/192/5
f 83/194/5 145/315/5 146/195/5
f 189/197/4 92/212/4 37/71/4
f 200/199/3 198/480/3 97/76/3
f 193/201/6 65/481/6 13/140/6
f 185/202/4 182/280/4 84/203/4
f 61/205/5 31/482/5 150/206/5
f 63/208/4 94/483/4 176/209/4
f 188/211/3 43/314/3 37/148/3
f 16/484/3 24/485/3 155/486/3
f 155/486/3 112/487/3 12/488/3
f 195/489/3 113/490/3 51/215/3
f 16/484/3 155/486/3 12/488/3
f 16/484/3 12/488/3 195/489/3
f 50/491/3 196/492/3 156/493/3
f 156/493/3 115/494/3 42/495/3
f 156/493/3 42/495/3 157/496/3
f 50/491/3 156/493/3 157/496/3
f 50/491/3 157/496/3 116/213/3
f 114/214/3 16/484/3 195/489/3
f 51/215/3 50/491/3 116/213/3
f 114/214/3 195/489/3 51/215/3
f 47/216/1 135/426/1 29/101/1
f 157/218/1 42/497/1 118/219/1
f 102/221/2 27/498/2 91/222/2
f 172/224/2 75/217/2 70/216/2
f 86/220/1 85/425/1 18/226/1
f 195/228/2 12/273/2 193/229/2
f 46/231/5 44/499/5 56/232/5
f 200/234/2 98/500/2 73/235/2
f 188/237/4 186/501/4 180/238/4
f 149/502/6 190/503/6 192/239/6
f 192/239/6 147/504/6 3/240/6
f 4/241/6 149/502/6 192/239/6
f 81/242/5 179/162/5 82/243/5
f 141/245/1 22/505/1 142/99/1
f 140/248/1 105/461/1 106/247/1
f 106/247/1 60/506/1 59/193/1
f 59/193/1 139/459/1 140/248/1
f 158/249/6 16/507/6 114/250/6
f 52/252/2 62/442/2 110/253/2
f 26/257/6 121/508/6 160/509/6
f 163/255/6 122/510/6 28/511/6
f 26/257/6 160/509/6 163/255/6
f 91/256/6 27/512/6 26/257/6
f 163/255/6 28/511/6 91/256/6
f 29/89/6 135/513/6 70/258/6
f 100/260/6 89/514/6 20/261/6
f 111/265/3 148/515/3 108/263/3
f 108/263/3 60/503/3 106/442/3
f 106/442/3 154/516/3 109/264/3
f 109/264/3 194/517/3 111/265/3
f 108/263/3 106/442/3 109/264/3
f 151/266/6 31/518/6 61/267/6
f 170/269/5 133/519/5 134/270/5
f 87/272/6 173/520/6 77/273/6
f 102/274/6 30/326/6 124/99/6
f 141/275/3 39/521/3 18/276/3
f 136/278/6 133/522/6 170/25/6
f 41/280/5 36/154/5 180/281/5
f 134/283/1 133/523/1 136/284/1
f 125/288/1 103/265/1 124/524/1
f 28/286/1 122/525/1 33/526/1
f 125/288/1 124/524/1 28/286/1
f 123/287/1 88/527/1 125/288/1
f 28/286/1 33/526/1 123/287/1
f 131/291/5 78/528/5 77/529/5
f 173/289/5 76/367/5 130/290/5
f 131/291/5 77/529/5 173/289/5
f 4/258/5 3/530/5 144/292/5
f 41/294/2 19/531/2 74/295/2
f 73/297/5 72/532/5 52/149/5
f 138/301/6 67/533/6 79/534/6
f 144/299/6 11/535/6 10/300/6
f 138/301/6 79/534/6 144/299/6
f 21/302/5 19/510/5 41/303/5
f 20/305/6 19/45/6 21/43/6
f 146/307/1 145/536/1 108/308/1
f 13/310/5 65/537/5 61/311/5
f 20/313/3 89/538/3 184/314/3
f 189/315/2 101/539/2 20/316/2
f 178/488/4 128/540/4 57/318/4
f 56/541/4 55/542/4 71/543/4
f 56/541/4 71/543/4 54/319/4
f 54/319/4 104/544/4 93/545/4
f 54/319/4 93/545/4 132/546/4
f 57/318/4 56/541/4 54/319/4
f 58/320/4 181/547/4 178/488/4
f 54/319/4 132/546/4 58/320/4
f 58/320/4 178/488/4 57/318/4
f 195/321/6 14/8/6 15/9/6
f 190/323/5 149/548/5 64/324/5
f 123/189/3 168/441/3 167/124/3
f 23/326/1 153/101/1 112/327/1
f 140/329/3 92/549/3 20/330/3
f 20/332/2 187/550/2 81/333/2
f 158/551/3 117/552/3 120/335/3
f 120/335/3 119/553/3 118/336/3
f 118/336/3 143/554/3 142/555/3
f 25/337/3 158/551/3 120/335/3
f 118/336/3 142/555/3 25/337/3
