# Blender 4.2.0
# www.blender.org
mtllib Untitled.017.mtl
o Untitled.017
v -22.702616 1.000000 4.130314
v -22.602615 1.000000 4.130314
v -22.602615 1.100000 4.130314
v -22.602615 1.100000 3.930314
v -22.502615 0.000000 4.330314
v -22.502615 -0.000000 3.830314
v -22.502615 0.600000 4.230314
v -22.502615 0.600000 4.130314
v -22.502615 0.600000 3.930314
v -22.502615 1.100000 4.230314
v -22.502615 1.100000 4.130314
v -22.502615 1.200000 4.330314
v -22.502615 1.200000 3.730314
v -22.502615 1.900000 3.730314
v -22.402617 0.600000 4.130314
v -22.302616 1.100000 4.130314
v -22.302616 1.200000 3.930314
v -22.102615 -0.000000 3.830314
v -22.102615 0.100000 3.930314
v -22.102615 0.400000 4.230314
v -22.102615 0.400000 3.930314
v -22.002615 0.400000 3.930314
v -22.302616 -0.000000 3.830314
v -22.302616 0.400000 3.930314
v -22.102615 1.100000 4.130314
v -22.102615 1.200000 3.930314
v -21.902617 0.100000 4.330314
v -21.902617 0.600000 4.130314
v -21.902617 0.600000 3.930314
v -21.902617 1.100000 4.230314
v -21.902617 1.100000 3.930314
v -21.902617 1.200000 3.730314
v -21.902617 1.900000 3.730314
v -21.802616 1.100000 4.130314
v -21.702616 0.600000 3.930314
v -22.502615 0.100000 4.330314
v -22.502615 1.900000 4.330314
v -22.302616 0.000000 4.330314
v -22.302616 0.100000 4.330314
v -22.102615 0.000000 4.330314
v -22.102615 0.100000 4.330314
v -21.902617 1.200000 4.330314
v -21.902617 1.900000 4.330314
v -22.402617 0.600000 4.230314
v -22.302616 0.400000 4.230314
v -22.102615 0.100000 4.230314
v -22.002615 0.100000 4.230314
v -22.002615 0.600000 4.230314
v -21.902617 0.600000 4.230314
v -22.702616 0.600000 4.130314
v -22.302616 1.200000 4.130314
v -22.002615 0.100000 4.130314
v -22.002615 0.600000 4.130314
v -21.902617 0.100000 4.130314
v -21.902617 1.100000 4.130314
v -21.702616 0.600000 4.130314
v -22.702616 0.600000 3.930314
v -22.702616 1.000000 3.930314
v -22.602615 1.000000 3.930314
v -22.502615 1.100000 3.930314
v -22.102615 1.100000 3.930314
v -21.702616 1.000000 3.930314
v -22.002615 0.100000 3.830314
v -21.902617 -0.000000 3.830314
v -21.902617 1.100000 3.830314
v -21.902617 0.000000 4.330314
v -22.402617 0.400000 3.930314
v -22.402617 0.400000 3.830314
v -22.002615 0.400000 3.830314
v -22.102615 1.200000 4.130314
v -22.402617 0.100000 4.230314
v -22.302616 0.100000 4.230314
v -22.502615 0.100000 4.130314
v -22.402617 0.100000 4.130314
v -22.402617 0.100000 3.930314
v -22.302616 0.100000 3.930314
v -22.002615 0.100000 3.930314
v -22.402617 0.100000 3.830314
v -22.302616 0.100000 3.830314
v -22.102615 0.100000 3.830314
v -21.802616 1.000000 4.130314
v -21.702616 1.000000 4.130314
v -21.802616 1.000000 3.930314
v -22.302616 1.100000 3.930314
v -21.802616 1.100000 3.930314
v -22.502615 1.100000 3.830314
vn 1.0000 -0.0000 -0.0000
vn -1.0000 -0.0000 -0.0000
vn -0.0000 1.0000 -0.0000
vn -0.0000 -0.0000 -1.0000
vn -0.0000 -1.0000 -0.0000
vn -0.0000 -0.0000 1.0000
vt 0.034483 0.862069
vt 0.000000 0.896552
vt 0.034483 0.758621
vt 0.379310 0.586207
vt 0.620690 0.379310
vt 0.379310 0.379310
vt 0.862069 0.000000
vt 0.655172 0.206897
vt 0.862069 0.206897
vt 0.862069 0.344828
vt 0.896552 0.206897
vt 0.827586 0.206897
vt 0.931035 0.172414
vt 0.862069 -0.000000
vt 0.931035 -0.000000
vt 0.931035 0.413793
vt 0.896552 0.310345
vt 0.896552 0.413793
vt 0.206897 0.413793
vt 0.000000 0.379310
vt 0.034483 0.482759
vt 0.172414 0.896552
vt 0.137931 0.862069
vt 0.137931 0.931035
vt 0.586207 0.586207
vt 0.620690 0.758621
vt 0.586207 0.758621
vt 0.379310 0.896552
vt 0.275862 0.931034
vt 0.275862 0.896552
vt 0.655172 0.862069
vt 0.827586 0.827586
vt 0.827586 0.862069
vt 0.931035 0.689655
vt 0.896552 0.758621
vt 0.931035 0.758621
vt 0.551724 0.344828
vt 0.655172 0.379310
vt 0.655172 0.344828
vt 0.689655 0.931035
vt 0.655172 0.896552
vt 0.689655 0.896552
vt 0.724138 0.344828
vt 0.724138 0.241379
vt 0.689655 0.379310
vt 0.586207 0.827586
vt 0.379310 0.586207
vt 0.379310 0.827586
vt 0.689655 0.379310
vt 0.655172 0.344828
vt 0.689655 0.344828
vt 0.655172 0.896552
vt 0.620690 0.931035
vt 0.655172 0.931035
vt 0.517241 0.310345
vt 0.448276 0.310345
vt 0.448276 0.344828
vt 0.655172 0.827586
vt 0.517241 0.896552
vt 0.517241 0.827586
vt 0.931035 0.620690
vt 0.896552 0.689655
vt 0.931035 0.689655
vt 0.586207 0.931035
vt 0.517241 0.896552
vt 0.517241 0.931035
vt 0.931035 0.482759
vt 0.931035 0.413793
vt 0.379310 0.724138
vt 0.344828 0.896552
vt 0.344828 0.724138
vt 0.517241 0.241379
vt 0.448276 0.241379
vt 0.448276 0.931035
vt 0.827586 0.379310
vt 0.620690 0.620690
vt 0.620690 0.379310
vt 0.206897 0.344828
vt 0.379310 0.379310
vt 0.379310 0.344828
vt 0.206897 0.862069
vt 0.275862 0.862069
vt 0.620690 0.827586
vt 0.068966 0.965517
vt 0.034483 0.896552
vt 0.034483 0.931035
vt 0.620690 0.620690
vt 0.827586 0.620690
vt 0.689655 0.689655
vt 0.862069 0.862069
vt 0.896552 0.896552
vt 0.896552 0.724138
vt 0.310345 0.862069
vt 0.275862 0.724138
vt 0.034483 0.137931
vt 0.000000 0.379310
vt 0.206897 0.379310
vt 0.379310 0.931035
vt 0.448276 0.896552
vt 0.448276 0.931035
vt 0.379310 0.896552
vt 0.517241 0.827586
vt 0.379310 0.827586
vt 0.137931 0.965517
vt 0.068966 0.896552
vt 0.137931 0.896552
vt 0.655172 0.896552
vt 0.827586 0.862069
vt 0.827586 0.896552
vt 0.931035 0.482759
vt 0.896552 0.551724
vt 0.896552 0.482759
vt 0.241379 0.172414
vt 0.275862 0.103448
vt 0.379310 0.172414
vt 0.827586 0.827586
vt 0.620690 0.827586
vt 0.758621 0.758621
vt 0.551724 0.379310
vt 0.551724 0.344828
vt 0.413793 0.206897
vt 0.655172 0.000000
vt 0.931035 0.551724
vt 0.896552 0.620690
vt 0.896552 0.551724
vt 0.034483 0.655172
vt 0.034483 0.724138
vt 0.000000 0.551724
vt 0.172414 0.758621
vt 0.137931 0.724138
vt 0.241379 0.758621
vt 0.620690 0.896552
vt 0.586207 0.931035
vt 0.862069 0.206897
vt 0.931035 0.206897
vt 0.862069 0.689655
vt 0.827586 0.551724
vt 0.896552 0.551724
vt 0.827586 0.379310
vt 0.896552 0.379310
vt 0.931035 0.310345
vt 0.896552 0.206897
vt 0.896552 0.310345
vt 0.137931 0.758621
vt 0.034483 0.896552
vt 0.000000 0.724138
vt 0.620690 0.586207
vt 0.862069 0.379310
vt 0.896552 0.344828
vt 0.862069 0.172414
vt 0.379310 0.413793
vt 0.379310 0.379310
vt 0.034483 0.551724
vt 0.206897 0.482759
vt 0.206897 0.931035
vt 0.206897 0.896552
vt 0.172414 0.862069
vt 0.620690 0.586207
vt 0.379310 0.931034
vt 0.655172 0.827586
vt 0.655172 0.931035
vt 0.827586 0.344828
vt 0.827586 0.241379
vt 0.724138 0.206897
vt 0.689655 0.206897
vt 0.724138 0.379310
vt 0.586207 0.586207
vt 0.448276 0.206897
vt 0.586207 0.241379
vt 0.655172 0.206897
vt 0.689655 0.310345
vt 0.689655 0.241379
vt 0.655172 0.241379
vt 0.586207 0.310345
vt 0.655172 0.310345
vt 0.413793 0.241379
vt 0.413793 0.310345
vt 0.655172 0.896552
vt 0.896552 0.620690
vt 0.586207 0.896552
vt 0.896552 0.482759
vt 0.448276 0.896552
vt 0.827586 0.620690
vt 0.206897 0.379310
vt 0.206897 0.931034
vt 0.586207 0.827586
vt 0.000000 0.931035
vt 0.000000 0.965517
vt 0.068966 0.896552
vt 0.758621 0.689655
vt 0.827586 0.724138
vt 0.827586 0.862069
vt 0.862069 0.896552
vt 0.344828 0.724138
vt 0.344828 0.862069
vt 0.310345 0.896552
vt 0.206897 0.000000
vt 0.137931 0.000000
vt 0.137931 0.034483
vt 0.172414 0.034483
vt 0.068966 0.034483
vt 0.068966 0.000000
vt 0.000000 0.000000
vt 0.034483 0.034483
vt 0.172414 0.137931
vt 0.379310 0.896552
vt 0.517241 0.896552
vt 0.068966 0.965517
vt 0.931035 0.551724
vt 0.413793 0.344828
vt 0.206897 0.344828
vt 0.206897 0.172414
vt 0.241379 0.000000
vt 0.275862 0.000000
vt 0.413793 0.172414
vt 0.344828 0.000000
vt 0.379310 0.000000
vt 0.344828 0.103448
vt 0.689655 0.758621
vt 0.413793 0.000000
vt 0.931035 0.620690
vt 0.379310 0.551724
vt 0.379310 0.586207
vt 0.206897 0.586207
vt 0.206897 0.655172
vt 0.137931 0.758621
vt 0.275862 0.724138
vt 0.275862 0.758621
vt 0.241379 0.862069
vt 0.862069 0.724138
vt 0.827586 0.689655
vt 0.827586 0.551724
vt 0.931035 0.206897
s 0
usemtl Untitled.017_Material
f 72/1/1 38/2/1 76/3/1
f 12/4/2 14/5/2 13/6/2
f 33/7/3 37/8/3 43/9/3
f 83/10/4 35/11/4 29/12/4
f 66/13/5 18/14/5 64/15/5
f 22/16/4 19/17/4 21/18/4
f 9/19/2 6/20/2 73/21/2
f 71/22/3 73/23/3 36/24/3
f 73/25/6 15/26/6 8/27/6
f 68/28/1 75/29/1 78/30/1
f 47/31/1 53/32/1 48/33/1
f 59/34/3 1/35/3 2/36/3
f 63/37/2 22/38/2 69/39/2
f 49/40/5 53/41/5 28/42/5
f 46/43/2 19/44/2 40/45/2
f 33/46/4 13/47/4 14/48/4
f 44/49/5 8/50/5 15/51/5
f 63/52/3 19/53/3 77/54/3
f 16/55/3 11/56/3 10/57/3
f 62/58/1 56/59/1 35/60/1
f 62/61/3 81/62/3 82/63/3
f 26/64/4 84/65/4 17/66/4
f 84/18/2 51/67/2 17/68/2
f 54/69/6 53/70/6 52/71/6
f 84/72/3 60/73/3 16/55/3
f 51/74/6 25/65/6 70/66/6
f 42/75/6 37/76/6 12/77/6
f 8/78/2 10/79/2 11/80/2
f 56/29/5 29/81/5 35/82/5
f 59/27/2 3/83/2 4/26/2
f 27/84/3 52/85/3 47/86/3
f 13/87/5 32/88/5 17/89/5
f 59/90/4 60/91/4 9/92/4
f 81/93/6 55/30/6 28/94/6
f 68/95/4 86/96/4 65/97/4
f 41/98/6 66/99/6 27/100/6
f 50/101/2 58/102/2 57/103/2
f 8/104/5 57/105/5 9/106/5
f 49/107/1 55/108/1 30/109/1
f 26/110/1 25/111/1 61/112/1
f 44/113/6 45/114/6 48/115/6
f 42/116/5 12/117/5 70/118/5
f 74/80/2 44/119/2 15/120/2
f 42/121/1 33/122/1 43/8/1
f 85/123/1 81/124/1 83/125/1
f 54/126/1 27/127/1 64/128/1
f 24/129/5 68/130/5 21/131/5
f 79/132/3 75/133/3 76/53/3
f 36/134/6 38/13/6 39/135/6
f 2/136/6 50/137/6 8/138/6
f 38/138/5 6/139/5 23/140/5
f 24/141/4 75/142/4 67/143/4
f 24/144/1 45/23/1 72/1/1
f 72/1/1 39/145/1 38/2/1
f 38/2/1 23/146/1 79/127/1
f 76/3/1 24/144/1 72/1/1
f 38/2/1 79/127/1 76/3/1
f 12/4/2 37/147/2 14/5/2
f 33/7/3 14/122/3 37/8/3
f 29/12/4 31/139/4 85/148/4
f 83/10/4 62/149/4 35/11/4
f 29/12/4 85/148/4 83/10/4
f 66/13/5 40/150/5 18/14/5
f 22/16/4 77/141/4 19/17/4
f 9/19/2 60/151/2 86/152/2
f 6/20/2 5/128/2 36/153/2
f 73/21/2 8/154/2 9/19/2
f 6/20/2 36/153/2 73/21/2
f 9/19/2 86/152/2 6/20/2
f 36/24/3 39/155/3 72/156/3
f 71/22/3 74/157/3 73/23/3
f 36/24/3 72/156/3 71/22/3
f 73/25/6 74/158/6 15/26/6
f 68/28/1 67/159/1 75/29/1
f 47/31/1 52/160/1 53/32/1
f 59/34/3 58/62/3 1/35/3
f 63/37/2 77/119/2 22/38/2
f 49/40/5 48/161/5 53/41/5
f 46/43/2 20/162/2 21/163/2
f 19/44/2 80/164/2 18/165/2
f 46/43/2 21/163/2 19/44/2
f 40/45/2 41/166/2 46/43/2
f 19/44/2 18/165/2 40/45/2
f 33/46/4 32/167/4 13/47/4
f 44/49/5 7/38/5 8/50/5
f 63/52/3 80/132/3 19/53/3
f 86/168/3 84/72/3 61/169/3
f 65/170/3 86/168/3 61/169/3
f 34/171/3 85/172/3 31/173/3
f 31/173/3 65/170/3 61/169/3
f 31/173/3 61/169/3 25/174/3
f 55/175/3 34/171/3 31/173/3
f 10/57/3 30/39/3 55/175/3
f 4/176/3 3/177/3 11/56/3
f 55/175/3 31/173/3 25/174/3
f 16/55/3 60/73/3 4/176/3
f 10/57/3 55/175/3 25/174/3
f 16/55/3 4/176/3 11/56/3
f 10/57/3 25/174/3 16/55/3
f 62/58/1 82/178/1 56/59/1
f 62/61/3 83/179/3 81/62/3
f 26/64/4 61/180/4 84/65/4
f 84/18/2 16/181/2 51/67/2
f 54/69/6 28/28/6 53/70/6
f 84/72/3 86/168/3 60/73/3
f 51/74/6 16/182/6 25/65/6
f 42/75/6 43/183/6 37/76/6
f 8/78/2 7/184/2 10/79/2
f 56/29/5 28/185/5 29/81/5
f 59/27/2 2/186/2 3/83/2
f 46/187/3 41/188/3 27/84/3
f 27/84/3 54/189/3 52/85/3
f 47/86/3 46/187/3 27/84/3
f 32/88/5 42/116/5 26/190/5
f 17/89/5 12/117/5 13/87/5
f 32/88/5 26/190/5 17/89/5
f 9/92/4 57/191/4 58/192/4
f 59/90/4 4/193/4 60/91/4
f 9/92/4 58/192/4 59/90/4
f 28/94/6 56/194/6 82/195/6
f 81/93/6 34/196/6 55/30/6
f 28/94/6 82/195/6 81/93/6
f 64/197/4 18/198/4 80/199/4
f 64/197/4 80/199/4 63/200/4
f 79/201/4 23/202/4 6/203/4
f 78/204/4 79/201/4 6/203/4
f 65/97/4 64/197/4 63/200/4
f 65/97/4 63/200/4 69/205/4
f 78/204/4 6/203/4 86/96/4
f 65/97/4 69/205/4 68/95/4
f 68/95/4 78/204/4 86/96/4
f 41/98/6 40/206/6 66/99/6
f 50/101/2 1/207/2 58/102/2
f 8/104/5 50/208/5 57/105/5
f 49/107/1 28/31/1 55/108/1
f 26/110/1 70/209/1 25/111/1
f 30/210/6 10/211/6 7/212/6
f 44/113/6 71/213/6 72/214/6
f 30/210/6 7/212/6 44/113/6
f 48/115/6 49/215/6 30/210/6
f 46/216/6 47/217/6 48/115/6
f 20/218/6 46/216/6 48/115/6
f 48/115/6 30/210/6 44/113/6
f 44/113/6 72/214/6 45/114/6
f 45/114/6 20/218/6 48/115/6
f 12/117/5 17/89/5 51/219/5
f 70/118/5 26/190/5 42/116/5
f 12/117/5 51/219/5 70/118/5
f 74/80/2 71/79/2 44/119/2
f 42/121/1 32/220/1 33/122/1
f 85/123/1 34/221/1 81/124/1
f 64/128/1 65/222/1 31/223/1
f 29/224/1 28/225/1 54/126/1
f 64/128/1 31/223/1 29/224/1
f 27/127/1 66/146/1 64/128/1
f 64/128/1 29/224/1 54/126/1
f 24/129/5 67/226/5 68/130/5
f 68/130/5 69/227/5 22/228/5
f 21/131/5 20/229/5 45/157/5
f 68/130/5 22/228/5 21/131/5
f 21/131/5 45/157/5 24/129/5
f 79/132/3 78/180/3 75/133/3
f 36/134/6 5/150/6 38/13/6
f 8/138/6 11/92/6 3/230/6
f 2/136/6 1/231/6 50/137/6
f 8/138/6 3/230/6 2/136/6
f 38/138/5 5/232/5 6/139/5
f 24/141/4 76/233/4 75/142/4
