# Blender 4.2.0
# www.blender.org
mtllib Untitled.005.mtl
o Untitled.005
v -8.505735 1.000000 3.886073
v -8.505735 1.000000 3.686073
v -8.405735 1.100000 3.686073
v -8.305736 0.000000 4.086073
v -8.305736 -0.000000 3.586073
v -8.305736 1.200000 3.486073
v -8.305736 1.700000 4.086072
v -8.205735 0.100000 3.986073
v -8.205735 0.500000 3.886073
v -8.105736 1.100000 3.686073
v -8.105736 1.200000 3.686073
v -7.905735 0.000000 4.086073
v -7.905735 0.400000 3.986073
v -7.805736 0.400000 3.686073
v -8.205735 0.100000 3.686073
v -8.205735 0.400000 3.586073
v -8.105736 -0.000000 3.586073
v -8.105736 0.100000 4.086073
v -8.105736 0.100000 3.586073
v -8.105736 0.400000 3.986073
v -7.905735 1.100000 3.886073
v -7.905735 1.100000 3.686073
v -7.805736 0.100000 3.986073
v -7.705735 0.000000 4.086073
v -7.705735 -0.000000 3.586073
v -7.705735 0.500000 3.986073
v -7.605735 1.000000 3.686073
v -7.605735 1.100000 3.886073
v -7.505735 0.600000 3.886073
v -7.505735 1.000000 3.886073
v -7.505735 1.000000 3.686073
v -8.305736 1.800000 4.186073
v -8.305736 1.200000 4.086073
v -8.305736 1.900000 4.086072
v -8.105736 0.000000 4.086073
v -7.705735 1.900000 4.086072
v -8.105736 0.100000 3.986073
v -7.905735 0.100000 3.986073
v -7.805736 0.500000 3.986073
v -7.705735 1.100000 3.986073
v -8.405735 1.000000 3.886073
v -8.305736 0.600000 3.886073
v -8.305736 1.100000 3.886073
v -8.205735 0.100000 3.886073
v -8.105736 1.100000 3.886073
v -7.905735 1.200000 3.886073
v -7.805736 0.500000 3.886073
v -7.705735 0.600000 3.886073
v -7.705735 1.100000 3.886073
v -8.505735 0.600000 3.686073
v -8.405735 1.000000 3.686073
v -8.305736 0.600000 3.686073
v -8.305736 1.100000 3.686073
v -8.105736 0.100000 3.686073
v -7.905735 0.100000 3.686073
v -7.905735 0.400000 3.686073
v -7.905735 1.200000 3.686073
v -7.705735 0.600000 3.686073
v -7.605735 1.100000 3.686073
v -7.505735 0.600000 3.686073
v -8.305736 1.100000 3.586073
v -8.205735 0.100000 3.586073
v -7.905735 -0.000000 3.586073
v -7.805736 0.100000 3.586073
v -7.805736 0.400000 3.586073
v -7.705735 1.100000 3.586073
v -8.305736 1.900000 3.486073
v -7.705735 1.200000 3.486073
v -7.705735 1.900000 3.486073
v -8.205735 0.400000 3.686073
v -8.105736 0.400000 3.686073
v -8.305736 0.500000 3.986073
v -8.205735 0.500000 3.986073
v -8.305736 0.500000 3.886073
v -7.705735 0.500000 3.886073
v -8.505735 0.600000 3.886073
v -7.705735 1.200000 4.086073
v -8.105736 1.200000 3.886073
v -8.305736 1.700000 4.186073
v -7.705735 1.700000 4.186073
v -7.705735 1.700000 4.086072
v -8.305736 0.100000 4.086073
v -7.905735 0.100000 4.086073
v -7.705735 0.100000 4.086073
v -8.305736 0.100000 3.886073
v -7.805736 0.100000 3.886073
v -7.705735 0.100000 3.886073
v -7.805736 0.100000 3.686073
v -7.905735 0.100000 3.586073
v -7.605735 1.000000 3.886073
v -8.305736 1.100000 3.986073
v -8.405735 1.100000 3.886073
v -7.705735 1.100000 3.686073
v -7.705735 1.800000 4.186073
v -8.305736 1.800000 4.086072
v -7.705735 1.800000 4.086072
vn 1.0000 -0.0000 -0.0000
vn -0.0000 -0.0000 -1.0000
vn -0.0000 -0.0000 1.0000
vn -1.0000 -0.0000 -0.0000
vn -0.0000 1.0000 -0.0000
vn -0.0000 -1.0000 -0.0000
vt 0.655172 -0.000000
vt 0.620690 0.206897
vt 0.586207 0.206897
vt 0.137931 0.896552
vt 0.000000 0.931034
vt 0.000000 0.896552
vt 0.827586 0.620690
vt 0.620690 0.379310
vt 0.620690 0.620690
vt 0.482759 0.931035
vt 0.551724 0.896552
vt 0.551724 0.931035
vt 0.896552 0.206897
vt 0.862069 0.379310
vt 0.862069 0.344828
vt 0.206897 0.896552
vt 0.310345 0.931034
vt 0.310345 0.896552
vt 0.931035 0.448276
vt 0.896552 0.344828
vt 0.896552 0.448276
vt 0.655172 0.896552
vt 0.620690 0.931035
vt 0.655172 0.931035
vt 0.689655 0.241379
vt 0.655172 0.206897
vt 0.689655 0.206897
vt 0.689655 0.896552
vt 0.655172 0.931034
vt 0.689655 0.931034
vt 0.896552 0.137931
vt 0.862069 0.172414
vt 0.862069 0.000000
vt 0.310345 0.862069
vt 0.344828 0.896552
vt 0.344828 0.724138
vt 0.275862 0.103448
vt 0.206897 0.344828
vt 0.241379 0.137931
vt 0.448276 0.275862
vt 0.448276 0.344828
vt 0.517241 0.344828
vt 0.896552 0.758621
vt 0.931035 0.620690
vt 0.862069 0.620690
vt 0.551724 0.586207
vt 0.586207 0.586207
vt 0.344828 0.862069
vt 0.379310 0.724138
vt 0.379310 0.862069
vt 0.655172 0.000000
vt 0.862069 0.172414
vt 0.655172 0.172414
vt 0.793103 0.827586
vt 0.862069 0.793103
vt 0.862069 0.827586
vt 0.896552 0.827586
vt 0.862069 0.793103
vt 0.862069 0.862069
vt 0.793103 0.620690
vt 0.862069 0.827586
vt 0.655172 0.862069
vt 0.862069 0.862069
vt 0.172414 0.758621
vt 0.137931 0.724138
vt 0.241379 0.758621
vt 0.655172 0.275862
vt 0.586207 0.344828
vt 0.655172 0.344828
vt 0.965517 0.206897
vt 0.931035 0.275862
vt 0.965517 0.275862
vt 0.586207 0.827586
vt 0.793103 0.827586
vt 0.344828 0.931034
vt 0.344828 0.896552
vt 0.862069 0.206897
vt 0.931035 0.172414
vt 0.931035 0.206897
vt 0.931035 0.551724
vt 0.896552 0.551724
vt 0.482759 0.896552
vt 0.379310 0.931035
vt 0.379310 0.896552
vt 0.862069 0.206897
vt 0.965517 0.000000
vt 0.931034 0.068966
vt 0.931034 0.000000
vt 0.965517 0.068966
vt 0.931034 0.137931
vt 0.931034 0.068966
vt 0.896552 0.620690
vt 0.931035 0.551724
vt 0.206897 0.965517
vt 0.137931 0.896552
vt 0.206897 0.896552
vt 0.000000 0.551724
vt 0.206897 0.655172
vt 0.172414 0.655172
vt 0.620690 0.896552
vt 0.724138 0.344828
vt 0.724138 0.241379
vt 0.689655 0.206897
vt 0.931034 0.931034
vt 0.862069 0.862069
vt 0.931034 0.862069
vt 0.034483 0.862069
vt 0.000000 0.896552
vt 0.034483 0.758621
vt 0.206897 0.379310
vt 0.413793 0.344828
vt 0.413793 0.379310
vt 0.655172 0.827586
vt 0.517241 0.896552
vt 0.517241 0.827586
vt 0.379310 0.827586
vt 0.517241 0.758621
vt 0.000000 0.379310
vt 0.206897 0.379310
vt 0.034483 0.137931
vt 0.172414 0.482759
vt 0.379310 0.517241
vt 0.206897 0.482759
vt 0.379310 0.620690
vt 0.517241 0.689655
vt 0.448276 0.689655
vt 0.827586 0.379310
vt 0.896552 0.379310
vt 0.655172 0.896552
vt 0.862069 0.862069
vt 0.862069 0.896552
vt 0.862069 0.586207
vt 0.827586 0.620690
vt 0.931035 0.206897
vt 0.931035 0.344828
vt 0.379310 0.827586
vt 0.517241 0.896552
vt 0.517241 0.827586
vt 0.965517 0.137931
vt 0.931035 0.206897
vt 0.965517 0.206897
vt 0.137931 0.862069
vt 0.275862 0.896552
vt 0.275862 0.862069
vt 0.413793 0.206897
vt 0.413793 -0.000000
vt 0.655172 0.206897
vt 0.620690 0.241379
vt 0.586207 0.241379
vt 0.137931 0.931034
vt 0.827586 0.379310
vt 0.482759 0.896552
vt 0.827586 0.344828
vt 0.827586 0.206897
vt 0.896552 0.379310
vt 0.206897 0.931034
vt 0.931035 0.344828
vt 0.620690 0.896552
vt 0.655172 0.241379
vt 0.655172 0.896552
vt 0.931034 0.137931
vt 0.896552 0.172414
vt 0.275862 0.724138
vt 0.310345 0.896552
vt 0.344828 0.103448
vt 0.344828 0.000000
vt 0.379310 0.000000
vt 0.379310 0.137931
vt 0.413793 0.137931
vt 0.413793 0.344828
vt 0.241379 0.000000
vt 0.275862 0.000000
vt 0.206897 0.137931
vt 0.655172 0.241379
vt 0.448276 0.241379
vt 0.413793 0.275862
vt 0.413793 0.344828
vt 0.586207 0.275862
vt 0.517241 0.275862
vt 0.448276 0.379310
vt 0.655172 0.379310
vt 0.896552 0.793103
vt 0.931035 0.758621
vt 0.379310 0.379310
vt 0.379310 0.586207
vt 0.551724 0.620690
vt 0.586207 0.620690
vt 0.620690 0.586207
vt 0.344828 0.724138
vt 0.862069 0.000000
vt 0.793103 0.793103
vt 0.931035 0.862069
vt 0.931035 0.827586
vt 0.896552 0.793103
vt 0.655172 0.827586
vt 0.137931 0.758621
vt 0.275862 0.758621
vt 0.241379 0.862069
vt 0.172414 0.862069
vt 0.689655 0.344828
vt 0.689655 0.275862
vt 0.586207 0.620690
vt 0.310345 0.931034
vt 0.379310 0.931034
vt 0.965517 0.068966
vt 0.965517 0.137931
vt 0.931035 0.620690
vt 0.137931 0.965517
vt 0.379310 0.551724
vt 0.379310 0.586207
vt 0.206897 0.586207
vt 0.034483 0.724138
vt 0.000000 0.724138
vt 0.034483 0.655172
vt 0.379310 0.655172
vt 0.379310 0.689655
vt 0.172414 0.689655
vt 0.689655 0.379310
vt 0.724138 0.379310
vt 0.827586 0.344828
vt 0.827586 0.241379
vt 0.724138 0.206897
vt 0.862069 0.931034
vt 0.034483 0.896552
vt 0.137931 0.758621
vt 0.137931 0.862069
vt 0.206897 0.344828
vt 0.655172 0.896552
vt 0.448276 0.758621
vt 0.068966 0.034483
vt 0.068966 0.000000
vt 0.000000 0.000000
vt 0.206897 0.000000
vt 0.137931 0.000000
vt 0.137931 0.034483
vt 0.172414 0.034483
vt 0.034483 0.034483
vt 0.172414 0.137931
vt 0.206897 0.413793
vt 0.379310 0.413793
vt 0.379310 0.379310
vt 0.000000 0.379310
vt 0.034483 0.551724
vt 0.034483 0.482759
vt 0.379310 0.482759
vt 0.172414 0.517241
vt 0.827586 0.551724
vt 0.655172 0.862069
vt 0.862069 0.551724
vt 0.827586 0.586207
vt 0.896552 0.206897
vt 0.379310 0.896552
vt 0.931035 0.137931
vt 0.137931 0.896552
s 0
usemtl Untitled.005_Material
f 69/1/1 96/2/1 81/3/1
f 47/4/1 23/5/1 86/6/1
f 69/7/2 6/8/2 67/9/2
f 78/10/3 21/11/3 46/12/3
f 42/13/3 92/14/3 41/15/3
f 64/16/4 14/17/4 65/18/4
f 14/19/2 55/20/2 56/21/2
f 64/22/5 55/23/5 88/24/5
f 73/25/6 74/26/6 9/27/6
f 19/28/5 15/29/5 54/30/5
f 90/31/3 49/32/3 48/33/3
f 51/34/2 53/35/2 52/36/2
f 20/37/3 91/38/3 73/39/3
f 53/40/5 43/41/5 45/42/5
f 27/43/2 60/44/2 58/45/2
f 7/46/4 95/47/4 67/8/4
f 74/48/3 44/49/3 9/50/3
f 33/51/3 81/52/3 7/53/3
f 83/54/3 24/55/3 84/56/3
f 8/57/5 85/58/5 82/59/5
f 24/55/6 63/60/6 25/45/6
f 96/61/5 32/62/5 94/63/5
f 71/64/6 16/65/6 56/66/6
f 93/67/5 21/68/5 49/69/5
f 31/70/5 90/71/5 30/72/5
f 69/60/5 34/73/5 36/74/5
f 26/75/6 47/18/6 75/76/6
f 82/77/3 35/78/3 18/79/3
f 71/80/2 15/21/2 70/81/2
f 16/82/1 15/83/1 62/84/1
f 41/75/4 3/50/4 51/48/4
f 80/85/6 7/53/6 81/52/6
f 57/86/1 21/87/1 22/88/1
f 59/89/1 90/90/1 27/91/1
f 45/92/4 11/93/4 10/81/4
f 29/94/6 58/95/6 60/96/6
f 25/97/1 48/98/1 75/99/1
f 10/11/2 57/23/2 22/100/2
f 38/101/4 55/102/4 63/103/4
f 42/104/6 50/105/6 52/106/6
f 37/107/1 35/108/1 54/109/1
f 34/110/3 96/111/3 36/112/3
f 31/113/1 29/114/1 60/115/1
f 33/116/6 46/117/6 77/73/6
f 61/118/2 66/119/2 16/120/2
f 74/121/4 91/122/4 42/123/4
f 6/124/6 57/125/6 11/126/6
f 35/81/6 5/127/6 17/128/6
f 32/129/3 80/130/3 94/131/3
f 23/132/5 83/133/5 84/92/5
f 47/20/3 87/134/3 75/135/3
f 50/136/4 1/137/4 2/138/4
f 51/139/5 1/140/5 41/141/5
f 44/142/4 73/143/4 9/144/4
f 77/145/1 68/146/1 69/1/1
f 69/1/1 36/147/1 96/2/1
f 96/2/1 94/148/1 80/149/1
f 81/3/1 77/145/1 69/1/1
f 96/2/1 80/149/1 81/3/1
f 47/4/1 39/150/1 23/5/1
f 69/7/2 68/151/2 6/8/2
f 78/10/3 45/152/3 21/11/3
f 1/153/3 76/154/3 42/13/3
f 42/13/3 43/155/3 92/14/3
f 41/15/3 1/153/3 42/13/3
f 64/16/4 88/156/4 14/17/4
f 14/19/2 88/157/2 55/20/2
f 64/22/5 89/158/5 55/23/5
f 73/25/6 72/159/6 74/26/6
f 19/28/5 62/160/5 15/29/5
f 48/33/3 29/88/3 30/161/3
f 90/31/3 28/162/3 49/32/3
f 48/33/3 30/161/3 90/31/3
f 52/36/2 50/163/2 2/144/2
f 51/34/2 3/164/2 53/35/2
f 52/36/2 2/144/2 51/34/2
f 13/165/3 38/166/3 23/167/3
f 39/168/3 26/169/3 40/170/3
f 13/165/3 23/167/3 39/168/3
f 8/171/3 37/172/3 20/37/3
f 20/37/3 13/165/3 39/168/3
f 39/168/3 40/170/3 91/38/3
f 91/38/3 72/173/3 73/39/3
f 73/39/3 8/171/3 20/37/3
f 20/37/3 39/168/3 91/38/3
f 93/67/5 66/174/5 61/175/5
f 53/40/5 3/176/5 92/177/5
f 22/178/5 93/67/5 61/175/5
f 10/179/5 22/178/5 61/175/5
f 53/40/5 92/177/5 43/41/5
f 10/179/5 61/175/5 53/40/5
f 91/180/5 40/181/5 45/42/5
f 45/42/5 10/179/5 53/40/5
f 43/41/5 91/180/5 45/42/5
f 58/45/2 93/55/2 59/182/2
f 27/43/2 31/183/2 60/44/2
f 58/45/2 59/182/2 27/43/2
f 67/8/4 6/184/4 33/185/4
f 7/46/4 79/186/4 32/187/4
f 67/8/4 33/185/4 7/46/4
f 95/47/4 34/188/4 67/8/4
f 7/46/4 32/187/4 95/47/4
f 74/48/3 85/189/3 44/49/3
f 33/51/3 77/190/3 81/52/3
f 83/54/3 12/191/3 24/55/3
f 82/59/5 18/192/5 37/193/5
f 8/57/5 44/194/5 85/58/5
f 82/59/5 37/193/5 8/57/5
f 24/55/6 12/191/6 63/60/6
f 96/61/5 95/195/5 32/62/5
f 71/64/6 70/196/6 16/65/6
f 16/65/6 65/163/6 14/197/6
f 56/66/6 13/198/6 20/199/6
f 16/65/6 14/197/6 56/66/6
f 56/66/6 20/199/6 71/64/6
f 28/200/5 59/201/5 93/67/5
f 93/67/5 22/178/5 21/68/5
f 21/68/5 45/42/5 40/181/5
f 49/69/5 28/200/5 93/67/5
f 21/68/5 40/181/5 49/69/5
f 31/70/5 27/134/5 90/71/5
f 69/60/5 67/202/5 34/73/5
f 26/75/6 39/203/6 47/18/6
f 82/77/3 4/32/3 35/78/3
f 71/80/2 54/19/2 15/21/2
f 16/82/1 70/10/1 15/83/1
f 41/75/4 92/204/4 3/50/4
f 80/85/6 79/26/6 7/53/6
f 57/86/1 46/205/1 21/87/1
f 59/89/1 28/206/1 90/90/1
f 45/92/4 78/207/4 11/93/4
f 29/94/6 48/208/6 58/95/6
f 25/97/1 66/209/1 93/210/1
f 25/97/1 93/210/1 58/211/1
f 84/212/1 24/213/1 25/97/1
f 87/214/1 84/212/1 25/97/1
f 25/97/1 58/211/1 48/98/1
f 48/98/1 49/215/1 40/216/1
f 40/216/1 26/217/1 75/99/1
f 75/99/1 87/214/1 25/97/1
f 48/98/1 40/216/1 75/99/1
f 10/11/2 11/12/2 57/23/2
f 63/103/4 12/218/4 83/219/4
f 38/101/4 13/220/4 56/221/4
f 63/103/4 83/219/4 38/101/4
f 55/102/4 89/222/4 63/103/4
f 38/101/4 56/221/4 55/102/4
f 42/104/6 76/223/6 50/105/6
f 37/107/1 18/224/1 35/108/1
f 35/108/1 17/213/1 19/212/1
f 54/109/1 71/225/1 20/226/1
f 35/108/1 19/212/1 54/109/1
f 54/109/1 20/226/1 37/107/1
f 34/110/3 95/227/3 96/111/3
f 31/113/1 30/228/1 29/114/1
f 33/116/6 11/126/6 78/229/6
f 46/117/6 57/125/6 68/202/6
f 33/116/6 78/229/6 46/117/6
f 46/117/6 68/202/6 77/73/6
f 19/230/2 17/231/2 5/232/2
f 25/233/2 63/234/2 89/235/2
f 25/233/2 89/235/2 64/236/2
f 62/237/2 19/230/2 5/232/2
f 16/120/2 62/237/2 5/232/2
f 66/119/2 25/233/2 64/236/2
f 66/119/2 64/236/2 65/238/2
f 16/120/2 5/232/2 61/118/2
f 66/119/2 65/238/2 16/120/2
f 52/239/4 53/240/4 61/241/4
f 5/242/4 4/97/4 82/243/4
f 5/242/4 82/243/4 85/244/4
f 52/239/4 61/241/4 5/242/4
f 91/122/4 43/245/4 42/123/4
f 42/123/4 52/239/4 5/242/4
f 5/242/4 85/244/4 74/121/4
f 74/121/4 72/246/4 91/122/4
f 42/123/4 5/242/4 74/121/4
f 6/124/6 68/202/6 57/125/6
f 11/126/6 33/116/6 6/124/6
f 35/81/6 4/247/6 5/127/6
f 32/129/3 79/248/3 80/130/3
f 84/92/5 87/81/5 86/249/5
f 23/132/5 38/250/5 83/133/5
f 84/92/5 86/249/5 23/132/5
f 47/20/3 86/251/3 87/134/3
f 50/136/4 76/252/4 1/137/4
f 51/139/5 2/253/5 1/140/5
f 44/142/4 8/254/4 73/143/4
