# Blender 4.2.0
# www.blender.org
mtllib Untitled.016.mtl
o Untitled.016
v -24.088547 1.000000 4.130314
v -23.888546 0.000000 4.330314
v -23.888546 -0.000000 3.830314
v -23.888546 0.600000 3.930314
v -23.888546 1.300000 4.330314
v -23.788548 0.100000 4.130314
v -23.788548 0.600000 4.130314
v -23.788548 1.200000 4.330314
v -23.788548 1.200000 3.730314
v -23.788548 1.800000 4.330314
v -23.788548 1.800000 3.730314
v -23.688547 1.200000 3.930314
v -23.488546 -0.000000 3.830314
v -23.488546 0.100000 3.830314
v -23.388546 0.400000 3.930314
v -23.788548 0.400000 3.830314
v -23.688547 -0.000000 3.830314
v -23.488546 1.200000 4.130314
v -23.388546 0.100000 4.230314
v -23.388546 1.300000 4.330314
v -23.388546 1.300000 3.730314
v -23.388546 1.700000 4.330314
v -23.288548 0.000000 4.330314
v -23.288548 0.100000 4.330314
v -23.288548 0.100000 4.130314
v -23.288548 0.600000 4.230314
v -23.288548 1.100000 3.830314
v -23.188547 1.000000 4.130314
v -23.088547 0.600000 4.130314
v -23.088547 1.000000 3.930314
v -23.888546 0.100000 4.330314
v -23.888546 1.700000 4.330314
v -23.788548 1.300000 4.330314
v -23.788548 1.700000 4.330314
v -23.488546 0.000000 4.330314
v -23.488546 0.100000 4.330314
v -23.388546 1.200000 4.330314
v -23.288548 1.700000 4.330314
v -23.888546 1.100000 4.230314
v -23.788548 0.100000 4.230314
v -23.788548 0.600000 4.230314
v -23.488546 0.400000 4.230314
v -23.388546 0.600000 4.230314
v -23.888546 0.100000 4.130314
v -23.688547 1.200000 4.130314
v -23.188547 1.100000 4.130314
v -23.088547 1.000000 4.130314
v -23.988546 1.100000 3.930314
v -23.888546 1.100000 3.930314
v -23.688547 0.400000 3.930314
v -23.488546 1.100000 3.930314
v -23.288548 0.600000 3.930314
v -23.288548 1.100000 3.930314
v -23.188547 1.100000 3.930314
v -23.088547 0.600000 3.930314
v -23.888546 1.100000 3.830314
v -23.888546 1.300000 3.730314
v -23.788548 1.300000 3.730314
v -23.788548 1.700000 3.730314
v -23.388546 1.700000 3.730314
v -23.388546 1.800000 3.730314
v -23.288548 1.700000 3.730314
v -23.688547 0.000000 4.330314
v -23.288548 -0.000000 3.830314
v -23.688547 0.400000 4.230314
v -23.788548 0.400000 3.930314
v -23.488546 0.400000 3.930314
v -23.388546 0.400000 3.830314
v -23.888546 0.600000 4.230314
v -24.088547 0.600000 4.130314
v -23.888546 0.600000 4.130314
v -23.388546 0.600000 4.130314
v -23.288548 0.600000 4.130314
v -24.088547 0.600000 3.930314
v -23.488546 1.200000 3.930314
v -23.388546 1.200000 3.730314
v -23.288548 1.300000 4.330314
v -23.288548 1.300000 3.730314
v -23.688547 0.100000 4.330314
v -23.688547 0.100000 4.230314
v -23.488546 0.100000 4.230314
v -23.388546 0.100000 4.130314
v -23.788548 0.100000 3.930314
v -23.688547 0.100000 3.930314
v -23.488546 0.100000 3.930314
v -23.388546 0.100000 3.930314
v -23.788548 0.100000 3.830314
v -23.688547 0.100000 3.830314
v -23.388546 0.100000 3.830314
v -23.988546 1.000000 4.130314
v -24.088547 1.000000 3.930314
v -23.988546 1.000000 3.930314
v -23.188547 1.000000 3.930314
v -23.288548 1.100000 4.230314
v -23.988546 1.100000 4.130314
v -23.888546 1.100000 4.130314
v -23.688547 1.100000 4.130314
v -23.488546 1.100000 4.130314
v -23.288548 1.100000 4.130314
v -23.688547 1.100000 3.930314
v -23.888546 1.700000 3.730314
v -23.388546 1.800000 4.330314
vn -1.0000 -0.0000 -0.0000
vn -0.0000 -0.0000 -1.0000
vn -0.0000 -0.0000 1.0000
vn -0.0000 1.0000 -0.0000
vn 1.0000 -0.0000 -0.0000
vn -0.0000 -1.0000 -0.0000
vt 0.392857 0.392857
vt 0.571429 0.357143
vt 0.392857 0.357143
vt 0.178571 0.892857
vt 0.214286 0.750000
vt 0.142857 0.750000
vt 0.214286 0.428571
vt 0.392857 0.428571
vt 0.000000 0.392857
vt 0.892857 0.750000
vt 0.857143 0.928571
vt 0.857143 0.750000
vt 0.678571 0.928571
vt 0.642857 0.821429
vt 0.642857 0.928571
vt 0.214286 0.357143
vt 0.928572 0.178571
vt 0.892857 0.392857
vt 0.928572 0.392857
vt 0.250000 0.892857
vt 0.214286 0.964286
vt 0.214286 0.892857
vt -0.000000 0.392857
vt 0.214286 0.392857
vt 0.035714 0.142857
vt 0.321429 0.857143
vt 0.285714 0.892857
vt 0.357143 0.892857
vt 0.785714 0.214286
vt 0.857143 0.178571
vt 0.857143 0.214286
vt 0.571429 0.821429
vt 0.392857 0.857143
vt 0.392857 0.821429
vt 0.285714 0.892857
vt 0.214286 0.821429
vt 0.285714 0.821429
vt 0.821429 0.928571
vt 0.821429 0.750000
vt 0.714286 0.214286
vt 0.750000 0.250000
vt 0.750000 0.357143
vt 0.892857 0.142857
vt 0.857143 0.178571
vt 0.857143 0.000000
vt 0.035714 0.678571
vt 0.000000 0.571429
vt 0.214286 0.607143
vt 0.428571 0.750000
vt 0.535714 0.821429
vt 0.392857 0.821429
vt 0.107143 0.892857
vt 0.000000 0.928571
vt 0.000000 0.892857
vt 0.500000 0.892857
vt 0.464286 0.964286
vt 0.500000 0.964286
vt 0.714286 0.392857
vt 0.678571 0.357143
vt 0.714286 0.357143
vt 0.357143 0.107143
vt 0.392857 0.178571
vt 0.214286 0.357143
vt 0.928571 0.607143
vt 0.892857 0.392857
vt 0.928571 0.392857
vt 0.571429 0.892857
vt 0.392857 0.857143
vt 0.571429 0.857143
vt 0.571429 0.571429
vt 0.428571 0.428571
vt 0.571429 0.428571
vt 0.535714 0.928571
vt 0.571429 0.928571
vt 0.321429 0.964286
vt 0.357143 0.964286
vt 0.678571 0.321429
vt 0.678571 0.250000
vt 0.607143 0.250000
vt 0.785714 0.857143
vt 0.821428 0.928571
vt 0.821428 0.857143
vt 0.857143 0.714286
vt 0.892857 0.750000
vt 0.892857 0.571429
vt 0.857143 0.535714
vt 0.821429 0.392857
vt 0.892857 0.392857
vt 0.964286 0.214286
vt 0.928572 0.428571
vt 0.928572 0.214286
vt 0.214286 0.821428
vt 0.357143 0.750000
vt 0.214286 0.750000
vt 0.607143 0.035714
vt 0.464286 0.178571
vt 0.607143 0.178571
vt 0.535714 0.892857
vt 0.500000 0.928571
vt 0.464286 0.321429
vt 0.678571 0.357143
vt 0.535714 0.321429
vt 0.035714 0.785714
vt 0.000000 0.750000
vt 0.107143 0.785714
vt 0.464286 0.928571
vt 0.392857 0.892857
vt 0.392857 0.928571
vt 0.607143 0.392857
vt 0.750000 0.607143
vt 0.750000 0.392857
vt 0.964286 0.428571
vt 0.928572 0.642857
vt 0.928572 0.428571
vt 0.892857 0.392857
vt 0.892857 0.178571
vt 0.571429 0.357143
vt 0.678571 0.392857
vt 0.250000 0.928571
vt 0.321429 0.892857
vt 0.321429 0.928571
vt 0.607143 0.928571
vt 0.571429 0.892857
vt 0.607143 0.892857
vt 0.142857 0.892857
vt 0.107143 0.964286
vt 0.107143 0.892857
vt 0.357143 0.750000
vt 0.392857 0.964286
vt 0.392857 0.750000
vt 0.714286 0.750000
vt 0.714286 0.642857
vt 0.678571 0.785714
vt 0.785714 0.000000
vt 0.857143 0.000000
vt 0.678571 0.607143
vt 0.678571 0.821429
vt 0.928571 0.607143
vt 0.892857 0.821429
vt 0.928571 0.821429
vt 0.392857 0.607143
vt 0.535714 0.607143
vt 0.428571 0.678571
vt 0.642857 0.214286
vt 0.642857 0.000000
vt 0.821429 0.785714
vt 0.678571 0.857143
vt 0.678571 0.785714
vt 0.750000 0.607143
vt 0.821429 0.571429
vt 0.821429 0.607143
vt 0.750000 0.392857
vt 0.821429 0.392857
vt 0.750000 0.928571
vt 0.750000 0.857143
vt 0.928572 0.000000
vt 0.964286 0.000000
vt 0.750000 0.857143
vt 0.785714 0.928571
vt 0.607143 0.857143
vt 0.571429 0.821428
vt 0.928571 0.928571
vt 0.892857 0.821429
vt 0.892857 0.928571
vt 0.571429 0.392857
vt 0.142857 0.928571
vt 0.178571 0.928571
vt 0.214286 0.892857
vt 0.035714 0.571429
vt 0.035714 0.500000
vt 0.214286 0.500000
vt 0.392857 0.392857
vt 0.892857 0.928571
vt 0.678571 0.821429
vt 0.214286 0.392857
vt 0.892857 0.178571
vt 0.250000 0.964286
vt 0.214286 0.000000
vt 0.142857 0.000000
vt 0.142857 0.035714
vt 0.178571 0.035714
vt 0.071429 0.035714
vt 0.071429 0.000000
vt -0.000000 0.000000
vt 0.035714 0.035714
vt 0.178571 0.142857
vt 0.357143 0.821428
vt 0.321429 0.821428
vt 0.285714 0.857143
vt 0.785714 0.178571
vt 0.571429 0.857143
vt 0.214286 0.892857
vt 0.750000 0.392857
vt 0.714286 0.392857
vt 0.750000 0.214286
vt 0.857143 0.250000
vt 0.857143 0.357143
vt 0.928571 0.000000
vt 0.928571 0.142857
vt 0.035714 0.750000
vt 0.000000 0.750000
vt 0.392857 0.571429
vt 0.392857 0.607143
vt 0.214286 0.678571
vt 0.500000 0.750000
vt 0.107143 0.928571
vt 0.464286 0.892857
vt 0.678571 0.392857
vt 0.250000 0.178571
vt 0.250000 0.000000
vt 0.285714 0.000000
vt 0.285714 0.107143
vt 0.214286 0.178571
vt 0.428571 0.178571
vt 0.428571 0.357143
vt 0.357143 0.000000
vt 0.392857 0.000000
vt 0.892857 0.607143
vt 0.392857 0.892857
vt 0.571429 0.607143
vt 0.428571 0.607143
vt 0.428571 0.571429
vt 0.392857 0.428571
vt 0.607143 0.428571
vt 0.607143 0.571429
vt 0.428571 0.392857
vt 0.571429 0.392857
vt 0.321429 0.892857
vt 0.607143 0.321429
vt 0.714286 0.321429
vt 0.714286 0.250000
vt 0.678571 0.214286
vt 0.821429 0.571429
vt 0.821429 0.714286
vt 0.857143 0.571429
vt 0.821429 0.535714
vt 0.964286 0.428571
vt 0.357143 0.821428
vt 0.607143 0.000000
vt 0.464286 0.000000
vt 0.464286 0.035714
vt 0.428571 0.035714
vt 0.428571 0.178571
vt 0.642857 0.178571
vt 0.642857 0.035714
vt 0.464286 0.214286
vt 0.607143 0.214286
vt 0.535714 0.250000
vt 0.464286 0.214286
vt 0.464286 0.250000
vt 0.428571 0.250000
vt 0.428571 0.321429
vt 0.464286 0.357143
vt 0.107143 0.892857
vt 0.035714 0.892857
vt 0.000000 0.785714
vt 0.142857 0.785714
vt 0.464286 0.892857
vt 0.607143 0.607143
vt 0.964286 0.642857
vt 0.857143 0.392857
vt 0.571429 0.392857
vt 0.250000 0.892857
vt 0.571429 0.928571
vt 0.142857 0.964286
vt 0.821429 0.750000
vt 0.821429 0.642857
vt 0.714286 0.607143
vt 0.678571 0.607143
vt 0.714286 0.785714
vt 0.892857 0.607143
vt 0.500000 0.678571
vt 0.821429 0.857143
vt 0.750000 0.571429
vt 0.678571 0.928571
vt 0.750000 0.928571
vt 0.642857 0.892857
vt 0.642857 0.857143
vt 0.607143 0.821428
vt 0.928571 0.821429
s 0
usemtl Untitled.016_Material
f 40/1/1 7/2/1 6/3/1
f 93/4/2 55/5/2 52/6/2
f 4/7/1 49/8/1 3/9/1
f 6/10/3 71/11/3 44/12/3
f 50/13/2 83/14/2 66/15/2
f 71/16/1 39/1/1 96/3/1
f 62/17/4 22/18/4 38/19/4
f 54/20/5 28/21/5 93/22/5
f 56/23/2 27/24/2 16/25/2
f 19/26/4 36/27/4 24/28/4
f 31/29/3 63/30/3 79/31/3
f 72/32/5 19/33/5 82/34/5
f 71/35/6 74/36/6 4/37/6
f 25/12/3 72/38/3 82/39/3
f 17/40/5 84/41/5 80/42/5
f 28/43/3 99/44/3 73/45/3
f 25/46/5 64/47/5 52/48/5
f 45/49/6 37/50/6 8/51/6
f 16/52/5 83/53/5 87/54/5
f 30/55/4 28/56/4 47/57/4
f 26/58/6 72/59/6 73/60/6
f 42/61/3 43/62/3 39/63/3
f 33/64/6 57/65/6 58/66/6
f 94/67/5 73/68/5 99/69/5
f 22/70/3 33/71/3 20/72/3
f 89/67/4 85/73/4 86/74/4
f 92/28/4 1/75/4 90/76/4
f 99/77/4 53/78/4 51/79/4
f 100/80/1 45/81/1 12/82/1
f 92/83/2 49/84/2 4/85/2
f 90/86/3 70/87/3 71/88/3
f 21/89/5 37/90/5 76/91/5
f 70/92/1 91/93/1 74/94/1
f 21/95/2 59/96/2 60/97/2
f 88/98/4 83/99/4 84/73/4
f 96/100/4 94/101/4 97/102/4
f 50/103/6 16/104/6 67/105/6
f 75/106/2 100/107/2 12/108/2
f 57/109/1 32/110/1 101/111/1
f 61/112/5 22/113/5 60/114/5
f 77/115/6 21/44/6 78/116/6
f 89/117/1 15/118/1 68/101/1
f 45/119/3 98/120/3 18/121/3
f 41/122/6 71/123/6 7/124/6
f 75/125/5 98/126/5 51/127/5
f 59/128/1 10/129/1 11/130/1
f 81/131/1 85/132/1 35/133/1
f 63/30/6 3/134/6 17/135/6
f 61/136/4 10/50/4 102/137/4
f 59/138/4 32/139/4 34/140/4
f 9/141/6 76/142/6 12/143/6
f 62/134/5 77/144/5 78/145/5
f 30/146/5 29/147/5 55/148/5
f 36/149/3 23/150/3 24/151/3
f 23/150/6 13/152/6 64/153/6
f 29/154/6 52/147/6 55/155/6
f 9/156/1 33/89/1 58/157/1
f 92/158/1 95/159/1 48/80/1
f 40/160/4 44/161/4 31/67/4
f 15/162/2 85/163/2 67/164/2
f 40/1/1 41/165/1 7/2/1
f 52/6/2 53/166/2 54/167/2
f 93/4/2 30/168/2 55/5/2
f 52/6/2 54/167/2 93/4/2
f 3/9/1 2/47/1 31/169/1
f 44/170/1 71/171/1 4/7/1
f 3/9/1 31/169/1 44/170/1
f 49/8/1 56/172/1 3/9/1
f 3/9/1 44/170/1 4/7/1
f 6/10/3 7/173/3 71/11/3
f 50/13/2 84/174/2 83/14/2
f 71/16/1 69/175/1 39/1/1
f 62/17/4 60/176/4 22/18/4
f 54/20/5 46/177/5 28/21/5
f 64/178/2 13/179/2 14/180/2
f 64/178/2 14/180/2 89/181/2
f 88/182/2 17/183/2 3/184/2
f 87/185/2 88/182/2 3/184/2
f 27/24/2 64/178/2 89/181/2
f 27/24/2 89/181/2 68/186/2
f 87/185/2 3/184/2 56/23/2
f 27/24/2 68/186/2 16/25/2
f 16/25/2 87/185/2 56/23/2
f 24/28/4 25/187/4 82/188/4
f 19/26/4 81/189/4 36/27/4
f 24/28/4 82/188/4 19/26/4
f 31/29/3 2/190/3 63/30/3
f 72/32/5 43/191/5 19/33/5
f 71/35/6 70/192/6 74/36/6
f 25/12/3 73/11/3 72/38/3
f 79/193/5 63/194/5 17/40/5
f 17/40/5 88/195/5 84/41/5
f 84/41/5 50/196/5 65/197/5
f 80/42/5 79/193/5 17/40/5
f 84/41/5 65/197/5 80/42/5
f 73/45/3 29/198/3 47/199/3
f 28/43/3 46/116/3 99/44/3
f 73/45/3 47/199/3 28/43/3
f 25/46/5 24/200/5 23/201/5
f 64/47/5 27/202/5 53/203/5
f 52/48/5 73/204/5 25/46/5
f 64/47/5 53/203/5 52/48/5
f 25/46/5 23/201/5 64/47/5
f 45/49/6 18/205/6 37/50/6
f 8/51/6 9/141/6 45/49/6
f 16/52/5 66/206/5 83/53/5
f 30/55/4 93/207/4 28/56/4
f 26/58/6 43/208/6 72/59/6
f 41/209/3 40/210/3 80/211/3
f 41/209/3 80/211/3 65/212/3
f 39/63/3 69/213/3 41/209/3
f 26/214/3 94/215/3 39/63/3
f 81/216/3 19/217/3 43/62/3
f 43/62/3 26/214/3 39/63/3
f 39/63/3 41/209/3 65/212/3
f 42/61/3 81/216/3 43/62/3
f 39/63/3 65/212/3 42/61/3
f 33/64/6 5/218/6 57/65/6
f 94/67/5 26/219/5 73/68/5
f 22/70/3 102/220/3 10/221/3
f 34/222/3 32/202/3 5/223/3
f 22/70/3 10/221/3 34/222/3
f 77/224/3 38/225/3 22/70/3
f 8/226/3 37/227/3 20/72/3
f 20/72/3 77/224/3 22/70/3
f 22/70/3 34/222/3 5/223/3
f 33/71/3 8/226/3 20/72/3
f 22/70/3 5/223/3 33/71/3
f 89/67/4 14/98/4 85/73/4
f 92/28/4 91/228/4 1/75/4
f 51/79/4 98/229/4 99/77/4
f 99/77/4 46/230/4 54/231/4
f 53/78/4 27/232/4 51/79/4
f 99/77/4 54/231/4 53/78/4
f 100/80/1 97/159/1 45/81/1
f 4/85/2 74/233/2 91/234/2
f 92/83/2 48/12/2 49/84/2
f 4/85/2 91/234/2 92/83/2
f 71/88/3 96/85/3 95/235/3
f 90/86/3 1/236/3 70/87/3
f 71/88/3 95/235/3 90/86/3
f 21/89/5 20/237/5 37/90/5
f 70/92/1 1/238/1 91/93/1
f 21/95/2 76/239/2 9/240/2
f 58/241/2 57/242/2 101/243/2
f 21/95/2 9/240/2 58/241/2
f 62/244/2 78/245/2 21/95/2
f 11/246/2 61/247/2 60/97/2
f 60/97/2 62/244/2 21/95/2
f 21/95/2 58/241/2 101/243/2
f 59/96/2 11/246/2 60/97/2
f 21/95/2 101/243/2 59/96/2
f 88/98/4 87/55/4 83/99/4
f 100/248/4 51/79/4 27/232/4
f 27/232/4 56/249/4 49/250/4
f 49/250/4 48/251/4 95/252/4
f 96/100/4 39/253/4 94/101/4
f 49/250/4 95/252/4 96/100/4
f 100/248/4 27/232/4 49/250/4
f 97/102/4 100/248/4 49/250/4
f 94/101/4 99/77/4 98/229/4
f 97/102/4 49/250/4 96/100/4
f 94/101/4 98/229/4 97/102/4
f 42/254/6 65/255/6 50/103/6
f 50/103/6 66/256/6 16/104/6
f 16/104/6 68/6/6 15/257/6
f 67/105/6 42/254/6 50/103/6
f 16/104/6 15/257/6 67/105/6
f 75/106/2 51/258/2 100/107/2
f 57/109/1 5/259/1 32/110/1
f 61/112/5 102/260/5 22/113/5
f 77/115/6 20/261/6 21/44/6
f 89/117/1 86/262/1 15/118/1
f 45/119/3 97/263/3 98/120/3
f 41/122/6 69/264/6 71/123/6
f 75/125/5 18/265/5 98/126/5
f 59/128/1 34/76/1 10/129/1
f 81/131/1 42/266/1 67/267/1
f 85/132/1 14/268/1 13/269/1
f 81/131/1 67/267/1 85/132/1
f 35/133/1 36/270/1 81/131/1
f 85/132/1 13/269/1 35/133/1
f 63/30/6 2/190/6 3/134/6
f 61/136/4 11/142/4 10/50/4
f 59/138/4 101/271/4 32/139/4
f 76/142/6 37/50/6 18/205/6
f 76/142/6 18/205/6 75/272/6
f 12/143/6 45/49/6 9/141/6
f 76/142/6 75/272/6 12/143/6
f 62/134/5 38/29/5 77/144/5
f 30/146/5 47/273/5 29/147/5
f 36/149/3 35/274/3 23/150/3
f 23/150/6 35/274/6 13/152/6
f 29/154/6 73/275/6 52/147/6
f 9/156/1 8/91/1 33/89/1
f 92/158/1 90/276/1 95/159/1
f 31/67/4 79/277/4 80/278/4
f 40/160/4 6/279/4 44/161/4
f 31/67/4 80/278/4 40/160/4
f 15/162/2 86/280/2 85/163/2
