# Blender 4.2.0
# www.blender.org
mtllib Untitled.001.mtl
o Untitled.001
v -13.355326 1.300000 3.686073
v -13.255325 1.400000 3.686073
v -13.255325 1.700000 4.086072
v -13.255325 1.700000 3.986073
v -13.255325 1.700000 3.586073
v -13.255325 1.900000 3.986073
v -13.255325 1.900000 3.586073
v -13.255325 2.100000 4.086072
v -13.255325 2.100000 3.486073
v -13.155326 0.000000 4.186073
v -13.155326 0.100000 3.986073
v -13.155326 0.800000 3.886073
v -13.155326 1.400000 3.986073
v -13.155326 1.600000 3.986073
v -13.155326 1.600000 3.486073
v -13.155326 1.700000 3.486073
v -13.155326 2.200000 4.086072
v -13.055326 0.800000 3.986073
v -13.055326 1.400000 3.886073
v -13.055326 1.500000 3.886073
v -13.055326 1.500000 3.686073
v -13.055326 1.600000 4.086072
v -13.055326 2.200000 4.086072
v -13.055326 2.300000 4.086072
v -12.955326 1.400000 3.686073
v -12.955326 1.400000 3.586073
v -12.955326 1.400000 3.386073
v -12.955326 1.500000 3.686073
v -12.755325 0.000000 4.086073
v -12.755325 0.500000 3.986073
v -12.655326 0.100000 3.686073
v -13.055326 0.100000 3.786073
v -13.055326 0.400000 3.786073
v -13.055326 0.400000 3.586073
v -12.955326 0.000000 4.186073
v -12.955326 0.100000 4.186073
v -12.955326 0.100000 3.786073
v -12.955326 0.400000 3.686073
v -12.955326 0.500000 3.986073
v -12.755325 1.500000 3.686073
v -12.755325 1.500000 3.586073
v -12.755325 1.500000 3.486073
v -12.655326 0.100000 3.886073
v -12.655326 0.800000 3.986073
v -12.655326 0.800000 3.886073
v -12.655326 1.400000 3.886073
v -12.655326 1.400000 3.686073
v -12.655326 1.700000 3.986073
v -12.655326 2.300000 3.586073
v -12.555326 0.100000 3.886073
v -12.555326 1.100000 3.886073
v -12.555326 1.400000 3.986073
v -12.555326 1.400000 3.886073
v -12.555326 1.400000 3.686073
v -12.555326 1.600000 3.986073
v -12.555326 1.600000 3.486073
v -12.555326 1.700000 3.486073
v -12.555326 1.900000 3.586073
v -12.555326 2.100000 4.086072
v -12.455326 1.300000 3.686073
v -12.455326 1.400000 3.886073
v -12.455326 1.400000 3.686073
v -12.455326 1.700000 4.086072
v -12.455326 1.700000 3.586073
v -12.455326 2.100000 3.486073
v -13.155326 2.100000 4.086072
v -12.655326 1.700000 4.086072
v -12.655326 2.200000 4.086072
v -12.555326 0.100000 4.086073
v -13.155326 0.400000 3.986073
v -13.155326 1.700000 3.986073
v -12.655326 0.100000 3.986073
v -12.655326 1.600000 3.986073
v -13.355326 0.900000 3.886073
v -13.355326 1.300000 3.886073
v -13.255325 1.300000 3.886073
v -13.155326 0.400000 3.886073
v -13.155326 0.900000 3.886073
v -13.055326 0.400000 3.886073
v -12.755325 1.400000 3.886073
v -12.755325 1.500000 3.886073
v -12.655326 1.500000 3.886073
v -12.555326 0.800000 3.886073
v -12.455326 1.300000 3.886073
v -12.355326 1.100000 3.886073
v -12.355326 1.300000 3.886073
v -12.555326 0.900000 3.786073
v -12.555326 1.700000 3.586073
v -13.155326 1.500000 3.486073
v -12.955326 1.400000 3.486073
v -12.955326 1.500000 3.486073
v -12.555326 1.500000 3.486073
v -12.555326 1.900000 3.986073
v -12.455326 1.900000 3.986073
v -13.355326 0.900000 3.686073
v -13.255325 1.300000 3.686073
v -13.155326 0.900000 3.686073
v -13.155326 1.400000 3.686073
v -13.055326 0.100000 3.686073
v -12.955326 -0.000000 3.686073
v -12.955326 0.100000 3.686073
v -12.755325 0.100000 3.686073
v -12.755325 1.400000 3.686073
v -12.755325 1.600000 3.686073
v -12.655326 0.500000 3.686073
v -12.555326 1.100000 3.686073
v -12.355326 1.300000 3.686073
v -13.155326 1.400000 3.586073
v -13.055326 2.200000 3.586073
v -13.055326 2.300000 3.586073
v -12.755325 -0.000000 3.586073
v -12.755325 0.100000 3.586073
v -12.655326 0.100000 3.586073
v -12.655326 0.500000 3.586073
v -12.655326 2.200000 3.586073
v -12.555326 -0.000000 3.586073
v -12.555326 0.900000 3.586073
v -12.355326 0.900000 3.586073
v -13.255325 1.700000 3.486073
v -13.155326 2.200000 3.486073
v -12.555326 2.100000 3.486073
v -12.455326 1.700000 3.486073
v -12.755325 1.400000 3.386073
v -12.755325 1.500000 3.386073
v -12.555326 1.500000 3.386073
v -12.555326 0.000000 4.086073
v -13.155326 -0.000000 3.686073
v -12.955326 0.400000 3.786073
v -13.155326 0.400000 3.686073
v -13.055326 0.400000 3.686073
v -13.155326 0.400000 3.586073
v -13.055326 0.500000 3.686073
v -12.955326 0.500000 3.686073
v -12.755325 0.500000 3.686073
v -13.055326 0.500000 3.586073
v -13.155326 0.800000 3.986073
v -12.555326 0.800000 3.986073
v -13.055326 0.800000 3.886073
v -12.355326 0.900000 3.786073
v -12.555326 1.100000 3.786073
v -12.355326 1.100000 3.786073
v -12.755325 1.400000 3.486073
v -13.155326 1.500000 3.386073
v -12.955326 1.500000 3.386073
v -12.655326 1.600000 4.086072
v -13.055326 1.600000 3.986073
v -12.955326 1.600000 3.886073
v -12.755325 1.600000 3.886073
v -12.955326 1.600000 3.686073
v -13.055326 1.700000 4.086072
v -13.055326 1.700000 3.986073
v -12.555326 1.700000 3.986073
v -12.455326 1.700000 3.986073
v -13.155326 1.700000 3.586073
v -13.155326 1.900000 3.986073
v -13.155326 1.900000 3.586073
v -12.455326 1.900000 3.586073
v -13.155326 0.100000 4.186073
v -13.055326 0.100000 4.086073
v -12.955326 0.100000 4.086073
v -12.755325 0.100000 4.086073
v -13.055326 0.100000 3.986073
v -12.755325 0.100000 3.986073
v -13.055326 0.400000 4.086073
v -12.955326 0.400000 4.086073
v -13.055326 0.400000 3.986073
v -12.955326 0.400000 3.986073
v -12.355326 1.100000 3.686073
v -12.555326 1.100000 3.586073
v -12.355326 1.100000 3.586073
v -12.955326 1.400000 3.986073
v -12.755325 1.400000 3.986073
v -13.255325 1.400000 3.886073
v -13.155326 1.400000 3.886073
v -12.955326 1.400000 3.886073
v -13.055326 1.400000 3.686073
v -12.755325 1.400000 3.586073
v -12.555326 1.400000 3.586073
v -12.955326 1.500000 3.986073
v -12.755325 1.500000 3.986073
v -12.955326 1.500000 3.886073
v -12.655326 1.500000 3.686073
v -12.955326 1.500000 3.586073
v -12.455326 2.100000 4.086072
v -13.155326 2.100000 3.486073
v -13.155326 2.100000 3.386073
v -12.555326 2.100000 3.386073
v -12.555326 2.200000 4.086072
v -12.555326 2.200000 3.486073
v -12.655326 2.300000 4.086072
vn -1.0000 -0.0000 -0.0000
vn -0.0000 -0.0000 -1.0000
vn -0.0000 -0.0000 1.0000
vn 1.0000 -0.0000 -0.0000
vn -0.0000 -1.0000 -0.0000
vn -0.0000 1.0000 -0.0000
vt 0.676471 0.911765
vt 0.705882 0.941176
vt 0.705882 0.911765
vt 0.352941 0.941176
vt 0.294118 0.911765
vt 0.294118 0.941176
vt 0.205882 0.911765
vt 0.294118 0.941176
vt 0.294118 0.911765
vt 0.941176 0.352941
vt 0.970588 0.294118
vt 0.970588 0.352941
vt 0.176471 0.823529
vt 0.088235 0.852941
vt 0.088235 0.823529
vt 0.941177 0.500000
vt 0.970588 0.470588
vt 0.970588 0.500000
vt 0.941177 0.235294
vt 0.911765 0.117647
vt 0.941177 0.117647
vt 0.058824 0.794118
vt 0.117647 0.794118
vt 0.000000 0.823529
vt 0.911765 0.176471
vt 0.882353 0.352941
vt 0.882353 0.176471
vt 0.000000 0.470588
vt 0.117647 0.529412
vt 0.235294 0.529412
vt 0.941176 0.617647
vt 0.911765 0.500000
vt 0.911765 0.617647
vt 0.764706 0.205882
vt 0.588235 0.205882
vt 0.735294 0.235294
vt 0.264706 0.205882
vt 0.294118 0.117647
vt 0.382353 0.205882
vt 0.147059 0.941176
vt 0.117647 0.970588
vt 0.117647 0.941176
vt 0.911765 0.529412
vt 0.852941 0.382353
vt 0.911765 0.382353
vt 0.676471 0.117647
vt 0.676471 0.029412
vt 0.647059 0.147059
vt 0.441177 0.558824
vt 0.470588 0.529412
vt 0.558824 0.588235
vt 0.852941 0.500000
vt 0.823529 0.558824
vt 0.852941 0.558824
vt 0.823529 0.911765
vt 0.764706 0.852941
vt 0.823529 0.852941
vt 0.970588 0.058824
vt 0.941176 0.117647
vt 0.970588 0.117647
vt 0.794118 0.411765
vt 0.794118 0.470588
vt 0.823529 0.470588
vt 0.647059 0.911765
vt 0.588235 0.941176
vt 0.647059 0.941176
vt 0.852941 0.911765
vt 0.911765 0.882353
vt 0.911765 0.911765
vt 0.852941 0.029412
vt 0.823529 0.088235
vt 0.852941 0.088235
vt 0.735294 0.882353
vt 0.764706 0.941176
vt 0.764706 0.882353
vt 0.382353 0.882353
vt 0.352941 0.764706
vt 0.411765 0.764706
vt 0.352941 0.911765
vt 0.294118 0.764706
vt 0.941177 0.382353
vt 0.882353 0.352941
vt 0.941177 0.352941
vt 0.823529 0.764706
vt 0.764706 0.764706
vt 0.735294 0.735294
vt 0.558824 0.970588
vt 0.529412 0.941176
vt 0.558824 0.941176
vt 0.852941 0.735294
vt 0.852941 0.558824
vt 0.794118 0.705882
vt 0.529412 0.470588
vt 0.411765 0.411765
vt 0.588235 0.411765
vt 0.588235 0.941176
vt 0.588235 0.970588
vt 0.970588 0.558823
vt 0.941176 0.529412
vt 0.970588 0.529412
vt 0.470588 0.764706
vt 0.500000 0.794118
vt 0.529412 0.764706
vt 0.941176 0.500000
vt 0.647059 0.147059
vt 0.764706 0.205882
vt 0.764706 0.147059
vt 0.764706 0.852941
vt 0.588235 0.882353
vt 0.764706 0.882353
vt 0.294118 0.941176
vt 0.323529 0.970588
vt 0.323529 0.941176
vt 0.058824 0.970588
vt 0.000000 0.941177
vt 0.058824 0.941177
vt 0.558824 0.882353
vt 0.529412 0.852941
vt 0.529412 0.911765
vt 0.676471 0.941176
vt 0.676471 0.911765
vt 0.176471 0.264706
vt 0.176471 0.000000
vt 0.147059 0.147059
vt 0.500000 0.941176
vt 0.470588 0.970588
vt 0.500000 0.970588
vt 0.470588 0.764706
vt 0.411765 0.882353
vt 0.441176 0.882353
vt 0.941177 0.352941
vt 0.911765 0.235294
vt 0.911765 0.352941
vt 0.205882 0.970588
vt 0.235294 0.941176
vt 0.235294 0.970588
vt 0.705882 0.588235
vt 0.705882 0.647059
vt 0.617647 0.676471
vt 0.852941 0.882353
vt 0.823530 0.941176
vt 0.823530 0.882353
vt 0.588235 0.882353
vt 0.705882 0.911765
vt 0.705882 0.882353
vt 0.970588 0.411765
vt 0.941176 0.352941
vt 0.941176 0.411765
vt 0.294118 0.941176
vt 0.264706 0.970588
vt 0.294118 0.970588
vt 0.823529 0.882353
vt 0.852941 0.852941
vt 0.852941 0.882353
vt 0.764706 0.558824
vt 0.823529 0.500000
vt 0.205882 0.941176
vt 0.088235 0.911765
vt 0.088235 0.941176
vt 0.852941 0.911765
vt 0.882353 0.911765
vt 0.911765 0.941176
vt 0.941176 0.500000
vt 0.911765 0.382353
vt 0.088235 0.911765
vt 0.205882 0.882353
vt 0.088235 0.882353
vt 0.411765 0.441177
vt 0.235294 0.411765
vt 0.235294 0.441177
vt 0.470588 0.911765
vt 0.529412 0.882353
vt 0.529412 0.911765
vt 0.823529 0.176471
vt 0.794118 0.205882
vt 0.794118 0.117647
vt 0.911765 0.529412
vt 0.882353 0.705882
vt 0.911765 0.705882
vt 0.941177 0.441176
vt 0.970588 0.441176
vt 0.441177 0.970588
vt 0.411765 0.941176
vt 0.411765 0.970588
vt 0.941176 0.794118
vt 0.911765 0.852941
vt 0.911765 0.794118
vt 0.470588 0.970588
vt 0.441177 0.941176
vt 0.470588 0.941176
vt 0.823529 0.911765
vt 0.764706 0.941177
vt 0.823529 0.941177
vt 0.294118 0.852941
vt 0.088235 0.852941
vt 0.029412 0.941176
vt 0.000000 0.941176
vt 0.705882 0.705882
vt 0.735294 0.852941
vt 0.735294 0.705882
vt 0.529412 0.911765
vt 0.529412 0.941176
vt 0.941177 0.117647
vt 0.911765 -0.000000
vt 0.941177 -0.000000
vt 0.588235 0.382353
vt 0.617647 0.411765
vt 0.647059 0.411765
vt 0.147059 0.970588
vt 0.176471 0.941177
vt 0.176471 0.970588
vt 0.970588 0.000000
vt 0.941177 0.058824
vt 0.441177 0.617647
vt 0.470588 0.647059
vt 0.529412 0.764706
vt 0.764706 0.147059
vt 0.794118 0.205882
vt 0.794118 0.147059
vt 0.088235 0.941176
vt 0.058824 0.882353
vt 0.058824 0.911765
vt 0.235294 0.705882
vt 0.000000 0.617647
vt 0.323529 0.705882
vt 0.941176 0.852941
vt 0.911765 0.882353
vt 0.382353 0.941176
vt 0.352941 0.970588
vt 0.882353 0.205882
vt 0.882353 0.382353
vt 0.823529 0.235294
vt 0.882353 0.000000
vt 0.911765 0.176471
vt 0.911765 0.000000
vt 0.558824 0.823529
vt 0.588235 0.764706
vt 0.588235 0.941176
vt 0.588235 0.911765
vt 0.882353 0.529412
vt 0.852941 0.735294
vt 0.852941 0.529412
vt 0.264706 0.941176
vt 0.529412 0.235294
vt 0.470588 0.235294
vt 0.411765 0.411765
vt 0.470588 0.029412
vt 0.617647 0.147059
vt 0.470588 0.176471
vt 0.588235 0.852941
vt 0.705882 0.852941
vt 0.941176 0.588235
vt 0.970588 0.588235
vt 0.970588 0.441177
vt 0.941176 0.411765
vt 0.970588 0.411765
vt 0.235294 0.823529
vt 0.176471 0.764706
vt 0.235294 0.794118
vt 0.411765 0.941176
vt 0.352941 0.911765
vt 0.411765 0.911765
vt 0.970588 0.235294
vt 0.941177 0.294118
vt 0.852941 0.205882
vt 0.882353 0.117647
vt 0.882353 0.205882
vt 0.705882 0.882353
vt 0.735294 0.941176
vt 0.735294 0.882353
vt 0.058824 0.970588
vt 0.088235 0.941176
vt 0.117647 0.941176
vt 0.352941 0.941176
vt 0.323529 0.970588
vt 0.323529 0.941176
vt 0.941176 0.176471
vt 0.970588 0.176471
vt 0.470588 0.911765
vt 0.470588 0.941176
vt 0.911765 0.705882
vt 0.941176 0.617647
vt 0.941176 0.705882
vt 0.911765 0.705882
vt 0.882353 0.882353
vt 0.941177 0.882353
vt 0.911765 0.882353
vt 0.176471 0.941176
vt 0.205882 0.941176
vt 0.294118 0.882353
vt 0.205882 0.882353
vt 0.882353 0.735294
vt 0.852941 0.882353
vt 0.852941 0.735294
vt 0.382353 0.970588
vt 0.088235 0.882353
vt 0.029412 0.823529
vt 0.088235 0.823529
vt 0.970588 0.235294
vt 0.941176 0.176471
vt 0.941176 0.235294
vt 0.941176 0.794118
vt 0.500000 0.970588
vt 0.500000 0.941176
vt 0.676471 0.941176
vt 0.205882 0.941176
vt 0.941176 0.294118
vt 0.176471 0.852941
vt 0.941177 0.470588
vt 0.911765 0.235294
vt 0.058824 0.764706
vt 0.117647 0.764706
vt 0.176471 0.794118
vt 0.176471 0.823529
vt 0.000000 0.794118
vt 0.411765 0.470588
vt 0.411765 0.441176
vt 0.117647 0.441176
vt 0.264706 0.470588
vt 0.411765 0.558824
vt 0.411765 0.529412
vt 0.264706 0.529412
vt 0.117647 0.470588
vt 0.235294 0.558824
vt 0.029412 0.617647
vt 0.029412 0.558824
vt 0.117647 0.558824
vt 0.735294 0.382353
vt 0.764706 0.382353
vt 0.588235 0.382353
vt 0.617647 0.382353
vt 0.617647 0.235294
vt 0.411765 0.205882
vt 0.411765 0.382353
vt 0.352941 0.382353
vt 0.352941 0.411765
vt 0.294118 0.411765
vt 0.294118 0.382353
vt 0.235294 0.382353
vt 0.235294 0.205882
vt 0.352941 0.000000
vt 0.382353 0.000000
vt 0.352941 0.117647
vt 0.264706 0.088235
vt 0.294118 0.088235
vt 0.852941 0.529412
vt 0.794118 0.117647
vt 0.794118 0.029412
vt 0.676471 0.000000
vt 0.647059 0.000000
vt 0.676471 0.147059
vt 0.441177 0.588235
vt 0.411765 0.558824
vt 0.529412 0.529412
vt 0.764706 0.911765
vt 0.941176 0.058824
vt 0.764706 0.411765
vt 0.764706 0.470588
vt 0.794118 0.500000
vt 0.852941 0.500000
vt 0.852941 0.382353
vt 0.794118 0.382353
vt 0.823529 0.411765
vt 0.852941 0.411765
vt 0.852941 0.470588
vt 0.882353 0.088235
vt 0.882353 0.029412
vt 0.852941 -0.000000
vt 0.794118 -0.000000
vt 0.794118 0.029412
vt 0.823529 0.029412
vt 0.794118 0.088235
vt 0.852941 0.117647
vt 0.735294 0.941176
vt 0.411765 0.911765
vt 0.382353 0.911765
vt 0.352941 0.882353
vt 0.882353 0.382353
vt 0.852941 0.735294
vt 0.852941 0.764706
vt 0.823529 0.852941
vt 0.735294 0.764706
vt 0.529412 0.970588
vt 0.735294 0.705882
vt 0.735294 0.735294
vt 0.735294 0.558824
vt 0.735294 0.588235
vt 0.794118 0.588235
vt 0.588235 0.558824
vt 0.558824 0.558824
vt 0.470588 0.470588
vt 0.941176 0.558823
vt 0.470588 0.882353
vt 0.500000 0.882353
vt 0.529412 0.794118
vt 0.970588 0.500000
vt 0.647059 0.205882
vt 0.588235 0.852941
vt 0.294118 0.970588
vt 0.000000 0.970588
vt 0.588235 0.911765
vt 0.588235 0.882353
vt 0.558824 0.852941
vt 0.647059 0.941176
vt 0.058824 0.441177
vt 0.117647 0.441177
vt 0.117647 0.411765
vt 0.176471 0.411765
vt 0.176471 0.323529
vt 0.235294 0.323529
vt 0.235294 0.264706
vt -0.000000 0.117647
vt -0.000000 0.411765
vt 0.058824 0.411765
vt 0.029412 0.147059
vt 0.029412 0.117647
vt 0.117647 0.000000
vt 0.117647 0.029412
vt 0.147059 0.029412
vt 0.470588 0.941176
vt 0.441176 0.911765
vt 0.411765 0.764706
vt 0.941177 0.235294
vt 0.588235 0.705882
vt 0.588235 0.558824
vt 0.617647 0.558824
vt 0.617647 0.588235
vt 0.617647 0.705882
vt 0.705882 0.676471
vt 0.735294 0.558824
vt 0.735294 0.647059
vt 0.705882 0.558824
vt 0.852941 0.941176
vt 0.588235 0.911765
vt 0.970588 0.352941
vt 0.764706 0.500000
vt 0.205882 0.911765
vt 0.852941 0.941176
vt 0.911765 0.911765
vt 0.941176 0.382353
vt 0.205882 0.911765
vt 0.470588 0.882353
vt 0.852941 0.176471
vt 0.823529 0.205882
vt 0.441177 0.941176
vt 0.941176 0.852941
vt 0.441177 0.970588
vt 0.294118 0.882353
vt 0.029412 0.823529
vt 0.911765 0.117647
vt 0.764706 0.411765
vt 0.764706 0.382353
vt 0.588235 0.411765
vt 0.617647 0.558824
vt 0.647059 0.558824
vt 0.705882 0.558824
vt 0.705882 0.441176
vt 0.647059 0.441176
vt 0.147059 0.941177
vt 0.941177 0.000000
vt 0.470588 0.764706
vt 0.441177 0.764706
vt 0.411765 0.617647
vt 0.411765 0.588235
vt 0.588235 0.588235
vt 0.588235 0.617647
vt 0.470588 0.617647
vt 0.529412 0.647059
vt 0.764706 0.205882
vt 0.029412 0.911765
vt 0.029412 0.941176
vt 0.088235 0.882353
vt 0.411765 0.705882
vt 0.411765 0.735294
vt 0.235294 0.735294
vt 0.264706 0.676471
vt 0.323529 0.676471
vt 0.264706 0.617647
vt 0.029412 0.764706
vt 0.000000 0.764706
vt 0.029412 0.705882
vt 0.941176 0.882353
vt 0.382353 0.970588
vt 0.764706 0.382353
vt 0.764706 0.352941
vt 0.823529 0.352941
vt 0.764706 0.235294
vt 0.764706 0.205882
vt 0.882353 0.176471
vt 0.529412 0.852941
vt 0.558824 0.852941
vt 0.588235 0.823529
vt 0.882353 0.735294
vt 0.588235 0.235294
vt 0.529412 0.205882
vt 0.470588 0.205882
vt 0.411765 0.235294
vt 0.411765 0.147059
vt 0.411765 0.029412
vt 0.470588 0.000000
vt 0.588235 0.000000
vt 0.588235 0.029412
vt 0.647059 0.029412
vt 0.441177 0.147059
vt 0.441177 0.176471
vt 0.588235 0.205882
vt 0.470588 0.205882
vt 0.617647 0.176471
vt 0.588235 0.176471
vt 0.588235 0.705882
vt 0.941176 0.441177
vt 0.294118 0.794118
vt 0.294118 0.852941
vt 0.235294 0.852941
vt 0.176471 0.823529
vt 0.235294 0.764706
vt 0.352941 0.941176
vt 0.941177 0.235294
vt 0.705882 0.941176
vt 0.117647 0.970588
vt 0.058824 0.941176
vt 0.352941 0.970588
vt 0.941177 0.941176
vt 0.176471 0.970588
vt 0.882353 0.882353
vt 0.029412 0.882353
vt 0.970588 0.176471
vt 0.941176 0.705882
s 0
usemtl Untitled.001_Material
f 27/1/1 91/2/1 144/3/1
f 104/4/2 28/5/2 149/6/2
f 162/7/1 164/8/1 166/9/1
f 58/10/3 64/11/3 157/12/3
f 178/13/4 106/14/4 169/15/4
f 81/16/3 46/17/3 82/18/3
f 94/19/5 58/20/5 157/21/5
f 91/22/3 42/23/3 15/24/3
f 189/25/4 59/26/4 121/27/4
f 127/28/1 77/29/1 12/30/1
f 65/31/2 57/32/2 121/33/2
f 189/34/6 120/35/6 115/36/6
f 18/37/3 39/38/3 44/39/3
f 124/40/4 142/41/4 123/42/4
f 126/43/5 111/44/5 116/45/5
f 163/46/1 102/47/1 29/48/1
f 146/49/5 147/50/5 145/51/5
f 96/52/6 75/53/6 76/54/6
f 78/55/5 95/56/5 97/57/5
f 28/58/6 20/59/6 181/60/6
f 98/61/6 174/62/6 19/63/6
f 41/64/6 28/65/6 40/66/6
f 147/67/3 81/68/3 148/69/3
f 54/70/6 46/71/6 53/72/6
f 28/73/1 147/74/1 149/75/1
f 76/76/3 74/77/3 78/78/3
f 35/79/5 127/80/5 100/77/5
f 142/81/5 27/82/5 123/83/5
f 134/84/5 133/85/5 135/86/5
f 64/87/5 57/88/5 122/89/5
f 8/90/1 9/91/1 6/92/1
f 104/93/5 15/94/5 56/95/5
f 167/96/6 164/87/6 165/97/6
f 154/98/5 119/99/5 16/100/5
f 127/101/2 99/102/2 100/103/2
f 182/100/2 103/104/2 40/99/2
f 95/105/1 75/106/1 1/107/1
f 187/108/6 185/109/6 121/110/6
f 26/111/1 28/112/1 183/113/1
f 85/114/5 140/115/5 141/116/5
f 159/117/6 11/118/6 158/119/6
f 175/64/1 179/120/1 181/121/1
f 117/122/2 116/123/2 114/124/2
f 101/125/6 32/126/6 37/127/6
f 97/128/2 1/129/2 96/130/2
f 105/131/2 102/132/2 134/133/2
f 48/134/3 55/135/3 152/136/3
f 128/137/4 167/138/4 160/139/4
f 182/140/4 46/141/4 47/142/4
f 113/143/1 105/144/1 114/145/1
f 94/146/2 152/147/2 93/148/2
f 79/149/6 70/150/6 166/151/6
f 20/152/3 175/153/3 181/154/3
f 140/155/3 139/156/3 141/53/3
f 49/157/2 109/158/2 110/159/2
f 4/160/5 71/161/5 150/162/5
f 185/163/2 119/164/2 9/32/2
f 166/165/1 138/166/1 79/167/1
f 189/168/2 185/169/2 120/170/2
f 158/171/3 35/172/3 36/173/3
f 84/174/3 53/175/3 51/176/3
f 185/177/6 8/178/6 66/179/6
f 146/180/1 150/17/1 151/181/1
f 28/182/2 176/183/2 21/184/2
f 104/185/4 81/186/4 40/187/4
f 130/188/5 131/189/5 34/190/5
f 170/191/6 106/192/6 168/193/6
f 45/194/4 72/167/4 43/195/4
f 77/24/3 138/196/3 12/197/3
f 109/198/1 24/199/1 110/200/1
f 161/190/3 126/201/3 69/202/3
f 155/203/5 7/204/5 156/205/5
f 143/206/1 15/207/1 16/208/1
f 71/209/3 146/210/3 151/211/3
f 107/212/6 84/213/6 86/58/6
f 56/214/4 88/215/4 93/216/4
f 96/217/1 173/218/1 2/219/1
f 69/220/6 43/221/6 72/222/6
f 83/223/4 116/224/4 51/225/4
f 81/226/4 172/227/4 80/186/4
f 41/228/4 103/229/4 177/4/4
f 65/230/4 184/231/4 157/232/4
f 185/233/1 17/234/1 120/235/1
f 60/236/2 168/237/2 106/103/2
f 92/238/5 124/201/5 125/239/5
f 50/240/3 45/241/3 43/242/3
f 137/150/5 45/135/5 83/243/5
f 124/244/2 144/245/2 186/246/2
f 150/247/3 59/248/3 23/249/3
f 49/198/6 24/250/6 190/251/6
f 113/98/6 102/252/6 31/253/6
f 128/254/5 130/255/5 38/256/5
f 141/257/4 118/258/4 168/259/4
f 91/260/5 143/261/5 144/262/5
f 182/263/6 81/264/6 82/11/6
f 70/265/3 162/266/3 166/267/3
f 176/268/1 20/269/1 21/270/1
f 67/271/5 152/272/5 153/273/5
f 135/274/4 130/275/4 34/276/4
f 7/277/3 154/60/3 156/278/3
f 81/279/6 179/260/6 180/280/6
f 164/281/3 160/282/3 165/283/3
f 65/284/6 59/285/6 184/227/6
f 62/286/4 84/162/4 60/287/4
f 18/134/5 12/288/5 138/289/5
f 130/290/4 32/7/4 99/291/4
f 49/292/4 68/293/4 115/294/4
f 133/184/2 130/228/2 132/295/2
f 139/296/5 117/297/5 118/298/5
f 155/299/2 4/300/2 6/301/2
f 128/302/2 32/284/2 33/187/2
f 48/88/4 145/303/4 73/304/4
f 27/1/1 90/305/1 91/2/1
f 104/4/2 40/79/2 28/5/2
f 162/7/1 159/306/1 164/8/1
f 58/10/3 88/307/3 64/11/3
f 178/13/4 54/308/4 106/14/4
f 81/16/3 80/309/3 46/17/3
f 94/19/5 93/310/5 58/20/5
f 91/22/3 90/311/3 142/312/3
f 42/23/3 92/313/3 56/314/3
f 91/22/3 142/312/3 42/23/3
f 15/24/3 89/315/3 91/22/3
f 42/23/3 56/314/3 15/24/3
f 189/25/4 188/133/4 59/26/4
f 98/316/1 108/317/1 131/318/1
f 97/319/1 98/316/1 131/318/1
f 13/320/1 174/321/1 78/322/1
f 78/322/1 97/319/1 131/318/1
f 78/322/1 131/318/1 129/323/1
f 136/324/1 13/320/1 78/322/1
f 12/30/1 136/324/1 78/322/1
f 78/322/1 129/323/1 127/28/1
f 127/28/1 10/224/1 158/325/1
f 11/326/1 70/327/1 77/29/1
f 127/28/1 158/325/1 11/326/1
f 12/30/1 78/322/1 127/28/1
f 127/28/1 11/326/1 77/29/1
f 65/31/2 122/104/2 57/32/2
f 68/328/6 188/329/6 189/34/6
f 120/35/6 17/330/6 23/331/6
f 120/35/6 23/331/6 109/332/6
f 115/36/6 68/328/6 189/34/6
f 120/35/6 109/332/6 115/36/6
f 137/333/3 52/334/3 172/335/3
f 172/335/3 180/336/3 179/337/3
f 171/338/3 13/339/3 136/340/3
f 172/335/3 179/337/3 171/338/3
f 44/39/3 137/333/3 172/335/3
f 163/341/3 72/342/3 44/39/3
f 30/343/3 163/341/3 44/39/3
f 44/39/3 172/335/3 171/338/3
f 171/338/3 136/340/3 18/37/3
f 18/37/3 166/344/3 167/345/3
f 39/38/3 30/343/3 44/39/3
f 18/37/3 167/345/3 39/38/3
f 44/39/3 171/338/3 18/37/3
f 124/40/4 42/209/4 142/41/4
f 126/43/5 29/346/5 111/44/5
f 163/46/1 30/347/1 134/348/1
f 102/47/1 112/349/1 111/350/1
f 163/46/1 134/348/1 102/47/1
f 29/48/1 161/351/1 163/46/1
f 102/47/1 111/350/1 29/48/1
f 145/51/5 22/352/5 146/49/5
f 146/49/5 14/353/5 147/50/5
f 147/50/5 148/354/5 145/51/5
f 96/52/6 1/156/6 75/53/6
f 78/55/5 74/355/5 95/56/5
f 28/58/6 21/356/6 20/59/6
f 98/61/6 2/357/6 173/358/6
f 174/62/6 13/359/6 171/360/6
f 98/61/6 173/358/6 174/62/6
f 26/361/6 108/362/6 98/61/6
f 176/363/6 25/364/6 26/361/6
f 171/360/6 175/365/6 19/63/6
f 176/363/6 26/361/6 98/61/6
f 174/62/6 171/360/6 19/63/6
f 19/63/6 176/363/6 98/61/6
f 41/64/6 183/239/6 28/65/6
f 147/67/3 181/154/3 81/68/3
f 61/366/6 62/367/6 54/70/6
f 54/70/6 178/368/6 177/369/6
f 177/369/6 103/370/6 47/371/6
f 46/71/6 80/372/6 172/176/6
f 54/70/6 177/369/6 47/371/6
f 46/71/6 172/176/6 52/373/6
f 54/70/6 47/371/6 46/71/6
f 53/72/6 61/366/6 54/70/6
f 46/71/6 52/373/6 53/72/6
f 28/73/1 181/374/1 147/74/1
f 78/78/3 174/375/3 173/376/3
f 76/76/3 75/377/3 74/77/3
f 78/78/3 173/376/3 76/76/3
f 35/79/5 10/5/5 127/80/5
f 142/81/5 90/378/5 27/82/5
f 135/86/5 114/379/5 105/380/5
f 134/84/5 30/381/5 39/56/5
f 135/86/5 105/380/5 134/84/5
f 133/85/5 132/382/5 135/86/5
f 134/84/5 39/56/5 133/85/5
f 64/87/5 88/383/5 57/88/5
f 4/384/1 3/385/1 8/90/1
f 9/91/1 119/386/1 5/387/1
f 9/91/1 5/387/1 7/388/1
f 6/92/1 4/384/1 8/90/1
f 9/91/1 7/388/1 6/92/1
f 56/95/5 55/389/5 73/390/5
f 73/390/5 145/51/5 148/354/5
f 73/390/5 148/354/5 104/93/5
f 147/50/5 14/353/5 15/94/5
f 149/391/5 147/50/5 15/94/5
f 56/95/5 73/390/5 104/93/5
f 104/93/5 149/391/5 15/94/5
f 167/96/6 166/89/6 164/87/6
f 154/98/5 5/392/5 119/99/5
f 127/101/2 129/393/2 130/394/2
f 99/102/2 101/395/2 100/103/2
f 127/101/2 130/394/2 99/102/2
f 182/100/2 47/396/2 103/104/2
f 95/105/1 74/397/1 75/106/1
f 187/108/6 186/398/6 185/109/6
f 26/111/1 25/399/1 28/112/1
f 85/114/5 51/400/5 140/115/5
f 158/119/6 36/401/6 160/402/6
f 159/117/6 162/403/6 11/118/6
f 158/119/6 160/402/6 159/117/6
f 175/64/1 171/404/1 179/120/1
f 183/405/2 41/406/2 177/407/2
f 177/407/2 178/408/2 169/409/2
f 169/409/2 170/410/2 118/411/2
f 169/409/2 118/411/2 117/122/2
f 183/405/2 177/407/2 169/409/2
f 131/412/2 108/413/2 26/414/2
f 26/414/2 183/405/2 169/409/2
f 26/414/2 169/409/2 117/122/2
f 135/415/2 34/416/2 131/412/2
f 135/415/2 131/412/2 26/414/2
f 116/123/2 111/417/2 112/418/2
f 116/123/2 112/418/2 113/419/2
f 135/415/2 26/414/2 117/122/2
f 116/123/2 113/419/2 114/124/2
f 114/124/2 135/415/2 117/122/2
f 101/125/6 99/420/6 32/126/6
f 2/421/2 98/171/2 97/128/2
f 97/128/2 95/422/2 1/129/2
f 96/130/2 2/421/2 97/128/2
f 105/131/2 31/423/2 102/132/2
f 48/134/3 73/289/3 55/135/3
f 35/424/4 100/425/4 101/426/4
f 35/424/4 101/426/4 37/427/4
f 160/139/4 36/428/4 35/424/4
f 167/138/4 165/429/4 160/139/4
f 133/430/4 39/431/4 167/138/4
f 128/137/4 38/432/4 133/430/4
f 160/139/4 35/424/4 37/427/4
f 128/137/4 133/430/4 167/138/4
f 160/139/4 37/427/4 128/137/4
f 182/140/4 82/433/4 46/141/4
f 113/143/1 31/434/1 105/144/1
f 94/146/2 153/435/2 152/147/2
f 79/149/6 77/243/6 70/150/6
f 20/152/3 19/381/3 175/153/3
f 140/155/3 87/436/3 139/156/3
f 49/157/2 115/437/2 109/158/2
f 150/162/5 3/438/5 4/160/5
f 71/161/5 151/439/5 150/162/5
f 185/163/2 16/440/2 119/164/2
f 166/165/1 18/441/1 138/166/1
f 189/168/2 121/246/2 185/169/2
f 158/171/3 10/442/3 35/172/3
f 51/176/3 85/373/3 86/443/3
f 84/174/3 61/444/3 53/175/3
f 51/176/3 86/443/3 84/174/3
f 185/177/6 9/240/6 8/178/6
f 146/180/1 22/309/1 150/17/1
f 28/182/2 25/445/2 176/183/2
f 104/185/4 148/446/4 81/186/4
f 130/188/5 129/447/5 131/189/5
f 170/191/6 169/355/6 106/192/6
f 45/194/4 44/448/4 72/167/4
f 77/24/3 79/449/3 138/196/3
f 109/198/1 23/251/1 24/199/1
f 161/190/3 29/279/3 126/201/3
f 155/203/5 6/450/5 7/204/5
f 185/451/1 186/452/1 143/206/1
f 143/206/1 89/453/1 15/207/1
f 15/207/1 14/454/1 71/455/1
f 71/455/1 155/456/1 156/457/1
f 71/455/1 156/457/1 154/458/1
f 15/207/1 71/455/1 154/458/1
f 16/208/1 185/451/1 143/206/1
f 15/207/1 154/458/1 16/208/1
f 71/209/3 14/459/3 146/210/3
f 107/212/6 60/460/6 84/213/6
f 152/461/4 55/462/4 56/214/4
f 56/214/4 92/463/4 125/464/4
f 125/464/4 187/465/4 121/466/4
f 125/464/4 121/466/4 57/467/4
f 93/216/4 152/461/4 56/214/4
f 56/214/4 125/464/4 57/467/4
f 88/215/4 58/468/4 93/216/4
f 56/214/4 57/467/4 88/215/4
f 96/217/1 76/469/1 173/218/1
f 163/470/6 161/471/6 69/220/6
f 69/220/6 50/472/6 43/221/6
f 72/222/6 163/470/6 69/220/6
f 53/473/4 52/474/4 137/475/4
f 51/225/4 53/473/4 137/475/4
f 87/476/4 140/477/4 51/225/4
f 116/224/4 117/478/4 87/476/4
f 69/479/4 126/480/4 116/224/4
f 50/481/4 69/479/4 116/224/4
f 116/224/4 87/476/4 51/225/4
f 51/225/4 137/475/4 83/223/4
f 83/223/4 50/481/4 116/224/4
f 81/226/4 180/482/4 172/227/4
f 41/228/4 40/483/4 103/229/4
f 184/231/4 63/484/4 153/485/4
f 184/231/4 153/485/4 94/486/4
f 64/487/4 122/488/4 65/230/4
f 184/231/4 94/486/4 157/232/4
f 157/232/4 64/487/4 65/230/4
f 185/233/1 66/489/1 17/234/1
f 106/103/2 54/490/2 62/491/2
f 60/236/2 107/492/2 168/237/2
f 106/103/2 62/491/2 60/236/2
f 92/238/5 42/88/5 124/201/5
f 50/240/3 83/493/3 45/241/3
f 137/150/5 44/136/5 45/135/5
f 186/246/2 187/453/2 125/494/2
f 124/244/2 123/495/2 27/496/2
f 186/246/2 125/494/2 124/244/2
f 144/245/2 143/497/2 186/246/2
f 124/244/2 27/496/2 144/245/2
f 8/498/3 3/499/3 150/247/3
f 150/247/3 22/500/3 145/501/3
f 67/502/3 63/503/3 184/105/3
f 150/247/3 145/501/3 67/502/3
f 66/504/3 8/498/3 150/247/3
f 23/249/3 17/505/3 66/504/3
f 190/506/3 24/507/3 23/249/3
f 59/248/3 188/508/3 68/509/3
f 68/509/3 190/506/3 23/249/3
f 23/249/3 66/504/3 150/247/3
f 150/247/3 67/502/3 184/105/3
f 59/248/3 68/509/3 23/249/3
f 150/247/3 184/105/3 59/248/3
f 49/198/6 110/510/6 24/250/6
f 113/98/6 112/392/6 102/252/6
f 128/254/5 33/511/5 130/255/5
f 107/512/4 86/513/4 85/514/4
f 141/257/4 139/515/4 118/258/4
f 107/512/4 85/514/4 141/257/4
f 118/258/4 170/516/4 168/259/4
f 168/259/4 107/512/4 141/257/4
f 91/260/5 89/517/5 143/261/5
f 182/263/6 40/518/6 81/264/6
f 70/265/3 11/373/3 162/266/3
f 176/268/1 19/519/1 20/269/1
f 153/273/5 63/520/5 67/271/5
f 67/271/5 48/521/5 152/272/5
f 135/274/4 132/522/4 130/275/4
f 7/277/3 5/59/3 154/60/3
f 81/279/6 181/262/6 179/260/6
f 164/281/3 159/33/3 160/282/3
f 65/284/6 121/178/6 59/285/6
f 62/286/4 61/523/4 84/162/4
f 18/134/5 136/524/5 12/288/5
f 130/290/4 33/9/4 32/7/4
f 49/292/4 190/525/4 68/293/4
f 133/184/2 38/183/2 130/228/2
f 139/296/5 87/526/5 117/297/5
f 155/299/2 71/527/2 4/300/2
f 128/302/2 37/528/2 32/284/2
f 48/88/4 67/383/4 145/303/4
