# Blender 4.2.0
# www.blender.org
mtllib Untitled.019.mtl
o Untitled.019
v -19.952051 0.900000 4.130314
v -19.752050 0.000000 4.330314
v -19.752050 -0.000000 3.830314
v -19.752050 0.800000 4.230314
v -19.752050 0.900000 4.130314
v -19.752050 1.600000 3.730314
v -19.652052 1.500000 3.930314
v -19.652052 1.600000 4.330314
v -19.652052 1.600000 4.230314
v -19.652052 2.300000 3.830314
v -19.652052 2.400000 4.230314
v -19.652052 2.400000 3.830314
v -19.552052 1.500000 4.130314
v -19.552052 1.500000 3.830314
v -19.352051 0.000000 4.330314
v -19.352051 0.100000 4.330314
v -19.352051 0.500000 3.930314
v -19.252050 0.100000 3.930314
v -19.552052 0.100000 3.930314
v -19.552052 0.500000 3.930314
v -19.352051 1.400000 4.130314
v -19.352051 1.400000 3.930314
v -19.352051 1.400000 3.830314
v -19.352051 1.500000 4.130314
v -19.252050 0.100000 4.230314
v -19.252050 0.100000 4.130314
v -19.252050 0.800000 4.230314
v -19.252050 1.600000 4.330314
v -19.252050 1.600000 4.230314
v -19.252050 1.700000 4.230314
v -19.252050 2.300000 3.830314
v -19.252050 2.400000 4.230314
v -19.152052 0.000000 4.330314
v -19.152052 0.800000 4.230314
v -19.152052 0.900000 3.930314
v -19.152052 1.400000 3.930314
v -19.152052 2.200000 4.330314
v -19.152052 2.300000 4.330314
v -19.152052 2.300000 3.730314
v -19.052052 1.300000 3.930314
v -19.052052 1.400000 4.130314
v -19.052052 1.400000 3.930314
v -18.952051 1.300000 4.130314
v -19.752050 2.100000 4.430314
v -19.152052 2.200000 4.430314
v -19.752050 2.200000 4.330314
v -19.552052 0.000000 4.330314
v -19.552052 0.100000 4.330314
v -19.252050 1.700000 4.330314
v -19.152052 0.100000 4.330314
v -19.152052 1.700000 4.330314
v -19.752050 1.700000 4.230314
v -19.652052 1.700000 4.230314
v -19.552052 0.100000 4.230314
v -19.552052 0.500000 4.230314
v -19.552052 1.500000 4.230314
v -19.352051 1.500000 4.230314
v -19.152052 1.400000 4.230314
v -19.952051 1.300000 4.130314
v -19.852051 1.300000 4.130314
v -19.752050 0.100000 4.130314
v -19.752050 0.800000 4.130314
v -19.652052 0.100000 4.130314
v -19.652052 0.800000 4.130314
v -19.652052 1.400000 4.130314
v -19.152052 0.800000 4.130314
v -19.152052 1.400000 4.130314
v -19.052052 1.300000 4.130314
v -19.952051 0.900000 3.930314
v -19.952051 1.300000 3.930314
v -19.752050 0.900000 3.930314
v -19.752050 1.400000 3.930314
v -19.652052 0.500000 3.930314
v -19.552052 1.400000 3.930314
v -19.552052 1.600000 3.930314
v -19.352051 0.100000 3.930314
v -19.352051 1.500000 3.930314
v -19.352051 1.600000 3.930314
v -19.252050 1.400000 3.930314
v -19.552052 -0.000000 3.830314
v -19.552052 0.100000 3.830314
v -19.352051 -0.000000 3.830314
v -19.352051 0.100000 3.830314
v -19.352051 1.500000 3.830314
v -19.252050 0.100000 3.830314
v -19.152052 -0.000000 3.830314
v -19.152052 1.400000 3.830314
v -19.152052 1.600000 3.730314
v -19.352051 0.500000 4.230314
v -19.252050 0.500000 3.930314
v -19.652052 0.500000 3.830314
v -19.252050 0.500000 3.830314
v -19.652052 0.800000 4.230314
v -19.252050 0.800000 4.130314
v -19.152052 0.900000 4.130314
v -18.952051 0.900000 4.130314
v -18.952051 0.900000 3.930314
v -19.752050 1.600000 4.230314
v -19.152052 1.600000 4.230314
v -19.552052 1.600000 4.130314
v -19.352051 1.600000 4.130314
v -19.752050 1.700000 4.330314
v -19.652052 1.700000 4.330314
v -19.152052 1.700000 4.230314
v -19.152052 2.100000 4.430314
v -19.752050 2.100000 4.330314
v -19.152052 2.100000 4.330314
v -19.752050 0.100000 4.330314
v -19.652052 0.100000 4.230314
v -19.352051 0.100000 4.230314
v -19.152052 0.100000 4.130314
v -19.652052 0.100000 3.930314
v -19.652052 0.100000 3.830314
v -19.852051 1.300000 3.930314
v -18.952051 1.300000 3.930314
v -19.752050 1.400000 4.230314
v -19.552052 1.400000 4.230314
v -19.352051 1.400000 4.230314
v -19.852051 1.400000 4.130314
v -19.752050 1.400000 4.130314
v -19.552052 1.400000 4.130314
v -19.252050 1.400000 4.130314
v -19.852051 1.400000 3.930314
v -19.652052 1.400000 3.930314
v -19.752050 1.400000 3.830314
v -19.552052 1.400000 3.830314
v -19.652052 1.500000 4.130314
v -19.252050 1.500000 4.130314
v -19.552052 1.500000 3.930314
v -19.252050 1.500000 3.930314
v -19.752050 2.200000 4.430314
v -19.752050 2.300000 4.330314
v -19.652052 2.300000 4.230314
v -19.252050 2.300000 4.230314
v -19.752050 2.300000 3.730314
v -19.252050 2.400000 3.830314
vn -0.0000 1.0000 -0.0000
vn -0.0000 -0.0000 1.0000
vn 1.0000 -0.0000 -0.0000
vn -0.0000 -0.0000 -1.0000
vn -1.0000 -0.0000 -0.0000
vn -0.0000 -1.0000 -0.0000
vt 0.838710 0.354839
vt 0.806452 0.387097
vt 0.870968 0.354839
vt 0.451613 0.935484
vt 0.516129 0.903226
vt 0.516129 0.935484
vt 0.774193 0.935484
vt 0.741935 0.967742
vt 0.774193 0.967742
vt 0.967742 0.354839
vt 0.935484 0.419355
vt 0.935484 0.354839
vt 0.483871 0.967742
vt 0.516129 0.935484
vt 0.516129 0.967742
vt 0.451613 0.709677
vt 0.645161 0.483871
vt 0.451613 0.483871
vt 0.129032 0.451613
vt 0.032258 0.161290
vt 0.064516 0.451613
vt 0.741935 0.419355
vt 0.870968 0.387097
vt 0.870968 0.419355
vt 0.645161 0.709677
vt 0.612903 0.935484
vt 0.612903 0.709677
vt 0.548387 0.967742
vt 0.451613 0.967742
vt 0.483871 0.935484
vt 0.483871 0.967742
vt 0.290323 0.677419
vt 0.000000 0.645161
vt 0.451613 0.677419
vt 0.258064 0.903226
vt 0.451613 0.870968
vt 0.451613 0.903226
vt 0.645161 0.225806
vt 0.806452 0.193548
vt 0.612903 0.193548
vt 0.580645 0.870968
vt 0.612903 0.935484
vt 0.612903 0.870968
vt 0.935484 0.935484
vt 0.903226 0.806452
vt 0.903226 0.935484
vt 0.967742 0.612903
vt 0.935484 0.677419
vt 0.967742 0.677419
vt 0.129032 0.806452
vt -0.000000 0.935484
vt 0.129032 0.935484
vt 0.387097 -0.000000
vt 0.548387 0.193548
vt 0.580645 0.193548
vt 0.903226 0.645161
vt 0.838710 0.483871
vt 0.903226 0.483871
vt 0.354839 0.967742
vt 0.387097 0.935484
vt 0.387097 0.967742
vt 0.322581 0.935484
vt 0.290323 0.967742
vt 0.290323 0.935484
vt 0.290323 0.935484
vt 0.258064 0.967742
vt 0.258064 0.935484
vt 0.935484 0.064516
vt 0.967742 0.129032
vt 0.967742 0.064516
vt 0.935484 0.258065
vt 0.903226 0.290323
vt 0.903226 0.129032
vt 0.580645 0.967742
vt 0.548387 0.935484
vt 0.580645 0.935484
vt 0.870968 0.451613
vt 0.838710 0.419355
vt 0.838710 0.483871
vt 0.645161 0.967742
vt 0.612903 0.935484
vt 0.645161 0.935484
vt 0.161290 0.935484
vt 0.193548 0.967742
vt 0.193548 0.806452
vt 0.451613 0.967742
vt 0.387097 0.903226
vt 0.451613 0.903226
vt 0.612903 0.451613
vt 0.741935 0.387097
vt 0.612903 0.387097
vt 0.645161 0.451613
vt 0.419355 0.483871
vt 0.419355 0.451613
vt 0.580645 0.903226
vt 0.580645 0.935484
vt 0.064516 0.935484
vt 0.000000 0.967742
vt 0.064516 0.967742
vt 0.677419 0.774194
vt 0.677419 0.677419
vt 0.645161 0.806452
vt 0.709677 0.935484
vt 0.677419 0.967742
vt 0.709677 0.967742
vt 0.225806 0.225806
vt 0.322581 0.129032
vt 0.354839 0.225806
vt 0.225806 0.935484
vt 0.258064 0.806452
vt 0.193548 0.806452
vt 0.064516 0.935484
vt 0.096774 0.967742
vt 0.096774 0.935484
vt 0.741935 0.967742
vt 0.709677 0.967742
vt 0.677419 0.967742
vt 0.645161 0.935484
vt 0.677419 0.935484
vt 0.838710 0.838710
vt 0.645161 0.870968
vt 0.838710 0.870968
vt 0.387097 0.870968
vt 0.387097 0.806452
vt 0.903226 0.516129
vt 0.935484 0.645161
vt 0.935484 0.516129
vt 0.645161 0.806452
vt 0.838710 0.806452
vt 0.967742 0.677419
vt 0.935484 0.741935
vt 0.967742 0.741935
vt 0.193548 0.451613
vt 0.677419 0.516129
vt 0.806452 0.516129
vt 0.645161 0.645161
vt 0.903226 0.032258
vt 0.838710 0.032258
vt 0.935484 0.000000
vt 0.354839 0.935484
vt 0.322581 0.967742
vt 0.322581 0.935484
vt 0.806452 0.419355
vt 0.838710 0.451613
vt 0.838710 0.419355
vt 0.870968 0.806452
vt 0.838710 0.935484
vt 0.935484 0.290323
vt 0.903226 0.516129
vt 0.903226 0.290323
vt 0.096774 0.935484
vt 0.129032 0.967742
vt 0.129032 0.935484
vt 0.967742 0.064516
vt 0.967742 0.000000
vt 0.967742 0.419355
vt 0.935484 0.483871
vt 0.935484 0.419355
vt 0.838710 0.935484
vt 0.774194 0.870968
vt 0.838710 0.870968
vt 0.967742 0.483871
vt 0.935484 0.548387
vt 0.967742 0.548387
vt 0.451613 0.709677
vt 0.483871 0.741935
vt 0.483871 0.838710
vt 0.903226 0.935484
vt 0.870968 0.806452
vt 0.870968 0.935484
vt 0.709677 0.935484
vt 0.645161 0.903226
vt 0.580645 0.419355
vt 0.548387 0.419355
vt 0.419355 0.387097
vt 0.580645 0.903226
vt 0.451613 0.870968
vt 0.451613 0.903226
vt 0.774194 0.903226
vt 0.774194 0.870968
vt 0.870968 0.419355
vt 0.903226 0.387097
vt 0.903226 0.419355
vt 0.645161 0.483871
vt 0.838710 0.451613
vt 0.387097 0.903226
vt 0.258064 0.935484
vt 0.258064 0.903226
vt 0.741935 0.451613
vt 0.806452 0.419355
vt 0.806452 0.451613
vt 0.935484 0.806452
vt 0.903226 0.774194
vt 0.870968 0.645161
vt 0.612903 0.967742
vt 0.580645 0.935484
vt 0.612903 0.935484
vt 0.806452 0.161290
vt 0.741935 0.064516
vt 0.806452 0.000000
vt 0.774194 0.354839
vt 0.612903 0.387097
vt 0.806452 0.387097
vt 0.419355 0.838710
vt 0.387097 0.870968
vt 0.451613 0.870968
vt 0.677419 0.129032
vt 0.774194 0.193548
vt 0.645161 0.161290
vt 0.967742 0.290323
vt 0.935484 0.354839
vt 0.967742 0.548387
vt 0.935484 0.612903
vt 0.806452 0.645161
vt 0.838710 0.225806
vt 0.870968 0.161290
vt 0.838710 0.161290
vt 0.032258 0.580645
vt 0.290323 0.516129
vt 0.000000 0.483871
vt 0.774194 0.903226
vt 0.774194 0.935484
vt 0.870968 0.258065
vt 0.806452 0.258065
vt 0.806452 0.290323
vt 0.838710 0.290323
vt 0.903226 0.354839
vt 0.903226 0.290323
vt 0.870968 0.290323
vt 0.806452 0.354839
vt 0.870968 0.387097
vt 0.451613 0.903226
vt 0.741935 0.935484
vt 0.967742 0.419355
vt 0.483871 0.935484
vt 0.645161 0.709677
vt 0.064516 0.483871
vt 0.129032 0.483871
vt 0.193548 0.451613
vt 0.193548 0.000000
vt 0.129032 0.000000
vt 0.129032 0.032258
vt 0.161290 0.032258
vt -0.000000 0.000000
vt -0.000000 0.451613
vt 0.064516 0.032258
vt 0.064516 0.000000
vt 0.032258 0.032258
vt 0.161290 0.161290
vt 0.741935 0.387097
vt 0.645161 0.935484
vt 0.451613 0.935484
vt 0.290323 0.741935
vt 0.451613 0.741935
vt 0.451613 0.774194
vt 0.258065 0.774194
vt 0.258065 0.741935
vt 0.032258 0.741935
vt 0.032258 0.806452
vt 0.000000 0.806452
vt 0.451613 0.645161
vt 0.258064 0.870968
vt 0.774194 0.225806
vt 0.580645 0.935484
vt 0.935484 0.806452
vt -0.000000 0.806452
vt 0.612903 0.193548
vt 0.612903 -0.000000
vt 0.387097 0.161290
vt 0.419355 0.161290
vt 0.419355 0.193548
vt 0.548387 0.225806
vt 0.580645 0.225806
vt 0.838710 0.645161
vt 0.354839 0.935484
vt 0.290323 0.967742
vt 0.935484 0.129032
vt 0.967742 0.129032
vt 0.967742 0.258065
vt 0.935484 0.290323
vt 0.548387 0.967742
vt 0.903226 0.483871
vt 0.903226 0.451613
vt 0.870968 0.419355
vt 0.612903 0.967742
vt 0.129032 0.806452
vt 0.129032 0.935484
vt 0.161290 0.967742
vt 0.387097 0.967742
vt 0.741935 0.451613
vt 0.000000 0.935484
vt 0.806452 0.774194
vt 0.806452 0.677419
vt 0.677419 0.645161
vt 0.645161 0.645161
vt 0.677419 0.806452
vt 0.677419 0.935484
vt 0.322581 0.451613
vt 0.258065 0.451613
vt 0.258065 0.419355
vt 0.193548 0.419355
vt 0.193548 0.225806
vt 0.225806 0.000000
vt 0.258065 0.000000
vt 0.322581 0.419355
vt 0.387097 0.225806
vt 0.387097 0.419355
vt 0.322581 0.000000
vt 0.354839 0.000000
vt 0.258065 0.129032
vt 0.193548 0.967742
vt 0.225806 0.967742
vt 0.064516 0.967742
vt 0.741935 0.935484
vt 0.645161 0.967742
vt 0.645161 0.838710
vt 0.258064 0.870968
vt 0.903226 0.645161
vt 0.935484 0.677419
vt 0.193548 0.483871
vt 0.677419 0.483871
vt 0.806452 0.483871
vt 0.838710 0.516129
vt 0.838710 0.645161
vt 0.645161 0.516129
vt 0.903226 0.129032
vt 0.838710 0.129032
vt 0.806452 0.032258
vt 0.935484 0.032258
vt 0.354839 0.967742
vt 0.806452 0.451613
vt 0.870968 0.935484
vt 0.096774 0.967742
vt 0.967742 0.483871
vt 0.935484 0.483871
vt 0.483871 0.870968
vt 0.483871 0.709677
vt 0.612903 0.741935
vt 0.612903 0.838710
vt 0.903226 0.806452
vt 0.709677 0.903226
vt 0.387097 0.225806
vt 0.612903 0.225806
vt 0.612903 0.419355
vt 0.580645 0.451613
vt 0.548387 0.451613
vt 0.387097 0.387097
vt 0.419355 0.419355
vt 0.580645 0.870968
vt 0.645161 0.903226
vt 0.870968 0.387097
vt 0.645161 0.451613
vt 0.387097 0.935484
vt 0.741935 0.419355
vt 0.935484 0.645161
vt 0.903226 0.806452
vt 0.870968 0.774194
vt 0.580645 0.967742
vt 0.741935 0.129032
vt 0.645161 0.354839
vt 0.451613 0.806452
vt 0.419355 0.806452
vt 0.387097 0.838710
vt 0.677419 0.064516
vt 0.612903 0.000000
vt 0.774194 0.161290
vt 0.612903 0.161290
vt 0.645161 0.193548
vt 0.967742 0.354839
vt 0.935484 0.548387
vt 0.806452 0.806452
vt 0.838710 0.258065
vt 0.903226 0.258065
vt 0.903226 0.225806
vt 0.870968 0.225806
vt 0.903226 0.161290
vt 0.903226 0.129032
vt 0.838710 0.129032
vt 0.806452 0.161290
vt 0.806452 0.225806
vt 0.258065 0.580645
vt 0.258065 0.612903
vt 0.451613 0.612903
vt 0.451613 0.580645
vt 0.290323 0.580645
vt 0.451613 0.516129
vt 0.451613 0.483871
vt 0.032258 0.645161
s 0
usemtl Untitled.019_Material
f 122/1/1 118/2/1 67/3/1
f 108/4/2 47/5/2 48/6/2
f 81/7/1 112/8/1 19/9/1
f 130/10/3 122/11/3 79/12/3
f 24/13/2 122/14/2 128/15/2
f 135/16/4 88/17/4 6/18/4
f 23/19/4 91/20/4 126/21/4
f 11/22/2 134/23/2 32/24/2
f 111/25/2 94/26/2 26/27/2
f 130/28/4 22/14/4 77/15/4
f 30/29/2 99/30/2 104/31/2
f 35/32/3 86/33/3 36/34/3
f 132/35/2 37/36/2 38/37/2
f 10/38/1 39/39/1 135/40/1
f 114/41/5 119/42/5 123/43/5
f 20/44/4 112/45/4 73/46/4
f 114/47/1 59/48/1 60/49/1
f 136/50/1 11/51/1 32/52/1
f 6/53/5 106/54/5 46/55/5
f 47/56/6 3/57/6 80/58/6
f 52/59/2 9/60/2 53/61/2
f 84/62/3 22/63/3 23/64/3
f 24/65/3 118/66/3 21/67/3
f 129/68/5 100/69/5 75/70/5
f 68/71/2 67/72/2 95/73/2
f 93/74/6 62/75/6 64/76/6
f 109/77/1 61/78/1 108/79/1
f 51/80/6 30/81/6 104/82/6
f 114/83/4 72/84/4 71/85/4
f 5/86/6 69/87/6 71/88/6
f 1/89/5 70/90/5 69/91/5
f 94/92/3 25/93/3 26/94/3
f 100/6/2 24/95/2 101/96/2
f 84/97/1 129/98/1 77/99/1
f 110/100/5 76/101/5 15/102/5
f 85/103/1 76/104/1 18/105/1
f 93/106/2 89/107/2 27/108/2
f 40/109/4 97/110/4 35/111/4
f 121/112/5 56/113/5 13/114/5
f 129/115/4 124/103/4 7/116/4
f 103/117/6 52/118/6 53/119/6
f 37/120/1 131/121/1 45/122/1
f 43/123/3 97/110/3 115/124/3
f 10/125/5 11/126/5 12/127/5
f 105/120/6 106/128/6 107/129/6
f 115/130/1 68/131/1 43/132/1
f 63/133/5 93/93/5 64/94/5
f 103/134/2 49/135/2 106/136/2
f 17/137/6 20/138/6 92/139/6
f 30/140/3 28/141/3 29/142/3
f 9/143/5 103/144/5 53/145/5
f 136/146/3 134/147/3 31/129/3
f 63/148/2 62/149/2 61/150/2
f 126/151/5 129/152/5 14/153/5
f 124/139/5 127/154/5 7/155/5
f 42/156/3 68/157/3 40/158/3
f 96/159/6 35/160/6 97/161/6
f 130/162/1 24/163/1 128/164/1
f 80/165/3 19/166/3 54/167/3
f 90/168/4 76/169/4 17/170/4
f 78/171/4 129/172/4 75/118/4
f 37/173/3 107/174/3 104/175/3
f 136/176/4 10/177/4 12/178/4
f 85/121/5 90/179/5 92/180/5
f 127/181/2 121/182/2 13/183/2
f 131/184/2 105/185/2 45/79/2
f 91/186/3 112/187/3 113/188/3
f 16/189/2 33/190/2 50/191/2
f 120/192/2 60/193/2 1/194/2
f 34/195/6 94/196/6 66/197/6
f 99/198/6 78/199/6 88/200/6
f 134/201/1 132/202/1 38/203/1
f 25/204/1 16/205/1 50/206/1
f 100/207/6 28/208/6 9/209/6
f 78/210/3 24/211/3 77/148/3
f 129/212/1 127/213/1 13/47/1
f 33/169/6 82/214/6 86/194/6
f 120/215/1 124/216/1 72/217/1
f 61/218/5 71/219/5 3/220/5
f 24/221/1 56/171/1 57/222/1
f 87/223/1 23/224/1 22/225/1
f 87/223/1 22/225/1 79/226/1
f 41/227/1 42/228/1 36/229/1
f 36/229/1 87/223/1 79/226/1
f 122/1/1 21/230/1 118/2/1
f 36/229/1 79/226/1 122/1/1
f 67/3/1 41/227/1 36/229/1
f 118/2/1 58/231/1 67/3/1
f 67/3/1 36/229/1 122/1/1
f 108/4/2 2/232/2 47/5/2
f 81/7/1 113/233/1 112/8/1
f 130/10/3 128/234/3 122/11/3
f 24/13/2 21/235/2 122/14/2
f 135/16/4 39/236/4 88/17/4
f 14/237/4 84/238/4 23/19/4
f 23/19/4 87/239/4 86/240/4
f 86/240/4 82/241/4 83/242/4
f 86/240/4 83/242/4 85/243/4
f 126/21/4 14/237/4 23/19/4
f 3/244/4 125/245/4 126/21/4
f 81/246/4 80/247/4 3/244/4
f 113/248/4 81/246/4 3/244/4
f 86/240/4 85/243/4 92/249/4
f 91/20/4 113/248/4 3/244/4
f 23/19/4 86/240/4 92/249/4
f 91/20/4 3/244/4 126/21/4
f 23/19/4 92/249/4 91/20/4
f 11/22/2 133/250/2 134/23/2
f 111/25/2 66/251/2 94/26/2
f 130/28/4 79/75/4 22/14/4
f 30/29/2 29/252/2 99/30/2
f 95/253/3 67/254/3 58/255/3
f 58/255/3 34/256/3 66/257/3
f 111/258/3 50/259/3 33/260/3
f 95/253/3 58/255/3 66/257/3
f 111/258/3 33/260/3 86/33/3
f 35/32/3 95/253/3 66/257/3
f 66/257/3 111/258/3 86/33/3
f 86/33/3 87/261/3 36/34/3
f 35/32/3 66/257/3 86/33/3
f 132/35/2 46/262/2 37/36/2
f 31/263/1 38/203/1 39/39/1
f 135/40/1 132/202/1 10/38/1
f 10/38/1 31/263/1 39/39/1
f 114/41/5 60/264/5 119/42/5
f 20/44/4 19/265/4 112/45/4
f 114/47/1 70/213/1 59/48/1
f 136/50/1 12/266/1 11/51/1
f 132/267/5 135/268/5 6/53/5
f 6/53/5 98/269/5 52/270/5
f 52/270/5 102/271/5 106/54/5
f 106/54/5 44/272/5 131/273/5
f 46/55/5 132/267/5 6/53/5
f 106/54/5 131/273/5 46/55/5
f 6/53/5 52/270/5 106/54/5
f 47/56/6 2/274/6 3/57/6
f 52/59/2 98/275/2 9/60/2
f 84/62/3 77/141/3 22/63/3
f 24/65/3 57/276/3 118/66/3
f 129/68/5 13/277/5 100/69/5
f 95/73/2 96/278/2 43/279/2
f 68/71/2 41/280/2 67/72/2
f 95/73/2 43/279/2 68/71/2
f 93/74/6 4/281/6 62/75/6
f 108/79/1 48/282/1 54/283/1
f 109/77/1 63/284/1 61/78/1
f 108/79/1 54/283/1 109/77/1
f 51/80/6 49/285/6 30/81/6
f 71/85/4 69/286/4 70/287/4
f 114/83/4 123/288/4 72/84/4
f 71/85/4 70/287/4 114/83/4
f 5/86/6 1/289/6 69/87/6
f 1/89/5 59/290/5 70/90/5
f 94/92/3 27/184/3 25/93/3
f 100/6/2 13/5/2 24/95/2
f 84/97/1 14/291/1 129/98/1
f 110/100/5 89/292/5 17/293/5
f 76/101/5 83/294/5 82/295/5
f 110/100/5 17/293/5 76/101/5
f 15/102/5 16/296/5 110/100/5
f 76/101/5 82/295/5 15/102/5
f 85/103/1 83/297/1 76/104/1
f 57/298/2 56/299/2 117/300/2
f 117/300/2 116/301/2 4/302/2
f 93/106/2 109/303/2 54/304/2
f 117/300/2 4/302/2 93/106/2
f 118/305/2 57/298/2 117/300/2
f 34/306/2 58/307/2 118/305/2
f 110/308/2 25/309/2 27/108/2
f 27/108/2 34/306/2 118/305/2
f 118/305/2 117/300/2 93/106/2
f 93/106/2 54/304/2 55/310/2
f 89/107/2 110/308/2 27/108/2
f 93/106/2 55/310/2 89/107/2
f 27/108/2 118/305/2 93/106/2
f 35/111/4 36/311/4 42/312/4
f 40/109/4 115/67/4 97/110/4
f 35/111/4 42/312/4 40/109/4
f 121/112/5 117/313/5 56/113/5
f 129/115/4 74/314/4 124/103/4
f 103/117/6 102/315/6 52/118/6
f 37/120/1 46/316/1 131/121/1
f 43/123/3 96/317/3 97/110/3
f 10/125/5 133/318/5 11/126/5
f 105/120/6 44/316/6 106/128/6
f 115/130/1 40/319/1 68/131/1
f 63/133/5 109/320/5 93/93/5
f 103/134/2 8/321/2 28/322/2
f 49/135/2 51/323/2 107/324/2
f 103/134/2 28/322/2 49/135/2
f 106/136/2 102/325/2 103/134/2
f 49/135/2 107/324/2 106/136/2
f 17/137/6 89/326/6 55/327/6
f 20/138/6 73/328/6 91/200/6
f 17/137/6 55/327/6 20/138/6
f 92/139/6 90/329/6 17/137/6
f 20/138/6 91/200/6 92/139/6
f 30/140/3 49/330/3 28/141/3
f 9/143/5 8/331/5 103/144/5
f 136/146/3 32/332/3 134/147/3
f 63/148/2 64/127/2 62/149/2
f 126/151/5 74/333/5 129/152/5
f 124/139/5 65/68/5 127/154/5
f 42/156/3 41/334/3 68/157/3
f 96/159/6 95/222/6 35/160/6
f 130/162/1 77/335/1 24/163/1
f 48/336/3 47/177/3 80/165/3
f 80/165/3 81/337/3 19/166/3
f 19/166/3 20/338/3 55/339/3
f 54/167/3 48/336/3 80/165/3
f 19/166/3 55/339/3 54/167/3
f 90/168/4 18/340/4 76/169/4
f 78/171/4 77/341/4 129/172/4
f 88/342/3 39/343/3 38/344/3
f 37/173/3 45/345/3 105/346/3
f 88/342/3 38/344/3 37/173/3
f 104/175/3 99/347/3 88/342/3
f 107/174/3 51/348/3 104/175/3
f 37/173/3 105/346/3 107/174/3
f 104/175/3 88/342/3 37/173/3
f 136/176/4 31/349/4 10/177/4
f 85/121/5 18/350/5 90/179/5
f 127/181/2 65/351/2 121/182/2
f 131/184/2 44/352/2 105/185/2
f 91/186/3 73/353/3 112/187/3
f 16/189/2 15/354/2 33/190/2
f 1/194/2 5/355/2 120/192/2
f 120/192/2 119/356/2 60/193/2
f 60/193/2 59/357/2 1/194/2
f 34/195/6 27/358/6 94/196/6
f 99/198/6 101/359/6 78/199/6
f 133/360/1 10/38/1 132/202/1
f 38/203/1 31/263/1 134/201/1
f 134/201/1 133/360/1 132/202/1
f 50/206/1 111/361/1 26/362/1
f 25/204/1 110/363/1 16/205/1
f 50/206/1 26/362/1 25/204/1
f 88/200/6 78/199/6 75/364/6
f 100/207/6 101/359/6 99/198/6
f 6/365/6 88/200/6 75/364/6
f 100/207/6 99/198/6 29/366/6
f 6/365/6 75/364/6 100/207/6
f 9/209/6 98/367/6 6/365/6
f 28/208/6 8/368/6 9/209/6
f 100/207/6 29/366/6 28/208/6
f 9/209/6 6/365/6 100/207/6
f 78/210/3 101/369/3 24/211/3
f 129/212/1 7/370/1 127/213/1
f 33/169/6 15/371/6 82/214/6
f 120/215/1 116/372/1 117/373/1
f 117/373/1 121/374/1 65/375/1
f 124/216/1 74/376/1 126/377/1
f 120/215/1 117/373/1 65/375/1
f 124/216/1 126/377/1 125/378/1
f 120/215/1 65/375/1 124/216/1
f 123/379/1 119/380/1 120/215/1
f 124/216/1 125/378/1 72/217/1
f 72/217/1 123/379/1 120/215/1
f 62/381/5 4/382/5 116/383/5
f 116/383/5 120/384/5 5/385/5
f 71/219/5 72/386/5 125/387/5
f 62/381/5 116/383/5 5/385/5
f 71/219/5 125/387/5 3/220/5
f 62/381/5 5/385/5 71/219/5
f 2/33/5 108/388/5 61/218/5
f 61/218/5 62/381/5 71/219/5
f 3/220/5 2/33/5 61/218/5
f 24/221/1 13/341/1 56/171/1
