# Blender 4.2.0
# www.blender.org
mtllib Untitled.015.mtl
o Untitled.015
v -25.532402 0.900000 4.130314
v -25.432402 1.400000 4.130314
v -25.432402 1.400000 3.930314
v -25.432402 2.200000 3.630314
v -25.332401 0.800000 4.230314
v -25.332401 0.800000 4.130314
v -25.332401 0.900000 4.130314
v -25.332401 1.400000 4.230314
v -25.332401 1.400000 4.130314
v -25.332401 1.400000 3.830314
v -25.332401 1.600000 4.330314
v -25.332401 1.600000 3.630314
v -25.332401 1.700000 4.330314
v -25.332401 1.700000 3.630314
v -25.332401 2.200000 3.730314
v -25.332401 2.300000 3.730314
v -25.232403 0.100000 4.130314
v -25.132402 1.300000 3.730314
v -25.132402 1.600000 4.130314
v -25.132402 1.600000 3.630314
v -24.932402 0.000000 4.330314
v -24.932402 -0.000000 3.830314
v -24.932402 0.500000 4.230314
v -24.832401 0.100000 3.930314
v -25.232403 0.500000 3.830314
v -25.132402 0.100000 3.930314
v -24.932402 1.400000 4.130314
v -24.932402 1.600000 3.630314
v -24.832401 0.800000 4.130314
v -24.732403 -0.000000 3.830314
v -24.732403 0.100000 4.330314
v -24.732403 0.800000 4.230314
v -24.732403 0.800000 4.130314
v -24.732403 0.900000 4.130314
v -24.732403 1.400000 4.130314
v -24.732403 1.400000 3.930314
v -24.732403 1.400000 3.830314
v -24.732403 1.600000 3.630314
v -24.732403 1.700000 4.330314
v -24.732403 1.700000 3.630314
v -24.732403 2.300000 4.330314
v -24.732403 2.300000 3.730314
v -24.632402 1.400000 4.130314
v -24.632402 1.400000 3.930314
v -24.632402 2.200000 3.630314
v -24.532402 0.900000 3.930314
v -24.532402 1.300000 3.930314
v -24.532402 1.900000 4.330314
v -24.532402 1.900000 3.630314
v -25.432402 2.200000 4.330314
v -25.332401 0.000000 4.330314
v -25.332401 2.200000 4.330314
v -25.332401 2.300000 4.330314
v -24.732403 0.000000 4.330314
v -24.732403 1.600000 4.330314
v -24.632402 2.200000 4.330314
v -24.532402 1.700000 4.330314
v -25.132402 0.100000 4.230314
v -24.932402 0.100000 4.230314
v -24.732403 1.400000 4.230314
v -25.532402 1.300000 4.130314
v -25.132402 1.400000 4.130314
v -24.932402 1.600000 4.130314
v -24.532402 0.900000 4.130314
v -24.932402 1.300000 3.730314
v -25.332401 1.400000 3.930314
v -25.232403 0.100000 3.930314
v -25.132402 0.500000 3.930314
v -25.132402 1.400000 3.930314
v -25.132402 1.600000 3.930314
v -24.932402 1.400000 3.930314
v -24.732403 0.900000 3.930314
v -24.632402 1.300000 3.930314
v -24.832401 0.500000 3.830314
v -24.732403 2.200000 3.730314
v -25.432402 1.900000 3.630314
v -25.132402 1.300000 3.630314
v -25.132402 0.000000 4.330314
v -25.332401 -0.000000 3.830314
v -25.132402 -0.000000 3.830314
v -25.132402 0.500000 4.230314
v -25.232403 0.500000 3.930314
v -24.932402 0.500000 3.930314
v -24.832401 0.500000 3.930314
v -25.232403 0.800000 4.230314
v -24.832401 0.800000 4.230314
v -25.232403 0.800000 4.130314
v -25.532402 0.900000 3.930314
v -25.332401 0.900000 3.930314
v -24.932402 1.300000 3.630314
v -24.932402 1.600000 3.930314
v -25.132402 1.600000 3.730314
v -24.932402 1.600000 3.730314
v -25.532402 1.700000 4.330314
v -25.532402 1.700000 3.630314
v -24.532402 1.700000 3.630314
v -25.332401 0.100000 4.330314
v -25.132402 0.100000 4.330314
v -24.932402 0.100000 4.330314
v -25.232403 0.100000 4.230314
v -24.832401 0.100000 4.230314
v -25.332401 0.100000 4.130314
v -24.832401 0.100000 4.130314
v -24.732403 0.100000 4.130314
v -24.932402 0.100000 3.930314
v -25.232403 0.100000 3.830314
v -25.132402 0.100000 3.830314
v -24.932402 0.100000 3.830314
v -24.832401 0.100000 3.830314
v -25.432402 1.300000 4.130314
v -24.632402 1.300000 4.130314
v -24.532402 1.300000 4.130314
v -25.532402 1.300000 3.930314
v -25.432402 1.300000 3.930314
v -25.532402 1.900000 4.330314
v -25.432402 1.900000 4.330314
v -24.632402 1.900000 4.330314
v -25.532402 1.900000 3.630314
v -24.632402 1.900000 3.630314
v -24.732403 2.200000 4.330314
vn 1.0000 -0.0000 -0.0000
vn -0.0000 -0.0000 1.0000
vn -0.0000 1.0000 -0.0000
vn -1.0000 -0.0000 -0.0000
vn -0.0000 -1.0000 -0.0000
vn -0.0000 -0.0000 -1.0000
vt 0.060606 0.878788
vt 0.000000 0.939394
vt 0.000000 0.878788
vt 0.121212 0.393939
vt 0.151515 0.484849
vt 0.000000 0.666667
vt 0.696970 0.909091
vt 0.666667 0.969697
vt 0.696970 0.969697
vt 0.909091 0.000000
vt 0.848485 0.212121
vt 0.848485 0.000000
vt 0.484848 0.909091
vt 0.696970 0.878788
vt 0.696970 0.909091
vt 0.090909 0.939394
vt 0.090909 0.878788
vt 0.787879 0.212121
vt 0.969697 0.151515
vt 0.909091 0.000000
vt 0.969697 0.000000
vt 0.303030 0.939394
vt 0.272727 0.909091
vt 0.303030 0.909091
vt 0.181818 0.272727
vt 0.272727 0.484849
vt 0.272727 0.272727
vt 0.575758 0.454545
vt 0.303030 0.424242
vt 0.333333 0.515152
vt 0.181818 0.818182
vt 0.303030 0.878788
vt 0.303030 0.818182
vt 0.909091 0.545455
vt 0.939394 0.757576
vt 0.909091 0.757576
vt 0.575758 0.666667
vt 0.545455 0.666667
vt 0.303030 0.575758
vt 0.727273 0.757576
vt 0.787879 0.545455
vt 0.787879 0.757576
vt 0.545455 0.969697
vt 0.484848 0.909091
vt 0.545455 0.909091
vt 0.848485 0.757576
vt 0.848485 0.545455
vt 0.212121 0.969697
vt 0.212121 0.939394
vt 0.757576 0.969697
vt 0.696970 0.939394
vt 0.757576 0.939394
vt 0.969697 0.393939
vt 0.939394 0.575758
vt 0.939394 0.393939
vt 0.909091 0.969697
vt 0.878788 0.909091
vt 0.878788 0.939394
vt 0.272727 0.727273
vt 0.212121 0.727273
vt 0.181818 0.696970
vt 0.727273 0.727273
vt 0.727273 0.939394
vt 0.545455 0.848485
vt 0.515152 0.878788
vt 0.545455 0.878788
vt 0.909091 0.212121
vt 0.727273 0.393939
vt 0.909091 0.393939
vt 0.969697 0.151515
vt 0.939394 0.363636
vt 0.969697 0.363636
vt 0.333333 0.818182
vt 0.393939 0.818182
vt 0.393939 0.757576
vt 0.575758 0.848485
vt 0.575758 0.757576
vt 0.272727 0.696970
vt 0.303030 0.484849
vt 0.303030 0.696970
vt 0.272727 0.181818
vt 0.242424 0.121212
vt 0.121212 0.090909
vt 0.878788 0.818182
vt 0.848485 0.696970
vt 0.909091 0.696970
vt 0.181818 0.878788
vt 0.000000 0.878788
vt 0.121212 0.818182
vt 0.727273 0.909091
vt 0.757576 0.878788
vt 0.787879 0.757576
vt 0.909091 0.757576
vt 0.939394 0.939394
vt 0.272727 0.939394
vt 0.090909 0.909091
vt 0.090909 0.939394
vt 0.333333 0.151515
vt 0.303030 0.424242
vt 0.484848 0.424242
vt 0.969697 0.878788
vt 0.969697 0.939394
vt 0.424242 0.848485
vt 0.303030 0.909091
vt 0.303030 0.848485
vt 0.515152 0.848485
vt 0.484848 0.878788
vt 0.515152 0.878788
vt 0.424242 0.969697
vt 0.484849 0.939394
vt 0.484849 0.969697
vt 0.909091 0.393939
vt 0.969697 0.393939
vt 0.969697 0.818182
vt 0.939394 0.696970
vt 0.939394 0.818182
vt 0.696970 0.242424
vt 0.727273 0.212121
vt 0.484848 0.212121
vt 0.090909 0.909091
vt 0.303030 0.878788
vt 0.090909 0.878788
vt 0.454545 0.818182
vt 0.515152 0.818182
vt 0.515152 0.757576
vt 0.545455 0.969697
vt 0.606061 0.939394
vt 0.575758 0.939394
vt 0.060606 0.696970
vt 0.060606 0.757576
vt 0.000000 0.666667
vt 0.272727 0.272727
vt 0.303030 0.272727
vt 0.515152 0.090909
vt 0.545455 0.030303
vt 0.757576 0.090909
vt 0.606061 0.909091
vt 0.666667 0.909091
vt 0.848485 0.545455
vt 0.909091 0.666667
vt 0.878788 0.666667
vt 0.848485 0.909091
vt 0.848485 0.757576
vt 0.909091 0.151515
vt 0.939394 0.363636
vt 0.909091 0.363636
vt 0.787879 0.969697
vt 0.787879 0.939394
vt 0.757576 0.424242
vt 0.727273 0.393939
vt 0.757576 0.515152
vt 0.848485 0.848485
vt 0.909091 0.909091
vt 0.909091 0.848485
vt 0.090909 0.969697
vt 0.090909 0.939394
vt 0.181818 0.696970
vt 0.181818 0.484849
vt 0.939394 0.878788
vt 0.939394 0.818182
vt 0.969697 0.696970
vt 0.939394 0.696970
vt 0.909091 0.515152
vt 0.939394 0.545455
vt 0.303030 0.969697
vt 0.363636 0.909091
vt 0.363636 0.969697
vt 0.090909 0.969697
vt 0.424242 0.939394
vt 0.484848 0.848485
vt 0.484848 0.939394
vt 0.424242 0.969697
vt 0.727273 0.909091
vt 0.848485 0.939394
vt 0.848485 0.909091
vt 0.060606 0.939394
vt 0.030303 0.484849
vt 0.030303 0.272727
vt 0.060606 0.272727
vt 0.060606 0.393939
vt 0.000000 0.484849
vt 0.181818 0.484849
vt 0.181818 0.666667
vt 0.121212 0.272727
vt 0.151515 0.272727
vt 0.909091 0.212121
vt 0.484848 0.878788
vt 0.787879 0.000000
vt 0.272727 0.939394
vt 0.545455 0.515152
vt 0.545455 0.545455
vt 0.727273 0.545455
vt 0.727273 0.515152
vt 0.575758 0.515152
vt 0.727273 0.454545
vt 0.727273 0.424242
vt 0.303030 0.575758
vt 0.333333 0.575758
vt 0.181818 0.878788
vt 0.727273 0.575758
vt 0.727273 0.606061
vt 0.575758 0.606061
vt 0.333333 0.727273
vt 0.303030 0.727273
vt 0.333333 0.666667
vt 0.727273 0.666667
vt 0.727273 0.696970
vt 0.545455 0.696970
vt 0.484848 0.969697
vt 0.303030 0.969697
vt 0.696970 0.969697
vt 0.969697 0.575758
vt 0.848485 0.969697
vt 0.909091 0.909091
vt 0.303030 0.696970
vt 0.303030 0.727273
vt 0.272727 0.818182
vt 0.212121 0.818182
vt 0.181818 0.727273
vt 0.696970 0.727273
vt 0.515152 0.848485
vt 0.727273 0.212121
vt 0.939394 0.151515
vt 0.333333 0.848485
vt 0.575758 0.878788
vt 0.545455 0.727273
vt 0.575758 0.727273
vt 0.696970 0.757576
vt 0.696970 0.848485
vt 0.272727 0.484849
vt 0.060606 0.121212
vt -0.000000 0.121212
vt -0.000000 0.181818
vt 0.030303 0.181818
vt 0.030303 0.272727
vt 0.272727 0.272727
vt 0.060606 0.090909
vt 0.181818 0.000000
vt 0.121212 0.000000
vt 0.242424 0.090909
vt 0.181818 0.090909
vt 0.303030 0.181818
vt 0.303030 0.121212
vt 0.909091 0.848485
vt 0.878788 0.848485
vt 0.848485 0.818182
vt 0.060606 0.818182
vt 0.121212 0.757576
vt 0.727273 0.757576
vt 0.757576 0.909091
vt 0.787879 0.878788
vt 0.909091 0.939394
vt 0.333333 0.030303
vt 0.363636 0.030303
vt 0.363636 0.000000
vt 0.484848 0.000000
vt 0.424242 0.000000
vt 0.424242 0.030303
vt 0.454545 0.030303
vt 0.303030 0.000000
vt 0.454545 0.151515
vt 0.424242 0.909091
vt 0.484848 0.848485
vt 0.424242 0.939394
vt 0.909091 0.363636
vt 0.969697 0.696970
vt 0.515152 0.424242
vt 0.515152 0.242424
vt 0.696970 0.424242
vt 0.727273 0.424242
vt 0.303030 0.909091
vt 0.515152 0.727273
vt 0.333333 0.727273
vt 0.333333 0.757576
vt 0.303030 0.757576
vt 0.303030 0.818182
vt 0.545455 0.818182
vt 0.545455 0.757576
vt 0.515152 0.848485
vt 0.454545 0.757576
vt 0.575758 0.909091
vt 0.545455 0.909091
vt 0.606061 0.969697
vt 0.121212 0.696970
vt 0.121212 0.666667
vt 0.181818 0.666667
vt 0.060606 0.666667
vt 0.727273 0.181818
vt 0.727273 0.212121
vt 0.545455 0.212121
vt 0.545455 0.181818
vt 0.515152 0.181818
vt 0.757576 0.181818
vt 0.787879 0.030303
vt 0.787879 0.090909
vt 0.545455 0.000000
vt 0.727273 0.000000
vt 0.727273 0.030303
vt 0.484848 0.090909
vt 0.484848 0.030303
vt 0.606061 0.969697
vt 0.878788 0.696970
vt 0.787879 0.909091
vt 0.939394 0.151515
vt 0.878788 0.515152
vt 0.878788 0.424242
vt 0.757576 0.393939
vt 0.727273 0.545455
vt 0.757576 0.545455
vt 0.848485 0.909091
vt 0.272727 0.696970
vt 0.878788 0.393939
vt 0.878788 0.515152
vt 0.303030 0.909091
vt 0.000000 0.969697
vt 0.424242 0.848485
vt 0.727273 0.939394
s 0
usemtl Untitled.015_Material
f 91/1/1 27/2/1 71/3/1
f 23/4/2 86/5/2 8/6/2
f 114/7/3 61/8/3 110/9/3
f 49/10/1 57/11/1 96/12/1
f 101/13/1 29/14/1 86/15/1
f 114/1/4 2/16/4 3/17/4
f 94/18/5 14/12/5 13/11/5
f 54/19/5 22/20/5 30/21/5
f 32/22/5 29/23/5 33/24/5
f 76/25/4 50/26/4 4/27/4
f 89/28/4 79/29/4 102/30/4
f 88/31/4 61/32/4 113/33/4
f 102/34/2 87/35/2 6/36/2
f 34/37/1 33/38/1 30/39/1
f 39/40/5 96/41/5 57/42/5
f 64/43/5 72/44/5 46/45/5
f 95/41/4 115/46/4 118/47/4
f 28/22/1 65/48/1 90/49/1
f 65/50/5 77/51/5 90/52/5
f 42/53/1 120/54/1 75/55/1
f 31/56/3 103/57/3 101/58/3
f 83/59/5 68/60/5 25/61/5
f 49/62/3 117/51/3 48/63/3
f 109/64/3 105/65/3 24/66/3
f 42/67/3 53/68/3 41/69/3
f 76/70/3 115/71/3 116/72/3
f 9/73/3 62/74/3 69/75/3
f 58/76/1 78/66/1 26/77/1
f 55/78/1 40/79/1 39/80/1
f 119/81/6 40/82/6 20/83/6
f 110/84/2 1/85/2 7/86/2
f 55/87/5 11/88/5 63/89/5
f 36/90/6 73/91/6 46/92/6
f 15/93/4 53/94/4 16/35/4
f 42/95/6 15/96/6 16/97/6
f 25/98/6 10/99/6 37/100/6
f 47/101/3 111/94/3 112/102/3
f 47/103/1 64/104/1 46/105/1
f 107/106/3 67/107/3 26/108/3
f 99/109/2 54/110/2 31/111/2
f 97/112/2 78/72/2 98/113/2
f 84/114/6 105/115/6 83/116/6
f 75/117/3 45/118/3 4/119/3
f 100/120/4 87/121/4 17/122/4
f 27/123/3 35/124/3 36/125/3
f 97/126/3 58/127/3 100/128/3
f 92/129/5 70/130/5 12/131/5
f 12/132/4 13/79/4 14/133/4
f 116/134/2 13/135/2 117/136/2
f 7/8/5 88/137/5 89/138/5
f 34/139/2 112/140/2 111/141/2
f 78/142/5 79/92/5 80/143/5
f 103/144/2 33/145/2 29/146/2
f 85/147/5 6/52/5 87/148/5
f 105/149/4 22/150/4 59/151/4
f 69/152/4 19/153/4 70/154/4
f 25/49/1 67/155/1 106/156/1
f 45/26/1 117/157/1 119/158/1
f 44/114/1 111/159/1 73/160/1
f 68/161/6 67/54/6 82/162/6
f 114/163/6 66/164/6 89/55/6
f 19/165/2 27/166/2 63/167/2
f 77/2/4 92/168/4 20/16/4
f 92/169/2 65/170/2 93/171/2
f 91/172/6 69/166/6 70/167/6
f 109/173/4 84/174/4 74/175/4
f 91/1/1 63/176/1 27/2/1
f 85/177/2 100/178/2 58/179/2
f 85/177/2 58/179/2 81/180/2
f 8/6/2 5/181/2 85/177/2
f 32/182/2 60/183/2 8/6/2
f 59/184/2 101/185/2 86/5/2
f 86/5/2 32/182/2 8/6/2
f 8/6/2 85/177/2 81/180/2
f 23/4/2 59/184/2 86/5/2
f 8/6/2 81/180/2 23/4/2
f 114/7/3 113/138/3 61/8/3
f 49/10/1 48/186/1 57/11/1
f 101/13/1 103/187/1 29/14/1
f 114/1/4 110/176/4 2/16/4
f 94/18/5 95/188/5 14/12/5
f 54/19/5 21/144/5 22/20/5
f 32/22/5 86/189/5 29/23/5
f 76/25/4 116/158/4 50/26/4
f 6/190/4 5/191/4 8/192/4
f 8/192/4 9/193/4 7/194/4
f 89/28/4 66/195/4 10/196/4
f 6/190/4 8/192/4 7/194/4
f 89/28/4 10/196/4 79/29/4
f 6/190/4 7/194/4 89/28/4
f 51/197/4 97/198/4 102/30/4
f 102/30/4 6/190/4 89/28/4
f 79/29/4 51/197/4 102/30/4
f 88/31/4 1/199/4 61/32/4
f 102/34/2 17/164/2 87/35/2
f 30/39/1 37/200/1 36/201/1
f 30/39/1 36/201/1 72/202/1
f 31/203/1 54/204/1 30/39/1
f 104/205/1 31/203/1 30/39/1
f 30/39/1 72/202/1 34/37/1
f 34/37/1 35/206/1 60/207/1
f 60/207/1 32/208/1 33/38/1
f 33/38/1 104/205/1 30/39/1
f 34/37/1 60/207/1 33/38/1
f 39/40/5 40/192/5 96/41/5
f 64/43/5 34/209/5 72/44/5
f 95/41/4 94/42/4 115/46/4
f 28/22/1 93/210/1 65/48/1
f 65/50/5 18/211/5 77/51/5
f 42/53/1 41/212/1 120/54/1
f 59/174/3 99/213/3 31/56/3
f 31/56/3 104/214/3 103/57/3
f 101/58/3 59/174/3 31/56/3
f 25/61/5 74/215/5 84/216/5
f 83/59/5 23/217/5 81/218/5
f 25/61/5 84/216/5 83/59/5
f 68/60/5 82/219/5 25/61/5
f 83/59/5 81/218/5 68/60/5
f 49/62/3 119/220/3 117/51/3
f 109/64/3 108/221/3 105/65/3
f 42/67/3 16/222/3 53/68/3
f 76/70/3 118/223/3 115/71/3
f 9/73/3 8/224/3 62/74/3
f 58/76/1 98/225/1 78/66/1
f 78/66/1 80/226/1 107/227/1
f 26/77/1 68/228/1 81/229/1
f 78/66/1 107/227/1 26/77/1
f 26/77/1 81/229/1 58/76/1
f 55/78/1 38/230/1 40/79/1
f 14/231/6 95/232/6 118/233/6
f 76/234/6 4/235/6 45/236/6
f 14/231/6 118/233/6 76/234/6
f 20/83/6 12/237/6 14/231/6
f 90/238/6 77/239/6 20/83/6
f 40/82/6 38/240/6 28/241/6
f 28/241/6 90/238/6 20/83/6
f 20/83/6 14/231/6 76/234/6
f 76/234/6 45/236/6 119/81/6
f 119/81/6 49/242/6 96/243/6
f 40/82/6 28/241/6 20/83/6
f 119/81/6 96/243/6 40/82/6
f 20/83/6 76/234/6 119/81/6
f 7/86/2 9/244/2 2/245/2
f 110/84/2 61/246/2 1/85/2
f 7/86/2 2/245/2 110/84/2
f 11/88/5 70/130/5 19/247/5
f 63/89/5 91/248/5 55/87/5
f 11/88/5 19/247/5 63/89/5
f 46/92/6 72/249/6 36/90/6
f 36/90/6 44/250/6 73/91/6
f 73/91/6 47/251/6 46/92/6
f 15/93/4 52/252/4 53/94/4
f 42/95/6 75/23/6 15/96/6
f 106/253/6 107/254/6 80/255/6
f 30/256/6 22/257/6 108/258/6
f 30/256/6 108/258/6 109/259/6
f 106/253/6 80/255/6 79/260/6
f 25/98/6 106/253/6 79/260/6
f 37/100/6 30/256/6 109/259/6
f 37/100/6 109/259/6 74/261/6
f 25/98/6 79/260/6 10/99/6
f 37/100/6 74/261/6 25/98/6
f 47/101/3 73/159/3 111/94/3
f 47/103/1 112/262/1 64/104/1
f 107/106/3 106/263/3 67/107/3
f 99/109/2 21/264/2 54/110/2
f 97/112/2 51/265/2 78/72/2
f 84/114/6 24/266/6 105/115/6
f 4/119/3 50/100/3 52/267/3
f 4/119/3 52/267/3 15/268/3
f 120/269/3 56/270/3 45/118/3
f 4/119/3 15/268/3 75/117/3
f 75/117/3 120/269/3 45/118/3
f 100/120/4 85/271/4 87/121/4
f 37/272/3 10/273/3 66/274/3
f 66/274/3 3/275/3 2/276/3
f 2/276/3 9/73/3 69/75/3
f 66/274/3 2/276/3 69/75/3
f 43/277/3 44/278/3 36/125/3
f 8/224/3 60/279/3 35/124/3
f 35/124/3 43/277/3 36/125/3
f 37/272/3 66/274/3 69/75/3
f 37/272/3 69/75/3 71/280/3
f 36/125/3 37/272/3 71/280/3
f 27/123/3 62/74/3 8/224/3
f 36/125/3 71/280/3 27/123/3
f 27/123/3 8/224/3 35/124/3
f 17/281/3 102/282/3 97/126/3
f 97/126/3 98/283/3 58/127/3
f 100/128/3 17/281/3 97/126/3
f 93/284/5 28/285/5 38/286/5
f 38/286/5 55/87/5 91/248/5
f 70/130/5 11/88/5 12/131/5
f 38/286/5 91/248/5 70/130/5
f 93/284/5 38/286/5 70/130/5
f 12/131/5 20/287/5 92/129/5
f 92/129/5 93/284/5 70/130/5
f 12/132/4 11/230/4 13/79/4
f 120/288/2 41/289/2 53/290/2
f 52/291/2 50/292/2 116/134/2
f 120/288/2 53/290/2 52/291/2
f 117/136/2 56/293/2 120/288/2
f 57/294/2 48/295/2 117/136/2
f 11/296/2 55/297/2 39/298/2
f 39/298/2 57/294/2 117/136/2
f 117/136/2 120/288/2 52/291/2
f 116/134/2 115/299/2 94/300/2
f 117/136/2 52/291/2 116/134/2
f 11/296/2 39/298/2 117/136/2
f 116/134/2 94/300/2 13/135/2
f 13/135/2 11/296/2 117/136/2
f 7/8/5 1/301/5 88/137/5
f 43/302/2 35/85/2 34/139/2
f 34/139/2 64/34/2 112/140/2
f 111/141/2 43/302/2 34/139/2
f 78/142/5 51/303/5 79/92/5
f 103/144/2 104/304/2 33/145/2
f 85/147/5 5/50/5 6/52/5
f 23/305/4 83/306/4 105/149/4
f 105/149/4 108/307/4 22/150/4
f 22/150/4 21/308/4 99/309/4
f 59/151/4 23/305/4 105/149/4
f 22/150/4 99/309/4 59/151/4
f 69/152/4 62/310/4 19/153/4
f 25/49/1 82/48/1 67/155/1
f 45/26/1 56/311/1 117/157/1
f 44/114/1 43/101/1 111/159/1
f 68/161/6 26/212/6 67/54/6
f 89/55/6 88/312/6 113/313/6
f 114/163/6 3/34/6 66/164/6
f 89/55/6 113/313/6 114/163/6
f 19/165/2 62/314/2 27/166/2
f 77/2/4 18/315/4 92/168/4
f 92/169/2 18/316/2 65/170/2
f 91/172/6 71/262/6 69/166/6
f 109/173/4 24/317/4 84/174/4
