# Blender 4.2.0
# www.blender.org
mtllib Untitled.013.mtl
o Untitled.013
v -27.078691 0.700000 4.030313
v -27.078691 1.200000 3.730314
v -27.078691 1.300000 3.730314
v -26.978691 1.200000 4.130314
v -26.978691 1.200000 4.030313
v -26.978691 1.300000 4.330314
v -26.878691 1.100000 4.030313
v -26.878691 1.200000 4.230314
v -26.878691 1.200000 3.730314
v -26.778692 0.100000 4.330314
v -26.778692 1.900000 4.330314
v -26.778692 1.900000 3.730314
v -26.778692 2.000000 3.730314
v -26.678692 1.300000 4.130314
v -26.478691 -0.000000 4.030314
v -26.478691 0.100000 4.130314
v -26.478691 0.300000 4.130314
v -26.478691 0.300000 4.030314
v -26.278692 1.200000 4.230314
v -26.178692 0.700000 4.130314
v -26.178692 1.100000 4.130314
v -26.878691 1.200000 4.130314
v -26.878691 1.300000 3.730314
v -26.678692 -0.000000 4.030314
v -26.678692 0.300000 4.130314
v -26.478691 1.300000 4.130314
v -26.378691 0.100000 4.130314
v -26.378691 1.900000 4.330314
v -26.278692 1.100000 4.130314
v -26.278692 1.100000 4.030313
v -26.278692 1.800000 3.730314
v -26.278692 1.800000 3.630314
v -26.178692 1.200000 4.130314
v -26.178692 1.200000 4.030313
v -26.178692 1.300000 4.330314
v -26.078691 1.100000 4.030313
v -26.878691 1.800000 4.330314
v -26.878691 1.900000 4.330314
v -26.778692 2.000000 4.330314
v -26.678692 0.000000 4.330314
v -26.478691 0.000000 4.330314
v -26.478691 0.100000 4.330314
v -26.378691 0.000000 4.330314
v -26.378691 0.100000 4.330314
v -26.278692 1.900000 4.330314
v -26.878691 0.300000 4.230314
v -26.078691 1.300000 4.230314
v -27.078691 0.700000 4.130314
v -27.078691 1.300000 4.130314
v -26.878691 1.100000 4.130314
v -26.878691 1.300000 4.130314
v -26.678692 1.200000 4.130314
v -26.278692 1.200000 4.130314
v -26.078691 0.700000 4.130314
v -26.078691 1.100000 4.130314
v -26.878691 1.100000 3.730314
v -26.278692 1.100000 3.730314
v -26.278692 1.300000 3.730314
v -26.978691 0.700000 4.030313
v -26.978691 1.100000 4.030313
v -26.878691 1.200000 4.030313
v -26.778692 -0.000000 4.030314
v -26.778692 0.300000 4.030314
v -26.678692 0.300000 4.030314
v -26.278692 1.200000 4.030313
v -26.678692 1.200000 3.930314
v -26.678692 1.300000 3.930314
v -26.478691 1.200000 3.930314
v -26.878691 0.300000 3.830314
v -26.278692 0.300000 3.830314
v -26.378691 1.900000 3.730314
v -26.378691 2.000000 3.730314
v -26.278692 1.200000 3.730314
v -26.278692 1.900000 3.730314
v -26.178692 1.300000 3.730314
v -26.278692 1.100000 3.630314
v -26.778692 0.000000 4.330314
v -26.378691 -0.000000 4.030314
v -26.278692 0.300000 4.230314
v -26.778692 0.300000 4.130314
v -26.378691 0.300000 4.130314
v -26.378691 0.300000 4.030314
v -26.978691 0.700000 4.130314
v -26.178692 0.700000 4.030313
v -26.078691 0.700000 4.030313
v -26.178692 1.100000 4.030313
v -26.878691 1.100000 3.630314
v -26.078691 1.200000 4.230314
v -27.078691 1.200000 4.130314
v -26.878691 1.200000 3.830314
v -26.278692 1.200000 3.830314
v -26.078691 1.200000 3.730314
v -26.278692 1.300000 4.230314
v -26.978691 1.300000 4.130314
v -26.478691 1.300000 3.930314
v -26.678692 0.100000 4.330314
v -26.778692 0.100000 4.130314
v -26.678692 0.100000 4.130314
v -27.078691 1.100000 4.130314
v -26.978691 1.100000 4.130314
v -27.078691 1.100000 4.030313
v -26.478691 1.200000 4.130314
v -26.178692 1.300000 4.230314
v -26.978691 1.300000 3.730314
v -26.078691 1.300000 3.730314
v -26.978691 1.800000 4.330314
v -26.278692 1.800000 4.330314
v -26.178692 1.800000 4.330314
v -26.978691 1.800000 3.730314
v -26.878691 1.800000 3.730314
v -26.178692 1.800000 3.730314
v -26.878691 1.800000 3.630314
v -26.878691 1.900000 3.730314
v -26.378691 2.000000 4.330314
vn -0.0000 -1.0000 -0.0000
vn -0.0000 -0.0000 -1.0000
vn -0.0000 1.0000 -0.0000
vn -0.0000 -0.0000 1.0000
vn -1.0000 -0.0000 -0.0000
vn 1.0000 -0.0000 -0.0000
vt 0.965517 0.758621
vt 0.931034 0.655172
vt 0.965517 0.655172
vt 0.241379 0.482759
vt 0.275862 0.448276
vt 0.206897 0.448276
vt 0.724138 0.965517
vt 0.689655 0.862069
vt 0.689655 0.965517
vt 0.758621 0.103448
vt 0.689655 0.103448
vt 0.689655 0.137931
vt 0.275862 0.000000
vt 0.206897 0.206897
vt 0.034483 0.172414
vt 0.827586 0.137931
vt 0.827586 0.172414
vt 0.862069 0.310345
vt 0.689655 0.241379
vt 0.482759 0.000000
vt 0.482759 0.241379
vt 0.896552 0.724138
vt 0.862069 0.862069
vt 0.862069 0.724138
vt 0.206897 0.827586
vt 0.275862 0.793103
vt 0.275862 0.827586
vt 0.793103 0.689655
vt 0.758621 0.724138
vt 0.793103 0.724138
vt 0.310345 0.931034
vt 0.275862 0.896552
vt 0.310345 0.896552
vt 0.965517 0.275862
vt 0.931034 0.172414
vt 0.931034 0.137931
vt 0.448276 0.862069
vt 0.586207 0.827586
vt 0.448276 0.827586
vt 0.344828 0.862069
vt 0.379310 0.896552
vt 0.379310 0.862069
vt 0.758621 0.689655
vt 0.758621 0.655172
vt 0.793103 0.620690
vt 0.758621 0.310345
vt 0.724138 0.241379
vt 0.689655 0.137931
vt 0.241379 0.275862
vt 0.275862 0.448276
vt 0.275862 0.241379
vt 0.931034 0.413793
vt 0.896552 0.620690
vt 0.931034 0.620690
vt 0.103448 0.931034
vt 0.137931 0.896552
vt 0.137931 0.931034
vt 0.724138 0.413793
vt 0.827586 0.448276
vt 0.758621 0.448276
vt 0.172414 0.931034
vt 0.724138 0.517241
vt 0.586207 0.724138
vt 0.724138 0.724138
vt 0.793103 0.241379
vt 0.758621 0.275862
vt 0.827586 0.137931
vt 0.172414 0.620690
vt 0.206897 0.551724
vt 0.206897 0.620690
vt 0.827586 0.620690
vt 0.793103 0.827586
vt 0.793103 0.620690
vt 0.896552 0.137931
vt 0.862069 0.137931
vt 0.896552 0.517241
vt 0.862069 0.724138
vt 0.896552 0.724138
vt 0.827586 0.310345
vt 0.862069 0.517241
vt 0.862069 0.310345
vt 0.517241 0.275862
vt 0.655172 0.275862
vt 0.068965 0.896552
vt 0.034483 0.965517
vt 0.034483 0.896552
vt 0.448276 0.862069
vt 0.241379 0.827586
vt 0.448276 0.827586
vt 0.931034 0.206897
vt 0.896552 0.413793
vt 0.931034 0.413793
vt 0.931034 0.000000
vt 0.965517 0.137931
vt 0.965517 0.000000
vt 0.586207 0.827586
vt 0.551724 0.827586
vt 0.517241 0.793103
vt 0.551724 0.862069
vt 0.517241 0.896552
vt 0.517241 0.862069
vt 0.172414 0.931034
vt 0.206897 0.896552
vt 0.206897 0.931034
vt 0.827586 0.517241
vt 0.862069 0.517241
vt 0.551724 0.896552
vt 0.724138 0.689655
vt 0.758621 0.689655
vt 0.000000 0.758621
vt 0.000000 0.724138
vt 0.172414 0.551724
vt 0.241379 0.931034
vt 0.206897 0.896552
vt 0.206897 0.931034
vt 0.965517 0.551724
vt 0.965517 0.413793
vt 0.034483 0.862069
vt 0.000000 0.862069
vt 0.758621 0.862069
vt 0.724138 0.931034
vt 0.758621 0.931034
vt 0.068965 0.931034
vt 0.103448 0.896552
vt 0.103448 0.931034
vt 0.965517 0.275862
vt 0.931034 0.275862
vt 0.206897 0.896552
vt 0.344828 0.896552
vt 0.827586 0.931035
vt 0.793103 0.827586
vt 0.793103 0.931035
vt 0.000000 0.896552
vt 0.551724 0.586207
vt 0.586207 0.517241
vt 0.275862 0.655172
vt 0.551724 0.448276
vt 0.724138 0.517241
vt 0.551724 0.310345
vt 0.931034 0.758621
vt 0.896552 0.896552
vt 0.931034 0.896552
vt 0.000000 0.793104
vt 0.206897 0.758621
vt 0.206897 0.793104
vt 0.551724 0.724138
vt 0.551724 0.758621
vt 0.275862 0.793103
vt 0.724138 0.793103
vt 0.655172 0.827586
vt 0.655172 0.793103
vt 0.310345 0.448276
vt 0.310345 0.310345
vt 0.379310 0.379310
vt 0.758621 0.344828
vt 0.827586 0.310345
vt 0.724138 0.310345
vt 0.241379 0.758621
vt 0.206897 0.793103
vt 0.241379 0.793103
vt 0.758621 0.551724
vt 0.724138 0.620690
vt 0.724138 0.517241
vt 0.965517 0.655172
vt 0.931034 0.551724
vt 0.931034 0.000000
vt 0.896552 0.206897
vt 0.931034 0.206897
vt 0.896552 0.862069
vt 0.862069 0.931034
vt 0.896552 0.931034
vt 0.827586 0.310345
vt 0.758621 0.275862
vt 0.758621 0.310345
vt 0.275862 0.517241
vt 0.448276 0.448276
vt 0.517241 0.482759
vt 0.724138 0.827586
vt 0.758621 0.827586
vt 0.586207 0.862069
vt 0.862069 0.724138
vt 0.827586 0.896552
vt 0.862069 0.896552
vt 0.827586 0.034483
vt 0.896552 0.137931
vt 0.896552 0.000000
vt 0.896552 0.310345
vt 0.862069 0.517241
vt 0.862069 0.310345
vt 0.275862 0.793103
vt 0.275862 0.758621
vt 0.275862 0.827586
vt 0.310345 0.827586
vt 0.517241 0.793103
vt 0.206897 0.862069
vt 0.379310 0.896552
vt 0.379310 0.862069
vt 0.758621 0.931034
vt 0.793103 0.862069
vt 0.793103 0.931034
vt 0.000000 0.241379
vt 0.206897 0.241379
vt 0.275862 0.310345
vt 0.896552 0.620690
vt 0.896552 0.758621
vt 0.275862 0.931034
vt 0.241379 0.896552
vt 0.275862 0.896552
vt 0.206897 0.689655
vt 0.275862 0.655172
vt 0.172414 0.655172
vt 0.931034 0.758621
vt 0.206897 0.655172
vt 0.241379 0.655172
vt 0.275862 0.482759
vt 0.724138 0.862069
vt 0.758621 0.034483
vt 0.000000 0.172414
vt 0.000000 0.000000
vt 0.275862 0.172414
vt 0.241379 0.172414
vt 0.241379 0.206897
vt 0.068966 0.241379
vt 0.068966 0.206897
vt 0.034483 0.206897
vt 0.827586 0.310345
vt 0.689655 0.000000
vt 0.896552 0.862069
vt 0.206897 0.793103
vt 0.275862 0.931034
vt 0.965517 0.137931
vt 0.931034 0.275862
vt 0.586207 0.862069
vt 0.793103 0.655172
vt 0.793103 0.689655
vt 0.724138 0.689655
vt 0.724138 0.655172
vt 0.758621 0.620690
vt 0.758621 0.137931
vt 0.689655 0.310345
vt 0.689655 0.275862
vt 0.724138 0.275862
vt 0.689655 0.241379
vt 0.689655 0.172414
vt 0.206897 0.275862
vt 0.241379 0.448276
vt 0.896552 0.413793
vt 0.758621 0.517241
vt 0.724138 0.517241
vt 0.827586 0.413793
vt 0.172414 0.896552
vt 0.586207 0.517241
vt 0.827586 0.172414
vt 0.827586 0.241379
vt 0.793103 0.275862
vt 0.758621 0.137931
vt 0.172414 0.551724
vt 0.827586 0.827586
vt 0.896552 0.310345
vt 0.862069 0.517241
vt 0.827586 0.517241
vt 0.517241 0.310345
vt 0.655172 0.310345
vt 0.689655 0.275862
vt 0.482759 0.275862
vt 0.068965 0.965517
vt 0.241379 0.862069
vt 0.931034 0.137931
vt 0.586207 0.793103
vt 0.517241 0.827586
vt 0.172414 0.896552
vt 0.827586 0.724138
vt 0.689655 0.896552
vt 0.172414 0.758621
vt 0.000000 0.551724
vt 0.931034 0.551724
vt 0.000000 0.827586
vt 0.724138 0.862069
vt 0.206897 0.862069
vt 0.827586 0.827586
vt 0.000000 0.965517
vt 0.586207 0.655172
vt 0.586207 0.620690
vt 0.551724 0.620690
vt 0.275862 0.517241
vt 0.586207 0.586207
vt 0.551724 0.517241
vt 0.724138 0.310345
vt 0.206897 0.827586
vt 0.000000 0.827586
vt 0.000000 0.758621
vt 0.275862 0.655172
vt 0.586207 0.655172
vt 0.586207 0.758621
vt 0.586207 0.793103
vt 0.586207 0.724138
vt 0.275862 0.448276
vt 0.517241 0.310345
vt 0.448276 0.379310
vt 0.379310 0.448276
vt 0.758621 0.413793
vt 0.827586 0.344828
vt 0.206897 0.758621
vt 0.827586 0.551724
vt 0.758621 0.620690
vt 0.931034 0.655172
vt 0.896552 0.000000
vt 0.862069 0.862069
vt 0.827586 0.275862
vt 0.551724 0.482759
vt 0.551724 0.517241
vt 0.758621 0.793103
vt 0.620690 0.793103
vt 0.620690 0.827586
vt 0.793103 0.862069
vt 0.827586 0.724138
vt 0.827586 0.103448
vt 0.689655 0.000000
vt 0.896552 0.517241
vt 0.275862 0.793103
vt 0.517241 0.827586
vt 0.000000 0.862069
vt 0.758621 0.862069
vt 0.000000 0.551724
vt 0.482759 0.310345
vt 0.931034 0.620690
vt 0.206897 0.758621
vt 0.275862 0.689655
s 0
usemtl Untitled.013_Material
f 40/1/1 62/2/1 24/3/1
f 75/4/2 92/5/2 73/6/2
f 64/7/2 62/8/2 63/9/2
f 52/10/3 22/11/3 8/12/3
f 35/13/4 28/14/4 37/15/4
f 73/16/5 91/17/5 93/18/5
f 32/19/2 87/20/2 112/21/2
f 83/22/4 99/23/4 48/24/4
f 14/25/4 102/26/4 26/27/4
f 36/28/3 21/29/3 55/30/3
f 54/31/1 84/32/1 85/33/1
f 51/34/6 90/35/6 9/36/6
f 48/37/5 101/38/5 1/39/5
f 60/40/5 4/41/5 5/42/5
f 94/43/4 4/44/4 50/45/4
f 88/46/1 34/47/1 73/48/1
f 104/49/2 110/50/2 9/51/2
f 12/52/3 38/53/3 11/54/3
f 53/55/4 21/56/4 33/57/4
f 24/58/6 25/59/6 98/60/6
f 34/61/2 30/56/2 65/57/2
f 72/62/3 39/63/3 114/64/3
f 5/65/1 89/66/1 9/67/1
f 17/68/4 27/69/4 81/70/4
f 72/71/6 28/72/6 71/73/6
f 105/74/6 88/18/6 92/75/6
f 111/76/3 107/77/3 108/78/3
f 110/79/5 38/80/5 113/81/5
f 12/82/2 71/83/2 110/21/2
f 95/84/6 102/85/6 68/86/6
f 57/87/1 87/88/1 76/89/1
f 110/90/3 106/91/3 37/92/3
f 2/93/5 49/94/5 3/95/5
f 47/96/4 103/97/4 19/98/4
f 34/99/6 21/100/6 86/101/6
f 10/102/4 40/103/4 96/104/4
f 12/105/5 39/24/5 13/106/5
f 36/8/6 54/107/6 85/99/6
f 21/29/1 30/108/1 86/109/1
f 35/110/6 103/111/6 111/112/6
f 61/113/2 60/114/2 5/115/2
f 84/92/2 36/116/2 85/117/2
f 32/88/6 73/118/6 57/119/6
f 27/120/3 42/121/3 44/122/3
f 42/123/4 43/124/4 44/125/4
f 54/126/4 21/92/4 20/127/4
f 83/128/6 60/40/6 100/129/6
f 82/130/2 15/131/2 18/132/2
f 66/133/5 14/85/5 67/86/5
f 7/134/5 90/135/5 46/136/5
f 94/137/5 106/138/5 104/139/5
f 104/140/3 49/141/3 94/142/3
f 9/143/4 57/144/4 73/145/4
f 30/146/6 29/147/6 79/148/6
f 18/149/1 25/150/1 64/151/1
f 51/152/1 23/153/1 67/154/1
f 16/155/5 18/156/5 15/157/5
f 60/158/3 99/159/3 100/160/3
f 27/161/6 43/162/6 78/163/6
f 43/164/1 15/165/1 78/116/1
f 74/166/3 28/167/3 45/168/3
f 98/169/3 10/170/3 96/171/3
f 95/172/2 66/173/2 67/174/2
f 6/175/1 26/176/1 93/177/1
f 17/178/1 81/179/1 46/180/1
f 105/181/3 103/182/3 47/183/3
f 68/184/3 19/185/3 91/186/3
f 74/187/6 107/188/6 31/189/6
f 50/190/1 60/158/1 7/191/1
f 56/192/5 9/193/5 112/194/5
f 32/195/3 110/133/3 31/114/3
f 20/196/5 86/101/5 84/197/5
f 80/198/4 98/199/4 25/200/4
f 69/201/2 91/69/2 70/202/2
f 79/20/4 8/203/4 46/13/4
f 60/140/2 1/204/2 101/205/2
f 83/206/1 1/207/1 59/208/1
f 97/209/5 63/210/5 62/211/5
f 40/1/1 77/212/1 62/2/1
f 73/6/2 31/213/2 111/214/2
f 75/4/2 105/215/2 92/5/2
f 73/6/2 111/214/2 75/4/2
f 64/7/2 24/216/2 62/8/2
f 52/10/3 66/217/3 22/11/3
f 106/218/4 6/219/4 35/13/4
f 35/13/4 108/220/4 107/221/4
f 107/221/4 45/222/4 28/14/4
f 28/14/4 114/202/4 39/223/4
f 11/224/4 38/225/4 37/15/4
f 28/14/4 39/223/4 11/224/4
f 35/13/4 107/221/4 28/14/4
f 37/15/4 106/218/4 35/13/4
f 28/14/4 11/224/4 37/15/4
f 93/18/5 58/75/5 73/16/5
f 91/17/5 19/226/5 93/18/5
f 32/19/2 76/227/2 87/20/2
f 83/22/4 100/228/4 99/23/4
f 14/25/4 52/229/4 102/26/4
f 36/28/3 86/109/3 21/29/3
f 54/31/1 20/230/1 84/32/1
f 9/36/6 23/231/6 51/34/6
f 51/34/6 22/232/6 90/35/6
f 48/37/5 99/233/5 101/38/5
f 60/40/5 100/129/5 4/41/5
f 22/234/4 51/235/4 94/43/4
f 94/43/4 49/236/4 89/237/4
f 4/44/4 100/238/4 50/45/4
f 94/43/4 89/237/4 4/44/4
f 50/45/4 22/234/4 94/43/4
f 73/48/1 92/239/1 88/46/1
f 88/46/1 19/240/1 53/241/1
f 88/46/1 53/241/1 33/242/1
f 34/47/1 65/243/1 91/244/1
f 88/46/1 33/242/1 34/47/1
f 34/47/1 91/244/1 73/48/1
f 9/51/2 2/202/2 3/245/2
f 104/49/2 109/246/2 110/50/2
f 9/51/2 3/245/2 104/49/2
f 12/52/3 113/247/3 38/53/3
f 53/55/4 29/124/4 21/56/4
f 96/248/6 40/249/6 24/58/6
f 24/58/6 64/250/6 25/59/6
f 98/60/6 96/248/6 24/58/6
f 34/61/2 86/251/2 30/56/2
f 72/62/3 13/252/3 39/63/3
f 90/253/1 61/254/1 5/65/1
f 5/65/1 4/255/1 89/66/1
f 89/66/1 2/256/1 9/67/1
f 9/67/1 90/253/1 5/65/1
f 17/68/4 16/257/4 27/69/4
f 72/71/6 114/258/6 28/72/6
f 105/74/6 47/259/6 88/18/6
f 111/76/3 31/260/3 107/77/3
f 110/79/5 37/261/5 38/80/5
f 12/82/2 13/262/2 72/263/2
f 71/83/2 74/264/2 31/19/2
f 12/82/2 72/263/2 71/83/2
f 110/21/2 113/265/2 12/82/2
f 71/83/2 31/19/2 110/21/2
f 95/84/6 26/266/6 102/85/6
f 57/87/1 56/267/1 87/88/1
f 110/90/3 109/167/3 106/91/3
f 2/93/5 89/268/5 49/94/5
f 19/98/4 88/269/4 47/96/4
f 103/97/4 93/270/4 19/98/4
f 34/99/6 33/107/6 21/100/6
f 10/102/4 77/271/4 40/103/4
f 12/105/5 11/272/5 39/24/5
f 36/8/6 55/273/6 54/107/6
f 21/29/1 29/64/1 30/108/1
f 111/112/6 108/274/6 35/110/6
f 103/111/6 75/275/6 111/112/6
f 61/113/2 7/207/2 60/114/2
f 84/92/2 86/276/2 36/116/2
f 57/119/6 76/277/6 32/88/6
f 32/88/6 31/267/6 73/118/6
f 27/120/3 16/278/3 42/121/3
f 42/123/4 41/84/4 43/124/4
f 54/126/4 55/117/4 21/92/4
f 83/128/6 59/279/6 60/40/6
f 82/130/2 78/280/2 15/131/2
f 66/133/5 52/281/5 14/85/5
f 46/136/5 8/282/5 22/283/5
f 46/136/5 22/283/5 50/284/5
f 90/135/5 69/285/5 46/136/5
f 7/134/5 61/286/5 90/135/5
f 46/136/5 50/284/5 7/134/5
f 94/137/5 6/287/5 106/138/5
f 106/138/5 109/288/5 104/139/5
f 104/140/3 3/205/3 49/141/3
f 58/289/4 23/290/4 9/143/4
f 9/143/4 56/291/4 57/144/4
f 73/145/4 58/289/4 9/143/4
f 79/148/6 70/292/6 91/293/6
f 91/293/6 65/63/6 30/146/6
f 29/147/6 53/294/6 19/295/6
f 79/148/6 91/293/6 30/146/6
f 29/147/6 19/295/6 79/148/6
f 69/296/1 70/30/1 18/149/1
f 18/149/1 17/178/1 25/150/1
f 64/151/1 69/296/1 18/149/1
f 6/175/1 94/297/1 51/152/1
f 58/298/1 93/177/1 95/299/1
f 67/154/1 14/300/1 6/175/1
f 58/298/1 95/299/1 67/154/1
f 67/154/1 6/175/1 51/152/1
f 23/153/1 58/298/1 67/154/1
f 15/157/5 41/58/5 42/301/5
f 16/155/5 17/302/5 18/156/5
f 15/157/5 42/301/5 16/155/5
f 60/158/3 101/303/3 99/159/3
f 78/163/6 82/105/6 81/304/6
f 27/161/6 44/305/6 43/162/6
f 78/163/6 81/304/6 27/161/6
f 43/164/1 41/306/1 15/165/1
f 74/166/3 71/307/3 28/167/3
f 98/169/3 97/308/3 10/170/3
f 95/172/2 68/309/2 66/173/2
f 103/310/1 35/311/1 6/175/1
f 6/175/1 14/300/1 26/176/1
f 26/176/1 95/299/1 93/177/1
f 93/177/1 103/310/1 6/175/1
f 82/312/1 18/149/1 70/30/1
f 69/296/1 64/151/1 63/313/1
f 69/296/1 63/313/1 80/314/1
f 82/312/1 70/30/1 79/315/1
f 81/179/1 82/312/1 79/315/1
f 46/180/1 69/296/1 80/314/1
f 46/180/1 80/314/1 25/150/1
f 81/179/1 79/315/1 46/180/1
f 46/180/1 25/150/1 17/178/1
f 105/181/3 75/316/3 103/182/3
f 102/317/3 52/10/3 8/12/3
f 90/318/3 22/11/3 66/217/3
f 90/318/3 66/217/3 68/184/3
f 102/317/3 8/12/3 19/185/3
f 91/186/3 90/318/3 68/184/3
f 68/184/3 102/317/3 19/185/3
f 74/187/6 45/319/6 107/188/6
f 50/190/1 100/160/1 60/158/1
f 112/194/5 87/320/5 56/192/5
f 9/193/5 110/321/5 112/194/5
f 32/195/3 112/322/3 110/133/3
f 20/196/5 21/100/5 86/101/5
f 80/198/4 97/323/4 98/199/4
f 69/201/2 90/324/2 91/69/2
f 79/20/4 19/325/4 8/203/4
f 60/140/2 59/326/2 1/204/2
f 83/206/1 48/113/1 1/207/1
f 62/211/5 77/274/5 10/327/5
f 97/209/5 80/328/5 63/210/5
f 62/211/5 10/327/5 97/209/5
